<?xml version="1.0" encoding="UTF-8" standalone="no"?>
<!DOCTYPE svg PUBLIC "-//W3C//DTD SVG 1.1//EN" "http://www.w3.org/Graphics/SVG/1.1/DTD/svg11.dtd">
<svg width="100%" height="100%" viewBox="0 0 1500 1500" version="1.1" xmlns="http://www.w3.org/2000/svg" xmlns:xlink="http://www.w3.org/1999/xlink" xml:space="preserve" xmlns:serif="http://www.serif.com/" style="fill-rule:evenodd;clip-rule:evenodd;stroke-linejoin:round;stroke-miterlimit:2;">
    <g id="Layer1">
    </g>
    <g transform="matrix(1.28164,0,0,1.28164,-178.671,-872.032)">
        <g id="Layer2">
            <path d="M551.968,1010.24C551.906,1010.28 551.843,1010.33 551.779,1010.38C551.089,1010.94 549.852,1012.26 548.651,1013.82C547.02,1015.94 545.459,1018.46 544.87,1019.32C542.834,1022.31 540.168,1025.75 537.395,1029.11C534.63,1032.45 531.757,1035.72 529.193,1038.28C524.01,1043.46 519.733,1049.57 515.989,1056.18C507.685,1070.84 502.023,1087.99 494.691,1102.64L480.219,1133.73C474.562,1145.03 466.684,1156.81 457.986,1168.42C445.183,1185.52 430.604,1202.26 418.626,1216.62C412.352,1224.15 406.256,1231.22 400.44,1238.58C396.542,1243.51 392.77,1248.58 389.154,1254C387.418,1256.6 383.754,1260.65 381.465,1264.31C380.167,1266.39 379.321,1268.38 379.232,1270C379.008,1269.66 378.578,1269.51 378.179,1269.64C377.17,1269.79 376.181,1270.02 375.19,1270.5C373.911,1271.12 372.767,1272.14 371.595,1273.19C367.545,1276.79 363.83,1281.95 360.437,1285.26C348.92,1296.7 341.321,1310.74 336.672,1326.03C332.157,1340.88 330.435,1356.9 330.441,1372.79C330.447,1374.6 330.644,1376.4 330.964,1378.18C332.188,1384.99 335.336,1391.49 335.362,1397.76C335.362,1398.23 335.546,1398.65 335.844,1398.97C297.594,1422.7 266.778,1460.54 247.875,1507.83C235.342,1539.09 231.3,1572.46 234.362,1605.3C237.117,1634.85 245.336,1664.11 258.857,1690.72C259.307,1691.61 285.965,1739.61 298.64,1753.57C312.564,1768.9 329.068,1781.85 351.254,1795.22C379.145,1811.91 404.776,1820.72 431.047,1822.39C457.068,1824.05 483.742,1818.71 513.908,1806.89C523.371,1803.18 532.709,1799.11 541.674,1794.36C550.678,1789.6 559.307,1784.16 567.312,1777.75C578.073,1769.16 588.126,1758.41 597.155,1746.8C606.128,1735.26 614.091,1722.87 620.729,1710.93C621.54,1709.47 622.327,1708.01 623.09,1706.55C624.096,1708.04 625.45,1709.54 625.884,1710.83C626.791,1713.53 626.949,1718.29 627.978,1722.06C628.536,1724.11 629.351,1725.88 630.538,1727.07C631.135,1727.66 632.032,1727.96 633.137,1727.91C635.168,1727.82 638.225,1726.28 639.391,1726.28C639.999,1726.28 641.307,1724.64 640.389,1723.81C640.362,1723.78 640.072,1722.17 640.072,1722.17C640.13,1721.64 640.195,1721.12 640.254,1720.6C640.811,1721.31 641.415,1721.99 642.05,1722.57C644.274,1724.61 646.848,1725.5 649.121,1724.13C651.537,1722.68 653.01,1720.97 653.561,1719.02C654.014,1719.14 654.514,1719.21 655.049,1719.23C657.419,1719.3 660.546,1718.33 661.743,1717.75C663.082,1717.08 663.837,1716.02 664.114,1714.7C665.953,1716.03 667.981,1716.46 670.083,1715.41C672.93,1713.99 674.086,1712.01 674.339,1709.8C676.095,1711.37 677.586,1712.32 679.167,1712.87C681.305,1713.61 683.639,1713.63 687.126,1713.25C688.329,1713.12 690.204,1712.76 691.817,1712.12C693.154,1711.6 694.303,1710.85 694.966,1709.97C696.534,1707.9 696.857,1704.99 696.452,1701.93C695.942,1698.07 694.309,1693.94 693.385,1691.43C692.582,1689.23 691.567,1687.26 690.439,1685.38C687.911,1681.17 684.774,1677.52 682.25,1673.01C680.844,1670.49 679.712,1667.86 678.235,1665.41C677.556,1664.28 676.805,1663.19 675.938,1662.16C673.366,1659.1 670.192,1656.45 667.383,1653.53C666.267,1652.37 665.212,1651.16 664.295,1649.86C662.257,1647.04 659.741,1644.3 657.531,1641.47C656.626,1640.31 655.773,1639.14 655.039,1637.93C654.103,1636.39 653.279,1634.42 652.229,1632.79C651.662,1631.91 651.036,1631.11 650.346,1630.47C649.35,1629.55 648.202,1627.21 647.076,1625.7C646.678,1625.17 646.294,1624.79 645.95,1624.5C645.529,1624.13 645.297,1623.99 645.135,1623.9C644.86,1623.76 644.661,1623.65 644.513,1623.57L644.514,1623.57C644.739,1618.77 644.845,1613.97 644.852,1609.16C644.859,1604.24 644.756,1599.32 644.527,1594.41C644.282,1589.13 643.892,1583.86 643.355,1578.6L643.332,1578.38C643.486,1578.41 643.651,1578.4 643.812,1578.35C648.627,1577.03 653.479,1575.99 658.316,1574.8C665.563,1573.02 672.779,1571.13 680.069,1569.52C686.793,1568.04 693.542,1566.65 700.29,1565.28C700.029,1565.6 699.788,1566.09 699.717,1566.8C699.606,1567.9 700.135,1569.71 700.118,1570.34L699.641,1580.33C699.64,1585.5 698.741,1591.38 698.997,1596.94C699.183,1600.97 699.97,1604.85 702,1608.23C703.619,1610.93 705.343,1614.1 707.178,1617.11C708.45,1619.19 709.775,1621.19 711.152,1622.91C712.449,1624.53 714.477,1626.83 716.538,1628.82C718.038,1630.26 719.561,1631.54 720.842,1632.31L723.011,1633.09C726.473,1637.7 730.211,1642.52 734.126,1647.22C738.021,1651.89 742.09,1656.45 746.23,1660.59L750.659,1666.66C752.36,1668.7 755.042,1670.21 757.042,1672C757.486,1672.39 757.892,1672.8 758.226,1673.25C760.606,1676.39 762.168,1680.06 764.506,1683.17C765.585,1684.6 766.819,1685.92 768.331,1687.03C772.511,1690.12 776.976,1688.95 780.545,1685.73C785.094,1681.61 788.006,1674.13 786.684,1669.29L789.879,1669.79C792.165,1669.81 793.807,1669.19 795.011,1668.09C796.173,1667.03 796.935,1665.47 797.37,1663.37C797.487,1662.8 797.548,1662.23 797.559,1661.66C798.325,1661.99 799.555,1662.48 800.961,1662.77C803.729,1663.35 806.935,1663.05 808.296,1661.74C808.961,1661.09 809.384,1660.07 809.541,1658.91C810.912,1658.94 812.924,1658.55 813.401,1658.28C814.946,1657.38 815.899,1656.56 816.574,1655.57C817.248,1654.57 817.635,1653.38 817.949,1651.65C818.194,1650.31 818.078,1649.04 817.701,1647.85C818.166,1647.71 818.742,1647.6 819.039,1647.47C820.477,1646.65 821.568,1646.71 822.489,1646.13C823.188,1645.69 823.835,1644.99 824.421,1643.59C825.3,1641.51 824.995,1639.08 824.064,1636.66C822.903,1633.64 820.749,1630.64 819.241,1628.56C818.211,1627.14 816.901,1625.86 815.451,1624.67C812.482,1622.22 808.893,1620.14 806.363,1617.57C803.969,1615.14 802.21,1612.24 800.094,1609.63C799.095,1608.41 798.021,1607.25 796.796,1606.21C791.807,1602.03 787.098,1597.78 783.067,1592.96C780.423,1589.79 778.066,1586.38 776.145,1582.56C774.164,1578.66 773.347,1574.17 773.032,1569.51C772.553,1562.42 773.235,1554.95 773.187,1548.44C780.182,1546.71 787.178,1544.97 794.175,1543.24C794.193,1543.3 794.208,1543.35 794.217,1543.4C794.634,1545.94 795.101,1548.46 795.701,1550.95C795.796,1551.38 796.016,1551.74 796.312,1552.02C796.371,1552.29 796.43,1552.55 796.489,1552.82C797.446,1557.11 798.886,1561.32 800.519,1565.43C804.133,1577.4 808.899,1588.81 814.213,1599.87C822.239,1616.56 832.276,1632.21 845.444,1646.49C853.432,1655.13 862.358,1662.35 871.934,1668.61C881.474,1674.84 891.659,1680.11 902.2,1684.9C942.493,1703.22 984.378,1706.67 1024.52,1698.76C1064.43,1690.9 1102.62,1671.79 1135.78,1644.88C1145.64,1636.88 1155.87,1628.1 1164.91,1618.45C1171.03,1611.92 1176.61,1605.01 1181.17,1597.67C1208.56,1553.79 1224.92,1497.76 1210.38,1449.09C1193.61,1392.91 1139.03,1320.27 1078.72,1312.49C1064.36,1310.63 1054.64,1305.97 1040.31,1304.81C1022.31,1303.37 1004.84,1304.43 987.653,1307.17C962.202,1311.21 937.391,1318.86 912.346,1326.84C912.673,1323.82 912.915,1320.82 912.817,1318.12C912.714,1315.27 912.265,1312.73 911.284,1310.75C907.364,1302.84 904.6,1293.68 902.416,1284.16C899.186,1270.08 897.249,1255.19 895.084,1242.18C892.411,1226.24 888.704,1209.58 884.051,1193.17C879.408,1176.8 873.824,1160.68 867.407,1145.77C865.1,1140.41 861.868,1135.23 859.109,1129.89C857.961,1127.67 856.897,1125.42 856.028,1123.11C853.482,1116.35 851.162,1109.44 848.254,1102.82C846.284,1098.34 844.045,1093.99 841.302,1089.89C840.09,1088.09 838.739,1086.45 837.319,1084.9C834.058,1081.34 830.428,1078.25 827.441,1074.55C826.735,1073.67 825.933,1072.99 825.077,1072.41C823.369,1071.24 821.416,1070.52 819.857,1068.97C819.237,1068.59 818.825,1068.26 818.591,1068.14C817.732,1067.72 817.247,1067.87 817.123,1068.09C817.041,1068.23 817.687,1070.53 817.919,1070.91C819.585,1072.59 821.654,1073.43 823.485,1074.71C824.118,1075.15 824.716,1075.66 825.235,1076.31C828.228,1080.08 831.868,1083.25 835.142,1086.88C836.453,1088.33 837.704,1089.86 838.82,1091.55C841.445,1095.51 843.574,1099.71 845.456,1104.04C848.317,1110.63 850.602,1117.49 853.109,1124.2C854.014,1126.63 855.12,1128.99 856.316,1131.33C859.024,1136.61 862.209,1141.73 864.471,1147.03C870.791,1161.83 876.274,1177.84 880.838,1194.08C885.415,1210.38 889.067,1226.92 891.687,1242.74C893.869,1255.82 895.777,1270.79 899.083,1284.93C901.369,1294.71 904.332,1304.08 908.423,1312.18C909.241,1313.8 909.581,1315.9 909.673,1318.24C910.048,1327.82 906.599,1341.07 909.206,1346.3C910.524,1348.96 911.361,1351.86 911.988,1354.87C913.485,1362.06 913.811,1369.86 916.064,1376.71C917.06,1379.74 918.711,1382.71 919.922,1385.77C920.401,1386.98 920.806,1388.2 921.05,1389.45C922.032,1394.41 921.071,1399.73 921.321,1404.89C921.389,1406.29 921.545,1407.68 921.827,1409.06C922.771,1413.65 923.519,1419.25 924.716,1424.31C925.273,1426.66 925.925,1428.91 926.731,1430.89C927.377,1432.46 929.356,1436.01 930.701,1437.4C929.554,1437.68 928.431,1437.91 927.346,1438.06C924.72,1438.4 921.222,1438.13 918.14,1438.43C916.564,1438.58 915.088,1438.88 913.844,1439.42C912.659,1439.93 911.526,1440.52 910.419,1441.16C907.943,1442.57 905.601,1444.18 903.058,1445.47C899.778,1447.12 896.843,1447.95 893.956,1449.32C892.665,1449.94 891.382,1450.66 890.085,1451.59C887.413,1453.51 884.375,1454.81 881.372,1456.13C881.281,1455.85 881.172,1455.56 881.046,1455.27C879.84,1452.5 876.843,1449.57 875.415,1446.71C873.537,1442.94 871.828,1438.9 870.217,1434.79C867.787,1428.58 865.58,1422.2 863.369,1416.29C861.469,1411.22 858.174,1406.43 855.844,1401.52C855.281,1400.33 854.778,1399.13 854.375,1397.92C852.546,1392.44 850.29,1387.25 847.825,1382.2C842.145,1370.56 835.356,1359.64 830.391,1347.25C827.389,1339.77 824.732,1332.15 822.254,1324.46C816.44,1306.41 811.606,1287.98 805.635,1270.14C801.803,1258.7 797.907,1247.03 793.699,1235.55C790.87,1227.83 787.901,1220.2 784.716,1212.8C782.824,1208.4 781.613,1203.94 779.71,1199.65C778.873,1197.77 777.906,1195.92 776.706,1194.12C775.912,1193.02 775.026,1189.17 773.877,1187.21C773.101,1185.88 772.155,1185.23 771.445,1185.32C771.118,1185.37 770.879,1185.39 770.788,1185.41C770.544,1185.47 767.939,1186.39 766.492,1187.19C763.678,1188.73 759.66,1192.64 758.255,1193.78C754.207,1197.14 750.658,1201.22 747.387,1205.58C742.627,1211.94 738.451,1218.9 734.06,1225.06C728.927,1232.25 724.445,1239.98 720.427,1247.98C714.445,1259.88 709.488,1272.39 704.905,1284.65C702.19,1291.92 697.808,1299.46 695.354,1307.06C694.614,1309.35 694.047,1311.64 693.737,1313.94L678.666,1309.15C677.46,1308.74 676.433,1307.94 675.269,1307.41C674.588,1307.1 673.874,1306.87 673.1,1306.76L661.229,1304.67C660.567,1304.56 659.889,1304.54 659.205,1304.59C659.179,1299.5 659.729,1294.64 660.671,1289.89C662.998,1278.16 667.454,1267.11 669.933,1254.76C672.087,1244.04 673.437,1232.81 675.754,1221.87C677.277,1214.67 679.22,1207.6 682.106,1200.88C686.523,1190.59 692.252,1180.46 698.838,1170.94C700.58,1168.42 715.358,1150 720.804,1144.56C728.12,1137.24 734.742,1130.31 741.737,1123.64C746.37,1119.23 751.149,1114.92 756.51,1110.79C758.155,1109.49 763.113,1103.91 765.497,1102.28C765.616,1102.2 767.167,1101.06 766.999,1100.69C770.021,1099.36 772.973,1097.85 775.823,1096.44C782.506,1093.1 789.31,1089.37 795.733,1085.15C802.265,1080.86 808.401,1076.08 813.663,1070.79C815.57,1068.87 818.047,1067.6 819.977,1065.92C820.414,1065.54 820.804,1065.12 821.17,1064.7C821.529,1064.68 821.888,1064.65 822.246,1064.62C824.058,1064.48 825.85,1064.25 827.637,1063.95C828.334,1063.82 830.05,1064.21 831.075,1063.85C831.727,1063.61 831.947,1060.96 831.786,1060.92L831.975,1054.62C831.951,1054.51 831.928,1054.39 831.904,1054.27C832.078,1054.22 832.242,1054.12 832.38,1053.99C832.846,1053.74 833.267,1053.54 833.668,1053.2C834.208,1052.73 834.574,1052.09 834.989,1051.49C837.418,1048 839.046,1043.61 841.857,1040.26C845.31,1036.14 848.829,1031.68 852.089,1027.04C855.366,1022.38 858.379,1017.53 860.82,1012.67C861.906,1010.5 862.848,1007.75 864.015,1005.33C864.485,1004.36 864.992,1003.45 865.574,1002.67C867.347,1000.29 868.89,997.678 870.253,994.955C872.25,990.964 873.869,986.736 875.354,982.698C877.935,975.623 881.991,968.929 885.178,961.965C885.997,960.176 886.762,958.37 887.431,956.536C888.901,952.53 890.306,948.523 891.868,944.597C892.907,941.985 894.017,939.41 895.256,936.895C897.922,931.544 899.952,926.051 901.692,920.482C904.291,912.162 906.234,903.669 908.649,895.208C909.308,892.9 910.081,889.924 910.572,887.026C910.913,885.008 911.113,883.027 911.095,881.335C911.068,880.595 910.748,878.294 910.59,876.708C910.802,876.492 910.902,876.177 910.83,875.861C910.638,875.045 910.441,874.446 910.248,874.026C911.87,873.921 913.486,873.848 915.09,873.812C915.404,874.082 918.281,870.731 918.357,870.455C918.867,868.593 919.774,866.772 920.249,864.886C921.299,860.713 922.267,856.357 923.164,851.94C924.486,845.433 925.656,838.794 926.726,832.42C930.064,812.115 934.431,784.581 929.853,761.069C926.661,744.681 919.153,730.242 904.21,721.371C901.181,719.562 897.535,718.19 893.704,717.096C888.222,715.53 882.361,714.53 877.48,713.564C875.403,713.153 873.202,713.118 870.949,713.279C866.198,713.617 861.198,714.849 856.715,714.858C838.298,714.89 819.611,719.114 801.616,725.98C801.451,725.27 798.913,724.358 798.327,724.054C797.149,723.443 795.955,722.686 794.914,722.178L787.132,718.904C785.565,718.248 783.966,717.738 782.355,717.278C778.757,716.249 775.085,715.532 771.517,714.326C768.241,713.219 765.007,711.923 761.689,710.9C759.402,710.195 757.076,709.621 754.674,709.31C746.15,708.216 738.022,708.279 729.958,709.181C721.963,710.076 714.037,711.797 705.836,713.878C701.991,714.875 697.489,715.464 693.343,716.498C691.42,716.978 689.571,717.549 687.886,718.287L683.9,720.935C678.951,723.101 674.016,725.034 669.121,727.204C667.017,728.136 664.92,729.109 662.834,730.167C661.14,731.018 659.574,732.04 658.065,733.134C654.679,735.59 651.607,738.451 648.08,740.635C644.695,742.726 641.458,745.2 638.48,747.975C635.524,750.729 632.827,753.777 630.44,756.972C627.924,760.385 624.222,762.627 621.416,765.723C620.654,766.565 619.95,767.463 619.342,768.453C617.17,771.996 614.231,775.005 611.766,778.326C610.653,779.826 609.632,781.386 608.805,783.076L605.511,787.93C605.368,788.12 604.235,790.08 604.171,790.095C604.05,790.124 603.94,790.176 603.845,790.245C603.533,790.015 603.083,789.826 602.915,789.711C602.62,789.509 601.966,789.311 601.162,789.274C600.167,789.229 598.869,789.358 598.432,789.461C595.93,790.098 592.979,792.464 590.09,793.5C589.108,793.852 588.138,794.058 587.196,793.761C586.283,793.472 585.161,792.063 584.086,791.608C583.455,791.341 582.832,791.261 582.238,791.419C581.13,791.714 580.312,792.14 579.643,792.641C578.207,793.717 577.667,795.25 575.752,796.241C575.05,796.6 573.913,795.846 572.929,795.711C572.458,795.646 572.01,795.643 571.606,795.727C570.435,795.962 569.623,796.491 568.974,797.15C567.838,798.303 567.544,800.151 565.862,800.803L562.541,800.829C561.477,800.99 560.395,801.505 559.383,802.203C558.052,803.12 556.845,804.369 555.985,805.411C555.438,806.074 555.312,806.893 555.571,807.799C555.96,809.164 557.818,810.905 558.158,811.745C558.602,812.834 559.171,813.447 559.82,813.881C560.563,814.377 561.473,814.539 562.528,815.116C563.695,815.749 565.245,817.192 566.605,818.771C567.941,820.323 569.139,821.988 569.367,823.296C569.498,824.095 569.402,824.737 569.096,825.266C568.321,826.606 566.618,827.329 565.108,828.284C563.262,829.451 561.635,830.865 561.186,833.201C560.925,834.535 561.09,835.603 561.48,836.534C562.268,838.417 564.249,839.619 565.437,841.636L563.288,845.547C562.927,846.592 562.996,847.64 563.277,848.683C563.734,850.379 565.011,852.033 565.23,853.631C565.473,854.816 564.382,855.501 564.232,856.339C564.121,856.959 564.087,857.391 564.39,857.914C564.395,858.07 564.44,858.215 564.514,858.341C563.992,858.531 563.474,858.733 562.96,858.946C558.026,860.991 553.484,864.072 549.189,868.372C547.351,870.19 544.842,872.637 542.946,875.283C541.553,877.228 540.499,879.289 540.165,881.282C539.358,886.265 537.259,890.981 535.937,895.864C535.591,897.14 535.296,898.427 535.085,899.732C534.93,900.686 534.871,901.687 534.866,902.708C534.855,904.89 535.098,907.17 535.106,909.238C535.103,914.113 535.366,918.962 536.09,923.723C536.823,928.535 538.03,933.258 539.962,937.82C540.658,939.465 541.56,940.952 542.597,942.334C546.487,947.514 552.37,951.135 555.314,957.019C555.748,957.854 556.078,958.699 556.299,959.575C556.519,960.452 556.637,961.356 556.651,962.306C556.66,962.395 556.416,965.366 556.215,965.622L553.894,968.529C553.436,969.142 552.847,969.643 552.213,970.109C550.489,971.379 548.407,972.344 546.809,973.59C545.718,974.459 544.746,976.094 544.016,977.971C543.079,980.38 542.495,983.175 542.31,984.809C542.16,986.127 542.223,987.508 542.418,988.889C542.69,990.825 543.223,992.764 543.743,994.511C544.67,997.621 545.574,1001.45 547.247,1004.69C548.4,1006.92 549.914,1008.88 551.968,1010.24ZM644.257,1628.16C643.528,1639.49 642.089,1650.4 639.722,1661.11C636.558,1675.41 631.738,1689.34 624.733,1703.34C624.822,1703.75 625.056,1704.18 625.321,1704.62C626.404,1706.43 628.125,1708.33 628.648,1709.91C629.558,1712.66 629.718,1717.48 630.747,1721.32C631.153,1722.83 631.68,1724.18 632.553,1725.05C632.9,1725.4 633.582,1725.04 634.332,1724.84C635.336,1724.59 636.318,1724.02 637.243,1723.73L637.283,1721.86C637.471,1720.2 637.733,1718.62 637.73,1717.02C637.73,1716.86 637.727,1716.69 637.719,1716.54C637.275,1715.61 636.974,1714.8 636.855,1714.2L635.246,1709.19C634.985,1708.51 635.308,1707.74 635.98,1707.44C636.653,1707.14 637.44,1707.42 637.772,1708.08L640.014,1713.32C640.277,1714.23 640.42,1715.12 640.481,1715.99C641.284,1717.52 642.514,1719.29 643.894,1720.57C645.129,1721.71 646.461,1722.57 647.729,1721.81C649.608,1720.68 650.794,1719.43 651.059,1717.87C651.105,1717.6 651.124,1717.33 651.115,1717.05C650.372,1715.71 649.902,1714.19 649.39,1712.71C648.899,1712.01 646.164,1708.45 645.547,1706.81C645.157,1705.77 645.459,1705.02 645.812,1704.66C646.684,1703.77 647.509,1703.9 648.308,1704.69C648.673,1705.05 649.03,1705.92 649.39,1706.58C649.549,1706.78 649.705,1707.02 649.856,1707.27C650.277,1707.81 650.632,1708.4 650.947,1709.02C651.433,1709.97 651.799,1711.02 652.172,1712.06C652.866,1713.23 653.328,1714.32 653.578,1715.36C653.693,1715.56 653.818,1715.76 653.951,1715.96C654.367,1716.56 655.488,1716.2 656.585,1716.02C658.09,1715.76 659.615,1715.23 660.307,1714.88C661.505,1714.27 661.094,1712.84 660.624,1711.35C660.513,1711 660.384,1710.64 660.24,1710.29C658.98,1708.36 658.01,1706.44 657.461,1705.48L654.83,1700.68C654.405,1699.9 654.692,1698.91 655.474,1698.48C656.256,1698.04 657.243,1698.32 657.689,1699.09L659.333,1701.92C659.814,1702.73 661.746,1705.6 663.029,1708.61C663.637,1709.53 664.319,1710.43 665.058,1711.18C666.132,1712.27 667.299,1713.12 668.608,1712.46C670.41,1711.56 671.072,1710.31 671.091,1708.87C671.128,1706.09 669.384,1702.89 668.484,1700.2C668.267,1699.55 667.745,1698.43 667.597,1697.45C667.479,1696.67 667.566,1695.95 667.858,1695.36C668.487,1694.1 669.463,1694.22 669.866,1694.3C670.268,1694.39 670.811,1694.64 671.113,1695.38C671.283,1695.79 671.195,1697.75 671.549,1698.45C672.345,1700.04 672.993,1702.29 673.902,1704.13C674.233,1704.8 674.594,1705.41 675.045,1705.86C677.105,1707.91 678.598,1709.11 680.267,1709.68C682.009,1710.28 683.913,1710.19 686.751,1709.87C687.583,1709.78 688.809,1709.55 689.964,1709.16C690.882,1708.86 691.786,1708.5 692.224,1707.91C693.281,1706.49 693.305,1704.49 693.009,1702.4C692.499,1698.82 690.89,1695.02 690.001,1692.7C689.25,1690.74 688.309,1688.98 687.27,1687.32C684.646,1683.12 681.417,1679.49 678.789,1674.98C677.555,1672.87 676.52,1670.66 675.299,1668.56C674.555,1667.29 673.737,1666.05 672.739,1664.9C670.167,1661.96 667.002,1659.45 664.206,1656.64C662.904,1655.33 661.682,1653.97 660.608,1652.49C658.636,1649.69 656.19,1646.97 654.049,1644.15C653.055,1642.85 652.122,1641.52 651.32,1640.16C650.526,1638.82 649.784,1637.18 648.969,1635.67C648.506,1634.81 648.046,1633.99 647.455,1633.36C646.505,1632.29 645.102,1630.11 644.257,1628.16ZM769.945,1549.24C758.315,1552.11 746.68,1554.97 735.035,1557.78C723.992,1560.45 712.847,1562.72 701.701,1564.99C701.825,1565.13 701.908,1565.3 701.932,1565.49C701.953,1565.52 701.975,1565.54 701.996,1565.57C702.112,1565.72 702.384,1565.85 702.594,1566.31C703.124,1567.47 703.219,1569.62 703.238,1570.34L702.764,1580.33C702.765,1585.46 701.866,1591.28 702.121,1596.79C702.284,1600.3 702.919,1603.68 704.684,1606.62C706.3,1609.32 708.02,1612.48 709.852,1615.47C711.052,1617.43 712.3,1619.33 713.6,1620.95C714.831,1622.49 716.758,1624.67 718.714,1626.56C720.022,1627.82 721.337,1628.95 722.454,1629.62C723.031,1629.97 723.98,1630.04 724.626,1630.43C724.976,1630.64 725.277,1630.9 725.515,1631.21C728.944,1635.79 732.647,1640.56 736.523,1645.22C740.352,1649.83 744.348,1654.32 748.418,1658.4C749.017,1659 749.55,1659.66 750.048,1660.36C751.064,1661.79 751.92,1663.36 753.023,1664.69C754.629,1666.62 757.193,1668.02 759.083,1669.72C759.681,1670.25 760.221,1670.81 760.671,1671.41C763.027,1674.58 764.57,1678.27 766.876,1681.4C767.775,1682.63 768.793,1683.77 770.06,1684.73C773.749,1687.54 777.745,1685.29 780.566,1681.79C783.494,1678.15 785.289,1673.04 784.175,1669.64C783.233,1666.88 781.364,1664.49 779.175,1662.31C775.704,1658.85 771.436,1655.9 768.398,1652.92C767.827,1652.35 767.827,1651.42 768.398,1650.85C768.97,1650.28 769.897,1650.28 770.468,1650.85C773.954,1654.4 779.098,1657.97 782.72,1662.29C783.845,1663.63 784.829,1665.04 785.591,1666.54C785.685,1666.46 785.855,1666.4 786.061,1666.36C786.285,1666.32 786.507,1666.43 786.588,1666.44L789.879,1666.79C791.222,1666.78 792.207,1666.49 792.903,1665.83C793.631,1665.14 794.016,1664.09 794.275,1662.75C794.67,1660.7 793.958,1658.64 792.892,1656.64C791.129,1653.33 788.347,1650.19 786.595,1647.58C786.066,1646.78 784.784,1646.35 784.138,1645.63C783.38,1644.78 782.961,1643.95 783.209,1643.09C783.209,1642.43 783.748,1641.89 784.411,1641.89C785.067,1641.89 786.098,1643 786.266,1643.1C787.334,1643.76 788.668,1644.7 789.359,1645.73C791.467,1648.92 795.006,1652.88 796.623,1656.97C796.925,1657.74 797.163,1658.51 797.324,1659.28C797.515,1659.3 798.171,1659.71 798.396,1659.75C798.77,1659.83 799.224,1659.76 799.748,1659.81C800.668,1659.91 801.75,1660.11 802.825,1660.16C804.188,1660.22 805.549,1660.26 806.171,1659.62C806.562,1659.23 806.592,1658.49 806.583,1657.78C806.572,1656.89 806.389,1655.98 806.106,1655.42C805.198,1653.62 803.756,1651.32 802.148,1649.16C800.562,1647.03 798.818,1645.04 797.254,1643.88C796.591,1643.38 792.805,1639.23 792.805,1638.57C792.805,1637.69 793.518,1636.98 794.396,1636.98C794.705,1636.98 795.313,1637.12 795.934,1637.7C796.828,1638.52 798.524,1640.88 799.146,1641.35C800.589,1642.44 802.185,1644.14 803.689,1646.05C805.778,1648.7 807.701,1651.76 808.836,1654.06C809.11,1654.61 809.34,1655.37 809.477,1656.21C810.45,1656.12 811.7,1656.14 812.002,1655.95C813.07,1655.29 813.762,1654.73 814.215,1654.02C814.677,1653.29 814.873,1652.41 815.062,1651.17C815.345,1649.29 814.504,1647.71 813.319,1646.28C811.201,1643.73 807.964,1641.67 806.024,1639.78C805.134,1638.89 803.621,1636.29 802.506,1634.8C802.388,1634.64 801.107,1633.61 801.107,1632.87C801.107,1632.11 801.722,1631.49 802.479,1631.49C803.205,1631.33 804.083,1631.69 804.986,1632.45C806.381,1633.64 807.566,1636.49 808.444,1637.36C810.752,1639.74 814.857,1642.47 816.814,1645.86C816.843,1645.91 816.871,1645.96 816.899,1646.01C817.216,1645.78 817.54,1645.55 817.776,1645.37C819.125,1644.51 820.182,1644.53 821.046,1643.94C821.387,1643.7 821.634,1643.29 821.903,1642.59C822.462,1641.11 822.052,1639.43 821.339,1637.77C820.173,1635.04 818.075,1632.38 816.623,1630.52C815.714,1629.35 814.554,1628.32 813.303,1627.33C810.179,1624.87 806.477,1622.72 803.825,1620.11C801.318,1617.63 799.444,1614.66 797.221,1612.01C796.355,1610.97 795.43,1609.99 794.373,1609.12C789.181,1604.82 784.265,1600.44 780.085,1595.45C777.246,1592.06 774.751,1588.38 772.707,1584.28C770.564,1579.91 769.659,1574.92 769.396,1569.73C769.047,1562.85 769.812,1555.63 769.945,1549.24ZM644.422,1625.38L644.427,1625.29C644.44,1625.29 644.453,1625.29 644.466,1625.29C644.549,1625.27 644.629,1625.24 644.703,1625.2C644.611,1625.31 644.526,1625.38 644.422,1625.38ZM877.442,1496.65C877.344,1497.43 876.755,1498.09 875.941,1498.25C856.755,1501.85 837.569,1505.44 818.441,1509.32C805.698,1511.91 792.981,1514.62 780.305,1517.54C765.424,1521 750.776,1525.27 735.961,1528.93C732.243,1529.85 728.516,1530.75 724.77,1531.56C719.04,1532.82 713.275,1533.94 707.491,1534.98C691.379,1537.88 675.139,1540.26 659.065,1543.28C657.002,1543.67 654.946,1544.09 652.88,1544.45C648.041,1545.29 643.206,1546.02 638.393,1546.98C638.319,1547 642.032,1566.49 643.149,1576.66C643.179,1576.65 643.21,1576.64 643.242,1576.63C647.638,1574.9 652.018,1573.2 656.519,1571.81C661.011,1570.42 665.593,1569.34 670.164,1568.24C691.388,1563.11 713.008,1559.55 734.232,1554.45C770.21,1545.81 806.122,1536.84 842.106,1528.14C857.468,1524.42 872.837,1520.73 888.244,1517.19C887.984,1515.51 887.555,1513.68 887.04,1511.87C885.898,1507.86 884.275,1503.95 882.796,1502.03C881.696,1500.65 880.184,1499.08 878.58,1497.64C878.205,1497.3 877.825,1496.96 877.442,1496.65ZM853.684,1489.35C853.684,1489.35 850.862,1499.35 867.434,1496.11C867.426,1495.82 867.452,1495.42 867.569,1494.9C867.79,1493.91 868.582,1492.78 869.506,1491.79C870.914,1490.28 872.97,1489.57 875.483,1490.14C877.279,1490.68 879.135,1491.69 880.806,1493.05C883.079,1494.91 885.002,1497.36 886.393,1499.33C888.047,1501.59 889.896,1506.1 891.115,1510.75C892.362,1515.52 892.931,1520.42 892.201,1523.23C891.708,1525.12 890.365,1528.94 888.278,1530.36C886.59,1531.51 884.381,1531.81 881.785,1529.13C880.735,1528.05 879.826,1527.01 879.333,1525.77C879.195,1525.42 878.779,1523.55 879.257,1523.07C879.4,1522.93 874.501,1523.97 871.876,1524.57C875.877,1528.45 879.847,1532.4 884.483,1535.99C887.527,1538.35 890.858,1540.56 894.724,1542.44C897.83,1543.98 900.718,1544.64 903.572,1544.93C908.368,1545.43 913.083,1544.94 918.49,1545.48C930.971,1546.73 944.255,1544.39 955.594,1538.66C966.855,1532.97 976.204,1523.92 980.838,1511.61C983.124,1505.56 983.696,1499.44 983.395,1493.33C982.923,1483.77 980.335,1474.22 978.519,1464.96C978.356,1464.12 977.921,1463.37 977.394,1462.65C975.767,1460.41 973.407,1458.4 972.415,1456.06C970.431,1451.36 966.467,1447.27 961.795,1444.12C957.077,1440.93 951.628,1438.71 946.651,1437.85C944.929,1437.56 943.114,1437.66 941.266,1437.96C936.686,1438.7 931.919,1440.54 927.719,1441.05C925.061,1441.37 921.527,1441.07 918.409,1441.34C917.154,1441.45 915.973,1441.65 914.981,1442.07L904.298,1447.95C900.981,1449.59 898.019,1450.39 895.101,1451.75C893.943,1452.29 892.792,1452.92 891.627,1453.75C888.576,1455.91 885.077,1457.3 881.674,1458.8C881.534,1459.57 878.211,1460.42 877.716,1460.69C875.886,1461.67 874.16,1462.8 872.66,1464.29C868.815,1468.16 863.936,1472.75 860.643,1477.93C858.501,1481.3 853.655,1485.53 853.684,1489.35ZM604.403,1414.68C603.806,1419.56 604.435,1424.92 604.012,1429.89C603.99,1430.15 603.965,1430.41 603.937,1430.67C603.955,1430.67 603.974,1430.67 603.993,1430.66C604.126,1430.65 604.263,1430.71 604.418,1430.76C605.701,1431.15 607.547,1432.25 608.449,1433.34C609.375,1434.47 610.522,1435.39 611.717,1436.29C613.594,1437.7 615.651,1438.96 617.668,1440.18C620.449,1441.86 623.18,1443.68 625.843,1445.59C628.497,1447.5 631.083,1449.5 633.594,1451.53C634.923,1452.61 636.608,1453.15 638.092,1454C638.91,1454.47 639.68,1455.01 640.355,1455.69C641.871,1457.22 643.554,1459.08 645.01,1461.03C646.025,1462.38 646.931,1463.79 647.607,1465.16C651.385,1472.82 651.928,1480.97 650.866,1489.19C649.346,1500.96 644.494,1512.89 641.307,1523.53L637.13,1534.75C636.967,1535.3 635.863,1537.25 635.753,1537.36C636.465,1539.97 637.136,1542.61 637.766,1545.27C637.821,1545.25 649.203,1541.82 654.955,1540.55C668.877,1537.46 683.058,1535.5 697.192,1533.34C697.048,1533.26 696.885,1533.24 696.766,1533.01C696.103,1531.7 695.847,1529.09 695.337,1528.09C694.7,1526.85 694.297,1525.25 694.044,1523.51C693.569,1520.24 693.635,1516.39 693.234,1513.75C692.852,1511.2 692.709,1508.41 692.724,1505.57C692.746,1501.45 693.107,1497.23 693.545,1493.52C693.852,1490.94 693.898,1488.28 693.819,1485.58C693.632,1479.14 692.735,1472.51 692.704,1466.32C692.699,1465.08 692.719,1463.83 692.778,1462.58C689.785,1462.38 686.442,1461.35 683.073,1459.94C677.948,1457.81 672.747,1454.81 668.705,1452.8C659.481,1448.24 650.097,1444.42 641.079,1439.88C634.981,1436.8 629.051,1433.4 623.442,1429.22C619.267,1426.11 614.868,1423.58 610.735,1420.66C609.667,1419.9 608.634,1419.1 607.608,1418.28C606.519,1417.31 605.032,1415.96 604.403,1414.68ZM775.885,1515.45C775.88,1515.4 775.877,1515.35 775.877,1515.31C775.756,1514.96 775.626,1514.68 775.578,1514.32C775.406,1513.04 775.75,1511.73 775.972,1510.44C776.973,1504.64 779.621,1498.87 780.29,1492.88C781.011,1486.41 781.076,1479.79 781.504,1473.26C781.693,1470.38 781.952,1467.52 782.36,1464.7C782.715,1462.25 782.161,1459.64 782.194,1457.14C782.204,1456.39 782.258,1455.64 782.381,1454.91L784.9,1433.87C784.997,1433.19 785.159,1432.56 785.37,1431.94C785.79,1430.72 786.409,1429.6 786.844,1428.36C787.218,1427.29 787.397,1426.01 787.488,1424.68C787.634,1422.56 787.56,1420.32 787.585,1418.48C787.622,1413.21 787.187,1408.29 785.805,1403.78C784.408,1399.23 782.042,1395.1 778.349,1391.42L775.624,1387.76C774.039,1386.71 772.312,1385.75 770.537,1384.92C768.738,1384.07 766.891,1383.34 765.093,1382.74C762.759,1381.96 760.035,1381.92 757.178,1382.15C752.966,1382.49 748.479,1383.44 744.424,1383.88C740.602,1384.28 736.688,1385.25 732.895,1386.58C729.077,1387.92 725.382,1389.63 722.027,1391.53C716.794,1394.49 710.384,1397.83 704.694,1401.74C700.893,1404.35 697.414,1407.21 694.856,1410.38C691.259,1414.86 686.848,1419.53 683.148,1424.51C680.706,1427.81 678.589,1431.24 677.193,1434.82C676.441,1436.82 675.889,1438.98 675.535,1441.18C675.18,1443.38 675.035,1445.6 675.083,1447.73C675.068,1448.72 675.731,1450.7 675.539,1452.26C675.52,1452.42 675.496,1452.57 675.467,1452.72C678.26,1454.21 681.282,1455.8 684.282,1457.08C687.315,1458.37 690.316,1459.36 693.007,1459.56C693.074,1458.93 693.155,1458.3 693.251,1457.68C693.693,1454.82 694.443,1452.02 695.349,1449.27C695.546,1448.71 695.558,1448.03 695.707,1447.45C695.896,1446.73 696.162,1446.24 696.368,1445.87C696.823,1445.06 697.09,1444.67 697.416,1444.74C697.906,1444.64 698.387,1444.96 698.488,1445.45C698.573,1445.86 698.357,1446.27 697.988,1446.45C698.114,1446.42 698.237,1446.4 698.276,1446.25C698.284,1446.22 698.362,1446.18 698.43,1446.14C698.439,1446.12 698.462,1446.1 698.502,1446.09C698.575,1446.07 698.509,1446.1 698.43,1446.14C698.365,1446.31 698.872,1446.81 698.975,1447.32C699.159,1448.22 699.017,1449.33 698.84,1450.27C698.053,1453.41 697.617,1456.63 697.317,1459.86C697.118,1462.01 696.957,1464.16 696.949,1466.32C696.917,1472.47 697.75,1479.08 697.867,1485.48C697.92,1488.38 697.831,1491.24 697.469,1494.01C696.996,1497.58 696.589,1501.65 696.511,1505.62C696.459,1508.26 696.55,1510.86 696.872,1513.23C697.228,1515.89 697.101,1519.75 697.517,1523.04C697.686,1524.37 697.931,1525.6 698.398,1526.56C698.925,1527.64 699.69,1530.1 699.953,1531.9C700,1532.21 700.122,1532.52 700.043,1532.77C700.027,1532.82 700.011,1532.87 699.995,1532.91C708.083,1531.65 716.148,1530.3 724.132,1528.6C729.718,1527.41 735.266,1526.08 740.791,1524.67C752.505,1521.66 764.128,1518.32 775.885,1515.45ZM603.404,1433.88C603.378,1433.99 603.35,1434.11 603.322,1434.22C602.354,1438.08 601.46,1442.46 600.805,1446.86C600.149,1451.27 599.733,1455.69 599.731,1459.62C599.731,1460.07 599.546,1460.48 599.248,1460.77C605.827,1469.98 611.711,1479.53 616.907,1489.41C624.038,1502.97 629.84,1517.2 634.272,1532.15L638.14,1522.58C641.288,1512.1 646.175,1500.38 647.616,1488.78C648.555,1481.22 647.999,1473.73 644.457,1466.74C643.857,1465.55 643.051,1464.35 642.157,1463.19C640.781,1461.39 639.192,1459.69 637.764,1458.28C637.322,1457.84 636.811,1457.51 636.278,1457.21C634.608,1456.29 632.745,1455.65 631.245,1454.47C628.766,1452.51 626.21,1450.59 623.596,1448.76C620.996,1446.93 618.339,1445.18 615.63,1443.58C613.47,1442.28 611.208,1441.01 609.264,1439.42C607.848,1438.27 606.606,1436.95 605.593,1435.48C605.152,1434.83 604.119,1434.34 603.404,1433.88ZM771.188,1187.43C770.532,1187.23 768.368,1189.37 768.148,1189.54C765.642,1191.42 761.661,1195.11 760.325,1196.26C756.473,1199.48 753.114,1203.38 749.997,1207.54C745.252,1213.87 741.071,1220.8 736.685,1226.93C731.635,1233.99 727.23,1241.57 723.271,1249.41C717.32,1261.2 712.381,1273.6 707.811,1285.74C705.095,1292.96 700.711,1300.45 698.254,1308C697.461,1310.43 696.872,1312.87 696.626,1315.31C696.799,1315.42 696.968,1315.53 697.129,1315.64C697.145,1315.65 697.161,1315.66 697.176,1315.67C697.443,1315.65 697.585,1315.55 697.917,1315.57C699.681,1315.71 701.914,1318.23 702.411,1319.1C703.093,1320.38 704.138,1321.55 705.295,1322.73C708.002,1325.48 711.46,1328.12 714.092,1330.78L719.897,1338.35C722.642,1341.13 725.534,1343.93 728.531,1346.71C740.584,1357.88 754.096,1368.9 764.373,1379.18C764.448,1379.26 764.512,1379.34 764.567,1379.42C765.079,1379.53 765.578,1379.67 766.063,1379.83C767.973,1380.47 769.934,1381.25 771.843,1382.16C773.747,1383.07 775.6,1384.11 777.301,1385.24C777.841,1385.61 778.301,1386.09 778.706,1386.65C779.332,1387.51 779.782,1388.6 780.472,1389.29C784.516,1393.35 787.056,1397.91 788.616,1402.91C790.106,1407.69 790.699,1412.88 790.738,1418.48C790.764,1420.37 790.9,1422.67 790.813,1424.86C790.747,1426.52 790.545,1428.11 790.119,1429.45L788.434,1434.37L785.965,1455.51L785.986,1465.22C785.6,1467.95 785.362,1470.72 785.185,1473.5C784.765,1480.09 784.695,1486.77 783.973,1493.29C783.382,1498.63 781.327,1503.81 780.082,1508.97C779.674,1510.66 779.54,1512.38 779.23,1514.05C779.188,1514.28 779.121,1514.48 779.051,1514.69C779.236,1514.65 779.422,1514.6 779.609,1514.56C783.979,1513.53 788.354,1512.52 792.734,1511.53C792.71,1511.17 792.694,1510.8 792.704,1510.43C792.8,1506.89 793.437,1503.38 793.835,1499.87C794.336,1495.43 794.934,1491.01 795.84,1486.61C796.721,1482.27 797.88,1478.02 799.159,1473.81C801.063,1467.53 803.25,1461.34 805.35,1455.12C810.489,1439.63 816.701,1424.38 824.875,1410.28C829.794,1401.8 835.428,1393.74 841.911,1386.28C842.556,1385.54 844.385,1383.85 844.46,1383.8C838.753,1372.09 831.965,1361.08 826.99,1348.61C823.974,1341.05 821.306,1333.34 818.821,1325.56C813.052,1307.51 808.267,1289.08 802.343,1271.24C798.556,1259.82 794.708,1248.16 790.547,1236.69C787.763,1229.03 784.839,1221.45 781.7,1214.09C779.827,1209.7 778.634,1205.24 776.748,1200.96C775.99,1199.24 775.117,1197.55 774.026,1195.91C773.397,1194.91 772.598,1192.1 771.928,1189.79C771.676,1188.92 771.242,1187.44 771.188,1187.43ZM646.047,1072.4L638.934,1067.51C630.857,1060.62 623.695,1053.19 617.613,1045.05C611.455,1036.8 606.405,1027.82 602.648,1017.89C601.812,1015.68 600.897,1013.3 599.833,1011.03C599.131,1009.54 598.366,1008.1 597.503,1006.81C596.956,1005.97 594.809,1004.29 594.036,1002.96C593.759,1002.48 593.611,1002.03 593.579,1001.64C591.824,1003.58 589.873,1005.32 587.821,1007.16C583.074,1011.38 576.95,1013.86 570.666,1014.46C564.896,1015.01 559.005,1013.97 553.936,1011.36C553.916,1011.46 553.889,1011.55 553.853,1011.66C553.736,1012.11 553.293,1012.4 552.838,1012.33C552.336,1013.06 551.685,1014.21 550.932,1015.41C549.523,1017.65 547.878,1020.08 547.314,1020.95C545.289,1024.05 542.661,1027.65 539.856,1031.12C537.055,1034.58 534.077,1037.9 531.449,1040.54C526.473,1045.52 522.378,1051.4 518.786,1057.76C510.523,1072.39 504.904,1089.49 497.61,1104.1L483.169,1135.21C477.442,1146.68 469.473,1158.63 460.66,1170.42C447.836,1187.58 433.225,1204.38 421.223,1218.79C414.974,1226.29 408.9,1233.34 403.108,1240.68C399.268,1245.55 395.553,1250.55 391.993,1255.89C390.272,1258.47 386.633,1262.49 384.364,1266.12C383.397,1267.67 382.647,1269.1 382.647,1270.28C382.647,1270.63 382.54,1270.96 382.357,1271.23C383.432,1272.37 384.75,1274.13 385.538,1274.87C387.386,1276.63 390.115,1278.5 392.843,1280.07C394.687,1281.13 396.526,1282.05 398.15,1282.59C400.581,1283.4 402.723,1284.81 404.683,1286.56C408.666,1290.11 411.865,1295.14 415.514,1298.78C416.977,1300.24 419.011,1301.75 421.273,1303.28C426.273,1306.66 432.362,1310.08 436.349,1313.07C437.424,1313.87 438.87,1314.15 440.443,1314.27C444.72,1314.59 449.842,1313.66 453.222,1314.51C460.246,1316.27 467.241,1318.65 474.353,1320.63C477.332,1321.46 480.331,1322.22 483.363,1322.82C494.71,1325.1 506.464,1323.25 516.79,1326.23C520.638,1327.34 524.297,1329.09 527.685,1331.89C529.043,1305.33 530.613,1278.8 530.623,1252.06C530.627,1242.32 530.261,1232.75 530.883,1223.28C531.305,1216.86 532.179,1210.49 533.913,1204.14C534.465,1202.12 534.756,1200.14 534.918,1198.16C535.167,1195.11 535.107,1192.04 535.123,1188.78C535.174,1187.92 535.375,1184.16 535.495,1182.65C535.508,1182.49 535.537,1182.35 535.579,1182.22C535.574,1182.19 535.571,1182.16 535.569,1182.12C535.547,1181.96 535.716,1181.79 535.96,1181.69C536.524,1181.29 537.394,1181.65 537.381,1182.04C537.386,1182.12 537.377,1182.21 537.354,1182.29C537.389,1182.4 537.411,1182.53 537.421,1182.67C537.514,1184.18 537.722,1187.92 537.772,1188.78C537.789,1192.11 537.89,1195.25 537.652,1198.38C537.488,1200.53 537.161,1202.67 536.564,1204.86C534.883,1211.03 534.044,1217.22 533.639,1223.45C533.027,1232.87 533.402,1242.38 533.406,1252.06C533.409,1261.48 533.22,1270.87 532.914,1280.25C531.692,1317.76 528.608,1355.03 528.623,1392.71C528.623,1392.74 528.622,1392.76 528.621,1392.79C531.592,1394.25 534.477,1395.89 537.248,1397.77C537.859,1398.18 550.423,1408.98 556.374,1413.95C559.228,1416.33 561.943,1418.83 564.613,1421.34C576.589,1432.6 587.226,1444.5 596.543,1457.06C596.674,1453.66 597.051,1450.02 597.589,1446.38C598.255,1441.88 599.167,1437.39 600.156,1433.43C600.617,1431.58 600.801,1429.63 600.871,1427.63C601.042,1422.75 600.558,1417.63 601.328,1413L607.77,1378.28C608.339,1375.43 608.69,1372.53 608.906,1369.59C609.783,1357.7 608.49,1345.32 610.154,1333.63C611.709,1322.73 613.668,1311.71 615.243,1300.67C615.914,1295.96 616.515,1291.25 616.985,1286.55C617.322,1283.16 617.53,1279.76 617.66,1276.35C618.182,1262.63 617.446,1248.73 618.591,1234.99C619.392,1225.41 619.858,1215.9 620.169,1206.41C620.639,1192.09 620.732,1177.81 620.794,1163.39C620.857,1156.14 619.634,1149.05 619.181,1141.89C619.065,1140.06 618.996,1138.23 619.011,1136.39C619.038,1135.25 618.883,1131.06 619.469,1128.86C619.904,1127.23 622.009,1128.54 621.675,1128.61C623.251,1129.32 621.497,1135.18 621.545,1136.39C621.607,1143.6 622.962,1150.68 623.536,1157.87C623.682,1159.7 623.777,1161.54 623.793,1163.39C623.853,1175.42 623.939,1187.37 623.717,1199.32C623.495,1211.27 622.965,1223.22 621.965,1235.27C620.823,1248.96 621.566,1262.81 621.042,1276.48C620.909,1279.96 620.693,1283.43 620.347,1286.88C619.871,1291.64 619.262,1296.39 618.581,1301.14C617.974,1305.38 617.311,1309.62 616.635,1313.85C617.679,1313.09 618.667,1312.5 619.071,1312.38L624.759,1311.69C627.891,1310.64 631.092,1309.36 634.329,1308.31C636.587,1307.58 638.862,1306.95 641.142,1306.57L655.147,1305.3C655.333,1305.27 655.522,1305.23 655.713,1305.19C655.708,1305.14 655.706,1305.09 655.706,1305.03C655.77,1299.55 656.528,1294.35 657.595,1289.27C660.05,1277.57 664.342,1266.48 666.802,1254.14C668.941,1243.39 670.277,1232.16 672.579,1221.2C674.136,1213.79 676.132,1206.51 679.093,1199.59C683.578,1189.1 689.397,1178.76 696.095,1169.05C697.859,1166.49 699.683,1163.97 701.561,1161.51C701.39,1159.77 700.086,1157.07 698.504,1154.24C696.009,1149.79 692.687,1145.12 690.892,1143.32C689.911,1142.34 689.032,1141.19 688.216,1139.97C686.528,1137.43 685.113,1134.53 683.437,1132.18C678.451,1125.17 671.981,1119.16 666.432,1112.6C664.988,1110.89 663.605,1109.15 662.322,1107.35C660.229,1104.41 658.551,1101.01 656.648,1097.87C655.867,1096.58 655.048,1095.33 654.135,1094.18C651.757,1091.17 648.924,1086.97 647.267,1082.61C646.334,1080.15 645.71,1077.65 645.792,1075.3C645.801,1075.04 645.6,1072.86 646.047,1072.4ZM661.085,1308.63C661.085,1308.63 661.085,1308.64 661.085,1308.64C661.085,1309.15 659.309,1310.08 659.222,1310.67C659.016,1312.05 659.456,1313.88 659.626,1314.71C659.939,1316.26 660.631,1317.56 661.474,1318.78C662.845,1320.76 664.602,1322.52 665.979,1324.57C666.457,1325.29 666.809,1326.26 667.064,1327.35C667.548,1329.4 667.701,1331.89 668.019,1333.47C668.194,1334.34 668.374,1335.14 668.599,1335.94C668.819,1336.71 669.082,1337.47 669.427,1338.27L670.423,1340.25C670.56,1340.49 670.905,1341.08 670.965,1341.25C671.368,1342.37 670.359,1342.66 669.945,1342.64C669.846,1342.63 669.566,1342.62 669.249,1342.3C668.649,1341.71 668.187,1341.01 667.802,1340.27C667.031,1338.78 666.604,1337.06 665.758,1335.65C664.904,1334.22 663.71,1332.77 662.406,1331.42C661.089,1330.06 659.658,1328.8 658.318,1327.78C657.24,1326.96 654.82,1326.95 653.411,1326.22C652.784,1325.89 652.305,1325.46 652.034,1324.9C651.854,1324.54 651.735,1324.14 651.66,1323.74C651.444,1322.54 651.703,1321.18 651.228,1320.04C650.645,1318.63 650.047,1317.48 649.557,1316.19C649.234,1315.35 648.955,1314.44 648.756,1313.38C648.62,1312.63 647.979,1311.04 647.904,1309.87L641.782,1310.41C639.686,1310.75 637.595,1311.33 635.517,1311.99C632.288,1313.03 629.093,1314.29 625.968,1315.32C625.254,1315.56 624.517,1315.68 623.766,1315.73C622.502,1315.8 621.196,1315.6 619.947,1315.88C619.483,1315.99 617.103,1317.15 616.363,1317.98C616.378,1318.11 616.389,1318.24 616.396,1318.37C616.441,1319.16 616.006,1320.77 616.481,1320.6C616.491,1320.6 616.495,1320.59 616.493,1320.58L616.406,1320.49C616.427,1320.51 616.49,1320.56 616.493,1320.58C616.946,1321.04 617.312,1321.54 617.62,1322.08C618.759,1324.03 618.967,1326.44 620.478,1328.23L625.597,1334.03C627.043,1335.49 628.607,1336 629.872,1337.1C630.745,1337.85 631.507,1338.85 632.038,1340.47C632.241,1341.09 632.369,1341.74 632.45,1342.41C632.73,1344.71 632.386,1347.27 632.885,1349.53C633.451,1352.05 634.823,1354.24 635.751,1356.6C636.181,1357.7 636.522,1358.83 636.676,1360.03C636.778,1360.83 636.798,1361.63 636.767,1362.44C636.656,1365.36 635.84,1368.39 636.096,1371.33C636.357,1374.03 637.686,1376.83 638.256,1379.5C638.372,1380.05 638.458,1380.59 638.504,1381.12C638.75,1381.18 638.826,1381.29 638.526,1381.42C638.535,1381.56 638.54,1381.7 638.542,1381.84C638.55,1382.36 638.311,1382.6 638.244,1382.67C637.926,1383.03 637.546,1383.09 637.152,1383C637.01,1382.97 636.587,1382.85 636.358,1382.29C636.276,1382.1 636.096,1381.31 635.971,1381L634.622,1378.7L629.638,1371.84C628.446,1370.13 627.194,1368.43 626.306,1366.57C625.677,1365.25 625.227,1363.86 625.078,1362.34C624.746,1358.93 625.178,1356.05 624.787,1353.29C624.548,1351.61 623.976,1349.98 622.636,1348.3C621.079,1346.31 618.766,1344.55 616.925,1342.56C616.05,1341.61 615.275,1340.62 614.707,1339.53C614.453,1339.05 613.636,1338.15 613.084,1337.36C612.034,1348 613.022,1359.12 612.222,1369.84C611.993,1372.91 611.621,1375.95 611.022,1378.93L610.705,1380.63C610.741,1380.66 610.776,1380.69 610.809,1380.73C611.001,1380.83 611.194,1380.89 611.381,1381.03C611.99,1381.48 612.518,1382.15 613.136,1382.8C614.718,1384.45 616.436,1386.43 617.916,1388.42C619.549,1390.61 620.86,1392.84 621.208,1394.84C621.397,1395.84 621.319,1396.72 621.103,1397.55C620.636,1399.34 619.424,1400.84 619.097,1402.8C618.891,1404.05 618.734,1405.36 618.66,1406.68C618.587,1407.98 618.597,1409.28 618.719,1410.55C618.757,1410.94 618.942,1411.43 619.157,1411.91C619.636,1412.97 620.301,1413.98 620.301,1413.98C620.493,1414.28 620.437,1414.67 620.171,1414.9C619.904,1415.13 619.509,1415.13 619.244,1414.9C619.244,1414.9 618.626,1414.37 618.097,1413.78C617.805,1413.45 617.542,1413.11 617.394,1412.81L613.617,1407.24C612.922,1406.05 612.548,1404.81 612.338,1403.55C611.879,1400.8 612.274,1397.93 611.561,1395.18C611.351,1394.36 609.689,1392.71 608.677,1391.51L605.005,1411.19C605.241,1411.15 605.494,1411.2 605.702,1411.36C606.105,1411.65 606.191,1412.22 605.894,1412.62L609.702,1415.49L625.615,1426.32C631.028,1430.41 636.761,1433.75 642.655,1436.78C645.1,1438.04 647.573,1439.24 650.063,1440.42C650.073,1439.74 650.105,1439.14 650.105,1438.97C650.112,1437.51 650.178,1434.64 649.968,1432.08C649.829,1430.4 649.619,1428.85 649.097,1428.1C646.632,1424.54 642.251,1421.82 639.567,1418.24C638.278,1416.52 637.355,1414.62 637.116,1412.39C637.001,1411.3 636.995,1410.23 637.046,1409.17C637.159,1406.82 637.56,1404.5 637.57,1402.06C637.578,1401.38 637.321,1399.98 637.306,1399.03C637.3,1398.68 637.354,1398.41 637.376,1398.23C637.376,1398.23 639.114,1396.97 639.283,1397.11C639.557,1397.23 639.627,1397.78 639.627,1397.78C639.627,1397.78 639.755,1397.95 639.813,1398.11C640.281,1399.42 641.229,1402.76 641.636,1403.51C642.391,1404.94 643.831,1406.5 645.422,1407.89C647.029,1409.3 648.801,1410.53 650.26,1411.23C651.103,1411.65 652.443,1412.15 653.465,1412.8C654.068,1413.19 654.569,1413.64 654.894,1414.12C655.816,1415.51 656.375,1416.98 656.735,1418.49C657.509,1421.75 657.293,1425.23 658.334,1428.39C658.833,1429.91 659.65,1430.7 660.404,1431.47C661.151,1432.23 661.849,1432.98 662.324,1434.08C662.694,1434.94 662.938,1436.02 662.93,1437.51C662.927,1438.1 662.806,1440.25 662.9,1442.31C662.953,1443.46 663.075,1444.59 663.333,1445.34C663.384,1445.49 663.399,1445.77 663.481,1445.74C663.442,1445.77 664.166,1446.22 664.166,1446.69C664.166,1446.79 664.15,1446.88 664.121,1446.96C666.135,1447.92 668.148,1448.9 670.152,1449.91C670.851,1450.26 671.585,1450.64 672.348,1451.05C672.156,1449.78 671.948,1448.48 671.937,1447.73C671.989,1445.43 672.259,1443.03 672.744,1440.67C673.229,1438.31 673.916,1436 674.817,1433.87C676.353,1430.13 678.667,1426.56 681.266,1423.11C682.376,1421.63 683.54,1420.18 684.721,1418.75C684.759,1416.63 685.361,1413.52 685.342,1410.88C685.333,1409.73 685.213,1408.68 684.814,1407.88C683.63,1405.51 680.388,1403.1 678.642,1400.56C678.084,1399.76 677.666,1398.93 677.461,1398.1C677.289,1397.41 677.249,1396.67 677.3,1395.91C677.46,1393.51 678.61,1390.81 678.323,1388.4C678.239,1387.68 678.057,1386.92 677.829,1386.16C677.282,1384.34 676.472,1382.47 675.944,1380.82C675.637,1379.76 674.465,1377.99 674.165,1377.25C673.803,1376.35 674.114,1375.52 674.101,1375.39C674.077,1375.14 674.114,1374.6 674.878,1374.59C675.182,1374.56 675.454,1374.78 675.486,1375.09L675.487,1375.11C676.167,1375.45 677.299,1375.94 677.663,1376.37C678.965,1378.06 680.914,1379.35 682.504,1380.87C683.266,1381.6 683.946,1382.39 684.474,1383.26C685.081,1384.27 685.797,1385.43 686.411,1386.61C686.842,1387.44 687.223,1388.27 687.49,1389.06C687.635,1389.49 687.684,1389.98 687.667,1390.5C687.624,1391.86 686.926,1393.52 687.456,1394.57C687.85,1395.35 688.355,1395.83 688.916,1396.18C690.054,1396.88 691.376,1397.16 692.579,1397.96C693.778,1398.76 694.935,1400.22 695.782,1401.83C696.277,1402.78 696.664,1403.78 696.904,1404.72C698.833,1402.94 700.991,1401.27 703.262,1399.68C708.98,1395.67 715.426,1392.23 720.69,1389.19C722.191,1388.32 723.758,1387.49 725.375,1386.7C725.341,1386.5 725.309,1386.29 725.286,1386.07C725.182,1385.09 725.144,1383.99 724.883,1382.98C724.652,1382.09 724.302,1381.25 723.701,1380.65C721.549,1378.49 718.707,1378.17 716.915,1376.38C716.088,1375.55 715.44,1374.45 715.125,1372.85C714.893,1371.66 714.942,1370.32 715.151,1368.92C715.565,1366.15 716.611,1363.12 716.847,1360.69L717.116,1357.63C716.065,1356.98 716.2,1356.24 716.437,1355.81C716.581,1355.55 717.464,1354.99 717.717,1354.99C718.929,1354.96 719.789,1355.6 720.396,1356.66C721.799,1359.1 721.418,1364.46 722.64,1366.05C724.753,1368.85 728.121,1370.21 730.72,1372.41C731.948,1373.45 733.015,1374.66 733.77,1376.21C734.054,1376.79 734.183,1377.53 734.185,1378.37C734.189,1379.92 733.805,1381.84 733.633,1383.35C737.095,1382.2 740.632,1381.36 744.1,1380.96C748.903,1380.41 754.301,1379.13 759.158,1378.99C759.457,1378.98 759.755,1378.97 760.049,1378.97C751.421,1370.6 740.948,1361.74 730.979,1352.81C730.917,1354.55 730.411,1356.29 730.677,1358.16L731.319,1362.3C731.394,1362.76 731.105,1363.19 730.656,1363.31C730.206,1363.42 729.744,1363.17 729.593,1362.73C729.593,1362.73 728.968,1360.95 728.124,1359.35C727.737,1358.61 727.31,1357.9 726.868,1357.46C724.702,1355.3 721.985,1353.38 719.696,1351.39C719.066,1350.85 718.472,1350.29 717.923,1349.72C717.427,1349.19 717.09,1347.71 717.004,1345.9C716.901,1343.74 717.016,1341.09 716.929,1339.55C716.928,1339.52 716.926,1339.5 716.924,1339.47L711.84,1333.03C710.518,1331.72 708.972,1330.44 707.425,1329.14C707.054,1329.41 706.663,1329.66 706.331,1329.98C706.177,1330.12 706.04,1330.29 705.941,1330.49C705.846,1330.68 705.908,1331.02 705.954,1331.4C706.092,1332.56 706.469,1334.02 706.473,1334.71C706.487,1337.36 705.65,1339.78 705.396,1342.37C705.3,1343.35 705.295,1344.35 705.476,1345.4L706.529,1350.58L706.96,1353.13C707.035,1353.63 706.692,1354.1 706.189,1354.18C705.686,1354.27 705.211,1353.93 705.123,1353.43L704.722,1351.41C704.553,1350.73 704.375,1350.06 704.107,1349.43C703.867,1348.86 703.554,1348.33 703.094,1347.87C701.633,1346.4 699.794,1344.16 698.364,1341.8C697.389,1340.19 696.605,1338.52 696.235,1337C695.995,1336.02 696.07,1335.06 696.326,1334.11C696.818,1332.28 698.053,1330.52 698.365,1328.74C698.636,1327.21 698.86,1325.57 699.036,1323.93C699.179,1322.6 699.293,1321.26 699.341,1319.96C699.092,1319.68 698.746,1319.35 698.374,1319.03C698.173,1319.13 693.356,1317.55 693.298,1317.54C691.186,1317.04 689.028,1316.45 686.868,1315.82C683.683,1314.88 680.495,1313.84 677.435,1312.84L672.547,1310.63L661.085,1308.63ZM644.21,1366.25C644.169,1366.29 644.135,1366.33 644.104,1366.37C643.84,1366.73 643.826,1367.38 644.194,1368.18C644.79,1369.48 646.377,1371.26 647.048,1372.25C648.084,1373.75 648.846,1375.36 649.461,1377.02C650.411,1379.59 651.006,1382.29 651.658,1384.95C651.811,1385.57 651.849,1386.21 651.825,1386.86C651.716,1389.68 650.52,1392.69 650.985,1395.53C651.124,1396.38 651.522,1397.05 652.061,1397.63C653.01,1398.65 654.509,1399.3 655.274,1400.46C656.04,1401.61 656.722,1402.82 657.498,1403.96C658.047,1404.77 658.642,1405.53 659.335,1406.23C659.971,1406.86 660.412,1407.76 660.706,1408.7C661.017,1409.69 661.16,1410.75 661.16,1411.65C661.16,1411.86 661.277,1413.98 661.457,1414.75C661.542,1415.1 661.7,1415.32 661.795,1415.41C662.21,1415.81 662.637,1415.84 663.074,1415.4C663.256,1415.22 663.479,1414.72 663.578,1414.02C663.739,1412.88 663.753,1410.99 663.911,1410.43C664.49,1408.38 665.524,1405.84 665.89,1403.37C666.161,1401.53 666.071,1399.73 665.273,1398.15C664.351,1396.33 662.598,1394.75 661.441,1392.92C661.003,1392.22 660.656,1391.49 660.517,1390.67C659.986,1387.53 661.389,1383.51 661.3,1380.07C661.254,1378.29 660.841,1376.65 659.716,1375.29C658.235,1373.49 656.618,1371.84 654.845,1370.44C652.995,1368.98 650.974,1367.81 648.756,1367.05C648.269,1366.89 646.458,1365.96 645.713,1365.58C645.667,1365.55 645.588,1365.58 645.588,1365.58C645.588,1365.58 645.616,1365.7 645.646,1365.74C645.687,1365.79 645.68,1365.85 645.677,1365.9C645.635,1365.53 645.321,1365.25 644.94,1365.25C644.531,1365.25 644.198,1365.58 644.198,1365.99C644.177,1366.06 644.179,1366.15 644.21,1366.25ZM662.857,1414.07C662.885,1414.17 662.923,1414.25 662.972,1414.3C663.022,1414.35 663.083,1414.36 663.159,1414.35C663.645,1414.23 663.313,1414.12 662.857,1414.07ZM380.022,1272.75C379.815,1272.41 378.929,1271.31 378.776,1271.36C378.037,1271.79 377.451,1272.4 376.725,1272.96C375.216,1274.14 373.597,1275.46 372.102,1277.06C370.934,1278.3 369.793,1279.64 368.679,1280.98C368.826,1281.11 368.918,1281.3 368.918,1281.52C369.004,1281.64 369.11,1281.65 369.163,1281.79C369.47,1282.59 369.483,1283.51 369.836,1284.36C370.498,1285.95 371.407,1287.53 371.838,1289.03C372.361,1290.84 372.44,1293.1 372.188,1295.33C371.938,1297.53 371.373,1299.7 370.606,1301.36C370.062,1302.56 369.289,1303.56 368.398,1304.47C366.483,1306.4 363.978,1307.83 362.196,1309.88C361.717,1310.44 361.324,1311.06 360.972,1311.71C360.407,1312.76 359.946,1313.88 359.437,1314.91C358.672,1316.46 357.828,1318.03 357.111,1319.65C356.646,1320.7 356.236,1321.76 355.942,1322.85C355.813,1323.33 355.775,1323.83 355.768,1324.34C355.757,1325.21 355.839,1326.1 355.843,1326.92C355.849,1327.9 355.06,1327.92 354.805,1327.89C354.648,1327.87 354.39,1327.81 354.168,1327.52C354.062,1327.39 353.795,1326.72 353.723,1326.44L353.398,1324.33C353.18,1323.47 353.098,1322.59 353.091,1321.7C353.082,1320.49 353.216,1319.26 353.224,1318.06C353.232,1316.62 353.055,1315.07 353.107,1313.58C353.131,1312.87 353.204,1312.18 353.362,1311.51C353.587,1310.52 353.937,1309.57 354.354,1308.64C355.876,1305.26 358.458,1302.24 359.317,1298.59C359.624,1297.28 359.95,1296.04 360.134,1294.78C360.245,1294.01 360.319,1293.22 360.233,1292.39C360.213,1292.18 360.057,1291.47 359.978,1290.79C350.592,1301.27 344.313,1313.73 340.283,1327.12C335.916,1341.63 334.183,1357.27 334.177,1372.79C334.171,1374.39 334.339,1375.97 334.61,1377.54C334.728,1378.23 334.865,1378.91 335.015,1379.6C335.027,1379.58 335.038,1379.56 335.049,1379.53C335.11,1379.36 335.789,1379.46 335.695,1379.22C335.682,1379.19 335.628,1379.23 335.602,1379.24L336.78,1378.32C337.047,1378.02 337.22,1377.64 337.357,1377.24C337.612,1376.5 337.742,1375.69 337.92,1374.99C338.02,1374.59 338.061,1374.18 338.077,1373.76C338.12,1372.62 337.994,1371.44 338.096,1370.35C338.344,1367.68 338.571,1364.98 339.38,1362.48C339.942,1360.75 340.779,1359.11 342.078,1357.65C342.504,1357.17 343.736,1355.37 344.739,1354.5C345.279,1354.02 345.818,1353.8 346.217,1353.8C346.839,1353.8 347.065,1354.15 347.17,1354.48C347.226,1354.65 347.248,1354.89 347.138,1355.17C347.085,1355.31 346.862,1355.54 346.814,1355.69L346.295,1357.77L346.051,1364.02C346.06,1365.15 346.13,1366.31 346.23,1367.47C346.382,1369.23 346.604,1371 346.792,1372.72C346.937,1374.07 347.528,1375.12 347.649,1376.33C347.71,1376.94 347.671,1377.59 347.46,1378.31C347.136,1379.4 346.632,1380.7 346.018,1381.94C345.394,1383.21 344.657,1384.41 343.905,1385.31L341.604,1387.22C341.033,1387.9 340.505,1388.94 340.108,1390.02C339.75,1391 339.611,1392.02 339.443,1392.84C339.421,1392.95 339.36,1393.03 339.332,1393.13C339.332,1393.58 339.024,1393.96 338.607,1394.06C338.76,1395.09 338.859,1396.11 338.886,1397.12C340.685,1396.05 342.496,1395.01 344.322,1394.01C366.038,1382.04 389.929,1374.48 415.259,1372.12C415.264,1371.99 415.279,1371.86 415.303,1371.73C415.456,1370.89 416.204,1369.94 416.337,1369.38C416.755,1367.7 417.134,1366.12 417.21,1364.51C417.259,1363.49 417.182,1362.45 416.91,1361.36C416.785,1360.87 416.52,1360.47 416.205,1360.11C415.603,1359.42 414.827,1358.88 414.207,1358.26C412.598,1356.65 410.554,1354.9 409.156,1352.87C408.125,1351.37 407.439,1349.72 407.438,1347.89C407.437,1346.09 407.676,1344.49 408.102,1342.94C408.52,1341.41 409.119,1339.93 409.851,1338.35C410.185,1337.62 410.447,1336.92 410.777,1336.24C411.013,1335.76 411.282,1335.28 411.615,1334.81C411.656,1334.77 412.168,1334.13 412.42,1333.97C412.579,1333.86 412.724,1333.8 412.855,1333.76C412.885,1333.75 412.916,1333.74 412.949,1333.73C413.289,1333.64 413.637,1333.84 413.728,1334.18C413.866,1334.54 413.95,1334.9 413.982,1335.28C414.085,1336.5 413.61,1337.78 413.847,1338.98L414.692,1340.58C414.911,1341.34 415.14,1342.31 415.464,1343.19C415.657,1343.72 415.883,1344.21 416.18,1344.59C418.25,1347.21 421.705,1348.25 424.133,1350.34C425.312,1351.36 426.269,1352.6 426.821,1354.26C427.898,1357.56 426.206,1361.49 426.139,1364.98C426.114,1366.29 426.349,1367.54 427.239,1368.62C427.437,1368.87 428.543,1370.49 428.927,1371.2C428.957,1371.25 428.972,1371.32 428.977,1371.36C446.879,1371.03 465.41,1373.27 484.324,1378.36C484.308,1377.53 484.386,1376.66 484.426,1376.46C484.831,1374.42 485.602,1372.13 485.829,1369.86C485.972,1368.44 485.899,1367.04 485.337,1365.74C483.632,1361.76 481.074,1358.34 479.462,1354.45C478.755,1352.75 478.227,1350.97 478.011,1349.02C477.936,1348.23 477.713,1347.42 477.402,1346.65C477.084,1345.86 476.678,1345.1 476.228,1344.44C476.197,1344.4 474.901,1343.83 474.905,1343.78C474.468,1343.15 474.97,1342.69 475.137,1342.64C475.235,1342.62 475.453,1342.59 475.725,1342.7C475.92,1342.78 476.202,1342.94 476.471,1343.12C476.738,1343.16 477,1343.24 477.198,1343.38L479.9,1345.46C481.654,1346.94 483.966,1348.23 485.848,1349.82C486.726,1350.56 487.511,1351.37 488.124,1352.28C489.845,1354.84 491.417,1357.43 492.541,1360.21C493.3,1362.08 493.853,1364.05 494.119,1366.14C494.184,1366.66 494.19,1367.17 494.16,1367.68C494.051,1369.48 493.417,1371.24 493.678,1373.07C494.013,1375.42 496.211,1377.57 497.005,1379.92C497.245,1380.64 497.357,1381.37 497.315,1382.1C497.315,1382.11 497.314,1382.13 497.313,1382.14C504.797,1384.29 512.408,1386.28 519.705,1388.98C521.743,1389.74 523.756,1390.55 525.735,1391.44C525.755,1382.44 525.948,1373.48 526.246,1364.52C526.558,1355.17 526.985,1345.84 527.452,1336.51C527.401,1336.46 527.352,1336.42 527.305,1336.38C523.803,1332.88 519.92,1330.87 515.797,1329.68C514.346,1329.26 512.867,1328.94 511.363,1328.69C511.239,1328.83 511.062,1328.91 510.866,1328.91C510.764,1328.92 510.808,1329.08 510.751,1329.19C510.589,1329.52 510.472,1329.96 510.398,1330.42C510.256,1331.32 510.257,1332.28 510.345,1332.7C510.498,1333.46 510.88,1334.12 511.345,1334.72C512.155,1335.76 513.209,1336.67 514.009,1337.64C514.619,1338.38 515.201,1339.35 515.672,1340.37C516.141,1341.39 516.502,1342.46 516.685,1343.39C516.965,1344.82 516.691,1346.27 516.143,1347.67C515.4,1349.56 514.148,1351.38 513.28,1352.94C512.97,1353.5 512.747,1354.06 512.566,1354.62C512.093,1356.11 511.896,1357.61 511.35,1359.11L510.284,1361.3C510.045,1362.62 510.105,1364.19 510.324,1365.75C510.547,1367.33 510.938,1368.9 511.366,1370.18C511.602,1370.89 512.26,1372.02 512.664,1373.02C512.908,1373.61 513.06,1374.18 513.061,1374.61C513.061,1375.51 512.505,1375.56 512.048,1375.45C511.813,1375.39 511.084,1374.56 510.806,1374.19L508.892,1371.74C507.845,1370.69 506.369,1368.98 505.267,1367.22C504.454,1365.92 503.85,1364.59 503.709,1363.47C503.402,1361.02 503.038,1358.35 502.857,1355.71C502.733,1353.9 502.695,1352.12 502.815,1350.43C502.902,1349.2 503.359,1347.96 503.589,1346.73C503.674,1346.28 503.725,1345.82 503.692,1345.36L502.292,1337.36C502.161,1336.25 501.824,1334.62 501.318,1333.18C500.981,1332.22 500.579,1331.35 500.094,1330.79C499.795,1330.45 499.526,1330.08 499.298,1329.68C499.081,1329.31 498.9,1328.91 498.724,1328.52C498.675,1328.4 498.474,1328.01 498.33,1327.72C493.137,1327.56 487.852,1327.41 482.654,1326.37C479.534,1325.75 476.447,1324.97 473.382,1324.12C466.299,1322.15 459.335,1319.78 452.34,1318.04C451.884,1317.92 451.395,1317.85 450.879,1317.79C450.485,1318.6 450.004,1319.48 449.631,1320.39C449.376,1321 449.17,1321.63 449.104,1322.25C448.968,1323.54 449.242,1325.12 449.747,1326.62C450.255,1328.13 451.003,1329.57 451.841,1330.54L453.851,1332.12C454.45,1332.59 455.029,1333.25 455.545,1334C456.268,1335.04 456.872,1336.23 457.287,1337.21C457.846,1338.53 457.98,1340.04 457.906,1341.59C457.802,1343.75 457.299,1345.98 457.11,1347.86L457.377,1353.61C457.275,1354.98 457.396,1356.53 457.646,1358.07C457.898,1359.61 458.282,1361.14 458.695,1362.46C458.798,1362.79 458.964,1363.23 459.172,1363.64C459.215,1363.72 459.259,1363.81 459.304,1363.89C459.577,1364.12 459.954,1364.47 460.045,1364.59C460.497,1365.21 459.971,1365.58 459.697,1365.65C459.628,1365.67 459.442,1365.72 459.169,1365.58C458.771,1365.4 458.412,1365.06 458.13,1364.63C457.703,1364.32 457.25,1364.07 456.876,1363.71C456.656,1363.51 456.459,1363.27 456.298,1362.98C455.557,1361.65 454.842,1360.32 454.349,1358.9C454.01,1357.93 453.774,1356.92 453.702,1355.86C453.549,1353.61 452.971,1351.69 452.14,1349.92C450.824,1347.12 448.882,1344.68 446.96,1341.94C446.765,1341.66 446.512,1341.41 446.235,1341.15C445.521,1340.51 444.659,1339.91 444.029,1339.29C442.417,1337.68 440.829,1335.79 439.805,1333.7C439.083,1332.23 438.641,1330.66 438.642,1329.03C438.653,1327.09 438.563,1325.28 438.721,1323.47C438.828,1322.23 439.046,1321 439.478,1319.72C439.646,1319.27 439.69,1318.42 439.911,1317.88C437.691,1317.68 435.695,1317.12 434.166,1315.98C430.219,1313.02 424.185,1309.64 419.236,1306.3C416.759,1304.62 414.547,1302.95 412.946,1301.35C411.633,1300.03 410.381,1298.53 409.13,1296.99C409.088,1297.9 409.207,1298.85 409.094,1299.74C409.035,1300.2 408.927,1300.65 408.739,1301.08C408.524,1301.58 408.279,1301.97 408.013,1302.31C407.414,1303.06 406.691,1303.5 405.953,1304.38C405.534,1304.88 405.231,1305.45 405.016,1306.05C404.793,1306.68 404.664,1307.34 404.602,1308.01C404.345,1310.77 405.856,1313.68 406.005,1316.53C406.075,1317.87 405.871,1319.2 405.131,1320.5C404.73,1321.21 404.216,1321.83 403.631,1322.4C401.572,1324.41 398.547,1325.72 396.816,1328.05C396.291,1328.76 395.891,1329.42 395.597,1330.12C395.307,1330.82 395.123,1331.56 395.021,1332.43L394.789,1334.04L394.645,1335.09C394.6,1335.46 394.297,1335.74 393.93,1335.75C393.564,1335.76 393.243,1335.5 393.174,1335.14L392.862,1333.69C392.76,1333.29 392.711,1332.9 392.695,1332.51C392.672,1331.97 392.713,1331.44 392.751,1330.87C392.889,1328.85 392.36,1327.04 392.2,1325.12C392.126,1324.25 392.124,1323.35 392.266,1322.41C392.609,1320.16 394.419,1318.14 395.265,1315.94C395.448,1315.46 395.579,1314.98 395.616,1314.47C395.661,1313.88 395.539,1313.31 395.356,1312.75C394.846,1311.2 393.924,1309.69 393.801,1308C393.677,1306.28 394.068,1304.8 394.737,1303.44C395.678,1301.52 397.193,1299.85 398.5,1298.06C399.443,1296.76 400.295,1295.56 401,1294.26C401.453,1293.42 401.849,1292.54 402.159,1291.56C402.365,1291.01 402.093,1289.64 402.017,1289C400.507,1287.69 398.873,1286.62 397.016,1286C394.772,1285.25 392.109,1283.92 389.638,1282.29C387.201,1280.68 384.954,1278.78 383.343,1277.07C382.51,1276.18 380.913,1274.19 380.022,1272.75ZM679.029,1334.29C679.024,1334.43 678.694,1335.12 678.638,1335.37C678.525,1335.53 678.429,1335.65 678.364,1335.83C678.143,1336.45 678.272,1337.15 678.339,1337.81C678.513,1339.55 679.151,1341.31 679.374,1342.96C679.652,1345 679.071,1347.6 679.762,1349.67C680.102,1350.7 680.714,1351.61 681.778,1352.33C683.771,1353.67 685.788,1354.29 687.689,1355.43C688.4,1355.86 689.094,1356.37 689.76,1357.03C690.497,1357.77 690.974,1358.63 691.329,1359.54C692.305,1362.03 692.467,1364.87 693.793,1367.08C694.421,1368.12 694.967,1369.3 695.473,1370.54C696.647,1373.42 697.597,1376.61 698.739,1379.27C699.055,1380.01 699.558,1381.37 700.16,1382.34C700.554,1382.98 701.012,1383.47 701.462,1383.69C701.843,1383.88 702.43,1384.78 702.623,1385C703.063,1385.51 703.591,1385.36 703.679,1385.33C703.773,1385.29 704.604,1384.85 704.143,1383.93C703.283,1382.21 702.751,1380.41 702.418,1378.58C701.02,1370.86 702.954,1362.4 699.998,1355.02C699.793,1354.5 699.509,1354 699.179,1353.51C698.505,1352.5 697.632,1351.53 696.961,1350.64C695.927,1349.26 695.354,1346.97 694.396,1345.3C693.833,1344.31 693.145,1343.52 692.262,1343.08C691.589,1342.74 690.91,1342.5 690.223,1342.3C688.746,1341.87 687.231,1341.67 685.678,1341.16C685.06,1340.95 684.212,1339.93 683.328,1338.8C681.94,1337.02 680.517,1334.92 680.501,1334.29C680.501,1333.88 680.171,1333.55 679.765,1333.55C679.358,1333.55 679.029,1333.88 679.029,1334.29ZM638.231,1381.07C638.277,1381.31 638.334,1381.5 638.422,1381.47C638.46,1381.45 638.495,1381.44 638.526,1381.42L638.504,1381.12C638.427,1381.1 638.334,1381.08 638.231,1381.07ZM374.915,1327C374.745,1326.9 374.546,1326.86 374.343,1326.82C373.763,1326.7 373.044,1327.25 372.555,1327.49C371.854,1327.89 371.255,1328.32 370.7,1328.78C369.887,1329.46 369.175,1330.22 368.375,1331.07C367.3,1332.21 365.983,1333.14 364.799,1334.19C364.243,1334.69 363.716,1335.21 363.242,1335.78C362.881,1336.21 362.637,1336.64 362.459,1337.06C362.088,1337.94 362.061,1338.82 361.721,1339.85C361.214,1341.37 360.493,1342.75 360.059,1344.24C359.858,1344.94 359.714,1345.66 359.667,1346.43C359.575,1347.93 359.785,1349.36 360.175,1350.75C361.024,1353.76 362.761,1356.56 363.861,1359.48C364.3,1360.65 364.435,1361.82 364.431,1363C364.423,1364.93 364.055,1366.88 363.907,1368.82L363.062,1374.41L362.9,1375.77C362.822,1375.92 362.794,1376.03 362.784,1376.08C362.603,1377 363.184,1377.25 363.742,1377.25C363.937,1377.25 364.363,1377.15 364.622,1376.72C364.772,1376.75 364.967,1376.18 364.969,1376.18C364.969,1376.18 365.472,1375.27 365.472,1375.27L366.948,1372C367.208,1371.27 367.376,1370.56 367.661,1369.9C367.817,1369.54 368.012,1369.19 368.298,1368.85C370.108,1366.73 372.968,1365.19 374.886,1363.03C375.821,1361.98 376.549,1360.79 376.904,1359.36C377.128,1358.45 377.208,1357.05 377.108,1355.67C377.005,1354.24 376.701,1352.83 376.229,1351.98C375.348,1350.4 374.158,1349.05 373.278,1347.49C372.942,1346.9 372.651,1346.27 372.458,1345.59C372.279,1344.95 372.034,1344.07 371.885,1343.23C371.793,1342.7 371.731,1342.19 371.767,1341.79C371.818,1341.21 371.964,1340.64 372.168,1340.09C373.067,1337.64 374.951,1335.34 375.473,1332.86C375.775,1331.51 375.688,1329.81 375.977,1328.38C376.042,1328.05 376.109,1327.74 376.234,1327.45C376.405,1327.11 376.266,1326.7 375.925,1326.53C375.584,1326.36 374.915,1327 374.915,1327ZM637.41,1327.93C637.389,1328.09 637.383,1328.28 637.393,1328.49C637.487,1330.45 640.174,1335.85 640.561,1337.07C641.11,1338.77 641.089,1341.29 641.528,1343.4C641.764,1344.53 642.133,1345.55 642.71,1346.34C643.505,1347.41 644.468,1348.32 645.524,1349.14C647.775,1350.89 650.463,1352.21 652.641,1354.04C653.497,1354.75 654.339,1355.49 655.031,1356.32C655.467,1356.85 655.841,1357.41 656.111,1358.04L657.608,1361.04C657.86,1361.51 658.435,1361.7 658.918,1361.48C659.402,1361.25 659.626,1360.69 659.43,1360.19C659.43,1360.19 658.833,1358.69 658.346,1357.16C658.118,1356.45 657.913,1355.73 657.815,1355.18C657.449,1353.11 657.373,1349.58 656.911,1346.64C656.676,1345.15 656.337,1343.8 655.842,1342.81C654.698,1340.53 653.153,1338.6 651.393,1336.86C647.425,1332.95 642.332,1330.09 638.54,1326.3C638.159,1325.92 637.541,1325.92 637.16,1326.3C636.779,1326.68 636.779,1327.3 637.16,1327.68L637.41,1327.93ZM648.448,1074.1C648.543,1074.28 649.743,1080.42 651.158,1083.27C652.796,1086.58 654.931,1089.71 656.812,1092.04C657.82,1093.3 658.729,1094.66 659.592,1096.08C661.461,1099.15 663.102,1102.46 665.155,1105.33C670.124,1112.26 676.624,1118.24 682.235,1124.85C683.68,1126.55 685.066,1128.29 686.358,1130.09C688.059,1132.47 692.629,1139.95 693.45,1140.77C695.381,1142.69 698.992,1147.68 701.682,1152.46C702.768,1154.39 703.688,1156.29 704.321,1157.97C708.794,1152.37 713.529,1147.07 718.419,1142.17C725.762,1134.83 732.328,1127.79 739.431,1121.19C744.202,1116.76 749.227,1112.56 754.785,1108.49C755.88,1107.71 758.389,1105.16 760.729,1103.09C760.155,1103.27 759.58,1103.44 759.004,1103.6C751.771,1105.54 743.935,1106.03 736.124,1105.59C728.364,1105.14 720.629,1103.77 713.549,1101.98L697.866,1099C688.996,1097.09 680.345,1093.79 672.158,1089.58C663.965,1085.37 656.237,1080.25 649.242,1074.65L648.448,1074.1ZM649.347,822.781C649.363,822.811 649.376,822.843 649.388,822.876C649.639,823.613 649.972,824.501 650.405,825.422C651.313,827.353 652.263,829.488 652.131,831.435C652.025,832.991 651.324,834.476 649.476,835.71C649.171,835.914 648.743,836.051 648.228,836.074C647.508,836.106 646.455,835.803 645.956,835.903C644.035,836.285 642.097,836.808 640.286,837.593C638.538,838.351 636.906,839.353 635.535,840.721C634.85,841.404 635.468,842.341 636.048,843.436C637.094,845.412 638.709,847.64 639.337,849.637C639.753,850.958 639.776,852.204 639.218,853.298C637.529,856.659 633.864,858.317 631.354,861.079C630.483,862.037 629.789,863.162 629.444,864.602C628.745,867.543 630.323,870.245 631.573,872.931C632.623,875.188 633.5,877.437 633.34,879.691C633.187,881.852 632.141,884.065 629.333,886.288C628.236,887.157 625.266,888.001 622.718,887.917C620.538,887.845 618.736,887.025 618.12,885.516C617.829,884.806 617.81,884.028 617.97,883.227C618.211,882.024 618.962,880.749 619.2,879.759C619.356,879.114 618.978,877.492 618.512,875.913C618.071,874.415 617.59,872.913 617.059,872.522C616.324,871.983 614.451,871.979 612.768,872.231C611.688,872.393 610.741,872.754 610.123,873.207C609.89,873.379 608.832,875.401 608.828,875.813C608.828,876.57 608.214,877.185 607.457,877.185C606.699,877.185 606.085,876.57 606.085,875.813C606.067,873.912 604.708,871.967 603.02,870.087C600.342,867.104 596.702,864.389 594.61,862.661L589.85,859.5C588.091,859.236 586.356,859.01 584.608,858.849C582.886,858.69 581.153,858.592 579.372,858.58C573.729,858.545 568.63,859.391 563.927,861.302C559.275,863.193 555.019,866.12 550.975,870.159C549.242,871.911 546.877,874.27 545.087,876.805C543.953,878.41 543.04,880.079 542.769,881.716C542.545,883.021 542.238,884.307 541.88,885.583C540.511,890.45 538.367,895.15 537.512,900.137C537.369,900.967 537.312,901.84 537.3,902.73C537.271,904.904 537.498,907.177 537.491,909.238C537.493,913.99 537.734,918.719 538.463,923.355C539.187,927.961 540.395,932.472 542.283,936.825C542.911,938.272 543.727,939.571 544.648,940.787C548.651,946.074 554.59,949.851 557.6,955.876C558.094,956.904 558.459,957.943 558.693,959.013C558.925,960.074 559.036,961.165 559.019,962.306C558.998,962.518 558.866,965.325 558.831,965.753C558.787,966.269 558.625,966.753 558.31,967.193L556.163,970.15C555.574,971.013 554.819,971.753 553.975,972.42C552.316,973.73 550.27,974.714 548.724,975.983C547.97,976.589 547.393,977.78 546.893,979.083C546.071,981.222 545.561,983.702 545.403,985.153C545.287,986.218 545.352,987.332 545.514,988.447C545.772,990.225 546.277,992.002 546.762,993.606C547.648,996.542 548.492,1000.16 550.078,1003.22C551.037,1005.07 552.268,1006.72 554.032,1007.78C558.856,1010.67 564.68,1011.8 570.376,1011.3C576.035,1010.8 581.587,1008.71 585.918,1004.98C587.991,1003.21 589.973,1001.56 591.733,999.661C592.865,998.443 593.903,997.125 594.821,995.618C596.329,993.109 596.684,990.021 596.281,987.017C595.865,983.914 594.636,980.892 592.948,978.641C592.227,977.68 591.585,976.801 590.848,975.988C590.392,975.485 589.901,975.004 589.313,974.554C589.012,974.306 587.813,972.794 587.813,972.273C587.813,971.715 588.266,971.261 588.825,971.261C589.197,971.119 589.498,971.318 589.864,971.486C590.247,971.661 590.491,972.282 590.85,972.505C591.583,973.043 592.205,973.613 592.772,974.225C593.574,975.091 594.259,976.041 595.035,977.076C596.97,979.656 598.387,983.114 598.867,986.669C599.354,990.268 598.875,993.959 597.073,996.969C596.374,998.151 595.605,999.229 594.784,1000.24C594.898,1000.26 595.435,1001.69 595.436,1001.7C595.535,1002.65 598.876,1004.71 599.432,1005.52C600.357,1006.91 601.184,1008.45 601.931,1010.05C603.014,1012.37 603.931,1014.82 604.773,1017.09C608.4,1026.85 613.296,1035.69 619.292,1043.8C625.244,1051.86 632.277,1059.2 640.206,1066.03L650.449,1073.14C657.344,1078.66 664.954,1083.73 673.037,1087.87C681.076,1091.98 689.581,1095.18 698.289,1097.03L714.062,1099.93C721.023,1101.64 728.624,1102.94 736.245,1103.33C743.803,1103.7 751.381,1103.17 758.361,1101.24C760.599,1100.62 762.813,1099.79 764.991,1098.84C768.315,1097.4 771.556,1095.71 774.675,1094.14C781.266,1090.84 787.963,1087.12 794.31,1082.98C800.702,1078.8 806.74,1074.18 811.909,1069.04C812.675,1068.28 813.51,1067.6 814.37,1066.96C815.099,1066.41 816.241,1065.58 817.279,1064.81C817.125,1064.81 816.971,1064.81 816.816,1064.81C811.026,1064.78 805.276,1064.95 799.522,1064.77C795.652,1064.65 791.782,1064.37 787.897,1063.75C783.774,1063.12 779.434,1062.84 775.234,1062.14C773.366,1061.83 771.525,1061.44 769.74,1060.89C766.387,1059.87 762.945,1058.54 759.471,1057.47C757.211,1056.78 754.938,1056.19 752.668,1055.87C750.096,1055.52 747.307,1055.01 744.556,1054.34C741.789,1053.66 739.06,1052.81 736.62,1051.78C732.169,1049.89 727.576,1048.23 723.082,1046.33C721.132,1045.51 719.201,1044.65 717.307,1043.7L710.578,1040.32C709.858,1040.32 709.273,1039.74 709.273,1039.02C709.273,1038.37 709.746,1037.83 710.366,1037.73C710.517,1037.57 710.718,1037.38 710.975,1037.2C711.258,1036.99 711.675,1036.76 712.036,1036.34L715.975,1031.61C717.678,1029.34 719.64,1027.2 721.698,1025.14C724.741,1022.09 727.993,1019.22 730.884,1016.33C731.209,1016.01 731.561,1015.46 731.971,1015.59C732.14,1015.46 732.46,1015.56 732.891,1015.7C732.939,1015.72 733.452,1015.97 733.662,1016.1C734.542,1016.64 736.861,1017.51 737.488,1017.79L746.624,1021.95C749.996,1023.5 753.687,1024.65 757.488,1025.52C763.229,1026.84 769.207,1027.57 774.67,1028.36C780.769,1029.23 787.21,1029.07 793.5,1029.47C796.269,1029.65 799.01,1029.94 801.682,1030.47C804.184,1030.96 806.805,1030.47 809.333,1030.65C810.04,1030.69 810.74,1030.79 811.431,1030.96C814.072,1031.6 817.339,1031.03 820.071,1031.54C821.553,1031.81 822.891,1032.38 823.976,1033.44C825.963,1035.39 827.51,1038.29 828.687,1041.52C829.832,1044.65 830.634,1048.09 831.269,1051.13C833.209,1047.92 835.179,1044.42 837.267,1041.05C837.896,1040.04 838.573,1039.06 839.326,1038.15C842.696,1034.08 846.125,1029.67 849.307,1025.1C852.463,1020.56 855.377,1015.85 857.727,1011.13C858.811,1008.96 859.752,1006.23 860.918,1003.83C861.491,1002.65 862.118,1001.55 862.826,1000.61C864.496,998.394 865.939,995.958 867.236,993.427C869.215,989.564 870.85,985.478 872.344,981.569C873.047,979.745 873.845,977.947 874.701,976.164C877.997,969.302 882.173,962.673 884.902,955.587C886.436,951.582 887.912,947.576 889.533,943.651C890.63,940.992 891.792,938.37 893.09,935.812C895.713,930.585 897.72,925.219 899.432,919.774C902.04,911.478 903.971,903.001 906.384,894.561C907.025,892.321 907.748,889.428 908.257,886.62C908.596,884.745 908.849,882.91 908.866,881.335C908.9,880.39 908.683,876.845 908.682,875.592C908.681,875.044 908.744,874.531 908.854,874.124C907.421,874.232 905.983,874.363 904.543,874.512C898.151,875.178 891.721,876.214 885.486,877.253C883.73,877.545 881.951,877.664 880.163,877.702C876.209,877.787 872.204,877.462 868.295,877.896C864.907,878.272 861.497,879.095 858.044,879.309C856.492,879.405 854.931,879.381 853.361,879.157C848.564,878.471 843.737,877.923 838.894,877.436C827.575,876.297 816.174,875.492 804.894,874.079C802.424,873.77 799.992,873.292 797.585,872.707C788.137,870.413 779.089,866.443 769.659,864.868C752.752,862.045 734.046,857.495 715.891,851.409C697.686,845.307 680.038,837.663 665.279,828.769C663.636,827.778 661.825,826.988 659.958,826.297C657.075,825.23 654.059,824.397 651.278,823.464C650.638,823.249 649.994,823.021 649.347,822.781ZM818.609,916.994L818.481,917.361C818.152,918.339 817.268,921.411 817.091,922.134L815.368,933.205C814.237,937.642 813.296,942.235 812.477,946.875C811.258,953.784 810.311,960.795 809.43,967.546L807.398,979.988C806.743,984.5 805.956,988.935 805.055,993.342C804.151,997.764 803.132,1002.16 802.018,1006.57C801.46,1008.78 800.455,1011.71 799.047,1014.19C798.136,1015.79 797.066,1017.22 795.81,1018.05C794.542,1018.89 793.222,1019.42 791.862,1019.76C789.69,1020.31 787.415,1020.37 785.07,1020.37C783.915,1020.37 782.873,1020.23 781.845,1020C780.775,1019.76 779.719,1019.42 778.577,1019.04C776.354,1018.29 774.274,1017.79 772.194,1017.11C770.901,1016.69 769.608,1016.2 768.277,1015.53C767.04,1014.91 765.188,1014.41 763.678,1013.69C763.148,1013.44 762.665,1013.17 762.316,1012.82L756.982,1006.87C756.425,1006.31 755.52,1006.31 754.962,1006.87C754.405,1007.42 754.405,1008.33 754.962,1008.89L760.317,1014.81C760.875,1015.37 761.624,1015.84 762.47,1016.24C763.966,1016.95 765.801,1017.43 767.025,1018.03C768.118,1018.58 769.186,1019.01 770.248,1019.39C772.693,1020.25 775.101,1020.79 777.706,1021.65C779.211,1022.15 780.578,1022.57 782.002,1022.82C782.979,1023 783.983,1023.1 785.07,1023.1C787.646,1023.09 790.143,1022.99 792.525,1022.38C794.17,1021.95 795.762,1021.3 797.292,1020.27C798.85,1019.23 800.224,1017.49 801.349,1015.49C802.865,1012.79 803.949,1009.6 804.544,1007.2C805.647,1002.75 806.653,998.309 807.545,993.845C808.435,989.387 809.211,984.901 809.852,980.339L811.78,967.84C812.584,961.112 813.446,954.124 814.59,947.237C815.354,942.641 816.244,938.091 817.322,933.693L819.162,922.594C819.305,921.88 820.107,918.857 820.323,917.871L820.403,917.49C821.905,913.44 821.705,911.749 820.799,912.615C820.485,911.377 819.446,912.722 818.609,916.994ZM564.707,974.504C564.323,974.646 559.632,976.892 559.23,977.124C558.217,977.69 557.197,978.55 556.317,979.554C555.441,980.554 554.753,981.71 554.283,982.767C552.881,986.28 552.858,990.753 554.226,994.565C555.667,998.582 558.617,1001.85 562.918,1002.68C564,1002.89 565.486,1003.3 566.841,1003.35C567.588,1003.38 568.302,1003.31 568.928,1003.1C574.65,1001.15 579.15,996.518 580.84,991.394C582.618,986.002 581.391,980.062 575.285,976.022C574.164,975.26 572.179,974.645 570.143,974.348C568.096,974.049 566.007,974.086 564.707,974.504ZM855.814,938.809C855.366,938.809 854.088,939.629 853.72,939.789C852.606,940.272 851.762,941.707 850.989,942.456C849.652,943.804 848.305,945.815 847.302,947.974C846.276,950.182 845.614,952.541 845.622,954.494C845.628,955.824 845.826,957.356 846.534,958.494C847.092,959.39 847.93,960.087 849.195,960.363C849.85,960.506 850.709,960.383 851.601,960.012C852.985,959.439 854.518,958.308 855.214,957.682C857.058,956.025 858.541,954.218 859.566,952.201C860.613,950.141 861.191,947.863 861.177,945.295L861.1,942.184C860.722,941.07 859.96,940.131 858.954,939.547C858.01,938.998 856.887,938.738 855.814,938.809ZM569.766,951.887L572.156,938.129C572.238,937.372 572.957,935.846 573.01,934.756C573.039,934.176 572.918,933.676 572.663,933.295C571.197,931.045 565.993,930.193 563.554,927.961C562.806,927.277 562.454,926.391 562.874,925.104C563.172,924.184 563.622,923.277 564.213,922.473C564.788,921.691 565.491,921.002 566.314,920.498C566.97,920.097 567.712,920.118 568.355,919.886C568.806,919.724 569.228,919.491 569.603,919.111C570.117,918.589 571,917.49 571.402,916.474C571.671,915.793 571.73,915.132 571.549,914.603C571.288,913.789 570.468,912.994 569.344,912.32C567.618,911.286 565.127,910.458 564.101,909.823C563.033,909.173 562.336,907.871 561.798,906.423C560.917,904.053 560.543,901.247 560.366,899.474C560.303,898.843 560.42,898.244 560.593,897.656C560.921,896.546 561.437,895.472 561.715,894.357C562.838,889.881 564.796,886.706 567.635,884.798C570.501,882.872 574.226,882.262 578.731,882.743C580.618,882.95 582.975,882.629 585.068,882.89C585.822,882.984 586.536,883.161 587.151,883.521C588.528,884.328 590.129,885.254 591.517,886.375C592.363,887.058 593.125,887.816 593.681,888.672C594.826,890.437 595.754,892.352 596.925,894.076C597.48,894.893 598.089,895.666 598.783,896.374C599.386,896.977 600.365,896.977 600.968,896.374C601.57,895.772 601.57,894.793 600.968,894.19C600.39,893.624 599.884,892.999 599.417,892.343C598.221,890.663 597.253,888.793 596.076,887.075C595.337,885.995 594.35,885.033 593.246,884.182C591.722,883.008 589.981,882.036 588.478,881.199C587.551,880.681 586.492,880.404 585.366,880.286C583.253,880.064 580.884,880.427 578.98,880.254C573.814,879.773 569.59,880.635 566.326,882.865C563.084,885.08 560.749,888.657 559.469,893.795C559.145,895.088 558.499,896.326 558.207,897.63C558.057,898.303 557.99,898.991 558.061,899.705C558.254,901.627 558.659,904.672 559.631,907.236C560.377,909.207 561.474,910.887 562.941,911.755C563.993,912.366 566.526,913.13 568.293,914.128C568.917,914.48 569.468,914.804 569.621,915.245C569.717,915.539 569.434,915.896 569.206,916.267C568.862,916.826 568.413,917.343 568.121,917.629L565.208,918.654C564.135,919.285 563.206,920.153 562.445,921.149C561.693,922.135 561.112,923.25 560.722,924.386C559.915,926.761 560.601,928.417 561.992,929.677C564.343,931.806 569.467,932.33 570.919,934.458L570.048,937.895C569.573,942.045 568.324,946.105 567.949,950.222C567.906,950.7 567.925,951.17 567.922,951.648C567.856,952.157 568.216,952.624 568.724,952.689C569.233,952.755 569.7,952.395 569.766,951.887ZM737.291,923.527C737.038,923.527 736.374,923.783 736.374,923.783C736.017,923.789 735.385,924.46 735.142,924.625L732.842,926.589C731.822,928.115 730.934,929.935 730.308,931.84C729.678,933.759 729.313,935.764 729.316,937.637L729.298,939.65C729.396,940.04 729.948,940.82 730.663,941.446C731.365,942.06 732.194,942.505 732.613,942.556C733.248,942.635 733.872,942.563 734.484,942.403C735.218,942.211 735.933,941.883 736.622,941.624C738.612,940.871 740.439,939.242 741.81,937.261C743.143,935.333 744.044,933.085 744.289,931.074C744.384,930.29 744.359,929.628 744.238,928.986C744.121,928.368 743.912,927.77 743.621,927.095L743.115,925.571L741.644,924.457C741.332,924.225 740.949,923.864 740.556,923.626C740.26,923.447 739.954,923.324 739.655,923.275C739.233,923.206 738.851,923.19 738.488,923.247C738.083,923.31 737.728,923.477 737.291,923.527ZM830.246,907.238C830.149,907.319 829.907,907.843 829.915,907.994C829.888,908.345 830.009,908.705 830.277,908.973C830.458,909.154 830.68,909.268 830.913,909.314C830.934,909.347 830.954,909.38 830.975,909.414C831.545,910.344 831.972,911.606 832.452,912.282C833.527,913.741 834.43,915.251 835.283,916.788C836.147,918.346 836.96,919.932 837.727,921.587L839.28,925.134C839.389,925.481 839.319,926.236 839.509,926.695C839.536,926.762 839.565,926.826 839.595,926.887C839.577,926.919 839.567,926.946 839.561,926.964C839.331,927.63 839.549,928.021 840.147,928.169C840.484,928.269 840.833,928.164 841.058,927.924L841.072,927.951C841.315,928.38 842.562,927.155 842.773,927.051L846.557,925.119L857.536,918.586L874.933,909.666L879.297,906.908L885.245,904.14L887.937,902.058C888.901,901.5 889.844,901.196 890.756,900.687C891.203,900.438 891.642,900.145 892.076,899.775L897.341,896.964L900.075,894.037C900.18,893.906 900.423,893.947 900.586,893.869C900.939,893.703 901.234,893.484 901.447,893.217C901.697,892.903 901.857,892.519 901.858,892.021C901.858,891.52 901.579,891.083 901.168,890.857C901.105,890.444 900.861,890.141 900.49,889.928C899.968,889.628 898.874,889.669 898.411,889.66L893.313,890.539C892.517,890.666 891.703,890.861 890.886,891.108C889.151,891.635 887.401,892.376 885.71,892.825L879.285,894.184L876.447,894.507L872.594,895.877L864.813,898.02L858.667,899.024L843.251,903C841.087,903.498 838.929,904.016 836.805,904.647C835.366,905.074 833.942,905.554 832.542,906.113C832.048,906.328 831.619,906.226 831.279,906.392C830.899,906.577 830.522,906.737 830.277,907.206C830.267,907.217 830.256,907.227 830.246,907.238ZM698.136,868.228C698.093,868.667 699.029,871.011 699.448,871.489C699.515,871.579 699.842,871.86 699.842,871.86C700.262,872.196 701.36,873.089 701.64,873.417C702.272,874.154 702.948,874.8 703.651,875.404C704.672,876.281 705.752,877.069 706.835,877.935L721.369,890.647L746.035,912.47L751.765,916.134C752.583,916.795 753.318,917.929 754.295,918.442C754.878,918.749 755.529,918.885 756.287,918.736C756.646,918.666 757.005,918.47 757.339,918.164C757.967,917.589 758.522,916.462 758.997,915.991L765.516,909.31L766.944,907.103C768.072,905.966 770.069,904.798 771.46,903.405C772.208,902.655 772.795,901.841 773.084,900.96C773.559,899.513 773.163,898.776 772.571,898.332C771.833,897.779 770.076,898.024 768.711,897.252C767.207,896.401 765.713,895.635 764.178,894.931C762.663,894.237 761.108,893.604 759.464,893.013C756.462,891.931 753.449,890.705 750.512,889.317C747.582,887.933 744.73,886.387 742.025,884.694C741.636,884.449 741.216,884.291 740.778,884.182C740,883.988 739.153,883.985 738.397,883.729L735.274,881.748L729.99,879.687L727.115,877.597L722.937,875.803C721.508,875.154 720.226,874.287 718.823,873.613C718.173,873.301 717.498,873.029 716.779,872.826L704.738,868.246L700.425,867.539C700.336,867.546 699.324,867.278 699.086,867.278C698.562,867.278 698.136,867.703 698.136,868.228ZM797.516,727.595L797.48,727.582C796.002,727.055 794.603,725.933 793.356,725.294L785.824,721.955C784.394,721.328 782.937,720.818 781.459,720.388C777.82,719.331 774.086,718.675 770.464,717.484C767.208,716.414 763.993,715.153 760.697,714.167C758.592,713.537 756.452,713.022 754.243,712.755C746.001,711.752 738.153,711.921 730.362,712.79C722.521,713.666 714.732,715.252 706.675,717.236C702.802,718.169 698.276,718.681 694.1,719.647C692.35,720.052 690.664,720.536 689.126,721.18L685.107,723.753C680.836,725.543 676.575,727.154 672.344,728.905C669.568,730.054 666.806,731.266 664.06,732.619C662.499,733.396 661.051,734.325 659.665,735.334C656.23,737.837 653.143,740.784 649.579,743.033C646.371,745.061 643.328,747.476 640.496,750.132C637.674,752.778 635.061,755.664 632.763,758.715C630.439,761.761 627.216,763.892 624.467,766.484C623.393,767.496 622.396,768.584 621.587,769.856C619.312,773.428 616.273,776.45 613.704,779.79C612.653,781.155 611.683,782.575 610.893,784.12C610.546,784.801 610.066,785.573 609.534,786.345C608.78,787.44 607.924,788.537 607.227,789.36C607.124,789.472 606.429,790.229 606.15,790.728C606.187,790.855 606.084,791.434 605.994,791.55C606.91,792.762 608.283,794.317 610.034,795.78C613.316,798.521 617.317,801.23 619.133,802.604C623.779,806.11 629.223,809.856 634.933,813.168C640.574,816.439 646.472,819.286 652.055,821.133C654.863,822.062 657.908,822.89 660.819,823.953C662.84,824.69 664.798,825.541 666.578,826.604C681.219,835.35 698.727,842.813 716.758,848.812C734.785,854.809 753.338,859.343 770.114,862.134C779.611,863.714 788.728,867.691 798.243,869.995C800.547,870.554 802.876,871.011 805.241,871.306C816.5,872.71 827.879,873.505 839.175,874.638C844.057,875.127 848.924,875.68 853.759,876.371C855.611,876.635 857.447,876.574 859.271,876.379C862.2,876.067 865.1,875.417 867.984,875.096C871.976,874.652 876.065,874.971 880.103,874.884C881.755,874.849 883.399,874.742 885.022,874.471C891.314,873.422 897.801,872.377 904.251,871.705C907.716,871.344 911.17,871.09 914.577,871C914.652,870.5 914.762,870.003 914.896,869.509C915.396,867.672 916.288,865.874 916.75,864.012C917.774,859.888 918.713,855.583 919.586,851.219C920.881,844.749 922.03,838.148 923.078,831.812C926.447,811.871 930.87,784.843 926.529,761.704C923.617,746.185 916.75,732.414 902.697,723.893C899.877,722.193 896.474,720.912 892.904,719.875C887.507,718.309 881.733,717.305 876.926,716.333C875.088,715.962 873.138,715.937 871.142,716.071C866.327,716.394 861.256,717.609 856.715,717.6C835.266,717.563 813.424,723.32 792.776,732.327C772.182,741.31 752.776,753.527 736.109,766.459C732.452,769.302 729.088,772.418 725.887,775.689C718.314,783.425 711.62,791.993 703.94,799.71C702.242,801.419 700.659,803.205 699.148,805.039C696.844,807.836 694.708,810.748 692.59,813.68C692.484,813.824 691.284,815.88 690.127,817.454C690.147,817.523 689.174,818.656 689.113,818.697L688.859,818.942C687.733,819.931 686.722,819.522 686.66,819.377C686.28,818.86 686.754,817.533 686.83,817.372C687.57,815.806 690.323,812.336 690.466,812.136C692.636,809.173 694.824,806.233 697.18,803.408C698.753,801.523 700.399,799.689 702.165,797.935C709.875,790.262 716.624,781.753 724.208,774.041C727.49,770.704 730.923,767.509 734.663,764.599C751.451,751.51 771.012,739.151 791.768,730.026C793.673,729.188 795.589,728.377 797.516,727.595Z"/>
        </g>
    </g>
</svg>
