<?xml version="1.0" encoding="UTF-8" standalone="no"?>
<!DOCTYPE svg PUBLIC "-//W3C//DTD SVG 1.1//EN" "http://www.w3.org/Graphics/SVG/1.1/DTD/svg11.dtd">
<svg width="100%" height="100%" viewBox="0 0 128 128" version="1.1" xmlns="http://www.w3.org/2000/svg" xmlns:xlink="http://www.w3.org/1999/xlink" xml:space="preserve" xmlns:serif="http://www.serif.com/" style="fill-rule:evenodd;clip-rule:evenodd;stroke-linejoin:round;stroke-miterlimit:2;">
    <g transform="matrix(1,0,0,1,96.0382,-0.234549)">
        <path d="M-33.648,31.469C-33.972,27.059 -36.355,25.598 -37.078,25.258C-38.175,24.739 -39.3,24.789 -40.164,25.399C-40.906,25.918 -41.316,26.883 -41.386,28.258C-41.519,30.864 -40.3,34.68 -39.332,35.52C-38.668,36.016 -37.855,36.278 -37.027,36.262C-36.492,36.27 -35.961,36.149 -35.48,35.914C-34.531,35.434 -33.441,34.278 -33.648,31.469L-33.648,31.469ZM-48.644,34.961C-48.863,34.961 -49.082,34.946 -49.3,34.91C-50.535,34.715 -51.421,34.082 -51.863,33.082C-52.777,31.004 -51.593,27.946 -50.636,26.504C-50.081,25.672 -48.398,23.137 -45.503,24.641C-44.054,25.395 -43.874,29.004 -44.691,31.493C-45.425,33.727 -46.843,34.961 -48.644,34.961L-48.644,34.961ZM-41.449,38.215C-41.769,38.383 -42.128,38.457 -42.488,38.43C-43.683,38.43 -45.39,37.981 -45.753,37.508C-46.296,36.805 -45.378,34.531 -44.921,33.746C-44.757,33.465 -44.257,32.61 -43.542,32.707C-42.273,32.883 -41.304,36.449 -41.292,36.485C-41.058,37.442 -41.101,37.961 -41.449,38.215L-41.449,38.215ZM24.86,93.102C24.954,92.997 24.997,92.856 24.981,92.719L18.712,33.008C19.997,31.461 20.907,30.348 21.442,29.61C22.673,27.918 22.778,26.063 21.739,24.383C20.767,22.879 19.243,21.817 17.497,21.426L16.802,14.817L17.013,14.809C17.149,14.805 17.278,14.743 17.372,14.637C17.462,14.536 17.505,14.399 17.493,14.262L16.767,6.723C16.743,6.454 16.509,6.254 16.243,6.27L15.907,6.29L15.688,4.188L15.685,4.192C15.657,3.922 15.423,3.727 15.153,3.743L11.923,3.969L11.923,3.973C11.79,3.981 11.661,4.043 11.575,4.149C11.489,4.25 11.446,4.387 11.462,4.52L11.673,6.563C7.313,6.864 0.724,7.375 -4.093,8.016C-12.07,9.075 -16.878,12.27 -19.515,14.762C-22.39,17.489 -23.355,19.946 -23.394,20.051C-23.468,20.243 -23.418,20.461 -23.261,20.602C-23.109,20.739 -22.882,20.766 -22.699,20.672C-22.609,20.625 -13.375,15.907 -1.535,15.043C3.774,14.657 11.387,15.028 11.465,15.032L11.512,15.032L12.536,14.989L13.325,22.668C11.7,23.778 10.254,25.383 9,26.774C8.77,27.032 8.547,27.278 8.336,27.508C5.125,31.008 0.758,35.598 -1.809,37.598C-4.676,39.833 -10.555,43.794 -14.145,46.18C-16.477,39.555 -18.352,34.317 -19.719,30.602C-21.813,24.915 -25.727,17.473 -32.492,14.332C-36.379,12.528 -39.429,12.957 -39.851,13.028C-45.218,13.149 -49.468,14.95 -52.488,18.375C-56.977,23.469 -58.719,31.945 -57.668,43.59L-57.672,43.598C-60.164,41.364 -62.473,38.938 -64.59,36.348C-66.988,33.344 -71.406,25.7 -73.195,22.555C-73.586,21.868 -73.871,21.36 -74.016,21.098C-73.848,20.598 -73.43,19.297 -73.117,17.918C-72.516,15.29 -72.617,13.911 -73.441,13.454L-73.438,13.45C-73.723,13.29 -74.07,13.278 -74.367,13.418C-75.258,13.836 -75.91,15.743 -76.301,17.247C-77.297,14.817 -79.168,10.653 -80.477,10.149L-80.473,10.149C-80.719,10.047 -80.992,10.055 -81.231,10.172C-82.242,10.688 -81.817,12.176 -81.137,13.754C-82.137,12.274 -83.035,11.211 -83.895,11.633C-84.875,12.11 -84.297,13.719 -83.445,15.672C-84.836,13.664 -85.703,12.594 -86.492,13.102C-87.641,13.84 -86.481,15.797 -85.356,17.692C-85.246,17.875 -85.125,18.082 -85.004,18.286C-85.274,18.024 -85.551,17.739 -85.777,17.5C-87.215,16.004 -87.996,15.235 -88.672,15.504C-88.844,15.571 -88.973,15.715 -89.024,15.891C-89.117,16.2 -89.258,16.664 -86.359,21.215C-85.082,23.223 -83.758,25.157 -83.566,25.442C-83.488,25.606 -83.172,26.289 -82.68,27.325C-80.691,31.508 -75.727,41.731 -72.5,46.251C-69.918,49.872 -64.156,55.942 -59.691,60.481C-65.007,76.989 -74.39,105.02 -74.488,105.301C-74.55,105.48 -74.503,105.68 -74.367,105.812C-74.234,105.949 -74.035,105.996 -73.855,105.933L-71.519,105.14L-77.734,115.695C-78.859,114.547 -81.804,111.723 -84.449,110.77C-86.398,110.067 -87.679,110.813 -88.222,111.746C-88.886,112.883 -88.585,114.387 -87.499,115.324C-86.445,116.238 -83.339,118.434 -80.574,120.223C-76.062,123.141 -74.675,123.602 -74.128,123.602C-74.023,123.606 -73.921,123.582 -73.824,123.543C-73.546,123.434 -72.972,123.207 -64.542,112.309C-63.585,111.071 -62.632,109.832 -61.734,108.661L-61.035,110.942C-60.992,111.09 -60.874,111.211 -60.73,111.266C-60.581,111.317 -60.417,111.297 -60.285,111.211L-49.277,103.993L-44.55,112.727L-44.55,112.731C-44.48,112.864 -44.351,112.957 -44.202,112.985C-44.054,113.012 -43.898,112.969 -43.784,112.871L-35.171,105.422L-27.777,113.082C-27.683,113.18 -27.55,113.235 -27.417,113.235L-27.394,113.235C-27.249,113.227 -27.116,113.161 -27.027,113.047L-24.894,110.415C-23.464,114.676 -21.851,119.321 -21.113,120.845L-21.116,120.848C-20.523,122.095 -19.448,123.048 -18.136,123.477C-16.679,123.973 -14.921,123.887 -13.655,123.255C-12.116,122.485 0.154,117.911 2.579,117.009C3.118,118.052 4.606,120.954 5.59,122.989C6.192,124.227 7.192,124.723 8.11,124.723L8.106,124.727C8.356,124.727 8.602,124.688 8.84,124.618C9.911,124.29 10.871,123.184 10.618,121.458C10.414,120.087 9.739,116.755 9.004,113.759C7.555,107.86 7.028,107.739 6.649,107.653C5.762,107.454 -5.753,111.399 -12.937,113.911L-13.879,108.723L-8.199,111.489C-8.078,111.548 -7.937,111.555 -7.812,111.509C-7.683,111.462 -7.582,111.368 -7.527,111.247L-3.711,102.887L5.36,104.977L5.364,104.977C5.539,105.02 5.723,104.962 5.848,104.825C5.969,104.692 6.008,104.501 5.949,104.329C5.867,104.091 -2.25,80.29 -9.739,58.782C-2.153,54.571 2.995,50.399 5.995,47.626C8.05,45.723 11.687,41.423 14.863,37.622L20.535,92.899C20.562,93.157 20.777,93.348 21.035,93.348L21.046,93.348L24.495,93.27C24.632,93.266 24.765,93.203 24.859,93.102L24.86,93.102ZM-33.273,21.809C-33.269,21.665 -33.335,21.524 -33.445,21.426L-34.964,20.133L-33.503,19.036C-30.851,20.996 -29.632,24.09 -30.073,28.055C-30.257,29.7 -30.39,31.371 -30.515,32.985C-30.835,37.028 -31.136,40.844 -32.116,42.012C-32.96,43.016 -35.288,42.571 -36.991,42.25C-37.898,42.078 -38.616,41.942 -39.105,42C-39.867,42.094 -40.214,43.11 -40.234,45.414L-40.238,45.414C-40.613,45.676 -41.007,45.918 -41.413,46.133C-41.402,45.289 -41.308,44.45 -41.136,43.629C-41.105,43.5 -41.124,43.364 -41.191,43.25C-41.261,43.137 -41.37,43.055 -41.499,43.024C-41.769,42.957 -42.038,43.122 -42.105,43.387C-42.331,44.438 -42.437,45.512 -42.421,46.59C-42.952,46.797 -43.511,46.938 -44.081,47.008C-44.101,45.864 -44.031,44.723 -43.87,43.59C-43.824,43.321 -44.003,43.063 -44.277,43.016C-44.55,42.969 -44.808,43.153 -44.855,43.422C-45.031,44.614 -45.109,45.817 -45.081,47.02C-45.113,47.016 -45.144,47.016 -45.179,47.012C-45.683,46.957 -46.175,46.825 -46.64,46.618C-46.687,45.493 -46.597,44.368 -46.37,43.266C-46.304,43 -46.468,42.731 -46.734,42.664C-46.999,42.598 -47.269,42.758 -47.339,43.02C-47.554,44.004 -47.659,45.008 -47.652,46.012C-47.859,45.856 -48.05,45.684 -48.23,45.496C-48.113,43.336 -47.859,41.633 -47.855,41.602C-47.835,41.461 -47.874,41.321 -47.964,41.207C-48.054,41.098 -48.187,41.032 -48.327,41.028C-50.199,40.95 -53.136,40.465 -53.499,39.664C-54.054,38.45 -53.589,32.918 -52.015,26.617C-50.984,22.496 -48.003,15.742 -39.605,16.809L-39.609,16.805C-37.777,17 -36.003,17.559 -34.394,18.453L-36.066,19.711L-36.066,19.707C-36.187,19.801 -36.261,19.942 -36.265,20.094C-36.273,20.246 -36.207,20.391 -36.093,20.488L-34.55,21.801L-36.581,23.481C-36.796,23.656 -36.824,23.973 -36.648,24.184C-36.472,24.399 -36.156,24.43 -35.945,24.25L-33.453,22.188L-33.453,22.192C-33.339,22.098 -33.273,21.957 -33.273,21.809L-33.273,21.809ZM-48.281,46.801C-48.07,46.965 -47.847,47.114 -47.617,47.246C-47.562,48.051 -47.456,48.848 -47.296,49.633C-47.238,49.907 -46.976,50.078 -46.703,50.024C-46.433,49.969 -46.261,49.703 -46.316,49.434C-46.433,48.867 -46.515,48.297 -46.574,47.723C-46.156,47.864 -45.726,47.957 -45.288,48.008C-45.206,48.016 -45.124,48.024 -45.042,48.028C-45.007,48.618 -44.949,49.242 -44.855,49.887C-44.82,50.129 -44.609,50.313 -44.363,50.313C-44.339,50.313 -44.312,50.313 -44.288,50.309C-44.16,50.289 -44.038,50.219 -43.96,50.114C-43.882,50.004 -43.847,49.871 -43.867,49.743C-43.953,49.149 -44.011,48.567 -44.042,48.012C-43.476,47.953 -42.917,47.828 -42.378,47.645C-42.32,48.496 -42.183,49.344 -41.98,50.176C-41.949,50.305 -41.867,50.418 -41.753,50.489C-41.64,50.559 -41.503,50.578 -41.374,50.547C-41.242,50.516 -41.132,50.434 -41.062,50.317C-40.995,50.203 -40.976,50.063 -41.011,49.934C-41.226,49.055 -41.355,48.157 -41.398,47.25C-40.992,47.059 -40.601,46.844 -40.218,46.61C-40.214,46.719 -40.21,46.828 -40.206,46.946C-40.148,48.446 -40.011,49.946 -39.933,50.731L-48.089,50.731L-48.089,50.727C-48.257,49.426 -48.324,48.114 -48.281,46.801L-48.281,46.801ZM-74.09,17.688C-74.473,19.36 -75.027,20.965 -75.035,20.981L-75.031,20.981C-75.078,21.114 -75.066,21.262 -74.996,21.387C-74.996,21.387 -74.687,21.942 -74.172,22.852L-74.808,24.782L-78.215,23.876C-78.254,23.864 -78.293,23.86 -78.332,23.86L-78.344,23.86C-78.347,23.86 -78.355,23.864 -78.359,23.864L-78.359,23.86C-78.453,23.864 -78.547,23.895 -78.625,23.946C-78.633,23.95 -78.64,23.954 -78.644,23.962L-78.648,23.962C-78.683,23.989 -78.715,24.024 -78.742,24.059C-78.746,24.067 -78.75,24.075 -78.758,24.083L-78.758,24.079C-78.785,24.122 -78.808,24.165 -78.82,24.212L-79.691,27.055L-81.887,26.665C-82.383,25.614 -82.676,24.985 -82.676,24.985L-82.679,24.981C-82.691,24.958 -82.703,24.93 -82.719,24.907C-84.769,21.922 -86.89,18.59 -87.707,16.981C-87.304,17.352 -86.836,17.84 -86.496,18.192C-85.058,19.688 -84.394,20.336 -83.777,20.001L-83.777,20.004C-83.629,19.922 -83.515,19.782 -83.472,19.618C-83.344,19.157 -83.695,18.54 -84.496,17.188C-84.918,16.477 -85.98,14.688 -85.976,14.083C-85.476,14.477 -84.48,15.93 -83.922,16.751C-82.695,18.544 -82.281,19.145 -81.687,18.817C-81.101,18.493 -81.398,17.829 -82.187,16.047C-82.574,15.176 -83.445,13.215 -83.41,12.59C-82.894,12.876 -81.82,14.524 -81.285,15.344C-80.234,16.958 -79.754,17.696 -79.121,17.297C-78.551,16.938 -78.886,16.223 -79.617,14.661L-79.625,14.661C-80.031,13.848 -80.383,13.008 -80.679,12.145C-80.886,11.462 -80.844,11.18 -80.801,11.098C-80.082,11.387 -78.203,15.001 -76.633,19.122C-76.554,19.333 -76.347,19.462 -76.121,19.442C-75.898,19.422 -75.718,19.258 -75.676,19.036C-75.222,16.657 -74.39,14.411 -73.929,14.321C-73.918,14.329 -73.41,14.708 -74.09,17.688L-74.09,17.688ZM9.746,27.446C10.012,27.149 10.289,26.844 10.571,26.536C10.61,26.536 10.645,26.532 10.684,26.524C11.824,26.262 12.981,26.079 14.145,25.973L14.156,25.973C14.692,25.919 15.235,25.919 15.77,25.981C15.817,25.989 15.86,25.997 15.903,26.004C15.93,26.008 15.957,26.016 15.981,26.02C16.004,26.024 16.035,26.036 16.063,26.044C16.117,26.059 16.172,26.079 16.223,26.102C16.332,26.145 16.43,26.219 16.492,26.321C16.496,26.337 16.504,26.352 16.504,26.372C16.504,26.387 16.504,26.399 16.5,26.415C16.492,26.458 16.477,26.501 16.453,26.536C16.137,26.969 15.641,27.239 15.106,27.274L14.414,27.325C13.824,27.368 13.344,27.399 13.344,27.399C13.125,27.415 12.942,27.567 12.891,27.778C12.676,28.516 12.227,29.169 11.613,29.63C11.387,29.79 11.332,30.102 11.492,30.325C11.649,30.551 11.961,30.606 12.188,30.45C12.903,29.926 13.446,29.204 13.75,28.372L13.91,28.36L14.653,35.598L12.5,35.544L12.532,31.962C12.532,31.93 12.528,31.899 12.524,31.868C12.485,31.657 12.313,31.489 12.094,31.462L9.524,31.122L9.223,28.024C9.391,27.837 9.567,27.645 9.746,27.446L9.746,27.446ZM13.442,23.817L13.567,25.024C12.926,25.09 12.297,25.188 11.774,25.286L11.774,25.282C12.297,24.758 12.856,24.27 13.442,23.817L13.442,23.817ZM16.445,13.833L16.227,13.84L14.203,13.922L11.492,14.032C11.188,14.016 7.981,13.868 4.34,13.868C2.352,13.868 0.239,13.911 -1.605,14.047C-10.988,14.735 -18.765,17.801 -21.796,19.149C-20.191,16.508 -15.363,10.52 -3.96,9.008C2.919,8.094 13.458,7.442 15.821,7.301L16.445,13.833ZM18.567,31.618L17.606,22.473C18.953,22.872 20.117,23.735 20.887,24.907C21.461,25.836 21.883,27.301 20.633,29.02C20.203,29.618 19.512,30.473 18.567,31.618L18.567,31.618Z" style="fill-rule:nonzero;"/>
    </g>
</svg>
