<?xml version="1.0" encoding="UTF-8" standalone="no"?>
<!DOCTYPE svg PUBLIC "-//W3C//DTD SVG 1.1//EN" "http://www.w3.org/Graphics/SVG/1.1/DTD/svg11.dtd">
<svg width="100%" height="100%" viewBox="0 0 1500 1500" version="1.1" xmlns="http://www.w3.org/2000/svg" xmlns:xlink="http://www.w3.org/1999/xlink" xml:space="preserve" xmlns:serif="http://www.serif.com/" style="fill-rule:evenodd;clip-rule:evenodd;stroke-linejoin:round;stroke-miterlimit:2;">
    <g transform="matrix(1.42424,0,0,1.42424,-311.654,-674.393)">
        <path d="M1078.21,737.006C1086.92,741.595 1090.67,752.189 1086.49,761.763C1084.69,765.896 1081.14,768.978 1077.2,771.677C1072.85,774.668 1068,777.169 1064.05,779.793C1053.68,786.691 1045.76,795.556 1040.46,806.825C1031.14,826.658 1028.72,849.566 1025.53,871.001C1023.59,884.056 1023.18,898.185 1014.15,908.718C1014.07,908.815 1013.99,908.917 1013.93,909.021C1008.53,913.561 1003.45,918.147 999.348,924.284C994.091,932.147 990.989,941.732 983.748,948.154C977.071,954.076 967.869,956.131 960.151,960.303C951.712,964.865 944.768,971.501 938.661,978.822C929.567,989.725 924.923,1003.72 916.811,1015.33C902.735,1035.49 883.776,1044.55 860.438,1044.72C862.554,1040.57 864.404,1036.28 865.873,1031.81C866.574,1029.68 867.219,1027.53 867.81,1025.38C868.433,1025.37 869.057,1025.16 869.569,1024.72C872.842,1021.95 876.262,1018.55 877.749,1014.45C878.425,1012.58 878.692,1010.69 879.011,1008.81C879.255,1007.38 879.525,1005.94 880.262,1004.56C881.979,1001.33 884.76,998.85 886.799,995.836C892.281,987.73 896.242,978.374 895.151,968.377C894.753,964.726 894.053,961.227 891.819,958.203C891.135,957.277 890.36,956.418 889.544,955.608C888.451,954.524 887.425,953.798 886.427,953.316C887.743,951.774 889.282,950.342 890.744,948.865C893.063,946.521 895.194,944.065 896.414,941.156C897.095,939.531 897.176,937.76 897.049,935.974C896.98,935.006 896.852,934.036 896.832,933.107C896.82,932.551 896.826,932.012 897.036,931.532C897.961,929.424 900.055,927.575 901.703,925.523C904.04,922.613 905.625,919.418 904.747,915.54C904.163,912.961 902.774,910.609 901.171,908.358C899.846,906.497 898.373,904.708 897.338,902.833C896.492,901.299 896.012,899.672 895.417,898.096C894.656,896.08 893.736,894.139 892.149,892.403C890.359,890.447 888.214,888.767 886.24,886.951C884.613,885.454 883.096,883.868 882.211,881.784C880.733,878.305 882.326,874.967 883.454,871.53C885.033,866.72 886.116,861.819 882.916,856.558C878.067,848.587 871.406,844.49 864.078,841.395C857.356,838.556 850.05,836.61 843.299,832.798C839.649,830.737 837.757,827.48 835.845,824.292C833.465,820.324 831.073,816.43 826.799,813.882C819.477,809.515 811.926,808.888 804.252,809.029C797.281,809.156 790.212,809.952 783.176,808.501C778.741,807.586 774.889,805.387 770.936,803.483C766.397,801.298 761.743,799.471 756.257,799.606C744.753,799.888 726.499,804.866 718.501,813.582C715.834,816.488 714.215,819.918 712.454,823.242C710.997,825.991 709.445,828.673 706.657,830.652C704.821,831.955 703.06,831.543 701.328,830.819C699.639,830.114 697.968,829.109 696.285,828.303C691.667,826.092 685.973,825.419 681.117,827.459C677.038,829.172 674.559,832.186 672.718,835.707C671.158,838.691 670.092,842.059 668.626,845.051C666.697,848.987 664.286,852.202 663.678,856.633C663.361,858.943 663.512,861.266 663.494,863.561C663.479,865.337 663.37,867.099 662.546,868.798C660.304,873.419 656.222,875.999 652.652,879.012C648.276,882.705 644.517,886.883 643.877,894.276C643.658,896.807 644.604,898.998 645.981,901.085C646.73,902.222 647.611,903.33 648.317,904.508C648.724,905.189 649.081,905.891 649.217,906.671C648.916,907.001 648.267,907.697 647.738,908.151C645.402,910.157 642.355,912.375 641.546,913.563C639.372,916.756 639.397,919.859 640.328,922.907C640.987,925.063 642.177,927.184 643.076,929.273C636.56,933.891 634.275,942.581 634.838,950.259C635.102,953.852 636.418,957.29 636.112,960.938C635.888,963.62 634.723,966.063 633.58,968.532C632.183,971.553 630.793,974.601 630.377,977.928C629.854,982.11 631.03,987.306 633.66,991.282C635.527,994.105 638.107,996.307 641.235,997.278C644.328,998.238 647.73,997.761 650.812,996.912C652.513,1007.12 654.415,1017.68 657.014,1028.05C645.457,1019.66 634.032,1011.44 624.996,1000.08C618.398,991.787 614.22,982.359 608.455,973.566C603.847,966.538 597.099,961.021 591.757,954.566C585.049,946.46 579.105,936.876 570.928,930.151C561.291,922.226 548.596,919.503 537.349,914.725C530.637,911.874 525.138,907.297 519.127,903.27C509.235,896.642 501.247,891.938 495.255,882.046C489.85,867.563 492.987,852.848 496.361,837.98C500.181,821.144 504.327,804.117 498.841,787.013C495.399,776.284 489.395,767.084 480.253,760.389C474.705,756.326 466.344,751.92 460.02,746.3C454.44,741.342 450.427,735.412 452.68,727.599C454.614,720.892 460.927,717.407 468.396,715.076C481.089,711.117 497.181,710.648 505.72,707.497C509.695,706.03 517.257,702.525 521.243,697.727C524.458,693.856 525.64,689.245 522.36,684.124C520.665,681.477 517.713,679.429 514.257,677.958C509.658,676.001 504.178,675.022 500.419,674.525C491.203,673.304 481.7,674.406 472.286,674.893C463.459,675.35 454.705,675.27 446.391,671.723C441.239,669.525 438.481,667.136 437.378,664.322C436.286,661.538 436.836,658.493 437.773,655.253C439.295,649.989 441.919,644.306 442.841,638.437C444.36,628.768 439.673,616.141 429.299,613.302C422.456,611.429 417.008,613.965 412.431,618.446C408.002,622.782 404.479,629.11 401.119,634.028C400.523,632.343 399.788,630.713 398.817,629.2C394.309,622.167 388.267,617.6 379.63,620.165C369.412,623.198 366.657,631.619 366.162,641.192C366.133,641.756 366.068,644.406 366.013,646.787C365.663,646.502 365.399,646.289 365.296,646.214C361.772,643.633 357.403,641.515 353.061,640.91C347.367,640.116 340.598,642.409 335.439,646.583C330.158,650.855 326.636,657.023 327.27,663.516C327.466,665.525 328.326,667.518 329.535,669.411C330.41,670.78 331.473,672.101 332.491,673.345C327.529,674.612 321.744,677.731 317.967,681.783C314.784,685.196 313.034,689.246 313.716,693.344C314.17,696.067 315.693,698.893 318.846,701.579C320.901,703.329 324.174,704.493 328.085,705.303C333.115,706.344 339.297,706.9 344.705,708.263C349.259,709.411 353.313,710.996 354.949,714.573C356.031,716.94 355.955,720.076 354.561,724.309C353.512,727.492 352.27,730.63 350.74,733.615C329.772,774.504 313.508,816.083 298.412,859.551C290.519,882.281 281.515,904.86 276.287,928.404C265.987,974.788 263.341,1021.26 259.071,1068.38L258.911,1068.34C256.993,1067.83 255.075,1067.33 253.156,1066.83C252.516,1066.66 248.866,1065.67 248.79,1065.65C248.433,1065.59 247.636,1070.4 247.852,1070.65C247.852,1070.65 249.1,1156.39 248.785,1199.54C248.406,1251.63 245.157,1300.6 246.043,1352.73C246.069,1354.25 326.599,1372.93 365.605,1381.98C397.043,1389.27 429.064,1393.68 460.64,1400.3C474.95,1403.3 489.285,1406.3 503.473,1409.85C512.791,1412.18 522.002,1415.78 531.623,1416.69C531.812,1416.74 532.01,1416.77 532.213,1416.77C532.367,1416.78 577.334,1419.89 599.408,1420.41C679.774,1422.31 760.595,1420.92 840.992,1420.62C879.546,1420.48 917.155,1424.08 955.712,1421.39C955.822,1421.39 958.131,1421.16 958.345,1421.1C1001.84,1410.1 1046.23,1402.69 1089.75,1391.61C1140.29,1378.74 1190.71,1363.8 1242.22,1355.13C1243.71,1354.88 1244.72,1353.46 1244.47,1351.96C1244.45,1351.87 1244.43,1351.77 1244.41,1351.68C1243.77,1332.43 1245.04,1313.23 1244.94,1293.97C1244.78,1263.41 1243.56,1232.9 1243.93,1202.34C1244.47,1158.08 1245.27,1113.8 1240.43,1069.74C1240.26,1068.23 1238.9,1067.14 1237.4,1067.31C1236.89,1067.36 1229,1069.64 1225.47,1070.54C1225.57,1062.85 1224.34,1055.26 1223.16,1047.68C1221.89,1039.52 1220.68,1031.37 1221.5,1023.12C1222.41,1013.9 1225.38,1005.48 1227.76,996.939C1230.28,987.891 1232.14,978.726 1230.66,968.512C1228.48,953.483 1220.02,940.846 1214.75,926.868C1211.27,917.637 1210.38,908.192 1209.74,898.503C1209.85,898.219 1209.91,897.913 1209.91,897.593C1210.5,868.385 1207.75,842.528 1195.14,815.669C1190.31,805.389 1183.57,795.673 1177.5,785.66C1171.66,776.019 1166.43,766.102 1164.41,755.039C1162.6,745.151 1165.67,734.93 1172.35,727.412C1176.94,722.249 1183.11,716.953 1188.04,711.009C1193.4,704.549 1197.3,697.335 1196.88,688.894C1196.57,682.717 1193.01,679.28 1188.26,677.407C1184.19,675.808 1179.17,675.457 1175.02,675.363C1172.9,675.315 1170.79,675.298 1168.67,675.357C1168.67,675.357 1172,671.776 1173.08,670.359C1177.34,664.74 1182.22,655.609 1183.33,647.366C1183.94,642.806 1183.41,638.502 1181.3,635.028C1179.17,631.511 1175.41,628.733 1169.27,627.537C1164.14,626.538 1152.6,628.784 1152.09,628.919C1152.09,628.919 1155.66,619.369 1156.88,615.329C1161.68,599.441 1154.46,579.645 1135.57,577.921C1127.2,577.156 1121.55,581.055 1117.74,586.992C1112.6,594.997 1111.05,607.005 1110.41,614.816C1110.25,616.724 1110.05,618.616 1109.81,620.503C1108.95,618.227 1108.12,615.937 1107.18,613.678C1104.29,606.667 1096.98,598.376 1088.69,594.053C1079.8,589.408 1069.9,589.183 1062.69,598.608C1052.32,612.158 1059.32,623.983 1067.85,635.79C1071.63,641.017 1075.65,646.24 1077.99,651.699C1080.1,656.623 1080.78,661.745 1078.22,667.251C1073.53,677.341 1064.09,681.502 1053.62,683.304C1042.4,685.235 1029.98,684.455 1020.15,684.522C1007.15,684.61 991.392,688.701 991.066,704.84C990.84,716.056 1001.12,724.041 1010.91,726.81C1020.86,729.624 1031.81,728.957 1042.05,729.83C1054,730.848 1077.77,737.101 1078.21,737.006ZM953.299,1142.12C946.624,1142.32 939.947,1142.5 933.27,1142.65C919.638,1142.96 906.005,1143.19 892.371,1143.34C812.49,1144.25 732.61,1142.73 652.735,1141.98C625.741,1141.72 598.746,1141.55 571.751,1141.6C558.395,1141.62 530.865,1141.84 530.865,1141.84C530.169,1161.33 533.71,1180.99 534.054,1200.53C534.757,1240.42 533.593,1280.47 533.541,1320.39C533.501,1350.65 535.967,1381.06 534.237,1411.32L534.443,1411.33C540.748,1411.51 547.048,1411.85 553.343,1412.24C566.025,1413.04 578.693,1414.09 591.39,1414.64C593.404,1414.73 595.419,1414.8 597.434,1414.86C598.763,1414.9 600.091,1414.93 601.42,1414.96C602.675,1414.99 603.93,1415.01 605.186,1415.04C610.208,1415.15 615.231,1415.25 620.254,1415.33C636.594,1415.61 652.937,1415.77 669.28,1415.84L669.343,1415.84C671.068,1400.08 669.827,1384.11 670.265,1368.28C671.123,1337.2 671.863,1306.25 671.218,1275.18C671.2,1274.3 671.595,1273.51 672.226,1273C673.919,1265.11 675.443,1257.71 680.21,1250.62C701.214,1219.39 747.798,1204.53 781.854,1221.54C794.093,1227.66 805.171,1239.8 812.105,1251.32C825.035,1272.8 820.336,1295.61 819.499,1319.51C818.382,1351.4 819.636,1383.32 818.727,1415.23L820.248,1415.22C825.273,1415.19 863.828,1415.39 871.88,1415.63C887.46,1416.1 903.037,1416.75 918.625,1416.88C925.771,1416.94 932.919,1416.89 940.062,1416.66C944.704,1416.52 949.344,1416.3 953.979,1416L954.006,1416C956.705,1366.09 953.808,1315.37 953.477,1265.41C953.29,1237.19 952.551,1208.85 952.89,1180.64C953.045,1167.74 954.437,1155.01 954.104,1142.1L953.299,1142.12ZM813.509,1350.24L813.337,1350.24C809.75,1350.25 806.169,1350.32 802.589,1350.44C802.46,1356 802.302,1361.55 802.114,1367.09C802.063,1368.61 800.789,1369.8 799.272,1369.75C797.755,1369.7 796.566,1368.42 796.617,1366.91C796.801,1361.5 796.955,1356.08 797.082,1350.66C792.749,1350.85 788.418,1351.09 784.086,1351.32C784.09,1355.85 784.055,1360.38 783.969,1364.9C783.94,1366.42 782.684,1367.63 781.167,1367.6C779.649,1367.57 778.441,1366.31 778.47,1364.8C778.554,1360.4 778.589,1356.01 778.587,1351.61C775.58,1351.77 772.572,1351.91 769.561,1352.02C767.774,1352.09 765.986,1352.14 764.199,1352.18C764.261,1356.69 764.363,1361.21 764.517,1365.74C764.569,1367.25 763.379,1368.53 761.862,1368.58C760.345,1368.63 759.072,1367.44 759.02,1365.92C758.865,1361.37 758.762,1356.81 758.701,1352.26C754.874,1352.29 751.045,1352.28 747.215,1352.27C747.264,1356.68 747.376,1361.09 747.58,1365.51C747.65,1367.03 746.475,1368.32 744.959,1368.39C743.443,1368.46 742.155,1367.28 742.086,1365.77C741.878,1361.26 741.764,1356.76 741.716,1352.25C737.97,1352.25 734.227,1352.26 730.486,1352.32C729.408,1352.34 728.33,1352.35 727.248,1352.35C727.373,1356.09 727.519,1359.83 727.69,1363.57C727.759,1365.08 726.584,1366.37 725.068,1366.44C723.552,1366.51 722.265,1365.33 722.196,1363.82C722.021,1359.99 721.871,1356.16 721.745,1352.32C716.925,1352.27 712.094,1352.13 707.264,1352C707.215,1355.34 707.244,1358.67 707.398,1362C707.468,1363.52 706.294,1364.81 704.778,1364.88C703.261,1364.95 701.974,1363.77 701.904,1362.26C701.744,1358.8 701.716,1355.33 701.771,1351.87C697.66,1351.79 693.552,1351.74 689.451,1351.79C689.511,1355.12 689.619,1358.46 689.787,1361.8C689.863,1363.32 688.694,1364.61 687.179,1364.68C685.663,1364.76 684.37,1363.59 684.294,1362.08C684.123,1358.69 684.014,1355.3 683.953,1351.91C681.359,1352.01 678.772,1352.15 676.19,1352.36C676.055,1357.71 675.911,1363.07 675.762,1368.43C675.326,1384.21 676.516,1400.14 674.872,1415.86C720.982,1416.02 767.154,1415.54 813.224,1415.26C813.847,1393.59 813.469,1371.91 813.509,1350.24ZM1233.68,1074.12C1216.6,1078.47 1199.51,1082.8 1182.41,1087.09C1147.47,1095.86 1112.49,1104.47 1077.45,1112.83C1051.16,1119.09 1024.85,1125.21 998.487,1131.14C985.678,1134.02 972.859,1136.86 960.029,1139.64L959.529,1139.75C960.091,1153.49 958.555,1167 958.39,1180.71C958.051,1208.88 958.79,1237.19 958.976,1265.37C959.306,1315.06 962.157,1365.49 959.56,1415.13C959.56,1415.13 1044.87,1397.36 1088.39,1386.28C1138.28,1373.57 1188.05,1358.88 1238.86,1350.12C1238.34,1331.4 1239.54,1312.73 1239.44,1294C1239.28,1263.41 1238.06,1232.86 1238.43,1202.27C1238.95,1159.37 1239.73,1116.43 1235.32,1073.7L1233.68,1074.12ZM253.325,1072.56C252.704,1114.85 254.594,1157.25 254.285,1199.58C254.19,1212.62 253.915,1225.64 253.57,1238.65C255.628,1237.88 257.999,1237.01 260.317,1236.58C262.804,1236.11 265.241,1236.14 267.334,1236.96C270.989,1238.4 273.442,1241.19 275.979,1243.96C277.885,1246.05 279.846,1248.14 283.051,1248.93C289.975,1250.65 297.694,1251.31 304.963,1252.38C304.805,1223.49 306.942,1194.62 305.689,1165.76C302.522,1164.2 292.955,1159.96 292.872,1158.45C292.216,1146.48 292.919,1134.36 293.179,1122.36C292.821,1121.91 293.146,1118.73 294.01,1118.25C294.52,1117.74 297.036,1117.6 297.451,1117.86C301.667,1117.76 305.885,1117.62 310.1,1117.49C311.44,1117.44 312.588,1118.37 312.872,1119.63C313.211,1120.1 313.189,1127.44 313.089,1130.5C314.553,1130.5 316.017,1130.52 317.481,1130.53C317.458,1127.63 317.08,1121.02 317.096,1120.57C317.149,1119.05 318.424,1117.86 319.94,1117.91C324.501,1118.07 329.06,1118.39 333.623,1118.49C334.878,1118.51 335.92,1119.38 336.224,1120.54C336.317,1120.7 336.435,1122.41 336.525,1124.54C336.632,1127.07 336.7,1130.2 336.638,1132.07C338.099,1132.1 339.559,1132.11 341.02,1132.11C340.997,1128.74 340.609,1121.11 340.636,1120.61C340.719,1119.1 342.017,1117.93 343.532,1118.02C349.107,1118.32 354.771,1118.22 360.357,1118.16C361.23,1118.15 362.012,1118.55 362.524,1119.18C363.624,1119.53 364.423,1120.57 364.427,1121.78C364.475,1135.12 364.452,1148.44 364.37,1161.78C364.363,1162.86 355.954,1168.48 353.058,1170.08C353.004,1187.63 353.909,1205.17 353.876,1222.71C353.847,1238.09 352.729,1253.66 353.192,1269.05C355.402,1267.96 357.557,1266.88 359.635,1266.08C368.532,1262.68 377.653,1263.55 386.275,1267.27C394.69,1270.9 403.542,1277.86 405.892,1287.14C406.575,1289.84 406.464,1293.4 406.663,1296.83C406.812,1299.4 407.042,1301.93 408.603,1303.58C409.855,1304.91 411.412,1305.49 413.053,1305.81C415.144,1306.23 417.372,1306.25 419.51,1306.42C423.161,1306.72 426.554,1307.49 429.12,1310C432.717,1313.51 434.398,1318.77 435.764,1324.23C436.916,1328.84 437.83,1333.6 440.226,1337.06C442.31,1340.07 445.47,1341.75 448.55,1343.46C452.366,1345.58 456.09,1347.74 458.545,1351.26C460.737,1354.4 461.148,1358.15 461.559,1361.92C461.861,1364.68 462.13,1367.49 464.105,1369.78C466.303,1372.33 469.255,1374.11 472.054,1376.04C475.395,1378.34 478.534,1380.84 480.555,1384.46C482.956,1388.76 482.78,1394.52 482.557,1399.34C489.998,1400.97 497.422,1402.67 504.807,1404.51C512.762,1406.5 520.625,1409.5 528.759,1410.79C530.46,1380.7 528.001,1350.47 528.041,1320.38C528.093,1280.5 529.257,1240.48 528.555,1200.63C528.21,1181.05 524.695,1161.33 525.363,1141.8C487.789,1133.43 449.818,1125.86 412.543,1116.36C359.2,1102.76 306.534,1086.55 253.325,1072.56ZM477.118,1398.16C477.326,1394.49 477.524,1390.31 475.753,1387.14C474.153,1384.28 471.576,1382.39 468.931,1380.57C465.745,1378.37 462.441,1376.27 459.938,1373.37C457.186,1370.18 456.513,1366.37 456.092,1362.51C455.781,1359.66 455.689,1356.78 454.033,1354.4C452.056,1351.57 448.949,1349.98 445.876,1348.27C442.067,1346.15 438.282,1343.91 435.705,1340.19C432.962,1336.23 431.747,1330.84 430.428,1325.56C429.322,1321.14 428.189,1316.78 425.276,1313.93C423.119,1311.82 419.965,1311.95 416.847,1311.75C412.36,1311.46 407.899,1310.85 404.603,1307.36C402.632,1305.27 401.713,1302.39 401.348,1299.24C400.922,1295.56 401.311,1291.46 400.56,1288.49C398.618,1280.82 391.05,1275.32 384.095,1272.32C376.813,1269.18 369.114,1268.35 361.599,1271.22C357.691,1272.72 353.516,1275.22 349.207,1276.94C344.244,1278.92 339.118,1279.87 334.003,1277.97C329.306,1276.23 326.412,1272.63 323.783,1268.73C321.681,1265.6 319.793,1262.24 316.605,1260.15C315.51,1259.44 314.167,1259.17 312.806,1258.99C311.002,1258.73 309.152,1258.64 307.512,1258.35C299.151,1256.89 289.895,1256.3 281.728,1254.27C277.346,1253.19 274.526,1250.52 271.921,1247.67C269.947,1245.52 268.162,1243.2 265.318,1242.08C263.768,1241.47 261.899,1241.79 260.054,1242.27C257.7,1242.88 255.382,1243.87 253.54,1244.53C253.496,1244.54 253.452,1244.56 253.409,1244.57C252.433,1279.46 251.075,1314.31 251.456,1349.28C290.522,1356.15 328.245,1367.67 366.848,1376.62C398.248,1383.91 430.231,1388.3 461.769,1394.92C466.885,1395.99 472.004,1397.07 477.118,1398.16ZM1095.44,1182.13C1088.13,1183.25 1080.85,1185.55 1074.14,1188.73C1074.9,1182.45 1073.58,1175.9 1069.48,1170.88C1065.65,1166.19 1059.45,1161.76 1054.96,1156.65C1054.8,1156.46 1054.63,1156.27 1054.47,1156.08C1057.68,1154.51 1061.81,1152.25 1064.72,1149.33C1068.45,1145.59 1070.33,1140.89 1067.4,1135.27C1065.35,1131.32 1061.76,1130.07 1057.96,1130.58C1053.03,1131.24 1047.8,1135.23 1046.17,1139.17C1042.66,1147.7 1045.67,1154.4 1050.83,1160.28C1055.27,1165.34 1061.43,1169.72 1065.22,1174.36C1069.01,1179.01 1069.56,1185.38 1068.12,1191.04C1068.05,1191.35 1068.02,1191.65 1068.05,1191.95C1067.12,1192.5 1066.21,1193.06 1065.32,1193.63C1054.84,1200.38 1046.81,1209.2 1040.86,1219.26C1041.55,1213.68 1042.4,1208.12 1042.68,1202.49C1043.1,1193.98 1041.99,1186.22 1034.96,1180.55C1029.73,1176.33 1023.51,1175.09 1017.03,1174.7C1013.23,1174.47 1009.35,1174.55 1005.59,1174.34C1010.47,1167.19 1009.72,1156.94 999.706,1153.42C995.862,1152.06 991.8,1153.12 988.796,1155.6C985.844,1158.03 983.97,1161.8 984.294,1165.75C984.928,1173.47 991.756,1177.77 998.766,1179.09C1004.45,1180.16 1010.68,1179.83 1016.7,1180.19C1022.03,1180.51 1027.21,1181.36 1031.51,1184.83C1037.04,1189.29 1037.51,1195.52 1037.18,1202.21C1036.72,1211.57 1034.7,1220.72 1034.4,1230.08C1034.39,1230.62 1034.53,1231.14 1034.8,1231.58C1030.89,1241.27 1028.5,1251.68 1027.35,1262.23C1023.53,1264.15 1019.76,1266.22 1015.54,1267.09C1013.54,1267.5 1011.38,1267.67 1009.35,1267.5C1003.45,1267.01 999.767,1263.05 997.202,1258.17C994.306,1252.68 992.802,1246 991.59,1240.78C990.694,1236.91 989.319,1231.71 986.691,1227.93C984.624,1224.95 981.824,1222.81 978.074,1222.31C973.463,1221.71 969.448,1224.19 966.972,1227.96C964.62,1231.53 963.748,1236.21 964.941,1239.97C966.136,1243.74 968.954,1246.63 972.522,1248.49C977.324,1250.99 983.466,1251.55 988.252,1250.07C989.284,1253.69 990.583,1257.41 992.335,1260.74C995.785,1267.29 1000.95,1272.32 1008.89,1272.98C1011.44,1273.2 1014.15,1272.99 1016.65,1272.48C1020.18,1271.75 1023.44,1270.3 1026.65,1268.73C1026.57,1268.99 1026.53,1269.28 1026.54,1269.57C1026.69,1276.76 1027.71,1283.96 1029.6,1290.92C1029.51,1290.95 1029.42,1291 1029.33,1291.04C1025.33,1293.13 1020.74,1296.44 1015.96,1298.71C1011.89,1300.65 1007.69,1301.89 1003.65,1300.16C1000.52,1298.81 998.531,1296.42 996.717,1293.86C994.527,1290.76 992.58,1287.41 989.855,1284.67C985.89,1280.69 979.848,1279.38 974.918,1282.49C969.103,1286.15 967.315,1292.64 969.213,1297.66C970.511,1301.1 973.501,1303.96 978.285,1304.83C984.221,1305.91 989.639,1302.92 993.395,1298.61C995.519,1301.34 998.002,1303.71 1001.48,1305.21C1005.96,1307.14 1010.61,1306.68 1015.18,1305.01C1020.88,1302.92 1026.45,1298.85 1031.24,1296.25C1032.02,1298.52 1032.9,1300.76 1033.87,1302.95C1035.06,1305.62 1036.35,1308.33 1037.75,1311.01C1030.94,1316.31 1026.66,1323.32 1023.25,1331.32C1021.81,1334.68 1020.37,1338.59 1018.26,1341.88C1016.46,1344.71 1014.15,1347.09 1010.71,1347.91C1006.32,1348.96 1001.98,1347.51 998.315,1344.95C997.412,1344.33 996.549,1343.63 995.734,1342.88C999.936,1338.35 1004.04,1333.19 1003.76,1326.6C1003.62,1323.07 1001.6,1319.62 998.769,1317.62C995.703,1315.45 991.779,1314.91 988.193,1317.29C981.262,1321.9 981.507,1329.75 984.495,1336.55C988.794,1346.34 1000.39,1356.03 1011.98,1353.26C1016.9,1352.09 1020.32,1348.87 1022.9,1344.85C1025.17,1341.3 1026.76,1337.1 1028.31,1333.48C1031.23,1326.62 1034.8,1320.53 1040.47,1315.88C1043.78,1321.43 1047.66,1326.65 1052.31,1330.89C1077.43,1353.78 1119.98,1353.24 1146.01,1332.27C1163.91,1317.85 1175.22,1295.36 1177.74,1272.52C1186.81,1277.33 1194.62,1283.98 1195.93,1294.83C1196.51,1299.64 1194.79,1306.69 1195.24,1312.69C1195.62,1317.65 1197.34,1321.94 1201.72,1324.54C1204.43,1326.15 1207.26,1325.65 1209.69,1323.92C1212.63,1321.83 1214.79,1317.74 1214.97,1315C1215.5,1306.89 1209.66,1300.54 1202.3,1298.58C1202.02,1298.51 1201.74,1298.48 1201.47,1298.49C1201.55,1296.93 1201.55,1295.47 1201.39,1294.17C1199.79,1280.88 1190.22,1272.66 1178.98,1266.97C1178.73,1266.84 1178.46,1266.75 1178.18,1266.71C1178.21,1266.06 1178.24,1265.41 1178.25,1264.77C1178.32,1261.68 1178.27,1258.51 1178.05,1255.32C1187.97,1258.5 1199.4,1259.3 1207.36,1251.32C1208.47,1250.2 1209.54,1248.54 1210.63,1246.68C1215.95,1251.06 1224.2,1252.53 1228.62,1245.37C1230.12,1242.95 1230.09,1239.51 1228.81,1236.52C1227.53,1233.54 1225.07,1231.14 1222.32,1230.52C1217.88,1229.51 1214.37,1231.56 1211.51,1235.05C1209.79,1237.13 1208.31,1239.75 1206.91,1242.21C1205.73,1244.28 1204.65,1246.24 1203.46,1247.43C1196.62,1254.3 1186.55,1252.51 1178.19,1249.56C1177.95,1249.48 1177.71,1249.43 1177.47,1249.41C1176.98,1245.77 1176.26,1242.18 1175.23,1238.78C1174.81,1237.39 1174.35,1236.01 1173.84,1234.64C1174.09,1234.48 1174.32,1234.28 1174.52,1234.04C1176.93,1231.08 1179.2,1228 1180.4,1224.33C1181.55,1220.86 1182.09,1217.46 1182.9,1214.31C1183.92,1210.34 1185.39,1206.77 1189.92,1204.16C1193.27,1202.23 1197.3,1201.71 1201.41,1201.3C1206.1,1200.84 1210.89,1200.56 1215.1,1199.22C1217.71,1198.39 1220.69,1196.7 1222.7,1194.4C1224.24,1192.64 1225.23,1190.52 1225.3,1188.16C1225.43,1184.05 1222.97,1180.88 1219.61,1179.31C1216.38,1177.8 1212.35,1177.84 1209.27,1179.82C1204.41,1182.96 1202.32,1190.01 1202.34,1195.69C1201.85,1195.73 1201.36,1195.78 1200.86,1195.83C1195.96,1196.31 1191.17,1197.09 1187.18,1199.39C1182.04,1202.35 1179.71,1206.16 1178.29,1210.48C1177.06,1214.2 1176.58,1218.35 1175.18,1222.62C1174.4,1225 1173.02,1227.05 1171.5,1229.01C1164.55,1213.92 1152.5,1200 1137.95,1191.15C1144.3,1181.88 1153.47,1177.2 1164.07,1172.83C1169.21,1170.72 1175.09,1168.33 1179.68,1164.83C1184.77,1160.96 1188.35,1155.78 1188.27,1148.36C1188.25,1146.27 1187.67,1144.25 1186.78,1142.37C1180.36,1128.89 1159.75,1136.46 1163.31,1151.02C1163.84,1153.19 1164.95,1155.26 1166.32,1157.01C1168.17,1159.41 1170.38,1161.17 1172.83,1162.77C1169.34,1164.77 1165.46,1166.31 1161.98,1167.75C1150.18,1172.61 1140.12,1178 1133.13,1188.46C1124.17,1183.88 1114.42,1181.24 1104.44,1181.37C1103.26,1181.39 1102.09,1181.43 1100.91,1181.52C1099.99,1173.41 1100.53,1166.58 1106.57,1160.09C1112.73,1153.47 1119.95,1148.47 1125.14,1140.92C1128.66,1135.8 1130.71,1129.32 1128.5,1123.17C1127.2,1119.58 1123.95,1116.6 1120.31,1115.4C1116.39,1114.11 1112.1,1114.78 1109.12,1118.49C1102.28,1127 1108.37,1138.45 1116.7,1142.66C1112.27,1147.5 1107.1,1151.45 1102.55,1156.34C1095.26,1164.16 1094.35,1172.33 1095.44,1182.13ZM726.639,1318.29C726.683,1327.82 726.816,1337.34 727.08,1346.85C728.188,1346.85 729.294,1346.84 730.398,1346.82C734.159,1346.76 737.922,1346.75 741.688,1346.76C741.689,1337.26 741.931,1327.79 742.149,1318.3L741.901,1318.3C736.851,1318.31 731.802,1318.31 726.753,1318.29L726.639,1318.29ZM676.86,1317.34C676.75,1327.16 676.558,1336.99 676.325,1346.83C678.843,1346.64 681.367,1346.5 683.895,1346.42C683.862,1336.82 684.168,1327.21 684.53,1317.61L684.038,1317.6C682.417,1317.55 680.796,1317.49 679.175,1317.43C678.635,1317.41 678.095,1317.39 677.554,1317.37C677.331,1317.36 677.099,1317.36 676.873,1317.34L676.86,1317.34ZM708.679,1318.15C708.638,1319.5 708.597,1320.86 708.556,1322.22C708.312,1330.32 707.705,1338.41 707.409,1346.52C712.136,1346.64 716.862,1346.77 721.578,1346.83L721.576,1346.77C721.461,1342.54 721.37,1338.32 721.301,1334.1C721.218,1328.96 721.168,1323.82 721.142,1318.68L720.803,1318.27C716.836,1318.24 712.87,1318.2 708.904,1318.15L708.679,1318.15ZM758.817,1318.23C755.093,1318.25 751.37,1318.27 747.648,1318.28C747.429,1327.78 747.184,1337.27 747.185,1346.77C751.006,1346.78 754.827,1346.79 758.645,1346.76C758.582,1337.25 758.675,1327.74 758.817,1318.23ZM778.075,1318.13C773.489,1318.15 768.902,1318.18 764.315,1318.2C764.174,1327.69 764.08,1337.18 764.144,1346.68C765.881,1346.64 767.618,1346.59 769.353,1346.53C772.427,1346.41 775.497,1346.27 778.567,1346.11C778.503,1336.78 778.299,1327.45 778.075,1318.13ZM690.025,1317.78C689.664,1327.28 689.361,1336.79 689.393,1346.3C693.562,1346.25 697.74,1346.3 701.918,1346.39C702.215,1338.27 702.814,1330.16 703.058,1322.05C703.098,1320.72 703.139,1319.39 703.179,1318.07C698.793,1317.99 694.409,1317.9 690.025,1317.78ZM797.546,1318.08C792.891,1318.08 788.235,1318.09 783.574,1318.11C783.796,1327.34 783.998,1336.58 784.064,1345.82C788.443,1345.58 792.821,1345.34 797.202,1345.15C797.384,1336.13 797.494,1327.1 797.546,1318.08ZM803.046,1318.08C802.994,1327.03 802.886,1335.99 802.707,1344.93C806.247,1344.82 809.788,1344.75 813.334,1344.74C813.4,1344.74 813.465,1344.75 813.529,1344.75C813.576,1336.27 813.706,1327.79 814.003,1319.31C814.017,1318.92 814.032,1318.52 814.048,1318.13C810.382,1318.1 806.716,1318.09 803.046,1318.08ZM1131.99,1193.98C1123.45,1189.41 1114.11,1186.75 1104.51,1186.87C1091.95,1187.03 1078.82,1191.47 1068.3,1198.25C1043.8,1214.04 1033.82,1241.93 1032.24,1269.75C1032.23,1270.03 1032.16,1270.31 1032.07,1270.57C1032.43,1280.9 1034.68,1291.24 1038.9,1300.72C1043.03,1310.02 1048.39,1319.88 1056.02,1326.82C1079.22,1347.96 1118.52,1347.35 1142.56,1327.99C1161.25,1312.93 1172.22,1288.48 1172.75,1264.64C1172.93,1256.68 1172.28,1248.02 1169.96,1240.37C1164.52,1222.36 1150.83,1204.74 1133.61,1194.89C1133.29,1194.84 1132.97,1194.72 1132.67,1194.55C1132.4,1194.39 1132.18,1194.2 1131.99,1193.98ZM992.071,1338.75C995.22,1335.38 998.472,1331.7 998.27,1326.83C998.193,1324.96 997.091,1323.16 995.595,1322.11C994.331,1321.21 992.716,1320.89 991.237,1321.87C986.791,1324.83 987.613,1329.98 989.53,1334.34C990.184,1335.83 991.043,1337.32 992.071,1338.75ZM1062.99,1313.52C1061.45,1315.71 1061.05,1317.72 1061.27,1319.5C1061.5,1321.32 1062.43,1322.97 1063.88,1324.4C1067.13,1327.59 1073.41,1329.63 1076.66,1330.57C1078.28,1331.04 1079.88,1331.41 1081.55,1331.61C1088.13,1332.36 1094.65,1331.2 1101.16,1330.4C1106.42,1329.76 1111.7,1329.45 1116.88,1328.31C1124.22,1326.69 1131.69,1323.66 1138.35,1320.22C1142.78,1317.94 1147.1,1315.35 1150.51,1311.69C1152.2,1309.88 1154.1,1307.26 1153.8,1304.52C1153.42,1301.11 1151.23,1298.53 1148.14,1296.7C1144.42,1294.5 1139.35,1293.4 1136.17,1292.75C1134.82,1292.47 1133.45,1292.28 1132.09,1292.05C1130.29,1291.75 1128.49,1291.52 1126.68,1291.32C1115.22,1290.04 1102.21,1289.89 1090.65,1292.95C1079.11,1296.01 1068.99,1302.25 1062.99,1313.52ZM1093.33,1325.87C1091.57,1324.12 1089.82,1322.35 1088.09,1320.57C1087.69,1322.5 1087.29,1324.42 1086.91,1326.35C1089.06,1326.32 1091.2,1326.12 1093.33,1325.87ZM1106.93,1296.07C1106.22,1296.11 1105.52,1296.15 1104.81,1296.21C1103.07,1301.87 1101.33,1307.48 1100.12,1313.29C1099.82,1314.78 1098.36,1315.74 1096.87,1315.43C1095.95,1315.24 1095.24,1314.6 1094.9,1313.8C1090.85,1309.76 1086.82,1305.64 1082.53,1301.86C1082.05,1302.11 1081.57,1302.37 1081.1,1302.64C1081.15,1302.96 1081.15,1303.3 1081.08,1303.64C1079.99,1308.8 1079.8,1314.1 1078.94,1319.29C1078.7,1320.79 1077.28,1321.8 1075.79,1321.56C1075.76,1321.56 1075.74,1321.55 1075.71,1321.55C1074.88,1321.78 1073.94,1321.61 1073.22,1321.01C1071.38,1319.48 1069.53,1317.94 1067.68,1316.42C1067.53,1316.7 1067.39,1316.99 1067.25,1317.28C1067.13,1317.51 1066.99,1317.72 1066.83,1317.9C1066.73,1318.21 1066.69,1318.51 1066.73,1318.8C1066.87,1319.93 1067.89,1320.74 1069.03,1321.51C1071.88,1323.44 1075.93,1324.63 1078.19,1325.28C1079.25,1325.59 1080.3,1325.86 1081.38,1326.03C1081.86,1323.47 1082.4,1320.93 1082.92,1318.38C1083.1,1317.5 1083.26,1316.62 1083.41,1315.74C1083.42,1315.66 1083.61,1314.61 1083.65,1314.4C1084.13,1311.94 1086.79,1312.18 1086.85,1312.19C1087.47,1312.3 1088.32,1312.71 1089.13,1313.48C1089.9,1314.22 1090.78,1315.43 1091.21,1315.88C1093.67,1318.44 1096.18,1320.96 1098.7,1323.46C1099.15,1323.91 1099.41,1324.48 1099.49,1325.07C1099.64,1325.05 1099.8,1325.03 1099.95,1325.01C1101.12,1320.74 1102.35,1316.52 1103.4,1312.21C1103.54,1311.61 1103.84,1309.34 1104.22,1308.27C1104.58,1307.27 1105.16,1306.68 1105.57,1306.41C1106.92,1305.51 1108.03,1305.78 1108.97,1306.46C1109.29,1306.7 1109.62,1307.04 1109.88,1307.53C1110.05,1307.85 1110.32,1308.78 1110.4,1309.05C1110.95,1310.06 1111.54,1311.05 1112.14,1312.04C1114.12,1315.26 1115.93,1318.58 1117.86,1321.83C1117.96,1322 1118.04,1322.18 1118.1,1322.36C1118.81,1322.17 1119.52,1321.97 1120.24,1321.76C1120.25,1321.5 1120.29,1321.25 1120.37,1320.99C1121.28,1318.24 1122.31,1315.54 1123.2,1312.78C1123.42,1312.08 1123.6,1310.92 1123.91,1310C1124.16,1309.27 1124.49,1308.64 1124.86,1308.19C1125.45,1307.46 1126.12,1307.22 1126.7,1307.14C1127.26,1307.07 1127.81,1307.14 1128.36,1307.42C1128.7,1307.59 1129.08,1307.87 1129.41,1308.31C1129.56,1308.51 1129.84,1309.09 1129.95,1309.32C1130.32,1309.84 1130.69,1310.35 1131.04,1310.87C1132.21,1312.58 1133.33,1314.31 1134.52,1316C1134.96,1315.78 1135.4,1315.56 1135.83,1315.33C1139.7,1313.34 1143.51,1311.14 1146.49,1307.94C1146.97,1307.42 1147.55,1306.81 1147.97,1306.12C1148.16,1305.81 1148.37,1305.49 1148.33,1305.12C1148.15,1303.44 1146.86,1302.34 1145.34,1301.43C1144.78,1301.1 1144.19,1300.81 1143.57,1300.53C1141.24,1303.79 1139.03,1307.11 1137.01,1310.58C1136.24,1311.89 1134.56,1312.34 1133.25,1311.57C1132.28,1311.01 1131.79,1309.95 1131.9,1308.91C1130.37,1304.89 1128.82,1300.84 1126.98,1296.96C1125.22,1302.03 1123.3,1307.05 1121.03,1311.91C1120.39,1313.29 1118.75,1313.88 1117.38,1313.24C1116.9,1313.02 1116.53,1312.69 1116.26,1312.28C1116.14,1312.15 1116.04,1312.01 1115.95,1311.85C1112.89,1306.59 1109.84,1301.42 1106.93,1296.07ZM1112.48,1323.54C1111.02,1321.03 1109.61,1318.49 1108.11,1316C1107.39,1318.8 1106.61,1321.58 1105.84,1324.37C1108.06,1324.14 1110.28,1323.89 1112.48,1323.54ZM1201.03,1303.93C1200.86,1305.76 1200.71,1307.63 1200.67,1309.45C1200.57,1313.65 1200.96,1317.7 1204.53,1319.81C1205.51,1320.39 1206.44,1319.61 1207.23,1318.81C1208.45,1317.6 1209.4,1315.89 1209.48,1314.64C1209.83,1309.31 1205.85,1305.28 1201.03,1303.93ZM1129.46,1318.36C1128.94,1317.59 1128.42,1316.82 1127.91,1316.05C1127.52,1317.21 1127.11,1318.36 1126.7,1319.5C1127.63,1319.14 1128.55,1318.76 1129.46,1318.36ZM1074.93,1307.05C1073.37,1308.44 1071.93,1309.99 1070.63,1311.72C1071.77,1312.66 1072.91,1313.61 1074.05,1314.55C1074.35,1312.05 1074.59,1309.54 1074.93,1307.05ZM726.824,1280.33C726.697,1291.15 726.608,1301.98 726.622,1312.8C731.837,1312.81 737.052,1312.81 742.27,1312.8C742.376,1307.72 742.46,1302.64 742.482,1297.54C742.506,1291.87 742.463,1286.2 742.395,1280.53C737.205,1280.49 732.015,1280.42 726.824,1280.33ZM759.375,1280.56L758.342,1280.56C754.859,1280.58 751.375,1280.57 747.894,1280.56C747.963,1286.23 748.006,1291.9 747.982,1297.57C747.96,1302.65 747.876,1307.72 747.77,1312.78C751.48,1312.77 755.191,1312.75 758.903,1312.73C759.079,1302.01 759.288,1291.28 759.375,1280.56ZM709.761,1279.95C709.509,1290.87 709.179,1301.78 708.847,1312.65C712.938,1312.71 717.03,1312.74 721.124,1312.77C721.11,1301.92 721.199,1291.07 721.326,1280.23C717.472,1280.15 713.617,1280.06 709.761,1279.95ZM777.405,1280.32C773.234,1280.39 769.06,1280.46 764.876,1280.51C764.789,1291.24 764.578,1301.97 764.402,1312.7C768.915,1312.68 773.429,1312.65 777.941,1312.63C777.739,1304.36 777.539,1296.1 777.426,1287.84C777.392,1285.33 777.388,1282.83 777.405,1280.32ZM802.934,1280.27C802.974,1282.7 803.007,1285.14 803.024,1287.59C803.079,1295.9 803.099,1304.24 803.071,1312.58L803.086,1312.58C806.685,1312.59 810.285,1312.6 813.884,1312.63L814.337,1312.63C815.011,1301.77 816.156,1291.14 815.399,1280.79C811.236,1280.53 807.082,1280.36 802.934,1280.27ZM797.433,1280.18C792.589,1280.14 787.749,1280.18 782.905,1280.24C782.887,1282.75 782.892,1285.26 782.926,1287.77C783.039,1296.04 783.239,1304.32 783.441,1312.61C788.152,1312.59 792.863,1312.58 797.571,1312.58C797.599,1304.25 797.579,1295.93 797.524,1287.63C797.507,1285.14 797.474,1282.66 797.433,1280.18ZM691.062,1279.38C691.055,1285.15 690.986,1290.91 690.809,1296.67C690.648,1301.87 690.442,1307.08 690.238,1312.28L690.723,1312.3C694.862,1312.4 699.001,1312.49 703.141,1312.57L703.347,1312.57C703.68,1301.67 704.011,1290.74 704.263,1279.8C699.862,1279.67 695.462,1279.53 691.062,1279.38ZM676.788,1278.84C676.978,1289.85 677.001,1300.85 676.913,1311.86C677.018,1311.85 677.124,1311.85 677.231,1311.85C679.736,1311.95 682.241,1312.04 684.743,1312.12C684.946,1306.91 685.15,1301.7 685.311,1296.5C685.489,1290.74 685.557,1284.96 685.562,1279.18C682.637,1279.07 679.713,1278.96 676.788,1278.84ZM1098.86,1296.87C1096.55,1297.22 1094.28,1297.68 1092.06,1298.27C1090.72,1298.62 1089.4,1299.03 1088.11,1299.48C1090.78,1301.93 1093.36,1304.49 1095.93,1307.06C1096.81,1303.64 1097.82,1300.26 1098.86,1296.87ZM1113.14,1295.96C1114.79,1298.91 1116.47,1301.83 1118.17,1304.74C1119.32,1301.97 1120.37,1299.16 1121.37,1296.34C1118.68,1296.12 1115.92,1295.99 1113.14,1295.96ZM1133.4,1297.83C1134.1,1299.45 1134.76,1301.08 1135.41,1302.72C1136.27,1301.39 1137.16,1300.08 1138.07,1298.78C1136.96,1298.52 1135.93,1298.32 1135.06,1298.14C1134.51,1298.02 1133.96,1297.92 1133.4,1297.83ZM990.141,1293.94C988.879,1292.06 987.577,1290.18 985.959,1288.56C983.797,1286.39 980.539,1285.44 977.851,1287.14C974.529,1289.23 973.273,1292.85 974.358,1295.72C975.048,1297.55 976.725,1298.95 979.269,1299.42C983.573,1300.2 987.327,1297.5 989.868,1294.25C989.952,1294.14 990.044,1294.04 990.141,1293.94ZM1066.21,1261.14C1067.34,1264.57 1068.54,1267.98 1070.26,1271.15C1073.88,1277.86 1080.4,1283.79 1087.49,1286.65C1092.05,1288.49 1096.87,1289.11 1101.75,1288.83C1109.62,1288.38 1117.37,1286.06 1123.77,1281.28C1136.88,1271.48 1143.06,1252.68 1138.18,1237.05C1135.06,1227.06 1125.61,1220.16 1115.95,1217.18C1108.71,1214.94 1101.27,1213.56 1093.78,1215.47C1085.69,1217.53 1076.9,1223.17 1072.02,1230.05C1069.74,1233.26 1068.4,1236.89 1067.04,1240.54C1064.76,1246.64 1063.71,1253.32 1065.32,1259.71C1065.46,1260.29 1065.78,1260.78 1066.21,1261.14ZM1070.15,1255.49L1070.15,1255.5C1071.61,1259.9 1072.88,1264.44 1075.1,1268.54C1078.13,1274.16 1083.6,1279.15 1089.54,1281.55C1093.35,1283.08 1097.37,1283.57 1101.43,1283.34C1108.24,1282.95 1114.94,1281.01 1120.47,1276.87C1131.79,1268.41 1137.14,1252.19 1132.93,1238.69C1130.35,1230.41 1122.33,1224.9 1114.33,1222.43C1108.06,1220.49 1101.62,1219.15 1095.13,1220.8C1088.21,1222.56 1080.67,1227.35 1076.51,1233.23C1074.51,1236.05 1073.39,1239.26 1072.19,1242.46C1070.64,1246.62 1069.7,1251.09 1070.15,1255.49ZM802.7,1249.9C802.51,1258.2 802.676,1266.47 802.834,1274.77C806.816,1274.85 810.801,1275 814.794,1275.24C813.735,1268.07 811.538,1261.04 807.393,1254.15C806.564,1252.78 805.672,1251.39 804.722,1250C804.048,1249.97 803.374,1249.93 802.7,1249.9ZM747.478,1246.81C747.508,1256.22 747.683,1265.64 747.819,1275.06C751.322,1275.07 754.823,1275.08 758.324,1275.06L759.408,1275.06C759.411,1274.3 759.413,1273.54 759.415,1272.78C759.429,1264.31 759.164,1255.84 758.88,1247.38C755.079,1247.17 751.278,1246.98 747.478,1246.81ZM727.268,1247C727.149,1256.17 727.014,1265.33 726.895,1274.5L726.891,1274.83C732.035,1274.92 737.177,1274.99 742.321,1275.03C742.184,1265.54 742.009,1256.05 741.981,1246.57C737.08,1246.37 732.18,1246.2 727.279,1246.08L727.268,1247ZM764.39,1247.68C764.67,1256.05 764.929,1264.42 764.915,1272.79C764.913,1273.53 764.911,1274.27 764.909,1275.01C769.106,1274.96 773.294,1274.89 777.477,1274.82C777.639,1266.04 778.005,1257.27 778.251,1248.49C773.633,1248.22 769.014,1247.94 764.39,1247.68ZM783.738,1248.82C783.493,1257.46 783.135,1266.1 782.976,1274.74C787.763,1274.68 792.547,1274.65 797.334,1274.69C797.176,1266.32 797.013,1257.98 797.207,1249.6C792.719,1249.35 788.228,1249.08 783.738,1248.82ZM721.443,1245.96C717.748,1245.91 714.054,1245.88 710.359,1245.89L710.21,1245.89C710.203,1255.39 710.076,1264.92 709.881,1274.45C713.719,1274.56 717.558,1274.65 721.394,1274.73C721.516,1265.14 721.66,1255.55 721.781,1245.97L721.443,1245.96ZM704.71,1245.93C700.002,1245.99 695.3,1246.11 690.6,1246.31C690.688,1246.57 690.737,1246.85 690.74,1247.15C690.845,1256.04 691.005,1264.96 691.05,1273.87C695.495,1274.03 699.94,1274.17 704.383,1274.3C704.577,1264.83 704.703,1255.37 704.71,1245.93ZM685.314,1252.9C685.132,1253.16 684.952,1253.43 684.774,1253.69C680.579,1259.93 679.198,1266.46 677.753,1273.37C680.351,1273.48 682.949,1273.58 685.55,1273.67C685.513,1266.75 685.408,1259.82 685.314,1252.9ZM1094.27,1241.47C1093.93,1241.73 1093.64,1242.07 1093.44,1242.48C1091.2,1247.15 1089.47,1253.71 1090.01,1258.95C1090.26,1261.39 1091.45,1262.64 1092.77,1263.2C1093.97,1263.71 1095.6,1263.69 1097.37,1262.75C1099.77,1261.48 1101.6,1259.09 1102.75,1256.69C1104.52,1253.01 1105.38,1247.95 1104.54,1243.91C1104.05,1241.54 1102.88,1239.13 1100.45,1238.13C1099.92,1237.91 1099.12,1237.77 1098.2,1238.12C1097.57,1238.35 1096.52,1239.14 1096.28,1239.34C1095.53,1239.95 1094.85,1240.68 1094.27,1241.47ZM1098.99,1244.36C1098.42,1245.01 1097.98,1245.8 1097.68,1246.58C1097.62,1246.74 1097.55,1246.89 1097.46,1247.03C1096.19,1250.28 1095.28,1254.14 1095.42,1257.49C1096.47,1256.7 1097.24,1255.48 1097.79,1254.32C1099.08,1251.63 1099.76,1247.97 1099.15,1245.03C1099.11,1244.81 1099.06,1244.58 1098.99,1244.36ZM986.87,1244.74C986.645,1243.8 986.434,1242.89 986.232,1242.02C985.588,1239.24 984.714,1235.64 983.12,1232.63C981.839,1230.21 980.113,1228.13 977.357,1227.77C974.906,1227.44 972.884,1228.98 971.568,1230.98C970.128,1233.17 969.453,1236.01 970.183,1238.31C971.145,1241.34 973.882,1243.35 976.985,1244.44C980.226,1245.58 983.93,1245.74 986.87,1244.74ZM1213.44,1241.89C1213.57,1241.97 1213.69,1242.06 1213.81,1242.16C1216.71,1244.73 1221.44,1246.53 1223.94,1242.48C1224.58,1241.44 1224.3,1239.97 1223.75,1238.68C1223.19,1237.38 1222.3,1236.15 1221.1,1235.88C1219.54,1235.52 1218.26,1236.12 1217.14,1237.09C1216.12,1237.98 1215.22,1239.16 1214.37,1240.43C1214.06,1240.91 1213.75,1241.4 1213.44,1241.89ZM783.966,1229.08C784.024,1233.83 783.977,1238.57 783.876,1243.32C788.383,1243.58 792.888,1243.85 797.389,1244.1C797.436,1243.03 797.49,1241.96 797.551,1240.89C793.479,1236.37 788.873,1232.25 783.966,1229.08ZM763.731,1221.15C763.766,1228.16 763.974,1235.17 764.205,1242.17C768.934,1242.43 773.662,1242.71 778.386,1242.99C778.494,1237.76 778.534,1232.53 778.438,1227.29C778.431,1226.87 778.518,1226.47 778.681,1226.11C773.911,1223.81 768.887,1222.17 763.731,1221.15ZM758.228,1220.29C754.831,1219.91 751.394,1219.77 747.95,1219.88C747.635,1227.02 747.505,1234.16 747.479,1241.31C751.219,1241.48 754.958,1241.67 758.695,1241.87C758.458,1234.68 758.249,1227.49 758.228,1220.29ZM742.429,1220.25C737.399,1220.76 732.39,1221.77 727.503,1223.23L727.502,1223.38C727.468,1229.05 727.413,1234.73 727.348,1240.4L727.346,1240.59C732.225,1240.7 737.105,1240.87 741.983,1241.07C742.009,1234.13 742.133,1227.19 742.429,1220.25ZM704.653,1234.04C701.688,1236.04 698.868,1238.24 696.226,1240.6C699.05,1240.52 701.875,1240.46 704.7,1240.43C704.691,1238.3 704.676,1236.17 704.653,1234.04ZM721.991,1225.09C717.844,1226.65 713.817,1228.54 709.978,1230.73C710.069,1231 710.12,1231.28 710.124,1231.58C710.163,1234.51 710.188,1237.45 710.2,1240.39C714.083,1240.38 717.966,1240.41 721.847,1240.47C721.907,1235.35 721.957,1230.22 721.991,1225.09ZM327.215,1188.1C327.335,1191.01 328.292,1201.13 328.715,1203.25C329.102,1205.18 329.97,1206.69 331.299,1207.22C332.519,1207.7 333.922,1207.12 335.362,1205.7C337.042,1204.04 337.787,1201.74 338.148,1199.34C338.568,1196.54 338.172,1189.26 338.105,1187.95C336.91,1188 329.251,1188.17 327.215,1188.1ZM1207.84,1195.13C1209.78,1194.89 1211.66,1194.54 1213.43,1193.98C1214.91,1193.51 1216.58,1192.65 1217.88,1191.47C1218.92,1190.53 1219.77,1189.38 1219.81,1187.99C1219.86,1186.24 1218.71,1184.96 1217.28,1184.29C1215.71,1183.56 1213.75,1183.48 1212.25,1184.44C1209.01,1186.53 1207.88,1191.25 1207.84,1195.13ZM999.018,1173.52L999.114,1173.43C1003.82,1169.25 1005,1161.11 997.881,1158.61C995.904,1157.91 993.838,1158.57 992.293,1159.84C990.696,1161.16 989.601,1163.16 989.776,1165.3C990.173,1170.14 994.606,1172.54 999.018,1173.52ZM1177.68,1159.36C1180.72,1156.66 1182.82,1153.19 1182.77,1148.42C1182.76,1147.13 1182.36,1145.89 1181.81,1144.73C1178.2,1137.15 1166.65,1141.53 1168.65,1149.72C1169,1151.14 1169.76,1152.49 1170.66,1153.64C1172.49,1155.99 1174.77,1157.55 1177.28,1159.06C1177.42,1159.15 1177.56,1159.25 1177.68,1159.36ZM1051.41,1151.45L1051.43,1151.44C1054.24,1150.09 1058.16,1148.12 1060.83,1145.45C1062.87,1143.4 1064.12,1140.88 1062.53,1137.81C1061.43,1135.7 1059.22,1135.71 1057.19,1136.39C1054.61,1137.25 1052.11,1139.21 1051.26,1141.26C1049.66,1145.13 1050.02,1148.46 1051.41,1151.45ZM1120.25,1138.31C1120.37,1138.14 1120.49,1137.98 1120.61,1137.8C1123.15,1134.1 1124.92,1129.48 1123.32,1125.04C1122.58,1122.98 1120.68,1121.31 1118.59,1120.62C1116.79,1120.03 1114.78,1120.23 1113.4,1121.94C1111.18,1124.7 1111.26,1127.95 1112.52,1130.8C1113.92,1133.95 1116.69,1136.67 1119.73,1138.01C1119.92,1138.1 1120.09,1138.2 1120.25,1138.31ZM772.095,886.524C771.736,886.412 771.395,886.224 771.096,885.96C767.835,883.079 764.746,880.297 760.45,879.087C757.154,878.158 753.585,878.862 750.233,879.101C739.793,879.848 727.106,882.503 718.752,889.077C716.433,890.902 714.929,893.352 713.433,895.813C711.637,898.768 709.865,901.749 707.306,904.14C704.769,906.511 701.74,908.187 698.693,909.834C696.057,911.259 693.404,912.657 691.204,914.696C689.852,915.949 689.086,917.505 688.413,919.112C687.557,921.156 686.856,923.292 685.8,925.272C683.838,928.947 680.788,931.935 679.033,935.747C678.121,937.729 678.031,939.671 678.131,941.625C678.255,944.053 678.659,946.504 678.669,949.057C678.694,955.889 676.536,963.484 672.258,968.877C671.919,969.305 671.477,969.605 670.995,969.77C669.907,970.335 668.532,970.117 667.677,969.16C664.921,966.073 663.803,962.766 663.344,959.261C662.947,956.222 663.086,953.022 662.88,949.7C662.631,945.697 661.585,941.715 659.417,938.305C658.06,936.172 655.993,934.202 653.641,933.125C651.607,932.194 649.336,931.953 647.218,933.15C641.467,936.399 639.869,943.652 640.324,949.857C640.608,953.736 641.923,957.459 641.593,961.397C641.315,964.719 639.987,967.783 638.572,970.841C637.412,973.348 636.18,975.849 635.835,978.61C635.457,981.631 636.348,985.376 638.247,988.248C639.4,989.992 640.934,991.425 642.866,992.025C645.275,992.773 647.936,992.059 650.27,991.341C651.53,990.953 652.857,991.517 653.477,992.622C654.743,992.682 655.84,993.619 656.056,994.919C659.702,1016.93 664.14,1040.71 674.807,1060.53C685.036,1079.55 700.926,1098.99 720.307,1109.25C731.093,1114.96 743.639,1116.88 755.716,1116.77C776.595,1116.57 799.584,1112.29 815.269,1097.36C824.123,1088.93 830.895,1079.12 838.027,1069.28C846.886,1057.07 855.885,1044.58 860.648,1030.09C868.537,1006.1 868.965,980.417 868.838,955.392C865.781,953.519 863.326,950.726 861.979,947.22C859.773,941.478 859.998,935.198 857.737,929.511C856.956,927.549 855.612,925.838 854.354,924.09C852.768,921.885 851.3,919.632 850.605,917.06C850.03,914.934 850.077,912.74 850.237,910.532C850.362,908.823 850.568,907.106 850.346,905.426C849.319,897.648 843.445,893.12 836.676,889.897C828.197,885.861 818.227,883.904 808.958,885.696C804.753,886.51 800.832,888.802 796.807,890.527C792.026,892.576 787.125,893.886 781.714,892.356C777.827,891.258 775.054,888.964 772.095,886.524ZM732.307,1061.19C731.41,1061.11 730.492,1061.47 729.897,1062.23C725.491,1067.88 721.388,1073.78 716.192,1078.75C715.095,1079.8 715.056,1081.54 716.106,1082.64C716.533,1083.08 725.154,1088.61 728.971,1090.29C746.585,1098.01 766.222,1100.06 785.225,1099.29C791.952,1099.02 798.962,1098.89 805.587,1097.58C807.076,1097.29 808.046,1095.84 807.752,1094.35C807.739,1094.29 807.725,1094.23 807.709,1094.17C807.843,1093.8 807.901,1093.4 807.866,1092.99C807.269,1085.95 806.077,1078.92 804.734,1071.98C804.446,1070.49 800.053,1070.28 799.885,1070.29C778.056,1071.66 754.683,1069.35 734.27,1061.21C733.616,1060.95 732.921,1060.96 732.307,1061.19ZM787.45,992.627C788.959,1009.11 788.39,1025.56 785.53,1041.87C785.007,1044.84 784.307,1048.54 782.925,1051.82C781.753,1054.6 780.119,1057.11 777.421,1058.2C772.956,1060.01 768.066,1059.44 763.236,1058.16C757.871,1056.74 752.575,1054.42 747.882,1052.87C746.441,1052.39 744.884,1053.17 744.406,1054.61C743.928,1056.05 744.71,1057.61 746.151,1058.09C750.942,1059.68 756.353,1062.03 761.83,1063.48C767.844,1065.07 773.931,1065.55 779.49,1063.3C782.779,1061.96 785.183,1059.39 786.907,1056.22C789.17,1052.06 790.237,1046.86 790.947,1042.82C793.892,1026.03 794.481,1009.1 792.928,992.126C792.789,990.614 791.45,989.499 789.938,989.638C788.427,989.776 787.312,991.116 787.45,992.627ZM874.347,957.616C874.414,977.383 873.974,997.506 869.866,1016.89C871.021,1015.59 872.001,1014.16 872.578,1012.57C873.138,1011.03 873.324,1009.45 873.589,1007.89C873.93,1005.89 874.378,1003.9 875.407,1001.97C877.215,998.573 880.096,995.929 882.243,992.754C887.003,985.717 890.63,977.652 889.684,968.973C889.392,966.298 889.032,963.687 887.396,961.471C886.878,960.771 886.288,960.125 885.67,959.513C884.099,957.954 882.803,957.869 881.33,957.934C879.734,958.004 878.003,958.181 875.91,957.896C875.384,957.825 874.862,957.731 874.347,957.616ZM818.23,983.082C816.037,987.611 815.93,999.257 815.934,999.841C815.944,1001.14 815.968,1003.06 816.419,1004.7C816.86,1006.3 817.699,1007.65 818.946,1008.49C819.544,1008.89 820.399,1009.15 821.396,1009.05C822.199,1008.96 823.22,1008.58 823.657,1008.44C824.532,1008.15 825.326,1007.75 826.083,1007.23C827.013,1006.58 827.851,1005.8 828.564,1004.92C832.9,999.568 834.235,992.009 832.827,985.37C832.504,983.849 832.014,981.914 831.077,980.465C830.166,979.057 828.887,978.035 827.153,977.688C823.071,976.873 819.865,979.708 818.23,983.082ZM728.809,975.923C727.016,980.113 725.785,984.856 726.299,988.78C726.661,991.55 727.821,994.542 730.421,996.032C732.235,997.072 734.336,997.092 736.372,996.365C738.787,995.501 741.084,993.532 742.283,991.821C744.133,989.18 745.606,985.519 746.272,982.375C747.033,978.777 747.138,972.774 745.104,969.469C744.362,968.263 743.278,967.398 742.035,966.76C739.937,965.684 738.082,965.542 736.474,965.925C733.189,966.708 730.714,970.133 729.392,973.993C729.176,974.623 728.981,975.268 728.809,975.923ZM796.838,965.495C796.473,965.663 795.731,966.332 795.731,966.332C794.525,967.253 794.293,968.98 795.214,970.186C796.135,971.393 797.862,971.624 799.069,970.704C799.069,970.704 826.409,959.984 840.423,956.296C843.675,955.44 846.921,954.413 850.243,953.861C851.378,953.673 852.891,953.63 854.156,953.219C855.601,952.75 856.795,951.902 857.53,950.525C857.753,950.107 858.025,949.257 857.751,948.141C857.528,947.231 856.696,945.469 856.606,945.233C855.425,942.135 854.46,938.462 852.505,935.721C852.2,935.294 851.202,934.137 849.367,934.694C848.785,934.871 846.235,936.267 846.036,936.373C842.856,938.062 839.864,940.078 836.664,941.72C823.052,948.706 809.118,956.297 796.838,965.495ZM702.649,939.008C703.159,939.465 719.134,947.01 726.247,950.474C733.919,954.211 741.633,957.879 749.245,961.738C754.106,964.202 758.827,966.973 763.806,969.204C765.191,969.824 766.819,969.203 767.44,967.818C767.51,967.661 768.767,964.64 767.788,963.523C765.251,960.631 762.127,958.297 759.452,955.541C756.1,952.088 753.001,948.367 749.597,944.973C744.046,939.439 738.057,934.315 732.046,929.29C729.109,926.834 725.807,924.817 722.931,922.285C722.774,922.147 720.45,919.96 719.84,919.634C718.342,918.835 717.225,919.489 716.747,919.859C715.345,920.944 714.143,922.738 712.904,924.005C709.348,927.641 705.831,931.338 702.437,935.125C701.424,936.255 701.519,937.996 702.649,939.008Z"/>
    </g>
</svg>
