<?xml version="1.0" encoding="UTF-8" standalone="no"?>
<!DOCTYPE svg PUBLIC "-//W3C//DTD SVG 1.1//EN" "http://www.w3.org/Graphics/SVG/1.1/DTD/svg11.dtd">
<svg width="100%" height="100%" viewBox="0 0 128 128" version="1.1" xmlns="http://www.w3.org/2000/svg" xmlns:xlink="http://www.w3.org/1999/xlink" xml:space="preserve" xmlns:serif="http://www.serif.com/" style="fill-rule:evenodd;clip-rule:evenodd;stroke-linejoin:round;stroke-miterlimit:2;">
    <g transform="matrix(1,0,0,1,12.8389,14.0993)">
        <path d="M98.5,24.68L50.879,5.68C50.32,5.461 49.68,5.461 49.117,5.68L1.496,24.68C0.598,25.039 -0.004,25.918 -0.004,26.879L-0.004,33.84C-0.004,35.16 1.055,36.219 2.375,36.219L8.414,36.219L8.414,92.117C8.414,93.437 9.473,94.496 10.793,94.496L22.215,94.496C23.535,94.496 24.594,93.437 24.594,92.117C24.594,90.797 23.536,89.738 22.215,89.738L13.18,89.738L13.18,36.218L68.399,36.218C69.719,36.218 70.778,35.16 70.778,33.839C70.778,32.519 69.719,31.46 68.399,31.46L4.762,31.46L4.762,28.48L50,10.441L95.238,28.5L95.238,31.48L89.199,31.48C87.879,31.48 86.82,32.539 86.82,33.859L86.82,89.757L80.16,89.757L80.16,45.155C80.16,43.835 79.101,42.776 77.781,42.776L22.219,42.78C20.899,42.78 19.84,43.839 19.84,45.159L19.84,80.46C19.84,81.78 20.899,82.839 22.219,82.839C23.539,82.839 24.602,81.78 24.602,80.46L24.602,59.198L75.403,59.198L75.403,66.257L31.36,66.261C30.039,66.261 28.981,67.319 28.981,68.64C28.981,69.96 30.039,71.018 31.36,71.018L75.399,71.018L75.399,78.077L39.602,78.077C38.281,78.077 37.223,79.136 37.223,80.456C37.223,81.776 38.281,82.835 39.602,82.835L75.403,82.835L75.403,92.136C75.403,93.456 76.461,94.515 77.782,94.515L89.2,94.518C90.52,94.518 91.579,93.46 91.579,92.14L91.579,36.218L97.618,36.218C98.938,36.218 99.997,35.159 99.997,33.839L99.997,26.878C100,25.897 99.399,25.038 98.5,24.679L98.5,24.68ZM24.602,54.461L24.602,47.539L75.403,47.539L75.403,54.461L24.602,54.461Z" style="fill-rule:nonzero;"/>
    </g>
</svg>
