<?xml version="1.0" encoding="UTF-8" standalone="no"?>
<!DOCTYPE svg PUBLIC "-//W3C//DTD SVG 1.1//EN" "http://www.w3.org/Graphics/SVG/1.1/DTD/svg11.dtd">
<svg width="100%" height="100%" viewBox="0 0 128 128" version="1.1" xmlns="http://www.w3.org/2000/svg" xmlns:xlink="http://www.w3.org/1999/xlink" xml:space="preserve" xmlns:serif="http://www.serif.com/" style="fill-rule:evenodd;clip-rule:evenodd;stroke-linejoin:round;stroke-miterlimit:2;">
    <g transform="matrix(1,0,0,1,12.8349,14.1161)">
        <path d="M98.387,48.387C99.278,48.387 100,47.664 100,46.774L100,40.321C100,39.895 99.828,39.485 99.528,39.184L89.852,29.504C89.547,29.203 89.137,29.035 88.707,29.035L75.789,29.035L75.793,1.613C75.789,0.727 75.078,0.008 74.192,0L25.809,0C24.918,0 24.195,0.723 24.191,1.613L24.191,29.035L11.293,29.035C10.864,29.035 10.454,29.203 10.149,29.504L0.473,39.168C0.165,39.473 -0.003,39.887 0,40.321L0,46.774C0,47.664 0.723,48.387 1.614,48.387L3.227,48.387L3.227,90.321L1.614,90.321C0.723,90.325 0,91.048 0,91.938L0,98.387C0,98.817 0.168,99.227 0.473,99.528C0.774,99.833 1.184,100.001 1.614,100.001L98.387,100.001C98.816,100.001 99.227,99.833 99.527,99.528C99.832,99.227 100,98.817 100,98.387L100,91.938C100,91.048 99.277,90.325 98.387,90.321L96.773,90.321L96.773,48.387L98.387,48.387ZM75.809,33.871L75.809,32.258L88.043,32.258L94.492,38.707L69.355,38.707L69.355,35.484L74.191,35.484C75.082,35.484 75.804,34.762 75.808,33.871L75.809,33.871ZM27.422,3.226L72.578,3.226L72.578,32.257L27.422,32.257L27.422,3.226ZM66.129,35.484L66.129,38.707L33.871,38.707L33.871,35.484L66.129,35.484ZM11.961,32.257L24.191,32.257L24.191,33.871C24.195,34.761 24.918,35.484 25.808,35.484L30.644,35.484L30.644,38.707L5.507,38.707L11.961,32.257ZM96.773,96.773L3.226,96.773L3.226,93.547L96.773,93.551L96.773,96.773ZM33.441,90.32L14.066,90.32L14.066,58.238L33.421,58.238L33.441,90.32ZM36.668,90.32L36.668,56.621C36.668,55.731 35.945,55.008 35.054,55.008L12.452,55.008C11.562,55.008 10.839,55.731 10.835,56.621L10.835,90.32L6.448,90.32L6.448,48.386L93.53,48.386L93.534,90.32L36.668,90.32ZM3.227,45.164L3.227,41.938L96.774,41.938L96.774,45.164L3.227,45.164Z" style="fill-rule:nonzero;"/>
        <path d="M65.238,11.109C64.98,11.097 64.726,11.117 64.476,11.164L64.476,10.808C64.472,8.933 62.953,7.414 61.078,7.414L58.308,7.414C56.433,7.414 54.914,8.933 54.914,10.808L54.914,13.879L45.082,13.879L45.082,10.808C45.082,8.933 43.566,7.418 41.691,7.414L38.922,7.414C37.047,7.414 35.527,8.933 35.523,10.808L35.523,11.148C35.273,11.109 35.019,11.086 34.766,11.086C33.824,11.004 32.887,11.3 32.164,11.91C31.441,12.519 30.988,13.394 30.914,14.336L30.914,22.027C30.988,22.972 31.437,23.843 32.16,24.457C32.879,25.066 33.816,25.363 34.758,25.277C35.023,25.277 35.305,25.277 35.59,25.218L35.59,25.222C35.859,26.855 37.27,28.058 38.926,28.07L41.695,28.07C43.57,28.066 45.086,26.547 45.086,24.675L45.086,21.609L54.914,21.609L54.914,24.675L54.918,24.675C54.918,26.55 56.437,28.07 58.312,28.07L61.082,28.07C62.738,28.058 64.144,26.859 64.418,25.23C64.683,25.277 64.902,25.23 65.226,25.301C66.168,25.383 67.105,25.086 67.828,24.476C68.554,23.867 69.004,22.992 69.082,22.05L69.082,14.359C69.008,13.418 68.558,12.543 67.836,11.933C67.113,11.324 66.179,11.027 65.238,11.109L65.238,11.109ZM65.992,14.359L65.992,21.949C65.773,22.113 65.508,22.199 65.234,22.187C64.976,22.175 64.726,22.121 64.488,22.023L64.465,14.461L64.461,14.461C64.679,14.273 64.961,14.179 65.246,14.199C65.5,14.214 65.754,14.269 65.992,14.359L65.992,14.359ZM58.011,10.808C58.011,10.644 58.144,10.511 58.308,10.507L61.078,10.507C61.242,10.511 61.375,10.644 61.375,10.808L61.375,24.652C61.375,24.734 61.343,24.808 61.289,24.867C61.234,24.922 61.16,24.953 61.078,24.953L58.308,24.953C58.23,24.953 58.152,24.922 58.097,24.867C58.043,24.808 58.011,24.734 58.011,24.652L58.011,10.808ZM54.91,16.972L54.91,18.492L45.082,18.492L45.082,16.972L54.91,16.972ZM41.691,24.953L38.921,24.953C38.839,24.953 38.765,24.922 38.71,24.867C38.656,24.808 38.624,24.734 38.624,24.652L38.624,10.808C38.624,10.644 38.757,10.511 38.921,10.507L41.691,10.507C41.855,10.511 41.988,10.644 41.992,10.808L41.992,24.652C41.992,24.82 41.855,24.953 41.691,24.953L41.691,24.953ZM35.55,21.922C35.335,22.109 35.054,22.207 34.765,22.187C34.511,22.176 34.257,22.121 34.019,22.023L33.984,14.465C34.199,14.277 34.48,14.183 34.765,14.203C35.023,14.222 35.281,14.277 35.523,14.359L35.55,21.922Z" style="fill-rule:nonzero;"/>
        <path d="M29.883,76.027C30.559,76.027 31.164,75.625 31.422,75C31.68,74.379 31.539,73.66 31.063,73.183C30.586,72.707 29.867,72.566 29.246,72.824C28.621,73.082 28.215,73.687 28.215,74.363C28.215,75.281 28.961,76.027 29.883,76.027L29.883,76.027Z" style="fill-rule:nonzero;"/>
        <path d="M87.004,53.395L43.188,53.395C42.297,53.395 41.575,54.118 41.575,55.008L41.575,84.039C41.575,84.93 42.297,85.653 43.188,85.653L87.004,85.653C87.895,85.653 88.617,84.93 88.617,84.039L88.617,55C88.613,54.114 87.891,53.395 87.004,53.395L87.004,53.395ZM85.391,56.621L85.391,82.422L44.801,82.426L44.801,56.621L85.391,56.621Z" style="fill-rule:nonzero;"/>
        <path d="M54.582,77.738C54.859,78.269 55.41,78.605 56.012,78.605C56.27,78.605 56.52,78.543 56.746,78.426L77.125,67.918C77.524,67.73 77.824,67.394 77.969,66.98C78.109,66.566 78.074,66.113 77.871,65.722C77.672,65.335 77.32,65.046 76.902,64.921C76.481,64.8 76.031,64.851 75.649,65.07L55.286,75.593L55.289,75.597C54.508,75.995 54.192,76.952 54.582,77.737L54.582,77.738Z" style="fill-rule:nonzero;"/>
        <path d="M55.832,67.188C55.441,67.376 55.145,67.715 55.008,68.126C54.871,68.536 54.906,68.985 55.105,69.368C55.305,69.754 55.648,70.043 56.062,70.168C56.477,70.293 56.926,70.247 57.305,70.04L70,63.465C70.761,63.047 71.05,62.098 70.652,61.325C70.254,60.555 69.312,60.239 68.527,60.618L55.832,67.188Z" style="fill-rule:nonzero;"/>
    </g>
</svg>
