<svg id="visual" viewBox="0 0 675 900" width="675" height="900" xmlns="http://www.w3.org/2000/svg" xmlns:xlink="http://www.w3.org/1999/xlink" version="1.1"><g stroke-width="1" stroke-linejoin="bevel"><path d="M304 438L313 378L233 383Z" fill="#f4f4f4" stroke="#f4f4f4"></path><path d="M233 383L231 456L304 438Z" fill="#f9f9f9" stroke="#f9f9f9"></path><path d="M313 378L300 303L233 383Z" fill="#ffffff" stroke="#ffffff"></path><path d="M300 303L218 313L233 383Z" fill="#f7f7f7" stroke="#f7f7f7"></path><path d="M233 383L152 437L231 456Z" fill="#f5f5f5" stroke="#f5f5f5"></path><path d="M298 530L374 456L304 438Z" fill="#ffffff" stroke="#ffffff"></path><path d="M304 438L374 456L313 378Z" fill="#f4f4f4" stroke="#f4f4f4"></path><path d="M313 378L365 288L300 303Z" fill="#f8f8f8" stroke="#f8f8f8"></path><path d="M374 456L385 364L313 378Z" fill="#fefefe" stroke="#fefefe"></path><path d="M152 437L221 515L231 456Z" fill="#ffffff" stroke="#ffffff"></path><path d="M231 456L298 530L304 438Z" fill="#fafafa" stroke="#fafafa"></path><path d="M143 378L152 437L233 383Z" fill="#f4f4f4" stroke="#f4f4f4"></path><path d="M221 515L298 530L231 456Z" fill="#fbfbfb" stroke="#fbfbfb"></path><path d="M218 313L143 378L233 383Z" fill="#f3f3f3" stroke="#f3f3f3"></path><path d="M385 364L365 288L313 378Z" fill="#fbfbfb" stroke="#fbfbfb"></path><path d="M211 226L159 307L218 313Z" fill="#fdfdfd" stroke="#fdfdfd"></path><path d="M211 226L218 313L300 303Z" fill="#f8f8f8" stroke="#f8f8f8"></path><path d="M218 313L159 307L143 378Z" fill="#fdfdfd" stroke="#fdfdfd"></path><path d="M298 530L380 520L374 456Z" fill="#f3f3f3" stroke="#f3f3f3"></path><path d="M374 456L461 368L385 364Z" fill="#ffffff" stroke="#ffffff"></path><path d="M86 440L159 530L152 437Z" fill="#fafafa" stroke="#fafafa"></path><path d="M152 437L159 530L221 515Z" fill="#ffffff" stroke="#ffffff"></path><path d="M221 515L223 592L298 530Z" fill="#f8f8f8" stroke="#f8f8f8"></path><path d="M365 288L310 228L300 303Z" fill="#fdfdfd" stroke="#fdfdfd"></path><path d="M310 228L211 226L300 303Z" fill="#f8f8f8" stroke="#f8f8f8"></path><path d="M463 463L461 368L374 456Z" fill="#f3f3f3" stroke="#f3f3f3"></path><path d="M385 364L452 308L365 288Z" fill="#f4f4f4" stroke="#f4f4f4"></path><path d="M365 288L365 212L310 228Z" fill="#fdfdfd" stroke="#fdfdfd"></path><path d="M81 388L86 440L143 378Z" fill="#f5f5f5" stroke="#f5f5f5"></path><path d="M143 378L86 440L152 437Z" fill="#ffffff" stroke="#ffffff"></path><path d="M63 310L143 378L159 307Z" fill="#f3f3f3" stroke="#f3f3f3"></path><path d="M63 310L81 388L143 378Z" fill="#f8f8f8" stroke="#f8f8f8"></path><path d="M159 530L223 592L221 515Z" fill="#fbfbfb" stroke="#fbfbfb"></path><path d="M298 530L370 591L380 520Z" fill="#fdfdfd" stroke="#fdfdfd"></path><path d="M380 520L463 463L374 456Z" fill="#fbfbfb" stroke="#fbfbfb"></path><path d="M223 592L304 602L298 530Z" fill="#f3f3f3" stroke="#f3f3f3"></path><path d="M380 520L436 534L463 463Z" fill="#f7f7f7" stroke="#f7f7f7"></path><path d="M461 368L452 308L385 364Z" fill="#f3f3f3" stroke="#f3f3f3"></path><path d="M370 591L436 534L380 520Z" fill="#f9f9f9" stroke="#f9f9f9"></path><path d="M211 226L158 228L159 307Z" fill="#f9f9f9" stroke="#f9f9f9"></path><path d="M304 602L370 591L298 530Z" fill="#f4f4f4" stroke="#f4f4f4"></path><path d="M453 214L365 212L365 288Z" fill="#fafafa" stroke="#fafafa"></path><path d="M310 228L237 147L211 226Z" fill="#f7f7f7" stroke="#f7f7f7"></path><path d="M211 226L156 156L158 228Z" fill="#f4f4f4" stroke="#f4f4f4"></path><path d="M80 587L151 588L159 530Z" fill="#f5f5f5" stroke="#f5f5f5"></path><path d="M159 530L151 588L223 592Z" fill="#ffffff" stroke="#ffffff"></path><path d="M236 679L302 668L304 602Z" fill="#f3f3f3" stroke="#f3f3f3"></path><path d="M78 227L63 310L159 307Z" fill="#f9f9f9" stroke="#f9f9f9"></path><path d="M0 454L63 519L86 440Z" fill="#f4f4f4" stroke="#f4f4f4"></path><path d="M86 440L63 519L159 530Z" fill="#fdfdfd" stroke="#fdfdfd"></path><path d="M0 387L86 440L81 388Z" fill="#fdfdfd" stroke="#fdfdfd"></path><path d="M463 463L515 379L461 368Z" fill="#f4f4f4" stroke="#f4f4f4"></path><path d="M461 368L534 303L452 308Z" fill="#fefefe" stroke="#fefefe"></path><path d="M520 452L515 379L463 463Z" fill="#f4f4f4" stroke="#f4f4f4"></path><path d="M518 526L520 452L463 463Z" fill="#fefefe" stroke="#fefefe"></path><path d="M302 141L237 147L310 228Z" fill="#f5f5f5" stroke="#f5f5f5"></path><path d="M158 228L78 227L159 307Z" fill="#ffffff" stroke="#ffffff"></path><path d="M524 212L453 214L452 308Z" fill="#fefefe" stroke="#fefefe"></path><path d="M452 308L453 214L365 288Z" fill="#ffffff" stroke="#ffffff"></path><path d="M365 212L302 141L310 228Z" fill="#fbfbfb" stroke="#fbfbfb"></path><path d="M363 145L302 141L365 212Z" fill="#f4f4f4" stroke="#f4f4f4"></path><path d="M156 156L78 227L158 228Z" fill="#f9f9f9" stroke="#f9f9f9"></path><path d="M236 679L304 602L223 592Z" fill="#fdfdfd" stroke="#fdfdfd"></path><path d="M304 602L380 670L370 591Z" fill="#fdfdfd" stroke="#fdfdfd"></path><path d="M370 591L457 600L436 534Z" fill="#f9f9f9" stroke="#f9f9f9"></path><path d="M436 534L518 526L463 463Z" fill="#ffffff" stroke="#ffffff"></path><path d="M63 519L80 587L159 530Z" fill="#fbfbfb" stroke="#fbfbfb"></path><path d="M152 681L236 679L223 592Z" fill="#f4f4f4" stroke="#f4f4f4"></path><path d="M447 664L457 600L370 591Z" fill="#f7f7f7" stroke="#f7f7f7"></path><path d="M446 156L363 145L365 212Z" fill="#fbfbfb" stroke="#fbfbfb"></path><path d="M457 600L518 526L436 534Z" fill="#f7f7f7" stroke="#f7f7f7"></path><path d="M237 147L156 156L211 226Z" fill="#fafafa" stroke="#fafafa"></path><path d="M0 296L0 387L63 310Z" fill="#f5f5f5" stroke="#f5f5f5"></path><path d="M63 310L0 387L81 388Z" fill="#fdfdfd" stroke="#fdfdfd"></path><path d="M63 519L0 592L80 587Z" fill="#f8f8f8" stroke="#f8f8f8"></path><path d="M597 379L534 303L515 379Z" fill="#f4f4f4" stroke="#f4f4f4"></path><path d="M515 379L534 303L461 368Z" fill="#f3f3f3" stroke="#f3f3f3"></path><path d="M587 454L515 379L520 452Z" fill="#fdfdfd" stroke="#fdfdfd"></path><path d="M152 681L223 592L151 588Z" fill="#ffffff" stroke="#ffffff"></path><path d="M0 387L0 454L86 440Z" fill="#fdfdfd" stroke="#fdfdfd"></path><path d="M387 736L380 670L302 668Z" fill="#fbfbfb" stroke="#fbfbfb"></path><path d="M302 668L380 670L304 602Z" fill="#ffffff" stroke="#ffffff"></path><path d="M78 227L0 296L63 310Z" fill="#ffffff" stroke="#ffffff"></path><path d="M0 213L0 296L78 227Z" fill="#ffffff" stroke="#ffffff"></path><path d="M0 454L0 516L63 519Z" fill="#fdfdfd" stroke="#fdfdfd"></path><path d="M522 150L446 156L453 214Z" fill="#f3f3f3" stroke="#f3f3f3"></path><path d="M453 214L446 156L365 212Z" fill="#f4f4f4" stroke="#f4f4f4"></path><path d="M80 587L152 681L151 588Z" fill="#f8f8f8" stroke="#f8f8f8"></path><path d="M81 684L152 681L80 587Z" fill="#f8f8f8" stroke="#f8f8f8"></path><path d="M457 600L514 595L518 526Z" fill="#ffffff" stroke="#ffffff"></path><path d="M591 511L587 454L520 452Z" fill="#f3f3f3" stroke="#f3f3f3"></path><path d="M447 664L514 595L457 600Z" fill="#f5f5f5" stroke="#f5f5f5"></path><path d="M380 670L447 664L370 591Z" fill="#f3f3f3" stroke="#f3f3f3"></path><path d="M534 303L524 212L452 308Z" fill="#f8f8f8" stroke="#f8f8f8"></path><path d="M591 511L520 452L518 526Z" fill="#f7f7f7" stroke="#f7f7f7"></path><path d="M534 303L603 238L524 212Z" fill="#fefefe" stroke="#fefefe"></path><path d="M147 77L87 141L156 156Z" fill="#fdfdfd" stroke="#fdfdfd"></path><path d="M156 156L87 141L78 227Z" fill="#fdfdfd" stroke="#fdfdfd"></path><path d="M220 80L156 156L237 147Z" fill="#fafafa" stroke="#fafafa"></path><path d="M587 454L597 379L515 379Z" fill="#fdfdfd" stroke="#fdfdfd"></path><path d="M308 76L237 147L302 141Z" fill="#f4f4f4" stroke="#f4f4f4"></path><path d="M308 76L220 80L237 147Z" fill="#f4f4f4" stroke="#f4f4f4"></path><path d="M308 76L302 141L363 145Z" fill="#fefefe" stroke="#fefefe"></path><path d="M378 86L308 76L363 145Z" fill="#f4f4f4" stroke="#f4f4f4"></path><path d="M0 516L0 592L63 519Z" fill="#fdfdfd" stroke="#fdfdfd"></path><path d="M446 156L378 86L363 145Z" fill="#f5f5f5" stroke="#f5f5f5"></path><path d="M454 78L378 86L446 156Z" fill="#fbfbfb" stroke="#fbfbfb"></path><path d="M87 141L0 213L78 227Z" fill="#f7f7f7" stroke="#f7f7f7"></path><path d="M514 595L591 511L518 526Z" fill="#f3f3f3" stroke="#f3f3f3"></path><path d="M675 456L675 370L597 379Z" fill="#fbfbfb" stroke="#fbfbfb"></path><path d="M675 370L601 309L597 379Z" fill="#fafafa" stroke="#fafafa"></path><path d="M597 379L601 309L534 303Z" fill="#f4f4f4" stroke="#f4f4f4"></path><path d="M0 670L81 684L80 587Z" fill="#f9f9f9" stroke="#f9f9f9"></path><path d="M152 681L221 744L236 679Z" fill="#f3f3f3" stroke="#f3f3f3"></path><path d="M147 747L221 744L152 681Z" fill="#f3f3f3" stroke="#f3f3f3"></path><path d="M236 679L290 756L302 668Z" fill="#ffffff" stroke="#ffffff"></path><path d="M380 670L387 736L447 664Z" fill="#fafafa" stroke="#fafafa"></path><path d="M136 0L147 77L220 80Z" fill="#f4f4f4" stroke="#f4f4f4"></path><path d="M220 80L147 77L156 156Z" fill="#f8f8f8" stroke="#f8f8f8"></path><path d="M87 141L0 142L0 213Z" fill="#fafafa" stroke="#fafafa"></path><path d="M290 756L387 736L302 668Z" fill="#fefefe" stroke="#fefefe"></path><path d="M447 664L528 676L514 595Z" fill="#ffffff" stroke="#ffffff"></path><path d="M514 595L611 610L591 511Z" fill="#f8f8f8" stroke="#f8f8f8"></path><path d="M221 744L290 756L236 679Z" fill="#f7f7f7" stroke="#f7f7f7"></path><path d="M593 155L522 150L524 212Z" fill="#f9f9f9" stroke="#f9f9f9"></path><path d="M524 212L522 150L453 214Z" fill="#f4f4f4" stroke="#f4f4f4"></path><path d="M81 684L147 747L152 681Z" fill="#fafafa" stroke="#fafafa"></path><path d="M221 744L218 816L290 756Z" fill="#fefefe" stroke="#fefefe"></path><path d="M601 309L603 238L534 303Z" fill="#fefefe" stroke="#fefefe"></path><path d="M522 150L454 78L446 156Z" fill="#fafafa" stroke="#fafafa"></path><path d="M312 0L238 0L308 76Z" fill="#f5f5f5" stroke="#f5f5f5"></path><path d="M518 749L528 676L447 664Z" fill="#f3f3f3" stroke="#f3f3f3"></path><path d="M0 86L0 142L87 141Z" fill="#fbfbfb" stroke="#fbfbfb"></path><path d="M0 592L0 670L80 587Z" fill="#f3f3f3" stroke="#f3f3f3"></path><path d="M81 684L70 750L147 747Z" fill="#fbfbfb" stroke="#fbfbfb"></path><path d="M147 77L78 74L87 141Z" fill="#f7f7f7" stroke="#f7f7f7"></path><path d="M136 0L78 74L147 77Z" fill="#ffffff" stroke="#ffffff"></path><path d="M366 834L438 757L387 736Z" fill="#fefefe" stroke="#fefefe"></path><path d="M387 736L438 757L447 664Z" fill="#f3f3f3" stroke="#f3f3f3"></path><path d="M603 671L611 610L528 676Z" fill="#f3f3f3" stroke="#f3f3f3"></path><path d="M528 676L611 610L514 595Z" fill="#fefefe" stroke="#fefefe"></path><path d="M675 456L597 379L587 454Z" fill="#f3f3f3" stroke="#f3f3f3"></path><path d="M601 309L675 310L603 238Z" fill="#fafafa" stroke="#fafafa"></path><path d="M593 155L513 81L522 150Z" fill="#f9f9f9" stroke="#f9f9f9"></path><path d="M522 150L513 81L454 78Z" fill="#fdfdfd" stroke="#fdfdfd"></path><path d="M675 456L587 454L591 511Z" fill="#f8f8f8" stroke="#f8f8f8"></path><path d="M0 670L70 750L81 684Z" fill="#f9f9f9" stroke="#f9f9f9"></path><path d="M147 747L218 816L221 744Z" fill="#f7f7f7" stroke="#f7f7f7"></path><path d="M675 157L593 155L603 238Z" fill="#fbfbfb" stroke="#fbfbfb"></path><path d="M603 238L593 155L524 212Z" fill="#f9f9f9" stroke="#f9f9f9"></path><path d="M675 515L675 456L591 511Z" fill="#f7f7f7" stroke="#f7f7f7"></path><path d="M312 0L308 76L385 0Z" fill="#f8f8f8" stroke="#f8f8f8"></path><path d="M308 76L238 0L220 80Z" fill="#fbfbfb" stroke="#fbfbfb"></path><path d="M308 76L378 86L385 0Z" fill="#ffffff" stroke="#ffffff"></path><path d="M385 0L378 86L454 78Z" fill="#ffffff" stroke="#ffffff"></path><path d="M675 370L675 310L601 309Z" fill="#fefefe" stroke="#fefefe"></path><path d="M675 586L675 515L591 511Z" fill="#fdfdfd" stroke="#fdfdfd"></path><path d="M149 820L218 816L147 747Z" fill="#fafafa" stroke="#fafafa"></path><path d="M290 756L366 834L387 736Z" fill="#f5f5f5" stroke="#f5f5f5"></path><path d="M450 0L385 0L454 78Z" fill="#fbfbfb" stroke="#fbfbfb"></path><path d="M0 0L0 86L78 74Z" fill="#f5f5f5" stroke="#f5f5f5"></path><path d="M78 74L0 86L87 141Z" fill="#f9f9f9" stroke="#f9f9f9"></path><path d="M438 757L518 749L447 664Z" fill="#f3f3f3" stroke="#f3f3f3"></path><path d="M611 610L675 586L591 511Z" fill="#fbfbfb" stroke="#fbfbfb"></path><path d="M456 821L518 749L438 757Z" fill="#f4f4f4" stroke="#f4f4f4"></path><path d="M218 816L298 826L290 756Z" fill="#f5f5f5" stroke="#f5f5f5"></path><path d="M518 749L603 671L528 676Z" fill="#f7f7f7" stroke="#f7f7f7"></path><path d="M238 0L136 0L220 80Z" fill="#f9f9f9" stroke="#f9f9f9"></path><path d="M675 310L675 234L603 238Z" fill="#fefefe" stroke="#fefefe"></path><path d="M70 750L149 820L147 747Z" fill="#fefefe" stroke="#fefefe"></path><path d="M226 900L293 900L298 826Z" fill="#f7f7f7" stroke="#f7f7f7"></path><path d="M513 81L450 0L454 78Z" fill="#fdfdfd" stroke="#fdfdfd"></path><path d="M531 0L450 0L513 81Z" fill="#fdfdfd" stroke="#fdfdfd"></path><path d="M604 61L513 81L593 155Z" fill="#fafafa" stroke="#fafafa"></path><path d="M675 664L675 586L611 610Z" fill="#fdfdfd" stroke="#fdfdfd"></path><path d="M293 900L366 834L298 826Z" fill="#fefefe" stroke="#fefefe"></path><path d="M298 826L366 834L290 756Z" fill="#fefefe" stroke="#fefefe"></path><path d="M0 670L0 751L70 750Z" fill="#ffffff" stroke="#ffffff"></path><path d="M70 750L68 821L149 820Z" fill="#f8f8f8" stroke="#f8f8f8"></path><path d="M136 0L81 0L78 74Z" fill="#f8f8f8" stroke="#f8f8f8"></path><path d="M366 834L456 821L438 757Z" fill="#fafafa" stroke="#fafafa"></path><path d="M675 749L675 664L603 671Z" fill="#f3f3f3" stroke="#f3f3f3"></path><path d="M0 815L68 821L70 750Z" fill="#f5f5f5" stroke="#f5f5f5"></path><path d="M226 900L298 826L218 816Z" fill="#f9f9f9" stroke="#f9f9f9"></path><path d="M675 234L675 157L603 238Z" fill="#f7f7f7" stroke="#f7f7f7"></path><path d="M675 157L604 61L593 155Z" fill="#fefefe" stroke="#fefefe"></path><path d="M604 61L531 0L513 81Z" fill="#fefefe" stroke="#fefefe"></path><path d="M611 762L603 671L518 749Z" fill="#fefefe" stroke="#fefefe"></path><path d="M603 671L675 664L611 610Z" fill="#f7f7f7" stroke="#f7f7f7"></path><path d="M81 0L0 0L78 74Z" fill="#f8f8f8" stroke="#f8f8f8"></path><path d="M586 826L611 762L518 749Z" fill="#f9f9f9" stroke="#f9f9f9"></path><path d="M0 751L0 815L70 750Z" fill="#f5f5f5" stroke="#f5f5f5"></path><path d="M366 834L441 900L456 821Z" fill="#f8f8f8" stroke="#f8f8f8"></path><path d="M456 821L523 838L518 749Z" fill="#f4f4f4" stroke="#f4f4f4"></path><path d="M226 900L218 816L162 900Z" fill="#fbfbfb" stroke="#fbfbfb"></path><path d="M218 816L149 820L162 900Z" fill="#fbfbfb" stroke="#fbfbfb"></path><path d="M162 900L149 820L64 900Z" fill="#f5f5f5" stroke="#f5f5f5"></path><path d="M441 900L523 838L456 821Z" fill="#fafafa" stroke="#fafafa"></path><path d="M293 900L375 900L366 834Z" fill="#ffffff" stroke="#ffffff"></path><path d="M64 900L149 820L68 821Z" fill="#f9f9f9" stroke="#f9f9f9"></path><path d="M375 900L441 900L366 834Z" fill="#f5f5f5" stroke="#f5f5f5"></path><path d="M675 61L610 0L604 61Z" fill="#fefefe" stroke="#fefefe"></path><path d="M604 61L610 0L531 0Z" fill="#fefefe" stroke="#fefefe"></path><path d="M590 900L586 826L523 838Z" fill="#fafafa" stroke="#fafafa"></path><path d="M523 838L586 826L518 749Z" fill="#fdfdfd" stroke="#fdfdfd"></path><path d="M611 762L675 749L603 671Z" fill="#f8f8f8" stroke="#f8f8f8"></path><path d="M675 157L675 61L604 61Z" fill="#f4f4f4" stroke="#f4f4f4"></path><path d="M675 837L675 749L611 762Z" fill="#f4f4f4" stroke="#f4f4f4"></path><path d="M0 900L64 900L68 821Z" fill="#fefefe" stroke="#fefefe"></path><path d="M441 900L523 900L523 838Z" fill="#fdfdfd" stroke="#fdfdfd"></path><path d="M586 826L675 837L611 762Z" fill="#f8f8f8" stroke="#f8f8f8"></path><path d="M0 815L0 900L68 821Z" fill="#f4f4f4" stroke="#f4f4f4"></path><path d="M675 61L675 0L610 0Z" fill="#f7f7f7" stroke="#f7f7f7"></path><path d="M523 900L590 900L523 838Z" fill="#fbfbfb" stroke="#fbfbfb"></path><path d="M590 900L675 837L586 826Z" fill="#fdfdfd" stroke="#fdfdfd"></path><path d="M590 900L675 900L675 837Z" fill="#fdfdfd" stroke="#fdfdfd"></path></g></svg>