<?xml version="1.0" encoding="UTF-8" standalone="no"?>
<!DOCTYPE svg PUBLIC "-//W3C//DTD SVG 1.1//EN" "http://www.w3.org/Graphics/SVG/1.1/DTD/svg11.dtd">
<svg width="100%" height="100%" viewBox="0 0 1500 1500" version="1.1" xmlns="http://www.w3.org/2000/svg" xmlns:xlink="http://www.w3.org/1999/xlink" xml:space="preserve" xmlns:serif="http://www.serif.com/" style="fill-rule:evenodd;clip-rule:evenodd;stroke-linejoin:round;stroke-miterlimit:2;">
    <g transform="matrix(1.21106,0,0,1.21106,-155.108,-590.453)">
        <path d="M534.624,678.287C532.698,678.503 529.043,678.455 529.043,678.166C529.043,677.227 526.257,676.08 525.744,675.662C524.546,674.685 523.454,673.343 522.483,672.57C521.992,672.18 521.459,671.831 520.9,671.513C519.058,670.463 516.878,669.795 515.357,668.536C514.73,668.021 514.569,667.042 514.128,666.322C513.919,665.98 513.684,665.666 513.409,665.397C512.173,664.189 510.905,663.188 509.601,662.271C507.719,660.947 505.767,659.8 503.755,658.394C501.226,656.625 497.843,655.906 495.085,654.517C494.469,654.206 493.889,653.859 493.37,653.44L489.874,649.99L487.721,648.044C487.314,647.65 486.704,647.551 486.192,647.796C485.681,648.042 485.377,648.58 485.43,649.144L485.634,652.279C485.635,652.968 485.513,653.62 485.341,654.26C485.039,655.384 484.594,656.473 484.269,657.619C483.914,658.862 483.668,660.135 483.492,661.427C482.841,666.228 483.209,671.31 482.21,676.056C481.574,679.082 481.467,682.146 481.092,685.179C480.941,686.404 480.755,687.625 480.441,688.835C480.116,690.205 479.177,691.87 478.982,693.433C478.91,694.016 478.915,694.586 479.041,695.131C478.972,695.118 477.881,694.834 477.368,694.668C476.631,694.43 475.848,694.167 475.059,693.809C471.832,692.346 468.385,689.989 465.431,689.008C462.284,687.968 458.962,687.31 455.746,686.438C454.412,686.077 453.097,685.678 451.823,685.192C450.018,684.503 446.503,682.441 443.594,681.95C441.718,681.634 440.057,681.938 438.91,683.091C438.585,683.418 438.272,684.528 438.697,685.984C439.318,688.112 440.961,691.641 441.058,691.897C441.768,693.773 442.317,695.822 442.781,697.947C443.861,702.892 444.472,708.239 445.377,712.852L447.123,721.757C447.183,722.115 447.383,722.682 447.628,723.28C443.17,723.147 438.471,723.945 433.779,724.794C428.649,725.723 423.526,727.023 418.733,728.546L410.093,731.461C409.675,731.63 408.142,731.858 407.217,732.141C406.638,732.318 406.218,732.563 406.024,732.758C405.808,732.975 405.556,733.404 405.665,734.045C405.772,734.672 406.501,736.125 406.586,736.325C407.059,737.423 407.631,738.514 408.258,739.584C409.17,741.142 410.2,742.655 411.197,744.078L415.462,752.209L427.715,770.132C428.685,771.539 428.987,774.352 429.947,776.049C430.5,777.027 431.38,778.605 432.35,778.829C432.346,780.282 432.208,780.846 432.255,782.285C431.854,782.292 431.456,782.449 431.151,782.754C430.747,783.086 430.31,783.372 429.898,783.71C428.298,785.02 426.656,786.4 424.824,787.565C422.529,789.023 420.07,790.294 417.654,791.406C417.12,791.643 416.593,791.925 416.071,792.238C414.298,793.298 412.584,794.74 410.769,795.695C408.919,796.665 407.256,797.926 405.484,799.017C404.797,799.441 404.092,799.836 403.348,800.169L400.674,800.747C400.017,800.83 399.485,801.32 399.349,801.968C399.214,802.616 399.504,803.279 400.072,803.618L402.738,805.512C403.854,806.633 404.881,807.758 406.026,808.769C406.845,809.492 407.722,810.156 408.72,810.729C410.175,811.564 411.847,812.473 413.384,813.494C414.354,814.139 415.271,814.827 416.022,815.578L420.598,820.715C421.206,821.271 421.882,821.742 422.6,822.158C424.002,822.97 425.57,823.559 426.887,824.464C427.742,825.047 428.583,825.706 429.403,826.401C430.664,827.471 431.879,828.62 433.016,829.718C433.154,829.842 434.99,831.716 435.86,832.158C436.559,832.514 437.018,832.501 437.189,832.44C437.419,833.418 437.859,834.342 438.333,835.255C437.559,834.842 436.713,834.49 435.817,834.191C432.329,833.029 428.007,832.673 425.041,831.702C423.079,831.06 421.098,830.47 419.104,829.928C411.216,827.783 403.151,826.255 395.564,823.822C391.729,822.592 388.193,821.224 384.528,820.219C382.011,819.529 379.436,819.004 376.67,818.803C375.495,818.716 374.351,818.228 373.254,817.588C371.179,816.376 369.273,814.638 367.666,813.48C366.324,812.512 365.101,811.942 364.128,811.949C363.224,811.956 362.807,812.406 362.589,812.884C362.423,813.25 362.362,813.88 362.704,814.608C362.956,815.145 363.566,815.906 363.691,816.404C364.119,818.121 364.592,819.913 365.161,821.654C365.552,822.848 365.988,824.019 366.488,825.127C368.899,830.465 371.694,834.678 373.865,839.695C374.715,841.66 375.47,843.752 376.057,846.097C377.209,850.679 378.699,855.202 380.373,859.682C384.218,869.977 389.034,880.05 392.84,890.139C393.377,891.535 394.349,897.748 395.819,901.002C396.623,902.785 397.745,903.72 398.58,903.695C398.213,904.505 397.849,905.316 397.486,906.129C396.281,905.669 394.851,905.331 394.446,905.249C393.319,905.022 392.138,904.515 390.928,903.902C387.952,902.398 384.837,900.287 381.981,899.244C375.79,896.998 369.766,894.192 363.536,891.978C359.298,890.472 354.966,889.237 350.434,888.6C349.127,888.417 347.761,888.331 346.355,888.314C341.381,888.253 335.896,889.045 330.934,888.694L317.287,887.319C316.763,887.287 314.437,886.78 313.015,886.809C312.079,886.829 311.387,887.124 311.05,887.465C310.734,887.781 310.254,888.776 311.214,889.728C311.828,890.336 313.707,891.563 314.045,891.766C315.311,892.525 316.027,892.641 316.88,893.323C317.263,893.63 317.673,894.066 318.201,894.751C321.721,899.336 326.918,902.852 330.931,907.154C332.562,908.903 333.988,910.789 334.973,912.964C336.04,915.319 337.281,917.511 338.609,919.619C341.678,924.49 345.221,928.907 348.032,933.972C350.726,938.77 352.869,943.93 355.751,948.596C357.031,950.667 358.454,952.643 360.12,954.456C361.672,956.131 365.143,963.19 367.3,965.261C368.48,966.394 370.06,968.994 367.892,972.829C366.547,975.208 364.27,980.024 363.825,980.024C363.45,980.024 362.325,980.556 362.325,980.556C359.253,981.119 351.208,981.16 350.291,981.277C339.543,982.676 328.84,986.411 318.23,988.017C313.679,988.706 309.145,989.004 304.629,988.506C303.548,988.385 294.991,987.6 289.951,987.468C288.3,987.424 286.998,987.46 286.374,987.588C285.849,987.695 285.53,987.913 285.368,988.076C285.113,988.333 284.727,989.023 285.21,989.922C285.549,990.554 286.796,991.926 286.909,992.206C287.547,993.799 288.433,995.143 289.438,996.371C291.587,998.994 294.347,1001.02 296.054,1004.16C301.232,1013.65 305.847,1022.7 311.555,1031.21C315.34,1036.85 319.609,1042.25 324.799,1047.41C326.459,1049.05 327.94,1053.37 329.92,1055.81C329.92,1055.81 258.38,1054.93 222.715,1054.67C207.431,1054.57 176.433,1054.46 176.433,1054.46C175.751,1053.86 170.163,1055.29 170.21,1057.36C174.129,1227 175.997,1396.96 173.524,1566.58C173.508,1567.71 176.117,1571.12 177.229,1571.12C200.089,1571.25 222.944,1571.3 245.794,1571.28C399.579,1571.14 553.151,1567.86 706.989,1566.1C706.989,1566.1 713.797,1566.02 721.343,1565.94C734.5,1565.8 747.658,1565.68 760.816,1565.58C765.784,1565.54 770.752,1565.51 775.72,1565.47C835.748,1565.06 706.989,1566.1 706.989,1566.1C911.129,1563.76 1115.34,1566.07 1319.46,1564.36C1320.91,1564.35 1322.93,1558.52 1323.01,1557.38C1323.52,1550.23 1323.88,1543.08 1324.12,1535.91C1326.07,1478.92 1320.44,1421.6 1319.06,1364.63C1316.58,1262.56 1316.74,1160.14 1317.12,1058.03C1317.13,1056.13 1315.71,1054.55 1313.88,1054.3C1313.25,1053.82 1312.46,1053.54 1311.61,1053.58C1287.95,1054.59 1264.32,1056.32 1240.68,1057.85C1237.61,1053.93 1235.01,1049.59 1231.99,1045.58C1231.12,1044.42 1230.22,1043.29 1229.27,1042.21C1220.9,1032.61 1212.24,1023.16 1203.15,1014.09C1200.89,1011.83 1198.55,1009.65 1196.26,1007.41C1193.41,1004.61 1190.62,1001.74 1187.75,998.966C1173.32,985.061 1158.15,971.922 1142.74,959.385C1139.71,956.919 1136.53,954.634 1133.29,952.434C1126.57,947.886 1119.56,943.696 1112.98,938.951C1112.75,938.787 1112.54,938.589 1112.32,938.392C1112.22,938.017 1111.98,937.679 1111.63,937.461C1067.83,910.797 1023.03,889.025 976.222,873.419C929.494,857.838 880.764,848.403 829.019,846.403C824.351,846.22 819.682,846.126 815.012,846.109C815.047,845.956 814.877,840.036 814.764,837.638C814.01,821.675 814.004,805.599 813.946,789.548C817.953,789.242 822.031,789.03 825.889,789.862C829.135,790.563 832.212,791.881 834.897,794.153C838.609,797.306 841.137,801.657 844.52,805.075C846.09,806.66 847.821,808.071 849.933,809.1C852.321,810.254 854.787,810.894 857.304,811.236C860.911,811.726 864.618,811.589 868.322,811.657C874.72,811.759 881.128,812.15 887.522,811.915C888.168,811.892 888.82,811.907 889.46,811.806C890.457,811.649 891.356,811.322 892.329,811.047C892.468,811.037 892.599,811.001 892.718,810.945C892.84,810.965 892.965,810.972 893.093,810.964C894.006,810.908 894.702,810.122 894.647,809.209C893.843,796.812 894.626,784.4 894.457,772.013C894.449,771.457 894.484,770.898 894.421,770.346C894.324,769.487 894.082,768.699 893.899,767.854C893.886,767.295 891.025,766.391 890.452,766.77C887.057,768.982 882.721,770.612 878.374,771.032C874.145,771.441 869.891,770.701 866.532,768.056C862.943,765.235 860.444,761.494 857.009,758.771C855.445,757.531 853.704,756.482 851.606,755.791C846.726,754.158 841.143,753.582 835.391,753.524C828.072,753.449 820.312,752.954 813.793,754.479C812.893,754.689 812.289,755.156 811.468,755.503C810.91,755.52 810.287,759.271 810.196,760.371C810.151,760.903 810.292,803.34 810.367,810.119C810.486,820.866 810.539,831.612 811.336,842.275C811.425,843.467 811.706,846.022 811.726,846.109C800.995,846.15 790.265,846.581 779.542,847.253C776.263,847.459 731.385,851.349 713.127,853.337C712.146,853.444 711.162,853.53 710.186,853.675C708.919,853.863 707.674,854.12 706.419,854.356C706.503,854.006 709.903,839.754 710.767,837.163C711.117,836.115 711.371,835.087 711.47,834.11C712.02,834.141 712.871,834.218 713.457,834.108C714.02,834.002 715.511,832.904 715.547,832.545C715.974,832.059 715.624,831.255 715.16,830.791C714.82,830.451 714.535,829.79 714.263,829.069C713.814,827.883 713.469,826.524 713.303,825.696C713.157,824.968 712.875,824.213 712.524,823.472C712.053,822.479 711.457,821.509 710.955,820.672L709.247,816.042L704.235,808.469L700.744,801.107C699.926,799.573 698.704,797.867 697.848,796.143C697.511,795.462 697.232,794.78 697.082,794.106C696.959,793.553 697.013,792.929 697.133,792.302C697.343,791.2 697.774,790.09 698.121,789.223C698.292,788.795 698.417,788.313 698.51,787.806C698.683,786.873 698.746,785.84 698.917,784.986C699.327,782.938 700.457,780.903 700.857,778.733C701.051,777.681 701.092,776.602 700.868,775.484C700.533,773.797 699.902,772.255 699.085,770.799C696.168,765.606 690.624,761.659 688.695,755.818C688.576,755.456 688.531,755.073 688.513,754.681C688.46,753.491 688.638,752.238 688.528,751.099C688.339,749.132 688.063,747.076 687.667,745.044C687.266,742.991 686.742,740.961 686.061,739.067C684.966,736.033 683.032,733.787 680.617,732.115C677.218,729.763 672.851,728.569 668.717,727.765C668.261,727.677 667.906,727.512 667.599,727.303C666.458,726.521 665.738,725.368 664.258,724.656L663.619,724.237C663.636,724.148 661.102,720.283 660.528,719.833L651.426,712.527C649.418,711.05 647.235,709.769 644.972,708.589C641.714,706.888 638.291,705.394 635.014,703.791C634.07,703.328 633.143,702.792 632.229,702.218C630.024,700.832 627.882,699.239 625.708,697.921C624.923,697.445 624.078,697.011 623.205,696.6C621.307,695.705 619.271,694.922 617.476,694.033C615.116,692.853 612.759,691.766 610.395,690.719C606.854,689.15 603.297,687.671 599.686,686.117L594.073,684.433C593.907,684.363 591.208,680.173 590.682,679.646C590.555,679.43 590.471,679.218 590.321,679.023C588.992,677.296 587.403,676.053 586.066,674.521C585.105,673.42 584.163,672.267 583.19,670.983C582.356,669.884 582.392,668.322 581.898,667C581.712,666.5 581.482,666.022 581.183,665.577C579.214,662.67 577.529,659.749 575.614,657.004C574.271,655.078 572.819,653.236 571.094,651.536L564.882,644.092C564.463,643.686 563.363,642.883 562.383,642.571C561.603,642.322 560.87,642.353 560.33,642.633C559.211,643.2 558.347,644.119 557.639,645.239C556.432,647.147 555.736,649.727 554.505,651.444C552.479,654.26 550.48,657.316 548.32,660.202C546.911,662.083 545.436,663.893 543.825,665.501C543.066,666.27 542.345,667.109 541.662,667.996C540.187,669.909 538.858,672.023 537.356,673.85C536.999,674.286 535.814,676.085 535.58,676.641C535.4,677.086 534.754,677.849 534.628,678.272L534.624,678.287ZM529.61,1144.63C529.473,1144.65 391.839,1144.27 323.15,1145.8C299.184,1146.34 275.218,1144.72 251.265,1146.07C250.717,1169.04 249.107,1191.98 248.995,1214.96C248.818,1251.46 251.342,1288 251.611,1324.5C252.203,1405.02 252.311,1485.51 252.081,1566.02C252.081,1566.02 278.336,1565.96 291.097,1565.9C315.923,1565.78 340.748,1565.6 365.573,1565.36C420.042,1564.85 532.469,1563.24 532.469,1563.24C531.108,1540.14 530.603,1517.02 530.53,1493.89C530.416,1458.09 531.337,1422.27 531.716,1386.47C531.962,1363.23 531.852,1339.97 531.54,1316.71C531.072,1281.8 530.147,1246.89 529.281,1212.05C528.868,1195.41 530.161,1178.9 530.193,1162.32C530.204,1156.44 530.055,1150.54 529.61,1144.63ZM887.126,1200.92C878.643,1201.68 870.146,1202.16 861.642,1202.45C839.147,1203.22 816.601,1202.78 794.101,1203.63C743.297,1205.5 727.307,1206.36 727.307,1206.36C727.916,1211.52 728.506,1216.68 728.836,1221.88C729.198,1227.59 729.271,1233.31 729.343,1239.03C729.642,1262.99 728.683,1286.98 728.655,1310.93C728.655,1311.18 728.658,1311.43 728.665,1311.68C730.662,1311.18 732.544,1311.64 733.733,1313.44C734.592,1314.74 734.769,1316.29 734.44,1317.79C734.577,1317.79 738.802,1318.72 739.242,1319.18C740.893,1320.87 743.265,1323.07 745.152,1325.44C746.536,1327.19 747.663,1329.03 748.13,1330.88C750.289,1339.22 746.574,1346.6 740.37,1351.36C734.393,1355.95 726.09,1358.04 718.632,1356.23C713.547,1354.99 710.04,1351.6 708.004,1347.34C706.037,1343.22 705.478,1338.28 706.207,1333.78C706.529,1331.79 707.436,1329.75 708.657,1327.81C710.302,1325.19 712.518,1322.74 714.4,1320.85C715.614,1319.65 716.583,1318.97 717.563,1318.56C718.781,1318.05 719.988,1317.97 721.844,1317.52C722.468,1316.17 723.582,1314.77 724.917,1313.66C724.923,1311.62 725.039,1309.56 725.033,1307.51C724.965,1280.16 725.316,1252.77 725.131,1225.42C725.088,1219.09 725.228,1212.78 725.129,1206.45C705.714,1207.28 686.299,1208.12 666.88,1208.88C667.091,1210.55 667.318,1212.2 667.469,1213.87C667.553,1214.81 668.374,1231.25 668.675,1238.53C669.107,1248.96 669.354,1259.39 669.1,1269.87C668.811,1281.32 667.543,1292.8 666.901,1304.27C666.749,1306.97 666.626,1309.67 666.564,1312.37C667.153,1312.56 667.727,1312.94 668.258,1313.54C669.513,1314.36 670.136,1315.63 670.238,1317.01C671.258,1317.4 672.259,1317.91 673.239,1318.44C676.333,1320.13 679.212,1322.59 681.721,1324.58C682.577,1325.26 683.749,1325.93 684.639,1326.76C685.155,1327.24 685.585,1327.77 685.882,1328.36C686.3,1329.18 686.621,1331.1 686.746,1333.22C686.906,1335.93 686.793,1338.97 686.498,1340.18C685.888,1342.66 684.372,1345.31 682.401,1347.78C679.633,1351.24 675.988,1354.33 673.032,1356.09C671.034,1357.28 668.638,1357.76 666.142,1357.8C662.759,1357.87 659.19,1357.15 656.372,1356.67C655.2,1356.47 653.902,1355.91 652.639,1355.16C650.98,1354.18 649.368,1352.9 648.204,1351.92C646.898,1350.82 645.379,1349.68 644.049,1348.41C643.071,1347.48 642.192,1346.48 641.538,1345.38C639.835,1342.52 639.378,1339.58 639.705,1336.71C640.184,1332.52 642.401,1328.46 644.913,1325.09C647.33,1321.86 650.703,1318.39 654.572,1316.84C656.235,1316.18 658.033,1315.72 659.833,1315.91C659.631,1315.39 662.753,1312.71 663.6,1312.76L663.603,1312.76C663.603,1309.88 663.677,1306.99 663.808,1304.11C664.329,1292.66 665.648,1281.22 665.902,1269.8C666.376,1251.03 664.463,1232.42 664.411,1213.69C664.407,1212.11 664.491,1210.55 664.573,1208.97C656.956,1209.27 618.977,1210.56 607.602,1210.87C607.121,1234.14 606.699,1257.42 606.625,1280.69C606.475,1327.69 606.929,1374.69 607.351,1421.71C607.645,1455.63 604.303,1489.23 604.34,1522.92C604.354,1535.98 604.853,1549.05 606.32,1562.16L607.587,1562.15C611.035,1562.1 618.989,1561.99 618.989,1561.99C615.95,1559.02 612.946,1554.56 611.365,1549.95C610.117,1546.31 609.853,1542.45 611.457,1538.7C612.236,1536.88 613.374,1534.98 614.67,1533.19C615.945,1531.43 617.373,1529.77 618.753,1528.39C619.109,1528.03 620.907,1526.51 622.459,1526.01C622.711,1525.93 621.048,1519.52 620.969,1519.34C620.575,1518.44 620.376,1517.41 620.297,1516.35C620.252,1515.74 619.742,1512.66 619.742,1512.66C619.549,1512.07 619.758,1510.46 620.364,1509.47C620.522,1509.21 624.556,1504.03 627.596,1503.23C631.585,1502.17 636.573,1502.77 639.995,1503.3C642.385,1503.68 647.019,1503.01 650.24,1503.92C652.405,1504.54 654.029,1505.77 654.708,1507.82C655.1,1509.02 656.011,1513.85 655.817,1514.61C655.127,1517.27 653.232,1518.87 652.138,1521.05C651.888,1521.55 651.772,1522.1 651.624,1522.72C651.598,1522.83 652.256,1523.37 652.635,1523.57C654.094,1524.34 655.494,1525.33 656.613,1526.17C658.097,1527.3 660.352,1528.95 662.094,1530.81C663.468,1532.27 664.514,1533.86 664.82,1535.41C665.889,1540.76 665.327,1545.9 663.567,1550.63C662.528,1553.43 661.069,1556.09 659.274,1558.57C658.553,1559.56 657.25,1561.46 657.25,1561.46C669.669,1561.3 682.088,1561.14 694.507,1560.99C701.838,1560.9 709.168,1560.82 716.498,1560.74C727.264,1560.62 738.029,1560.52 748.795,1560.43C748.795,1560.43 747.947,1535.55 748.098,1535.23C744.347,1535.33 740.597,1535.46 736.845,1535.62C734.843,1535.71 730.65,1535.92 730.569,1535.88C730.267,1535.73 730.128,1532.22 730.095,1531.86C729.472,1525.1 728.648,1518.35 728.149,1511.58C728.078,1510.61 728.012,1509.64 727.997,1508.66C727.962,1506.37 727.335,1499.79 727.891,1499.73C728.753,1499.42 729.511,1499.04 730.404,1498.83C730.615,1498.78 730.834,1498.78 731.049,1498.75C740.729,1497.73 750.44,1497.22 760.15,1496.82C785.257,1495.77 810.417,1496.05 835.539,1495.22L835.54,1495.22C835.531,1484.15 835.459,1473.09 835.366,1462.02C831.687,1464.05 827.695,1465.54 823.46,1466.36C814.379,1468.13 803.928,1467.68 794.448,1464.73C784.769,1461.71 776.12,1456.1 770.872,1447.79C763.736,1436.5 764.353,1421.3 769.948,1407.97C775.458,1394.83 794.643,1382.93 794.909,1383.64C798.737,1379.29 806.524,1379.46 809.986,1379.34C815.474,1379.15 821.175,1379.81 826.643,1381.01C829.465,1381.62 832.225,1382.42 834.866,1383.44C834.875,1379.89 834.891,1376.35 834.916,1372.81C835.054,1354.3 835.777,1335.91 836.048,1317.5C836.192,1307.71 836.212,1297.91 835.931,1288.08C835.903,1287.1 835.804,1286.12 835.839,1285.14C835.893,1283.64 836.148,1282.2 836.292,1280.71C836.266,1280.15 836.698,1279.67 837.256,1279.65C837.807,1279.62 838.277,1280.04 838.314,1280.59C838.541,1280.36 838.859,1280.23 839.206,1280.24C841.558,1280.18 843.897,1280.04 846.25,1280.02C851.145,1279.99 856.048,1280.02 860.931,1280.31C860.938,1280.29 860.944,1280.26 860.95,1280.24C860.915,1279.68 861.339,1279.2 861.897,1279.16C862.455,1279.13 862.936,1279.55 862.972,1280.11C863.034,1280.27 863.099,1280.42 863.165,1280.57C863.713,1280.77 864.1,1281.31 864.088,1281.92C864.083,1282.22 863.985,1282.49 863.823,1282.72C864.173,1285.05 863.915,1287.45 863.959,1289.8C864.2,1302.71 863.563,1315.55 863.688,1328.51C863.989,1352.96 864.421,1377.52 864.545,1402.05C864.628,1418.42 864.574,1434.79 864.252,1451.11C863.963,1465.33 863.459,1479.55 863.015,1493.77C863.16,1493.72 873.11,1493.5 873.363,1493.51C873.925,1493.52 874.373,1493.98 874.362,1494.54C874.497,1500.38 874.809,1506.2 874.86,1512.04C874.906,1517.29 874.722,1522.54 874.657,1527.79C874.652,1528.2 874.496,1529.54 874.493,1529.63C874.465,1530.33 872.562,1531.03 872.286,1531.05C869.774,1531.25 862.323,1531.16 862.188,1531.1C862.092,1540.91 862.115,1550.01 862.403,1559.82L862.441,1559.82C869.619,1559.8 876.797,1559.79 883.975,1559.77L883.992,1562.4C883.936,1534 884.093,1505.6 884.496,1477.21C884.752,1459.21 885.13,1441.22 885.503,1423.22C885.679,1414.72 885.854,1406.22 886.014,1397.72C886.762,1357.99 887.373,1318.26 887.674,1278.51C887.852,1252.58 887.252,1226.75 887.126,1200.92ZM758.219,1535.03C755.603,1535.07 752.986,1535.12 750.37,1535.18C750.538,1535.4 751.719,1560.42 751.719,1560.42C754.111,1560.4 760.155,1560.33 760.155,1560.33C759.877,1558.99 758.172,1535.19 758.219,1535.03ZM834.908,1532.8C834.449,1532.79 833.988,1532.76 833.531,1532.77C824.063,1532.95 814.581,1533.81 805.104,1534.31C802.447,1534.45 799.79,1534.55 797.134,1534.61C785.079,1534.83 773.051,1534.83 761.023,1534.99C761.064,1535.11 762.436,1560.24 762.436,1560.24C786.361,1560.06 811.001,1560 834.926,1559.91L835.177,1559.91C834.886,1554.32 834.785,1548.73 834.792,1543.13C834.796,1539.68 834.842,1536.24 834.908,1532.8ZM838.72,1282.55C838.891,1283.37 839.048,1284.18 839.141,1285.02C839.182,1285.38 839.17,1285.76 839.184,1286.13C839.462,1293.54 839.568,1300.93 839.556,1308.31C839.52,1329.81 838.54,1351.24 838.397,1372.83C838.367,1376.87 838.349,1380.9 838.34,1384.93C843.228,1387.28 847.572,1390.46 850.955,1394.67C861.177,1407.32 861.947,1423.74 856.333,1437.76C852.77,1446.66 846.638,1454.57 838.772,1459.92C838.873,1473.1 838.946,1486.26 838.925,1499.43C838.872,1513.96 838.056,1528.57 837.959,1543.14C837.922,1548.73 837.99,1554.32 838.252,1559.89L838.515,1559.89C845.294,1559.87 852.073,1559.85 858.852,1559.83L859.34,1559.83C858.869,1545.94 858.874,1532.05 859.134,1518.16C859.552,1495.78 860.602,1473.4 861.067,1451.04C861.409,1434.75 861.483,1418.41 861.42,1402.06C861.325,1377.54 860.921,1352.99 860.649,1328.54C860.443,1313.99 861.194,1299.59 860.587,1285.07C860.564,1284.52 860.492,1283.97 860.452,1283.42C855.699,1283.53 850.935,1283.46 846.184,1283.23C843.82,1283.12 841.478,1282.85 839.123,1282.64C838.981,1282.63 838.845,1282.6 838.72,1282.55ZM1237.88,1139.07C1237.63,1139.1 1237.38,1139.12 1237.12,1139.14C1232.62,1139.43 1228.1,1139.22 1223.59,1139.23C1172.98,1139.36 1122.15,1138.99 1071.39,1139.83C1037.55,1140.39 1003.75,1141.47 970.054,1143.26C967.429,1143.4 958.647,1143.23 958.589,1143.23C958.55,1144.52 958.513,1145.81 958.483,1147.1C957.947,1170.51 958.729,1193.93 958.824,1217.34C958.85,1223.87 958.823,1230.39 958.698,1236.91C957.444,1302.6 956.471,1368.11 956.889,1433.64C957.139,1472.94 957.897,1512.26 959.382,1551.62C959.484,1554.32 959.732,1557.02 959.832,1559.71L960.541,1559.71C984.467,1559.72 1008.39,1559.74 1032.32,1559.75C1080.17,1559.79 1128.02,1559.83 1175.88,1559.76C1198.2,1559.72 1220.53,1559.66 1242.86,1559.57L1242.93,1559.57C1242.79,1551.49 1242.76,1543.41 1242.77,1535.33C1242.84,1498.72 1244.16,1462.15 1244.05,1425.53C1243.94,1403.7 1241.84,1381.92 1241.04,1360.12C1240.84,1354.64 1240.72,1349.16 1240.74,1343.67C1240.9,1302.5 1241.72,1261.61 1241.08,1220.7C1240.69,1196.18 1239.74,1171.67 1237.92,1147.07C1237.8,1145.43 1237.53,1143.81 1237.55,1142.17C1237.57,1141.11 1237.76,1140.12 1237.88,1139.07ZM835.541,1498.1C814.048,1498.89 792.524,1498.88 771.031,1499.59C758.152,1500.01 745.29,1500.73 732.444,1501.96C731.874,1502.01 730.417,1502.11 730.262,1502.09C730.632,1504.2 731.072,1506.27 731.391,1508.38C731.535,1509.34 731.635,1510.31 731.732,1511.27C732.411,1518.03 732.941,1524.81 733.425,1531.59C733.446,1531.88 733.494,1532.18 733.523,1532.47C739.061,1532.13 744.601,1531.99 750.135,1531.87C765.777,1531.51 781.405,1531.66 797.078,1531.4C807.612,1531.24 818.163,1530.17 828.7,1529.82C830.79,1529.75 832.897,1529.47 834.974,1529.62C835.2,1519.54 835.541,1498.54 835.541,1498.1ZM862.932,1496.6C862.599,1507.43 862.323,1517.7 862.198,1528.54C862.313,1528.49 869.17,1528.23 871.387,1528.5C871.389,1528.46 871.242,1517.27 871.377,1512.01C871.51,1506.83 871.88,1501.67 872.205,1496.5C872.157,1496.51 863.08,1496.67 862.932,1496.6ZM647.916,1522.19C647.953,1522.2 648.447,1520.26 648.842,1519.43C649.778,1517.47 651.566,1516.08 652.142,1513.69C652.253,1513.23 652.171,1512.72 652.06,1512.19C651.822,1511.07 651.354,1509.92 651.053,1509.04C650.662,1507.87 649.38,1507.6 648.015,1507.39C645.031,1506.94 641.391,1507.32 639.384,1506.96C636.374,1506.43 631.984,1505.73 628.444,1506.58C626.587,1507.03 624.575,1509.63 624.452,1510.05C624.389,1510.27 623.804,1512.3 623.865,1512.7C624.119,1514.37 624.683,1516.13 624.977,1517.25C625.179,1518 625.426,1519.1 625.772,1520.15C625.969,1520.75 626.233,1521.31 626.478,1521.8C626.567,1521.98 626.731,1522.4 626.739,1522.46C627.341,1523.5 627.693,1524.32 628.395,1523.81C630.232,1522.5 632.221,1521.88 634.281,1521.68C637.124,1521.41 640.092,1522 642.934,1522.32C644.528,1522.5 646.274,1522.14 647.916,1522.19ZM289.203,1507.92C289.154,1508.58 291.017,1509.94 291.295,1509.96C294.45,1510.21 297.58,1510.45 300.686,1510.68C333.895,1513.19 364.374,1515.25 394.816,1515.85C428.542,1516.51 462.225,1515.34 499.526,1510.82C500.629,1510.68 501.416,1509.67 501.282,1508.57C501.147,1507.47 500.142,1506.68 499.039,1506.82C469.627,1510.41 442.476,1511.92 415.77,1512.08C378.933,1512.3 342.946,1509.93 303.053,1507.05C299.332,1506.78 295.577,1506.5 291.783,1506.23C291.449,1506.21 289.252,1507.27 289.203,1507.92ZM991.202,1499.79C993.105,1500.05 1002.92,1501.07 1004.73,1501.08C1022.71,1501.17 1040.69,1500.41 1058.65,1500.92C1077.92,1501.43 1097.05,1503.92 1116.28,1505.21C1121.12,1505.54 1125.97,1505.79 1130.83,1505.91C1142.23,1506.2 1153.58,1506.04 1164.92,1505.65C1178.5,1505.18 1192.06,1504.54 1205.65,1503.73C1209.04,1503.53 1212.42,1503.27 1215.81,1503.05C1216.86,1503.01 1217.67,1502.12 1217.63,1501.07C1217.59,1500.02 1216.71,1499.2 1215.66,1499.24C1211.68,1499.31 1207.72,1499.36 1203.76,1499.5C1187.92,1500.03 1172.14,1500.99 1156.31,1501.27C1147.88,1501.42 1139.43,1501.42 1130.96,1501.16C1111.68,1500.61 1092.55,1498.1 1073.33,1496.83C1068.48,1496.51 1063.63,1496.28 1058.77,1496.16C1040.76,1495.75 1022.73,1496.34 1004.71,1496.61C1002.91,1496.64 993.138,1497.58 991.237,1497.77C990.678,1497.76 990.216,1498.2 990.207,1498.76C990.197,1499.32 990.643,1499.78 991.202,1499.79ZM282.83,1446.32C288.095,1446.62 293.321,1447.07 298.584,1447.26C302.084,1447.38 305.587,1447.34 309.086,1447.37C344.196,1447.64 379.16,1447.96 414.156,1447.78C443.297,1447.63 472.459,1447.03 501.746,1445.79C502.854,1445.75 503.717,1444.81 503.673,1443.7C503.628,1442.6 502.693,1441.73 501.586,1441.78C475.273,1442.76 449.064,1443.12 422.883,1443.3C383.52,1443.58 344.219,1443.21 304.721,1443.33C302.532,1443.33 300.342,1443.3 298.153,1443.37C293.033,1443.54 287.95,1443.97 282.829,1444.28C282.267,1444.28 281.811,1444.74 281.811,1445.3C281.812,1445.86 282.268,1446.32 282.83,1446.32ZM988.794,1435.07C988.787,1435.73 991.164,1436.98 991.529,1436.99C996.222,1437.06 1000.92,1437.14 1005.61,1437.25C1052.6,1438.29 1099.63,1441.31 1146.6,1441.37C1166.79,1441.39 1186.97,1440.87 1207.13,1439.39C1208.48,1439.3 1215.39,1437.72 1215.32,1436.82C1215.25,1435.93 1211.77,1435.23 1210.87,1435.25C1209.53,1435.28 1208.2,1435.44 1206.86,1435.53C1186.79,1436.89 1166.7,1437.37 1146.61,1437.33C1099.66,1437.24 1052.66,1434.3 1005.69,1433.4C1000.98,1433.31 996.277,1433.24 991.571,1433.21C991.205,1433.2 988.8,1434.41 988.794,1435.07ZM284.659,1397.49C284.684,1398.05 287.755,1399.1 288.878,1399.22C289.914,1399.34 290.961,1399.2 292.003,1399.16C310.697,1398.53 329.405,1397.1 348.131,1395.69C391.702,1392.41 435.325,1388 478.727,1383.95C483.079,1383.54 487.478,1383.5 491.776,1382.73C492.268,1382.64 492.72,1382.48 493.204,1382.35C494.053,1382.27 494.682,1381.52 494.607,1380.67C494.531,1379.82 493.78,1379.19 492.93,1379.27C492.088,1379.25 491.26,1379.19 490.419,1379.22C487.092,1379.34 483.785,1379.8 480.466,1380.1C443.268,1383.39 405.905,1386.98 368.557,1390C343.643,1392.02 318.732,1393.73 293.886,1395.05C292.225,1395.13 290.537,1395.01 288.905,1395.32C287.725,1395.55 284.634,1396.93 284.659,1397.49ZM985.642,1378.27C987.783,1378.44 989.856,1378.73 992.005,1378.77C992.531,1378.78 993.057,1378.72 993.583,1378.7C999.718,1378.41 1005.86,1378.11 1011.99,1377.79C1022.5,1377.23 1033.02,1376.63 1043.54,1376.02C1068.04,1374.61 1092.57,1373.19 1117.1,1372.21C1137.54,1371.39 1157.99,1370.98 1178.42,1370.75C1187.18,1370.65 1195.94,1370.51 1204.7,1370.54C1205.78,1370.56 1206.68,1369.7 1206.7,1368.62C1206.72,1367.54 1205.86,1366.64 1204.78,1366.62C1195.99,1366.31 1187.2,1366.03 1178.41,1365.96C1157.92,1365.82 1137.41,1366.42 1116.9,1367.21C1092.33,1368.16 1067.76,1369.51 1043.23,1371.1C1032.72,1371.78 1022.21,1372.51 1011.71,1373.28C1005.58,1373.73 999.455,1374.2 993.333,1374.68C992.808,1374.72 992.28,1374.73 991.759,1374.8C989.632,1375.1 987.612,1375.65 985.508,1376.08C984.904,1376.12 984.444,1376.64 984.481,1377.24C984.518,1377.85 985.038,1378.31 985.642,1378.27ZM659.993,1318.98C658.466,1318.84 657.035,1318.98 655.655,1319.54C652.265,1320.91 649.343,1323.99 647.217,1326.82C645.344,1329.29 643.595,1332.18 642.826,1335.23C642.111,1338.06 642.265,1341.04 643.997,1343.9C644.528,1344.78 645.25,1345.57 646.04,1346.32C647.334,1347.53 648.812,1348.62 650.082,1349.67C651.149,1350.55 652.623,1351.71 654.141,1352.6C655.069,1353.13 656.007,1353.57 656.865,1353.71C659.523,1354.14 662.886,1354.82 666.071,1354.73C668.009,1354.68 669.88,1354.35 671.424,1353.41C673.689,1352.05 676.378,1349.8 678.682,1347.25C680.916,1344.77 682.808,1342.01 683.46,1339.42C683.689,1338.53 683.776,1336.47 683.732,1334.43C683.69,1332.44 683.572,1330.46 683.197,1329.7C683.001,1329.3 682.661,1328.97 682.288,1328.66C681.507,1328 680.582,1327.44 679.883,1326.88C677.509,1324.97 674.811,1322.57 671.864,1320.97C671.157,1320.58 670.432,1320.28 669.696,1320.03C669.654,1320.13 669.611,1320.22 669.566,1320.32C668.338,1322.85 664.862,1323.58 661.934,1322.35C661.524,1322.17 659.933,1319.34 659.991,1319.15C659.991,1319.09 659.992,1319.04 659.993,1318.98ZM733.215,1320.74C733.177,1320.73 729.946,1323.62 728.073,1323.63C727.318,1323.64 725.467,1323.77 724.173,1323.38C723.209,1323.09 721.813,1321.37 721.683,1321.14C720.703,1321.45 719.928,1321.66 719.148,1322.04C718.527,1322.35 717.904,1322.78 717.118,1323.57C715.407,1325.28 713.387,1327.48 711.881,1329.85C710.935,1331.33 710.181,1332.87 709.921,1334.39C709.274,1338.17 709.688,1342.31 711.301,1345.78C712.853,1349.12 715.529,1351.82 719.481,1352.84C725.948,1354.5 733.182,1352.72 738.446,1348.81C743.774,1344.85 747.099,1338.67 745.387,1331.57C745.016,1330.08 744.089,1328.59 742.962,1327.2C741.121,1324.92 736.304,1321.02 735.793,1320.98C734.906,1320.9 733.974,1320.89 733.215,1320.74ZM285.441,1332.72C287.147,1332.99 288.785,1333.37 290.506,1333.52C293.034,1333.74 295.581,1333.6 298.119,1333.64C336.129,1334.21 374.254,1334.79 412.351,1334.82C437.773,1334.84 463.185,1334.68 488.539,1333.9C491.079,1333.82 493.681,1334.2 496.156,1333.62C496.476,1333.55 496.691,1333.38 496.991,1333.25C497.843,1333.23 498.513,1332.51 498.486,1331.66C498.459,1330.81 497.746,1330.14 496.894,1330.16C496.586,1330.05 496.362,1329.9 496.038,1329.85C493.537,1329.43 490.968,1329.95 488.432,1330.02C463.11,1330.63 437.739,1330.96 412.353,1330.95C374.273,1330.94 336.167,1330.31 298.173,1329.81C295.635,1329.78 293.092,1329.57 290.559,1329.72C288.834,1329.82 287.185,1330.15 285.473,1330.38C284.827,1330.37 284.296,1330.88 284.287,1331.53C284.278,1332.18 284.795,1332.71 285.441,1332.72ZM994.538,1319.19C994.527,1319.75 996.762,1320.86 997.502,1321C1003.34,1322.17 1009.41,1321.16 1015.37,1321.13C1041.76,1320.98 1068.16,1319.66 1094.55,1320.04C1120.25,1320.41 1146.17,1321.78 1172,1321.9C1182,1321.94 1191.99,1321.8 1201.94,1321.34C1202.72,1321.3 1206.59,1320.19 1206.55,1319.44C1206.52,1318.69 1204.56,1317.92 1204.23,1317.88C1203.06,1317.74 1201.88,1317.97 1200.7,1318.01C1187.5,1318.46 1174.24,1318.44 1160.97,1318.18C1138.82,1317.76 1116.63,1316.75 1094.6,1316.42C1064.89,1315.99 1035.16,1317.56 1005.46,1317.52C1002.83,1317.52 1000.16,1317.05 997.56,1317.49C996.818,1317.61 994.549,1318.63 994.538,1319.19ZM1000.07,1279.86C1001.13,1279.97 1002.12,1280.17 1003.19,1280.18C1005.58,1280.19 1007.96,1279.75 1010.34,1279.54C1040.82,1276.85 1071.64,1275.38 1102.5,1274.91C1136.81,1274.4 1171.16,1275.01 1205.12,1276.15C1206.06,1276.18 1206.85,1275.44 1206.88,1274.5C1206.92,1273.55 1206.18,1272.76 1205.23,1272.73C1164.44,1271.28 1123.07,1270.53 1081.89,1271.69C1057.12,1272.38 1032.42,1273.75 1007.96,1276.07C1006.32,1276.22 1004.65,1276.22 1003.04,1276.55C1001.92,1276.77 1000.92,1277.2 999.83,1277.54C999.188,1277.6 998.72,1278.18 998.785,1278.82C998.851,1279.46 999.426,1279.93 1000.07,1279.86ZM276.813,1278.37C281.834,1278.57 286.836,1278.86 291.869,1278.97C294.018,1279.02 296.168,1278.99 298.319,1278.98C326.904,1278.81 355.615,1278.21 384.315,1277.49C420.248,1276.59 456.16,1275.16 491.769,1272.68C492.792,1272.61 493.565,1271.73 493.496,1270.7C493.427,1269.68 492.541,1268.91 491.519,1268.98C470.155,1270.37 448.684,1271.37 427.166,1272.12C387.096,1273.53 346.862,1273.9 306.86,1274.55C301.841,1274.62 296.822,1274.63 291.815,1274.85C286.784,1275.07 281.793,1275.52 276.778,1275.86C276.088,1275.87 275.535,1276.44 275.544,1277.13C275.554,1277.82 276.123,1278.38 276.813,1278.37ZM991.828,1232.24C991.864,1232.89 994.497,1233.88 994.776,1233.87C999.806,1233.63 1004.84,1233.42 1009.86,1233.24C1060.27,1231.36 1110.67,1232.68 1161.07,1232.27C1173.68,1232.16 1186.32,1232.33 1198.92,1231.52C1200.32,1231.42 1201.71,1231.25 1203.12,1231.11C1203.92,1231.08 1204.56,1230.4 1204.53,1229.59C1204.5,1228.78 1203.82,1228.15 1203.01,1228.18C1201.33,1228.14 1199.65,1228.05 1197.97,1228.06C1194.05,1228.06 1190.14,1228.26 1186.22,1228.35C1135.8,1229.39 1085.38,1227.77 1034.96,1228.78C1022.34,1229.04 1009.72,1229.44 997.106,1230.15C995.985,1230.21 994.791,1229.95 993.744,1230.36C993.348,1230.51 991.792,1231.59 991.828,1232.24ZM294.152,1224.55C297.559,1224.58 300.958,1224.57 304.36,1224.65C307.774,1224.74 311.162,1224.92 314.57,1225.08C315.491,1225.12 316.405,1225.18 317.326,1225.2C325.593,1225.39 333.851,1225.32 342.104,1225.37C351.288,1225.43 360.464,1225.45 369.636,1225.52C399.636,1225.77 429.595,1226.36 459.631,1226.9C471.198,1227.11 482.775,1227.57 494.371,1227.42C495.661,1227.4 496.944,1227.32 498.235,1227.27C499.413,1227.29 500.387,1226.35 500.407,1225.17C500.427,1223.99 499.487,1223.02 498.308,1223C496.879,1222.89 495.458,1222.76 494.027,1222.69C481.163,1222.08 468.3,1222.01 455.459,1221.67C422.065,1220.8 388.754,1219.76 355.369,1219.89C343.113,1219.94 330.841,1219.99 318.573,1220.65C313.66,1220.91 308.791,1221.48 303.877,1221.85C300.614,1222.1 297.352,1222.29 294.084,1222.53C293.526,1222.55 293.087,1223.02 293.106,1223.58C293.124,1224.13 293.593,1224.57 294.152,1224.55ZM888.064,1144.84C888.126,1143.53 888.563,1136.85 888.311,1136.84C877.23,1136.68 866.168,1136.85 855.113,1137.11C829.231,1137.74 803.385,1139.08 777.456,1139.5C749.014,1139.91 720.682,1140.13 692.356,1140.65C666.874,1141.12 641.404,1141.97 615.846,1142.96C613.581,1143.05 608.863,1143.17 608.776,1143.15C608.776,1143.15 608.497,1167.55 608.416,1171.68C608.19,1183.24 607.681,1207.09 607.681,1207.09C612.573,1206.49 617.605,1207.06 622.548,1206.89C679.694,1204.94 736.814,1202.1 793.965,1199.96C816.471,1199.14 839.022,1199.55 861.524,1198.85C870.061,1198.59 878.592,1198.17 887.112,1197.44L887.111,1197.3C887.1,1193.42 887.1,1189.54 887.116,1185.65C887.132,1181.95 887.163,1178.25 887.21,1174.55C887.288,1168.55 887.411,1162.55 887.601,1156.55C887.724,1152.64 887.877,1148.74 888.064,1144.84ZM990.63,1187.17C992.454,1187.32 994.183,1187.62 996.013,1187.62C997.785,1187.61 999.542,1187.3 1001.31,1187.14C1033.07,1184.25 1064.89,1182.15 1096.75,1180.8C1132.14,1179.31 1167.59,1178.66 1203.05,1178.57C1204.05,1178.56 1204.87,1177.75 1204.86,1176.75C1204.86,1175.74 1204.05,1174.93 1203.04,1174.93C1160.42,1174.97 1117.83,1175.8 1075.31,1177.94C1049.78,1179.23 1024.27,1180.9 998.816,1183.34C997.685,1183.44 996.54,1183.46 995.424,1183.68C993.692,1184.01 992.123,1184.63 990.429,1185.13C989.867,1185.19 989.456,1185.69 989.512,1186.25C989.567,1186.81 990.068,1187.22 990.63,1187.17ZM279.51,1179.81C279.317,1179.82 279.609,1183.59 279.887,1183.59C282.998,1183.59 286.102,1183.34 289.209,1183.22C320.34,1182 351.401,1181.22 382.469,1180.76C416.989,1180.26 451.516,1180.11 486.152,1180.15C487.275,1180.15 488.188,1179.24 488.19,1178.12C488.191,1177 487.28,1176.09 486.157,1176.08C444.558,1176.04 403.116,1176.2 361.657,1177.06C336.781,1177.58 311.899,1178.34 286.975,1179.46C284.487,1179.57 281.999,1179.69 279.51,1179.81ZM632.313,1172.32C633.872,1172.81 635.052,1173.44 636.658,1173.74C637.009,1173.81 637.365,1173.8 637.723,1173.8C653.793,1173.85 669.919,1173.64 685.976,1172.89C700.816,1172.27 715.644,1171.04 730.467,1169.87C736.791,1169.37 743.108,1168.82 749.436,1168.44C754.7,1168.12 759.967,1167.88 765.241,1167.77C773.907,1167.66 782.56,1167.77 791.205,1168.06C809.421,1168.65 827.604,1169.95 845.834,1170.69C846.848,1170.73 847.862,1170.8 848.877,1170.8C849.899,1170.79 850.908,1170.7 851.93,1170.65C852.748,1170.68 853.439,1170.04 853.47,1169.22C853.502,1168.4 852.863,1167.71 852.044,1167.68C850.313,1167.52 848.593,1167.3 846.859,1167.18C831.257,1166.05 815.638,1165.45 800.031,1164.71C788.438,1164.16 776.838,1163.75 765.209,1163.8C757.22,1163.75 749.237,1163.93 741.257,1164.33C722.75,1165.27 704.274,1167.12 685.771,1167.79C669.694,1168.33 653.49,1166.62 637.473,1168.07C637.109,1168.1 636.745,1168.12 636.394,1168.23C634.803,1168.69 633.671,1169.43 632.169,1170.13C631.563,1170.17 631.104,1170.69 631.144,1171.3C631.184,1171.9 631.708,1172.36 632.313,1172.32ZM1158.43,975.831C1158.51,976.777 1158.57,977.722 1158.6,978.674C1158.64,980.16 1158.59,981.647 1158.57,983.134C1158.35,1009.87 1158.12,1036.68 1158.4,1063.4L1158.43,1061.02C1159.71,1061.02 1160.98,1061.02 1162.25,1061.01C1163.3,1061.01 1164.34,1061.01 1165.38,1061.01C1166.83,1061 1168.27,1060.99 1169.72,1060.97C1175.32,1060.91 1180.91,1060.79 1186.5,1060.62C1203.38,1060.11 1220.23,1059.15 1237.08,1058.08L1237.16,1058.07C1234.62,1054.54 1232.34,1050.77 1229.75,1047.24C1228.94,1046.14 1228.09,1045.06 1227.19,1044.01C1218.88,1034.44 1210.13,1025.15 1201.24,1015.96C1199.03,1013.68 1196.85,1011.35 1194.6,1009.09C1183.02,997.499 1170.87,986.449 1158.43,975.831ZM1109.99,940.138C1109.99,940.186 1110,940.233 1110,940.281C1110.24,942.629 1110.15,945 1110.19,947.36C1110.75,977.607 1109.11,1007.96 1109.57,1038.22C1109.69,1045.69 1109.95,1053.15 1110.37,1060.6L1110.9,1060.61C1117.61,1060.72 1124.31,1060.81 1131.02,1060.88C1139.12,1060.96 1147.21,1061.01 1155.31,1061.02L1155.64,1061.02C1155.49,1046.96 1155.44,1032.88 1155.51,1018.8C1155.57,1005.41 1155.26,992 1155.91,978.645C1155.99,977.152 1156.16,975.678 1156.29,974.188C1156.29,974.132 1156.3,974.076 1156.31,974.022C1151.27,969.752 1146.19,965.552 1141.09,961.415C1132.14,954.115 1121.89,948.43 1112.44,941.692C1111.74,941.188 1110.9,940.807 1110.24,940.262C1110.15,940.23 1110.07,940.19 1109.99,940.142L1109.99,940.138ZM1060.5,912.332C1060.56,912.827 1060.62,913.318 1060.63,913.825C1060.65,915.593 1060.41,917.355 1060.3,919.12C1058.87,941.801 1058.11,964.537 1058.02,987.296C1057.93,1010.04 1058.46,1032.81 1059.26,1055.54C1059.3,1056.82 1059.41,1058.1 1059.47,1059.38L1059.58,1059.38C1068.36,1059.65 1077.14,1059.88 1085.93,1060.1C1093.1,1060.27 1100.26,1060.42 1107.43,1060.55L1107.86,1060.55C1107.23,1048.93 1107.03,1037.28 1107,1025.62C1106.95,999.14 1107.78,972.604 1107.26,946.155C1107.22,944.099 1107.03,942.041 1107.13,939.987C1107.16,939.484 1107.22,938.994 1107.3,938.503C1091.84,929.146 1076.26,920.403 1060.5,912.332ZM1011.55,889.727C1011.58,889.851 1011.61,889.977 1011.62,890.106C1011.74,890.803 1011.7,891.514 1011.74,892.218C1012.27,902.777 1012.64,913.342 1012.92,923.91C1014.08,968.545 1013.42,1013.25 1014.91,1057.89L1015.2,1057.9C1028.84,1058.4 1042.47,1058.87 1056.11,1059.28L1056.44,1059.29C1056.38,1057.57 1056.39,1055.85 1056.33,1054.12C1055.33,1026.8 1054.86,999.421 1055.29,972.087C1055.58,953.835 1056.24,935.598 1057.54,917.411C1057.63,916.198 1057.63,914.974 1057.82,913.773C1057.95,912.951 1058.2,912.185 1058.39,911.376C1058.39,911.338 1058.4,911.301 1058.41,911.264L1058.16,911.139C1055.56,909.818 1052.94,908.512 1050.32,907.224C1045.1,904.658 1039.85,902.159 1034.56,899.733C1029.55,897.437 1024.52,895.206 1019.46,893.043C1016.89,891.945 1014.31,890.865 1011.73,889.802L1011.55,889.727ZM965.816,873.135C965.816,873.145 965.817,873.156 965.817,873.166C965.943,877.429 965.964,881.692 965.956,885.953C965.921,904.845 965.007,923.717 965.12,942.614C965.327,970.421 966.442,998.133 966.788,1025.89C966.913,1035.94 967.007,1046.01 966.794,1056.08L969.451,1056.18C983.315,1056.71 997.179,1057.24 1011.04,1057.75L1012.34,1057.8C1011.04,1019.07 1011.34,980.3 1010.68,941.565C1010.4,925.737 1009.96,909.916 1009.2,894.105C1009.14,892.876 1008.97,891.647 1009.02,890.418C1009.05,889.872 1009.16,889.363 1009.23,888.822C1009.23,888.809 1009.23,888.795 1009.23,888.782L1009.06,888.71C1006.65,887.735 1004.24,886.774 1001.82,885.83C996.988,883.944 992.132,882.122 987.253,880.366C982.56,878.677 977.846,877.05 973.11,875.487C970.748,874.707 968.38,873.944 966.007,873.195L965.816,873.135ZM467.689,957.552C464.429,959.999 461.291,962.628 458.202,965.329C455.14,968.007 452.138,970.772 449.165,973.561C449.169,973.611 449.169,973.661 449.165,973.712L448.475,1020.16C448.111,1028.89 447.115,1037.72 446.745,1046.53C446.619,1049.53 446.458,1052.53 446.639,1055.51C446.668,1055.97 446.721,1056.43 446.779,1056.89L447.14,1056.89C456.175,1056.93 465.209,1056.95 474.243,1056.96C482.12,1056.96 489.996,1056.95 497.873,1056.93L498.032,1056.93C497.678,1049.94 497.662,1042.95 497.805,1035.96C498.101,1021.53 498.984,1007.1 499.013,992.698C499.016,991.261 498.985,989.824 499.014,988.388C499.045,986.915 499.119,985.45 499.179,983.982C498.166,983.706 497.156,983.477 496.321,983.256C495.341,982.997 494.358,982.618 493.386,982.159C491.423,981.232 489.496,979.988 487.694,979.055C483.305,976.785 479.091,973.592 475.547,969.777C472.191,966.165 469.427,962.007 467.689,957.552ZM547.841,908.438C540.41,912.28 533.092,916.318 525.911,920.558C524.357,921.475 522.835,922.444 521.267,923.334C519.273,924.465 517.243,925.509 515.233,926.6C515.45,926.905 515.674,927.213 515.908,927.522C519.978,932.95 522.476,939.312 523.302,945.963C524.11,952.459 523.324,959.222 520.953,965.628C519.555,969.403 517.788,973.003 515.736,976.363C513.619,979.83 511.193,983.045 508.419,985.859C507.771,986.507 506.718,986.507 506.069,985.859L506.036,985.822C505.892,985.889 505.749,985.945 505.562,985.973C504.465,986.139 503.259,985.739 502.275,985.173C502.071,985.036 501.844,984.913 501.599,984.8C501.711,985.874 501.808,986.949 501.866,988.03C502.033,991.133 501.974,994.245 501.941,997.355C501.727,1017.2 499.754,1037.09 500.634,1056.92L500.653,1056.92C504.36,1056.9 508.066,1056.89 511.773,1056.87L512.085,1056.86C511.975,1055.78 512.274,1054.17 512.326,1053.62L514.217,1043.95C514.899,1040.59 515.638,1037.18 516.287,1033.77C516.716,1031.52 517.11,1029.27 517.404,1027.03C517.852,1023.66 519.544,1020.72 520.424,1017.46C520.61,1016.77 520.756,1016.06 520.828,1015.33C521.048,1013.11 521.607,1011.02 522.363,1009C524.007,1004.61 526.609,1000.57 528.323,996.095C532.245,985.785 538.227,975.405 545.715,966.314C548.19,963.309 550.83,960.445 553.621,957.773C553.664,949.179 553.795,940.582 553.754,931.99C553.719,924.576 553.551,917.165 553.076,909.759C551.31,909.374 549.559,908.927 547.841,908.438ZM446.848,975.745C443.47,978.938 440.119,982.144 436.749,985.272C424.672,996.479 412.537,1008.15 401.076,1020.45C391.938,1030.25 383.506,1040.65 375.202,1050.97C373.758,1052.76 372.275,1054.52 370.815,1056.28L371.398,1056.29C383.905,1056.42 396.413,1056.55 408.92,1056.65C420.502,1056.75 432.084,1056.82 443.666,1056.88L443.947,1056.88C443.973,1056.19 444.006,1055.5 444.018,1054.8C444.086,1050.75 444.121,1046.69 444.37,1042.63C444.833,1035.08 445.614,1027.53 445.938,1020.05C446.439,1007.66 445.937,995.272 446.328,982.878C446.368,981.632 446.386,980.385 446.481,979.142C446.568,978.005 446.701,976.874 446.848,975.745ZM553.611,961.757C551.62,963.779 549.717,965.906 547.912,968.116C540.671,976.976 535.002,987.154 531.286,997.206C529.638,1001.7 527.091,1005.76 525.515,1010.15C524.887,1011.91 524.424,1013.72 524.264,1015.64C524.187,1016.57 524.02,1017.46 523.798,1018.34C523.009,1021.46 521.394,1024.27 521.018,1027.48C520.744,1029.8 520.376,1032.12 519.954,1034.45C519.332,1037.88 518.595,1041.31 517.927,1044.69L515.503,1054.25C515.378,1054.65 514.43,1056.19 514.473,1056.85L514.553,1056.85C521.463,1056.8 528.372,1056.75 535.282,1056.67C541.81,1056.6 548.337,1056.51 554.865,1056.4L554.952,1056.4C554.866,1053.88 554.821,1051.36 554.814,1048.83C554.786,1039.23 555.192,1029.6 554.996,1020.01C554.672,1005.93 554.101,991.859 553.804,977.779C553.691,972.441 553.614,967.101 553.611,961.757ZM608.147,945.062C605.039,944.258 601.952,943.463 598.78,943.11C596.467,942.852 594.107,942.831 591.657,943.228C587.909,943.837 584.128,944.05 580.434,944.758C578.113,945.202 575.827,945.845 573.613,946.941C567.48,950.001 561.751,954.097 556.555,958.901C556.554,959.152 556.552,959.402 556.551,959.651C556.5,967.691 556.616,975.721 556.812,983.748C557.108,995.814 557.578,1007.87 557.851,1019.95C558.093,1029.55 557.815,1039.2 557.807,1048.83C557.805,1051.34 557.813,1053.84 557.861,1056.35L558.129,1056.34C566.294,1056.2 574.458,1056.03 582.622,1055.85C591.516,1055.64 600.41,1055.42 609.304,1055.18L609.309,1055.18C609.119,1048.8 609.022,1042.42 608.977,1036.04C608.849,1017.85 609.149,999.648 608.986,981.447L608.147,945.062ZM593.092,686.558C592.94,686.481 581.811,683.195 579.038,682.273C573.498,680.431 568.03,679.532 562.475,679.264C556.946,678.997 551.33,679.353 545.467,680.073C538.983,680.861 532.313,681.409 525.744,682.285C522.945,682.659 520.166,683.091 517.427,683.629C516.626,683.786 515.852,684.033 515.09,684.32C513.101,685.069 511.191,686.061 509.173,686.631C501.629,688.762 494.487,691.453 487.583,694.712C480.71,697.958 474.074,701.765 467.504,706.124C466.516,706.781 465.578,707.679 464.686,708.662C463.285,710.204 462.001,711.951 460.844,713.392C455.834,719.645 451.387,726.014 447.55,732.767C443.756,739.443 440.559,746.494 437.996,754.175C436.134,759.757 435.17,765.869 434.802,772.047C434.433,778.24 434.663,784.501 435.197,790.369C435.704,795.941 435.398,801.38 435.666,806.858C435.777,809.128 435.988,811.406 436.406,813.703C437.069,817.353 437.798,820.813 438.415,824.32C438.829,826.677 439.193,829.054 439.462,831.521C439.652,833.559 441.061,835.317 441.719,837.236C441.921,837.826 442.067,838.427 442.124,839.046C442.631,839.235 439.876,842.483 439.11,843.455C437.683,845.267 436.506,847.688 435.448,849.016C431.872,853.502 428.051,858.314 424.433,863.27C422.062,866.516 419.779,869.824 417.711,873.142C412.862,880.83 408.572,888.701 404.665,896.75C402.935,900.313 391.883,926.022 388.671,934.066C384.208,945.151 378.216,955.913 373.11,966.993C372.077,969.234 371.081,971.487 370.141,973.759C367.768,979.491 365.769,985.345 364.436,991.391C363.678,994.835 362.652,997.994 361.499,1001.06C359.774,1005.65 357.761,1010.04 355.95,1014.89C355.337,1016.54 354.941,1018.37 354.648,1020.27C353.955,1024.77 353.826,1029.69 353.016,1033.78C352.295,1037.35 351.693,1040.5 351.283,1043.8C351.02,1045.91 350.821,1048.09 350.779,1050.48C350.702,1051.87 350.635,1056.08 349.921,1056.05C348.656,1055.99 356.575,1056.12 367.229,1056.24L368.017,1056.25C369.272,1054.3 370.532,1052.35 371.892,1050.46C372.597,1049.47 373.349,1048.53 374.094,1047.57C379.842,1040.19 386.02,1033.08 392.334,1026.06C405.845,1011.03 420.277,996.687 434.744,983.124C440.805,977.422 446.753,971.416 452.998,965.781C457.201,961.988 461.547,958.377 466.081,955.065C466.224,954.959 466.38,954.883 466.542,954.835C465.854,953.449 465.07,952.094 464.506,950.655C464.099,949.615 463.792,948.537 463.673,947.39C463.408,944.88 463.798,942.354 464.648,939.952C465.461,937.656 466.688,935.471 468.147,933.536C469.447,931.804 470.703,930.016 472.091,928.34C473.054,927.175 474.081,926.063 475.227,925.056C479.074,921.662 484.865,919.367 490.894,918.415C496.896,917.467 503.123,917.859 507.879,919.73C509.598,920.406 510.871,921.31 511.939,922.362C512.692,923.104 513.332,923.928 513.961,924.802C515.848,923.417 517.723,922.027 519.684,920.741C521.202,919.745 522.783,918.846 524.344,917.916C530.654,914.158 537.075,910.563 543.588,907.125C542.04,906.612 540.535,906.076 539.083,905.532C536.476,904.554 533.596,902.535 530.703,901.365C529.567,900.906 528.433,900.58 527.31,900.576C525.86,900.569 524.307,900.253 522.716,899.774C519.562,898.825 516.234,897.22 513.282,896.55C511.952,896.224 508.619,894.802 507.248,894.069C506.969,893.919 506.786,893.783 506.689,893.731C505.852,893.274 506.333,892.55 506.777,892.127C506.85,891.961 506.969,891.846 507.155,891.827C507.199,891.799 507.231,891.785 507.243,891.788C507.351,891.808 507.452,891.844 507.543,891.895L507.549,891.897C507.646,891.935 507.856,891.977 508.136,892.079C509.49,892.57 512.57,893.906 513.815,894.154C516.821,894.808 520.223,896.399 523.438,897.334C524.782,897.726 526.089,897.997 527.31,897.992C528.751,897.986 530.218,898.357 531.678,898.94C534.556,900.091 537.411,902.112 540.002,903.083C542.173,903.898 544.469,904.697 546.843,905.423C555.344,901.024 563.997,896.888 572.761,893.001C593.553,883.781 614.979,875.989 636.515,869.449C636.49,869.392 634.955,865.369 634.089,863.404C634.089,863.404 631.124,856.983 630.634,855.192C630.459,854.554 630.243,853.922 629.932,853.307C628.762,851 627.396,848.349 625.877,845.881C624.885,844.268 623.835,842.728 622.689,841.45C622.586,841.332 622.344,841.08 622.051,840.748C621.138,842.153 620.253,843.586 619.299,844.967C618.553,846.047 617.764,847.094 616.895,848.076C616.223,848.835 615.614,849.699 615.035,850.609C613.639,852.802 612.429,855.265 611.141,857.346C610.12,858.996 608.969,860.579 607.749,862.117C605.955,864.376 604.01,866.536 602.11,868.664C601.354,869.511 600.673,870.31 600.052,871.157C599.452,871.976 598.908,872.841 598.405,873.841C598.241,874.167 597.98,875.081 597.656,875.606C597.425,875.981 597.141,876.235 596.877,876.367C596.578,876.522 595.756,876.753 595.274,875.802C595.226,875.707 595.147,875.485 595.063,875.171C594.768,874.07 594.2,871.246 594.145,871.041C593.607,868.929 593.38,866.485 592.767,864.251C592.526,863.375 592.225,862.532 591.798,861.768L584.631,849.303C584.252,848.603 583.795,847.977 583.312,847.38C582.012,845.776 580.52,844.371 579.424,842.617C578.647,841.369 577.041,838.227 576.928,837.976C576.259,839.528 575.265,841.056 574.654,842.394C573.674,844.538 572.53,846.627 571.29,848.678C568.495,853.298 565.23,857.737 562.517,862.326C562.02,863.143 561.424,863.892 560.769,864.6C559.422,866.056 557.826,867.34 556.556,868.867L554.229,871.207L553.669,872.403C553.477,872.897 552.979,873.204 552.451,873.152C551.923,873.1 551.495,872.702 551.403,872.18L551.203,871.184L550.638,869.136C550.433,867.819 550.3,866.41 550.073,865.039C549.93,864.178 549.748,863.333 549.48,862.54C548.365,859.251 547.005,856.145 545.44,853.143C543.868,850.127 542.089,847.218 540.144,844.334C540.144,844.334 534.022,836.021 533.766,835.8C533.447,835.526 532.38,834.862 532.211,834.803C531.841,834.805 531.471,834.796 531.102,834.778C529.204,834.683 527.312,834.337 525.454,834.319C524.95,834.286 523.259,833.958 523.036,833.905C522.492,833.775 522.156,833.229 522.285,832.685C522.373,832.262 522.663,832.051 522.987,831.821C523.26,831.628 523.654,831.542 524.236,831.521C524.609,831.508 525.073,831.66 525.454,831.634C527.347,831.616 529.281,831.927 531.216,831.988C531.955,832.012 532.694,831.995 533.431,831.896C535.645,831.625 538.012,831.52 540.38,831.54C542.729,831.56 545.078,831.704 547.277,831.93C552.893,832.506 558.618,832.147 564.276,832.349C565.733,832.401 567.185,832.489 568.63,832.637C570.661,832.842 572.7,832.98 574.744,833.07C583.025,833.436 591.385,833.1 599.612,833.91C605.873,834.513 611.937,834.813 617.988,834.735C624.036,834.658 630.071,834.201 636.278,833.291L645.043,832.941C645.562,832.853 646.09,832.809 646.624,832.796C648.399,832.751 650.244,833.093 651.989,832.916C659.119,832.192 666.422,832.686 673.604,832.342C675.361,832.257 677.111,832.121 678.849,831.901C682.198,831.478 685.661,831.255 689.151,831.143C694.3,830.977 699.506,831.049 704.479,831.045L711.164,830.876C711.388,830.875 712.111,830.372 711.949,829.944C711.449,828.621 711.065,827.104 710.88,826.18C710.772,825.638 710.554,825.08 710.293,824.528C709.859,823.61 709.304,822.715 708.841,821.941L707.136,817.309L702.154,809.77C701.692,809.031 701.291,808.254 700.92,807.458C700.118,805.739 699.464,803.927 698.577,802.263C697.748,800.71 696.514,798.981 695.647,797.236C695.217,796.37 694.873,795.498 694.682,794.639C694.492,793.781 694.532,792.814 694.717,791.841C694.958,790.578 695.44,789.302 695.837,788.309L696.504,784.503C696.911,782.467 698.038,780.444 698.435,778.286C698.574,777.536 698.612,776.766 698.452,775.967C698.166,774.543 697.624,773.243 696.929,772.016C693.912,766.694 688.265,762.621 686.251,756.633C686.055,756.051 685.962,755.437 685.93,754.807C685.87,753.662 686.043,752.454 685.93,751.359C685.734,749.475 685.456,747.507 685.062,745.562C684.674,743.647 684.172,741.755 683.522,739.99C682.619,737.527 681.015,735.733 679.054,734.369C675.954,732.211 671.974,731.105 668.204,730.33C667.346,730.152 666.681,729.83 666.112,729.421C665.082,728.679 664.495,727.552 663.157,726.857C663.157,726.857 660.761,725.183 660.35,724.88C659.577,724.31 659.092,722.812 658.519,722.344L649.637,714.913C647.774,713.489 645.742,712.248 643.633,711.099C640.428,709.353 637.053,707.813 633.827,706.165C632.81,705.645 631.813,705.047 630.829,704.408C628.657,702.997 626.547,701.386 624.401,700.045C623.695,699.605 622.933,699.202 622.145,698.821C620.243,697.901 618.198,697.1 616.397,696.19C614.072,695.028 611.749,693.956 609.418,692.929C605.882,691.37 602.327,689.91 598.72,688.371L593.092,686.558ZM915.241,859.873C915.259,859.942 915.269,860.013 915.272,860.086C915.428,861.575 915.64,863.05 915.765,864.545C916.882,877.918 917.733,891.417 918.364,904.858C918.666,911.308 918.814,917.751 918.698,924.176L918.019,983.237C917.643,998.004 917.207,1012.98 917.412,1027.9C917.532,1036.73 917.875,1045.54 918.594,1054.28L918.845,1054.29C933.866,1054.82 948.886,1055.39 963.905,1055.97L964.019,1055.97C964.152,1045.94 964.22,1035.93 964.11,1025.92C963.806,998.16 962.673,970.444 962.478,942.634C962.297,921.373 963.333,900.143 963.128,878.881C963.107,876.763 962.587,874.595 963.04,872.524C963.059,872.437 963.086,872.363 963.118,872.293C947.406,867.435 931.46,863.279 915.241,859.873ZM611.382,945.676L612.229,981.414C612.437,999.616 612.174,1017.82 612.352,1036.01C612.414,1042.37 612.531,1048.73 612.74,1055.09L613.661,1055.07C618.744,1054.93 629.262,1054.64 629.262,1054.64C629.371,1053.89 629.581,1053.09 629.861,1052.26C630.611,1050.03 631.871,1047.57 632.401,1045.81C634.012,1040.47 635.672,1035.04 636.992,1029.56C637.866,1025.93 638.59,1022.28 639.052,1018.62C639.392,1015.9 639.5,1013.01 639.437,1010.12C639.373,1007.18 639.132,1004.26 638.818,1001.54C638.202,996.211 638.372,990.735 638.009,985.366C637.859,983.134 637.613,980.922 637.168,978.749C636.545,975.689 635.766,972.225 634.676,968.967C633.963,966.836 633.124,964.792 632.073,963.03C631.055,961.319 629.749,959.754 628.334,958.268C626.087,955.909 623.57,953.744 621.397,951.554C620.332,950.477 618.81,948.907 617.203,947.67C616.244,946.932 615.269,946.298 614.352,946.063L611.382,945.676ZM638.833,895.78C638.204,896.103 637.569,896.42 636.931,896.731C628.699,900.747 619.832,903.824 611.236,906.124C611.374,918.209 611.2,930.289 611.312,942.412L615.15,942.871C616.443,943.187 617.862,943.994 619.222,945.018C620.97,946.334 622.638,948.002 623.799,949.151C626.007,951.341 628.557,953.503 630.839,955.862C632.452,957.528 633.931,959.293 635.095,961.216C636.281,963.181 637.257,965.454 638.053,967.839C639.188,971.24 639.965,974.866 640.594,978.063C641.049,980.393 641.293,982.762 641.432,985.151C641.742,990.471 641.52,995.894 642.083,1001.18C642.383,1003.99 642.592,1007.02 642.646,1010.05C642.7,1013.1 642.598,1016.15 642.241,1019.02C641.772,1022.8 641.033,1026.57 640.14,1030.32C638.82,1035.86 637.163,1041.36 635.552,1046.76C635.02,1048.54 633.759,1051.04 633.004,1053.31C632.862,1053.73 632.738,1054.15 632.647,1054.54L640.14,1054.33C640.792,1052.11 641.947,1049.72 642.54,1047.72C643.12,1045.77 643.657,1043.79 644.15,1041.79C644.899,1038.75 645.566,1035.69 646.313,1032.69C647.384,1028.38 648.086,1024.03 648.541,1019.64C649.23,1013.01 649.358,1006.31 649.347,999.594L648.395,978.21C648.422,977.408 648.356,976.619 648.242,975.833C648.051,974.521 647.755,973.219 647.517,971.888C647.389,971.175 647.021,970.054 646.869,969.276C645.838,968.312 644.939,967.35 644.241,966.467C643.988,966.132 643.777,965.759 643.623,965.344C643.359,964.628 643.425,963.69 642.954,963.063C642.144,961.961 641.376,960.717 640.45,959.668C639.93,959.079 639.39,958.525 638.694,958.178C638.634,958.145 637.094,957.209 636.736,956.89C636.196,956.407 636.314,955.872 636.813,954.954C636.942,954.738 638.621,952.15 639.136,951.072C639.995,949.409 640.818,947.797 641.696,946.222C642.579,944.636 644.045,940.592 644.045,940.151C643.953,939.853 643.806,939.616 643.743,939.311C643.224,936.798 642.886,934.261 642.01,931.784C640.505,927.525 638.401,923.323 636.785,919.087C636.059,916.898 634.305,914.792 633.271,912.548C632.959,911.871 632.776,911.208 632.596,910.531C632.286,908.667 633.843,908.473 634.009,908.563C634.08,908.601 634.523,908.606 634.784,909.11C634.834,909.207 634.923,909.399 635.034,909.614C635.018,909.571 634.996,909.526 634.967,909.481C634.956,909.464 635.016,909.401 634.964,909.347C635.228,909.629 635.527,909.822 635.785,910.131C636.74,911.274 637.598,912.617 638.484,913.898C639.335,915.129 640.069,916.4 640.585,917.663C642.438,922.715 645.028,927.712 646.382,932.839C646.628,933.769 646.878,934.703 647.059,935.642C649.548,931.736 652.861,927.453 656.698,924.354C658.586,922.829 660.599,921.589 662.702,920.782C662.7,915.993 662.633,911.207 662.57,906.422C659.97,905.739 657.308,905.226 654.746,904.456C653.629,904.12 652.53,903.738 651.459,903.283L646.984,900.767C645.667,900.245 642.695,899.29 640.826,897.992C639.893,897.344 639.216,896.585 638.833,895.78ZM651.053,972.642C651.297,973.493 651.539,974.337 651.73,975.191C651.951,976.182 652.089,977.184 652.124,978.21L653.133,999.594C653.123,1006.44 652.966,1013.27 652.245,1020.03C651.758,1024.59 651.015,1029.11 649.89,1033.59L646.208,1048.77C645.756,1050.42 644.901,1052.35 644.298,1054.21L662.984,1053.69C662.489,1032.77 662.272,1011.84 662.18,990.895C662.159,986.123 662.121,981.351 662.134,976.577C662.134,976.556 662.133,976.534 662.132,976.513C661.175,976.505 660.196,976.431 659.194,976.286C657.084,975.976 654.639,974.917 652.291,973.454C651.875,973.194 651.462,972.923 651.053,972.642ZM863.985,851.763C864.443,857.784 864.77,863.815 864.869,869.861C865.114,884.849 864.457,899.866 865.116,914.819C865.995,933.441 867.601,952.159 868.505,970.845C868.894,978.891 869.132,986.931 869.173,994.951C869.289,1009.42 867.636,1024.14 867.256,1038.74C867.135,1043.4 867.327,1048.05 867.482,1052.68L867.537,1052.68C874.471,1052.86 881.406,1053.06 888.34,1053.28C897.353,1053.55 906.366,1053.85 915.379,1054.17L915.817,1054.18C915.095,1045.49 914.736,1036.73 914.605,1027.95C914.382,1012.98 914.816,997.97 915.184,983.165L915.865,924.124C915.985,917.759 915.83,911.377 915.548,904.986C914.956,891.548 913.353,878.088 913.152,864.673C913.129,863.166 913.208,861.669 913.248,860.165C913.239,859.916 913.32,859.685 913.462,859.503L913.364,859.483C910.619,858.918 907.871,858.373 905.118,857.852C899.683,856.823 894.233,855.881 888.768,855.027C883.364,854.181 877.946,853.422 872.517,852.749C869.689,852.398 866.858,852.072 864.025,851.767L863.985,851.763ZM713.811,856.214L713.429,856.252C712.445,856.348 711.464,856.464 710.478,856.52C708.989,856.605 705.902,856.632 705.844,856.628C705.461,858.119 705.087,859.609 704.84,861.113C704.681,862.063 704.788,863.066 704.693,864.033C704.637,864.594 704.528,865.145 704.33,865.679C703.922,866.776 703.359,867.758 702.963,868.826C702.829,869.189 702.713,869.563 702.647,869.964C702.559,870.487 702.386,871.744 702.21,872.62C702.22,872.639 702.216,872.658 702.198,872.679C702.172,872.807 702.146,872.927 702.12,873.033C702.242,873.243 702.312,873.487 702.312,873.747C702.312,874.534 701.673,875.173 700.885,875.173C700.835,875.195 700.158,875.094 699.362,874.329C699.12,874.096 698.87,873.586 698.737,873.461C697.97,872.703 697.375,871.914 696.853,871.097C696.137,869.973 695.576,868.79 694.86,867.555C694.078,866.207 693.205,864.929 692.278,863.691C691.291,862.374 690.244,861.101 689.173,859.845C689.108,859.875 689.041,859.903 688.971,859.928C688.003,860.262 686.97,860.361 685.97,860.58C680.849,861.699 675.744,862.842 670.648,864.019C670.243,865.073 669.796,866.113 669.309,867.137C668.317,869.224 667.162,871.243 665.868,873.183C665.896,876.055 665.934,878.924 665.93,881.796C665.92,889.005 665.863,896.21 665.787,903.417C666.76,903.728 667.719,904.077 668.657,904.482C673.221,906.452 677.207,909.511 680.585,913.172C683.906,916.772 686.64,920.952 688.759,925.217C689.124,925.949 689.341,926.754 689.461,927.596C689.673,929.077 689.541,930.697 689.712,932.081L691.254,937.445C691.626,939.318 691.624,941.341 691.444,943.389C691.197,946.186 690.612,949.034 690.301,951.557C690.013,953.969 689.235,955.997 688.18,957.838C686.677,960.461 684.569,962.682 682.507,965.129C678.912,969.395 674.831,973.032 670.088,974.974C668.549,975.604 666.941,976.057 665.259,976.302C665.282,978.51 665.288,980.717 665.304,982.925C665.476,1006.79 665.8,1029.78 666.464,1053.61C666.464,1053.61 697.913,1052.74 713.348,1052.4L713.693,1052.39C713.885,1035.71 714.669,1019.03 715.043,1002.35C715.141,997.984 715.212,993.62 715.235,989.256C715.282,980.627 715.209,972 715.08,963.373C714.779,943.222 714.155,923.075 713.894,902.923L713.811,856.214ZM817.961,848.922C817.975,848.939 818.106,851.116 818.145,852.083C818.533,861.76 818.74,871.431 818.859,881.099C819.168,906.149 818.828,931.178 819.016,956.265C819.048,959.804 819.122,963.34 819.223,966.875C819.63,981.063 820.467,995.231 820.689,1009.43C820.833,1018.5 820.663,1027.63 820.684,1036.75C820.696,1041.75 821.031,1046.74 821.052,1051.73L821.064,1051.73C827.539,1051.82 834.013,1051.93 840.488,1052.05C848.349,1052.21 856.209,1052.39 864.069,1052.59L864.275,1052.59C864.034,1047.98 864.248,1043.32 864.397,1038.66C864.861,1024.09 866.42,1009.41 866.301,994.975C866.211,986.994 865.887,978.998 865.487,970.993C864.555,952.306 863.097,933.576 862.277,914.948C861.976,908.508 861.884,902.054 861.866,895.596C861.842,886.598 861.837,877.589 861.887,868.592C861.918,862.903 862.02,857.223 861.888,851.542L861.673,851.52C859.019,851.249 856.363,850.996 853.705,850.764C848.451,850.306 843.191,849.928 837.925,849.629C835.825,849.51 833.723,849.403 831.621,849.309C829.949,849.234 828.276,849.167 826.604,849.112C823.785,849.019 820.966,848.957 818.146,848.924L817.961,848.922ZM767.16,850.961C750.097,852.361 733.066,854.3 716.067,855.991C716.475,860.311 716.319,864.668 716.372,869.011C716.51,880.301 716.386,891.605 716.564,902.886C716.853,923.037 717.518,943.181 717.836,963.331C717.973,971.976 718.043,980.622 717.999,989.27C717.976,993.65 717.907,998.03 717.809,1002.41C717.436,1019.05 716.648,1035.69 716.45,1052.34L716.616,1052.33C726.053,1052.13 735.491,1051.96 744.929,1051.82C752.367,1051.71 759.805,1051.63 767.244,1051.57L767.354,1051.57C766.472,1035.22 766.147,1018.82 766.055,1002.42C765.91,976.545 766.37,950.642 766.434,924.821C766.455,907.132 765.08,889.17 765.579,871.366C765.77,864.532 766.24,857.722 767.16,850.961ZM815.348,848.901C815.347,848.882 791.688,849.277 779.718,850.04C776.526,850.243 773.336,850.472 770.149,850.721C770.071,851.085 769.976,851.449 769.929,851.813C768.764,860.828 768.36,869.921 768.33,879.042C768.278,894.323 769.22,909.677 769.159,924.828C769.089,950.641 768.565,976.535 768.76,1002.4C768.883,1018.81 769.306,1035.2 770.261,1051.55L770.508,1051.55C779.754,1051.49 789,1051.48 798.246,1051.52C801.146,1051.53 804.045,1051.55 806.944,1051.58C810.494,1051.61 814.044,1051.64 817.595,1051.69L817.878,1051.69C817.604,1048.25 817.736,1044.78 817.699,1041.32C817.585,1030.7 817.912,1020.05 817.781,1009.47C817.601,995.285 816.808,981.127 816.442,966.951C816.351,963.397 816.286,959.842 816.264,956.286C816.105,934.785 816.325,913.326 816.208,891.86C816.137,878.999 815.93,866.135 815.474,853.258C815.429,851.972 815.361,849.207 815.348,848.901ZM507.033,982.53C509.28,980.178 511.304,977.559 513.045,974.717C514.991,971.541 516.581,968.091 517.862,964.504C519.973,958.591 520.598,952.372 519.821,946.406C519.034,940.36 516.8,934.567 513.097,929.631C511.804,927.893 510.866,926.204 509.491,924.822C508.735,924.063 507.833,923.403 506.609,922.905C502.362,921.179 496.775,920.816 491.383,921.613C485.971,922.414 480.741,924.375 477.268,927.388C476.242,928.282 475.324,929.27 474.463,930.307C473.104,931.943 471.885,933.694 470.615,935.387C469.355,937.077 468.287,938.979 467.597,940.981C466.922,942.941 466.613,944.998 466.85,947.037C466.951,947.887 467.199,948.682 467.514,949.448C468.388,951.577 469.741,953.515 470.562,955.648C472.213,959.908 474.918,963.86 478.215,967.237C481.533,970.637 485.46,973.442 489.52,975.403C491.068,976.15 492.713,977.122 494.388,977.927C495.377,978.403 496.377,978.814 497.372,979.049C498.809,979.388 500.723,979.728 502.364,980.298C503.261,980.61 504.082,980.998 504.759,981.448C505.159,981.765 505.757,981.716 506.2,981.906C506.54,982.052 506.738,982.146 506.936,982.397L507.033,982.53ZM665.743,907.385C665.695,911.578 665.643,915.772 665.59,919.969C666.421,919.821 667.262,919.746 668.112,919.752C669.084,919.752 669.873,920.542 669.873,921.514C669.873,922.486 669.084,923.275 668.112,923.275C664.839,923.3 661.787,924.927 659.038,927.211C654.817,930.717 651.336,935.815 649.011,939.942C648.57,940.719 648.601,941.641 648.299,942.49C648.174,942.839 648.019,943.181 647.82,943.514L642.158,952.772C641.652,953.59 640.945,954.647 640.445,955.447C640.404,955.512 642.031,956.665 642.799,957.379C643.902,958.404 644.829,959.68 645.794,960.791C646.056,961.099 646.255,961.452 646.429,961.823C646.772,962.555 646.776,963.496 647.253,964.057C648.577,965.691 650.723,967.613 653.064,969.214C655.303,970.746 657.718,972.004 659.766,972.286C663.824,972.868 667.402,971.99 670.622,970.246C673.954,968.442 676.92,965.735 679.613,962.648C681.563,960.41 683.585,958.408 685.013,955.994C685.856,954.568 686.483,952.991 686.728,951.11C687.043,948.628 687.641,945.827 687.885,943.074C688.036,941.377 688.05,939.7 687.737,938.148C687.488,936.908 686.951,935.724 686.578,934.498C686.382,933.853 686.225,933.198 686.14,932.527C685.988,931.327 686.06,929.951 685.947,928.639C685.892,928 685.796,927.378 685.523,926.835C683.535,922.883 680.983,919.009 677.88,915.68C674.84,912.419 671.269,909.684 667.174,907.942C666.703,907.741 666.225,907.557 665.743,907.385ZM607.789,907.009C604.947,907.708 602.15,908.323 599.43,908.86C596.548,909.434 593.63,909.72 590.695,909.876C584.048,910.228 577.315,909.893 570.743,910.831C566.564,911.43 562.134,911.263 557.707,910.61C557.192,910.534 556.678,910.452 556.163,910.363C556.387,913.866 556.513,917.373 556.611,920.879C556.929,932.264 556.7,943.66 556.588,955.057C561.445,950.809 566.711,947.156 572.316,944.347C574.764,943.111 577.292,942.366 579.864,941.851C583.579,941.108 587.385,940.857 591.154,940.213C593.888,939.745 596.524,939.741 599.111,940.004C602.144,940.313 605.107,940.998 608.08,941.727C607.923,930.127 607.964,918.569 607.789,907.009ZM606.972,882.601C595.875,886.664 584.874,891.088 574.041,895.888C567.847,898.632 561.71,901.501 555.639,904.498C555.652,904.515 555.664,904.535 555.678,904.558C555.9,904.944 555.777,905.443 555.818,905.887C555.873,906.487 555.924,907.087 555.972,907.687C556.676,907.816 557.382,907.934 558.088,908.039C562.261,908.659 566.437,908.83 570.377,908.269C577.024,907.319 583.834,907.65 590.557,907.289C593.367,907.138 596.161,906.862 598.92,906.309C601.787,905.727 604.741,905.058 607.744,904.292C607.637,898.437 607.467,892.583 607.179,886.721C607.112,885.348 607.046,883.975 606.972,882.601ZM552.709,905.957C552.239,906.193 551.769,906.43 551.3,906.668C551.826,906.8 552.354,906.927 552.884,907.049C552.841,906.686 552.755,906.32 552.709,905.957ZM663.747,865.635C659.941,866.539 656.137,867.466 652.334,868.418C651.201,868.702 650.089,869.425 648.941,869.392C648.904,869.43 648.866,869.469 648.827,869.507C647.376,870.965 645.64,872.164 644.199,873.622C643.993,873.834 643.82,874.116 643.673,874.408C643.515,874.723 643.4,875.056 643.338,875.357C643.208,875.985 643.067,877.075 642.859,877.396C642.327,878.22 641.615,878.359 640.786,877.96C640.336,877.707 639.821,877.175 639.422,876.366C638.831,875.167 638.298,873.22 637.87,872.206C637.749,872.286 619.324,878.155 610.324,881.386C610.322,881.433 610.322,881.48 610.325,881.526C610.59,885.292 610.791,889.055 610.93,892.817C611.06,896.337 611.145,899.856 611.2,903.373C619.413,901.098 627.853,898.095 635.693,894.212C643.578,890.307 650.853,885.509 656.66,879.662C659.115,877.195 661.331,874.503 663.235,871.636C663.394,869.636 663.569,867.636 663.747,865.635ZM662.842,877.278C661.569,878.842 660.206,880.343 658.77,881.772C654.078,886.432 648.484,890.441 642.394,893.869C642.409,893.95 642.42,894.033 642.425,894.117C642.446,894.129 642.432,894.208 642.432,894.245L642.425,894.117C642.422,894.114 642.417,894.114 642.411,894.117C642.242,894.189 642.652,894.416 642.833,894.563C643.262,894.91 643.809,895.219 644.385,895.503C645.882,896.24 647.564,896.788 648.434,897.14L652.984,899.724C656.011,901.033 659.294,901.689 662.52,902.501C662.44,895.578 662.408,888.658 662.637,881.739C662.686,880.25 662.756,878.763 662.842,877.278ZM670.629,835.568C664.513,835.67 658.342,835.377 652.294,835.972L645.544,835.947C644.904,836.051 644.26,836.11 643.612,836.14C641.317,836.242 638.976,835.932 636.7,836.25C632.405,836.847 622.878,837.268 622.773,837.502C622.704,837.657 624.604,839.479 624.721,839.602C625.994,840.984 627.192,842.637 628.28,844.401C629.845,846.939 631.192,849.7 632.37,852.088C632.63,852.615 632.838,853.151 633.011,853.692C633.625,855.619 636.517,862.325 636.517,862.325C637.398,864.29 638.065,866.274 638.914,868.198C639.257,868.976 639.632,869.742 640.066,870.493C640.353,870.988 640.686,872.012 641.079,873.055C641.378,872.5 641.748,871.98 642.158,871.581C643.426,870.334 644.924,869.297 646.247,868.092C647.017,867.39 647.718,866.623 648.256,865.71C648.904,864.611 649.611,863.647 650.383,862.767C651.175,861.863 652.04,861.05 652.991,860.274C653.319,860.006 653.616,859.672 653.903,859.306C655.258,857.58 662.076,850.135 663.183,848.667C664.336,847.139 665.336,845.508 666.081,843.713C666.944,841.652 668.767,839.842 669.909,837.811C670.185,837.321 670.641,835.65 670.629,835.568ZM578.294,835.834L581.496,841.299C582.568,842.952 584.036,844.246 585.29,845.76C585.88,846.473 586.425,847.232 586.886,848.073L594.038,860.524C594.56,861.467 594.941,862.502 595.23,863.583C595.834,865.838 596.037,868.304 596.56,870.438C596.581,870.528 596.682,871.116 596.812,871.844C597.229,871.102 597.672,870.422 598.147,869.768C598.808,868.858 599.531,867.998 600.337,867.088C602.197,864.986 604.103,862.853 605.856,860.622C607.011,859.153 608.099,857.642 609.062,856.067C610.346,853.968 611.539,851.482 612.941,849.277C613.592,848.252 614.29,847.287 615.05,846.436C615.858,845.53 616.589,844.562 617.285,843.567C618.366,842.023 621.64,837.789 621.601,837.533C621.585,837.434 620.217,837.652 620.209,837.557C619.477,837.572 618.745,837.581 618.013,837.585C611.863,837.618 605.702,837.268 599.342,836.609C597.312,836.4 595.274,836.258 593.231,836.164C588.266,835.935 583.272,835.958 578.294,835.834ZM708.506,834.162L704.479,834.256C699.538,834.252 694.366,834.171 689.25,834.324C685.86,834.425 682.494,834.628 679.24,835.03C677.435,835.253 675.619,835.39 673.794,835.473L673.797,835.487C674.309,836.004 674.807,836.674 675.264,837.274C675.539,837.657 675.851,837.968 676.157,838.264C677.113,839.185 678.152,839.877 679.108,840.801C679.644,841.33 680.132,841.925 680.583,842.557C681.497,843.84 682.261,845.288 683.075,846.575C686.516,852.05 691.232,856.515 695.002,861.677C695.991,863.032 696.917,864.432 697.747,865.905C698.423,867.107 698.946,868.259 699.625,869.354C699.65,869.395 699.676,869.436 699.702,869.476C699.788,868.89 699.939,868.338 700.126,867.804C700.503,866.727 701.057,865.737 701.45,864.632L701.8,860.606C702.251,857.934 703.09,855.303 703.691,852.639C703.933,851.566 707.073,838.85 707.968,836.22C708.208,835.515 708.403,834.825 708.506,834.162ZM574.522,835.706C572.465,835.613 570.411,835.478 568.367,835.273C562.748,834.725 557.023,835.115 551.36,834.942C549.903,834.897 548.449,834.817 547.002,834.676C544.886,834.47 542.624,834.344 540.364,834.338C538.888,834.333 537.414,834.379 535.981,834.488C536.191,834.716 536.391,834.971 536.586,835.267L542.336,842.873C544.303,845.859 546.099,848.871 547.682,851.989C549.272,855.119 550.649,858.354 551.77,861.777C552.071,862.691 552.275,863.664 552.433,864.655C552.654,866.034 553.053,869.014 553.053,869.014L554.619,867.317C555.855,865.711 557.429,864.335 558.746,862.799C559.254,862.207 559.716,861.587 560.093,860.912C562.758,856.283 565.959,851.789 568.723,847.139C569.889,845.177 570.98,843.19 571.905,841.145C572.473,839.89 573.39,838.467 574.04,837.014C574.235,836.578 574.407,836.141 574.522,835.706ZM666.979,864.872C666.606,864.959 666.233,865.047 665.86,865.135C665.851,865.831 665.845,866.526 665.842,867.221C666.083,866.757 666.316,866.29 666.541,865.819C666.691,865.505 666.837,865.189 666.979,864.872ZM671.414,841.911C670.591,842.942 669.741,843.948 669.249,845.071C668.525,846.708 667.621,848.223 666.586,849.648C665.088,851.711 663.326,853.59 661.483,855.393C661.077,855.791 657.499,859.65 656.245,861.182C655.804,861.721 652.068,865.25 651.838,865.543C653.16,865.238 654.484,864.943 655.804,864.631C659.949,863.653 664.092,862.688 668.239,861.741C669.636,857.823 670.431,853.711 670.447,849.481C670.457,848.525 671.119,844.701 671.414,841.911ZM674.271,841.438C674.096,844.282 673.37,848.472 673.38,849.481C673.395,853.411 672.803,857.258 671.695,860.956C676.392,859.895 681.097,858.857 685.818,857.85C686.267,857.755 686.712,857.628 687.159,857.518C684.644,854.635 682.121,851.749 680.034,848.51C679.351,847.444 678.706,846.262 677.972,845.166C677.544,844.527 677.085,843.919 676.555,843.402C675.821,842.677 675.017,842.113 674.271,841.438ZM600.677,792.965C599.872,792.819 598.994,792.988 598.106,793.418C596.394,794.248 594.868,796.416 593.811,798.651C591.9,802.691 592.176,807.201 595.441,808.291C599.37,809.602 603.58,805.129 604.877,800.587C606.037,796.519 604.849,792.932 600.994,792.931C600.885,792.931 600.779,792.942 600.677,792.965ZM619.622,793.036C616.188,794.205 615.71,796.935 616.74,799.454C618.039,802.634 622.357,805.365 626.029,804.151C628.248,803.412 629.258,802.245 629.616,801.104C629.956,800.018 629.755,798.82 629.06,797.657C627.491,795.031 623.132,792.579 620.728,792.584C620.298,792.584 619.907,792.756 619.622,793.036ZM543.035,770.18C542.965,770.313 542.897,770.461 542.832,770.625C542.391,771.74 543.244,775.153 543.379,775.674C544.113,778.247 544.636,780.084 545.649,781.581C546.678,783.103 548.19,784.318 550.959,785.505C553.561,786.62 556.967,787.649 560.243,787.728C562.59,787.784 564.871,787.354 566.794,786.199C567.771,785.612 568.642,784.802 569.418,783.859C570.946,782.001 573.986,777.877 574.124,777.832C574.682,777.728 575.05,777.19 574.946,776.632C574.841,776.073 573.012,774.45 572.698,774.134C572.346,773.78 571.892,773.592 571.407,773.493C571.407,773.493 565.709,772.043 564.794,771.522C564.397,771.296 563.973,771.138 563.529,771.032C562.529,770.808 561.504,770.661 560.465,770.568C558.307,770.376 551.869,768.884 550.811,768.434C550.364,768.244 549.912,768.101 549.454,768.025C545.8,767.423 541.412,765.881 537.275,763.851C533.145,761.823 529.258,759.311 526.635,756.704C525.041,755.124 523.532,753.288 521.847,751.714C521.051,750.971 520.218,750.283 519.327,749.694C518.104,748.885 516.48,748.068 515.024,747.133C514.188,746.597 513.407,746.03 512.854,745.371C512.091,744.472 511.179,742.329 509.949,741.095C509.018,740.162 507.96,739.615 506.864,739.69C506.028,739.69 505.35,740.368 505.35,741.204C505.35,742.039 509.659,746.871 510.228,747.559C510.811,748.264 511.565,748.914 512.406,749.515C514.016,750.666 515.977,751.636 517.396,752.59C518.372,753.247 519.256,754.054 520.102,754.912C521.489,756.319 522.772,757.863 524.119,759.22C526.963,762.083 531.165,764.883 535.661,767.119C538.092,768.328 540.609,769.372 543.035,770.18ZM636.187,776.531C636.597,776.171 638.024,775.78 638.14,776.005C638.236,776.19 638.458,776.302 638.647,776.448C639.488,777.098 640.798,777.704 641.489,778.264C643.317,779.726 644.872,781.284 646.734,782.077C648.123,782.668 649.67,782.882 651.574,782.406C652.242,782.239 655.501,779.925 655.767,779.259L657.36,773.571C657.697,772.561 657.393,767.32 656.935,765.264C656.877,765 656.793,764.771 656.693,764.575C658.965,763.006 661.202,761.201 663.39,759.298C666.766,756.361 670.028,753.192 673.145,750.342C673.697,749.838 677.307,743.976 677.307,743.542C677.307,742.718 676.638,742.049 675.814,742.049C675.629,742.047 674.801,742.254 674.14,743.222C673.311,744.436 671.579,747.599 671.077,748.044C667.935,750.828 664.643,753.926 661.245,756.795C659.008,758.684 656.724,760.472 654.404,761.995C650.587,764.553 646.254,766.434 642.196,768.747C641.146,769.346 640.126,769.99 639.124,770.658C638.421,771.13 634.149,774.158 634.106,774.387C633.948,775.222 633.868,776.004 634.758,776.439C635.127,776.858 635.767,776.9 636.187,776.531Z"/>
    </g>
</svg>
