<?xml version="1.0" encoding="UTF-8"?>
<svg width="128pt" height="128pt" version="1.1" viewBox="0 0 128 128" xmlns="http://www.w3.org/2000/svg">
 <path d="m-92.523 15.762c0.22656-0.19141 0.53125-0.26562 0.82031-0.20312 0.90234 0.1875 1.707 1.582 2.7461 3.5352 0.042969 0.078125 0.085937 0.16406 0.13281 0.25-0.16016-0.47266-0.34766-0.97656-0.50391-1.3945-0.78516-2.0977-1.2344-3.4258-0.85547-4.1719l0.003906-0.003906c0.11719-0.23438 0.32813-0.41016 0.58203-0.48047 1.1953-0.33203 2.1133 1.4648 3.1758 3.543 0.3125 0.60937 0.73047 1.4297 1.0664 1.9375-0.10156-0.46484-0.27344-1.0781-0.41797-1.582-0.62891-2.2109-1.2773-4.4961-0.039062-5.1133 0.21875-0.10938 0.47266-0.12109 0.69531-0.03125 0.71484 0.26953 1.2148 1.4219 1.9727 3.2773 0.32812 0.80078 0.84766 2.082 1.1875 2.4766 0.10156-0.45312-0.074219-1.6602-0.18359-2.418-0.28516-1.9844-0.55469-3.8633 0.57422-4.4258l0.003906-0.003906c0.22266-0.10938 0.48438-0.11719 0.71484-0.019531 0.96094 0.40234 1.7617 2.6797 2.9648 6.3828 0.35547 1.1016 0.77734 2.3984 1.082 3.1133 0.0625-0.29688 0.11719-0.66406 0.16406-0.96875 0.26172-1.6914 0.58594-3.8008 2.1289-3.9336 0.19141-0.015625 0.375 0.054687 0.50781 0.1875 0.21094 0.20312 0.60938 0.57812 0.67188 4.9141 0.027344 2.0078-0.023437 4.3555-0.082031 5.9297 5.5508 13.371 16.758 23.535 21.355 27.312l-7.1328-12.258v-0.003906c-0.015625-0.03125-0.03125-0.066406-0.042969-0.10156-0.003906-0.007812-0.003906-0.019531-0.007812-0.027343-0.007813-0.03125-0.011719-0.0625-0.011719-0.089844v-0.019531l-0.003906-0.003906c0-0.035157 0.003906-0.070313 0.011718-0.10547 0-0.007813 0.003907-0.015625 0.007813-0.023438l-0.003906-0.003906c0.007812-0.027344 0.019531-0.058594 0.03125-0.085937 0.003906-0.003907 0.003906-0.011719 0.003906-0.015626 0.003906-0.003906 0.003906-0.003906 0.003906-0.007812h0.003907c0.015624-0.03125 0.039062-0.0625 0.0625-0.089844 0.003906-0.003906 0.011718-0.011718 0.015624-0.015625 0.011719-0.015625 0.027344-0.03125 0.042969-0.042969 0.007813-0.007812 0.015625-0.011718 0.023438-0.019531 0.007812-0.007812 0.015625-0.011719 0.023437-0.019531v0.003906c0.03125-0.019531 0.058594-0.035156 0.089844-0.046875 0.003906 0 0.003906-0.003906 0.007812-0.003906 0.039063-0.011719 0.074219-0.019531 0.10938-0.027344 0.003906 0 0.007812-0.003906 0.011718-0.003906l7.2852-0.76953-0.31641-3.0117-0.46094-3.918c-1.5469-0.48047-6.0703-2.0859-5.5273-4.2539h0.003906c0.10938-0.46875 0.42578-0.85938 0.85156-1.0703 1.1055-0.56641 2.9766-0.10156 3.9961 0.23047l-0.11719-9.0391h0.003906c0.003906-1.1133 0.16016-2.2227 0.46484-3.293-0.011719-1.2695 0.23047-4.0508 2.3438-6.418 2.293-2.5742 6.0586-3.8477 11.199-3.7891 14.875 0.17188 15.941 7.3203 16.578 11.59 0.023437 0.17187 0.050781 0.33984 0.074218 0.5 0.85938 5.5312-0.77344 10.949-1.9688 14.906-0.35937 1.1875-0.67578 2.2383-0.85156 3.0703 0.042969 0.57422 0.082031 1.1445 0.125 1.7109l10.484-1.1094h0.011719c0.035156-0.003906 0.070312-0.003906 0.10547 0 0.011719 0 0.023438 0.003907 0.03125 0.007813 0.027344 0.003906 0.050782 0.011719 0.078126 0.023437 0.011718 0.003907 0.023437 0.011719 0.039062 0.019532v-0.003906c0.019531 0.011718 0.042969 0.023437 0.0625 0.035156 0.003906 0.003906 0.011719 0.007812 0.019531 0.011718 0.007813 0.003907 0.011719 0.011719 0.019531 0.019532 0.007813 0.003906 0.019532 0.011718 0.027344 0.019531 0.007813 0.007813 0.015625 0.019531 0.023438 0.027344 0.007812 0.007812 0.019531 0.023437 0.03125 0.035156l-0.003906-0.003906c0.015624 0.019531 0.027343 0.039062 0.039062 0.0625 0.007812 0.011719 0.015625 0.023437 0.019531 0.039062v-0.003906c0.011719 0.023437 0.019531 0.050781 0.027344 0.074219 0.003906 0.011718 0.007813 0.023437 0.011719 0.035156h-0.003906c0.011718 0.039062 0.011718 0.078125 0.011718 0.11719l-0.40234 11.531-0.046874 1.3164c2.7148-3.5312 7.7344-12.406 4.6133-27.02-0.10156-0.20703-0.65625-1.0234-1.1953-1.8203-2.5898-3.8164-3.8086-5.7812-3.7148-6.625 0.019532-0.26562 0.17969-0.49609 0.42188-0.60547 0.62109-0.27344 1.5352 0.32422 3.4688 1.7539 0.23437 0.17578 0.50391 0.37109 0.75781 0.55469-0.16406-0.38281-0.35938-0.82422-0.54688-1.2422-1.7148-3.8242-2.8242-6.5898-1.4688-7.3398 1.0938-0.60547 2.0859 1.0234 3.1328 2.7539 0.27344 0.45703 0.66406 1.0977 1 1.5547-0.09375-0.30859-0.20703-0.66016-0.30859-0.97266-0.71484-2.207-1.1484-3.7109-0.71484-4.4375l-0.003906-0.003906c0.125-0.21484 0.33984-0.36719 0.58594-0.41016 1.0352-0.1875 2.0078 1.3242 3.3672 3.6602 0.039062 0.066406 0.078125 0.13672 0.12109 0.20312-0.011718-0.046875-0.023437-0.089844-0.035156-0.13281-0.57031-2.1484-1.1133-4.1758-0.011718-4.6289 1.0938-0.44922 1.9414 1.3359 2.9219 3.4062 0.15625 0.32812 0.33594 0.70703 0.50781 1.0508-0.085937-0.42578-0.19531-0.89062-0.28125-1.2734-0.53516-2.3203-0.74219-3.4766-0.31641-4.0117h-0.007813c0.14453-0.17969 0.35938-0.28516 0.58984-0.28125 1.5469 0 3.3047 4.4688 4.2188 7.1289 0.25781 0.75 1.1641 3.4922 2.0977 7.3906 1.5156 6.332 3.0781 15.668 1.9297 24.18-0.47656 3.5156-2.1016 9.4414-5.2383 15.52h-0.003906c-0.77734 1.5156-1.6367 2.9883-2.5664 4.4141l29.125 25.156c0.03125 0.027343 0.058594 0.058593 0.082031 0.09375 0.007813 0.011719 0.011719 0.023437 0.019531 0.035156 0.015626 0.019531 0.027344 0.046875 0.039063 0.070313 0.003906 0.015624 0.007813 0.03125 0.011719 0.046874 0.007812 0.023438 0.011718 0.046876 0.015625 0.070313 0.003906 0.015625 0.003906 0.035156 0.003906 0.050781s0.003906 0.027344 0.003906 0.039063c0 0.015625-0.003906 0.019531-0.003906 0.03125v0.023437c0 0.007813-0.003906 0.015625-0.007813 0.023438l-0.003906 0.003906c-0.007812 0.023438-0.015625 0.046875-0.023437 0.070312-0.003907 0.015626-0.011719 0.03125-0.019531 0.046876-0.011719 0.019531-0.023438 0.042968-0.039063 0.0625-0.007813 0.011718-0.019531 0.023437-0.027344 0.039062-0.019531 0.019531-0.039062 0.035156-0.058593 0.054688-0.011719 0.007812-0.019532 0.019531-0.03125 0.027343-0.003907 0-0.003907 0.003907-0.003907 0.003907l-17.168 11.664c-0.21094 0.14453-0.49609 0.10547-0.66406-0.089844l-3.0703-3.6055-2.4766 0.94141-4.6484 6.6914 0.85937 2.4414c2.6328-1.3242 14.277-7.1758 15.375-7.6836v0.007813c1.2188-0.57422 2.6719-0.09375 3.3047 1.0898 0.39844 0.72656 6.1641 12.816 6.3984 13.312 1.0586 2.0195 0.089843 3.8789-0.89453 4.5-1.0391 0.64844-3.3828 0.49609-4.3125-0.92578l-4.293-6.5547c-2.2344 1.5391-12.621 8.7188-14.375 10.184-1.1523 0.96094-4.375 2.3203-8.125 1.8906-3.1641-0.36328-5.9062-1.9688-7.9258-4.6406-2.1836-2.8867-4.4375-6.1797-6.3086-9.0156l-4.3281-1.0742-8.3047 7.0039h-0.003906c-0.16406 0.14062-0.40625 0.15625-0.58984 0.039063l-12.715-8.0938-2.5391-0.058594c-0.19531 5.4961-0.48047 13.293-0.5625 14.113-0.050782 0.50391-0.3125 2.2031-1.5156 2.957-0.36328 0.23047-0.78125 0.34766-1.2109 0.34375-0.37891-0.003907-0.75391-0.078126-1.1094-0.21484-1.4648-0.53516-18.402-7.6992-19.125-8.0039-1.3789-0.58203-2.1836-2.0273-1.9492-3.5039 0.10547-0.79688 0.56641-1.5078 1.2578-1.9258 0.94531-0.58203 2.2695-0.64453 3.7305-0.17578l6.7773 2.2578c-0.10156-1.1758-0.29687-3.5547-0.48437-6.1758l-4.6289-0.10938h-0.003906c-0.18359-0.003906-0.35156-0.10938-0.43359-0.27344l-5.9258-11.703-8.293-2.8828c-0.15625-0.054688-0.27734-0.1875-0.32031-0.35156-0.039063-0.16406 0.003906-0.33594 0.11719-0.46094l22.129-24.004v0.003906c-1.8164-1.2422-3.5742-2.5742-5.2578-3.9961-6.3516-5.3359-15.387-14.949-22.332-30.434 0-0.003906-0.003907-0.007812-0.003907-0.011718s-0.003906-0.003906-0.003906-0.007813c-1.375-3.4297-2.2148-6.1055-2.6172-7.3906-0.125-0.39844-0.22266-0.71094-0.25781-0.79688v0.003907c-0.52734-1.332-0.98438-2.6914-1.3594-4.0742-0.80469-2.9375-0.52344-3.4609-0.19922-3.7188zm69.109 2.0078c-0.007813-0.054687-0.015626-0.11328-0.023438-0.16797l-12.953 2.1523c0.125 0.51172 0.26172 0.99609 0.41016 1.4531l4.0391-0.67188h-0.003906c0.20312-0.125 0.42969-0.21484 0.66406-0.26172 0.25391-0.050782 0.51953-0.039063 0.76953 0.023437l7.2539-1.2031c-0.035157-0.44141-0.085938-0.88281-0.15625-1.3242zm-11.773 38.668 3.9531-2.6875-4.5234 0.64453c0.16016 0.58203 0.35547 1.2695 0.57031 2.0469zm-8.2188-2.8164-0.49219-3.8281-2.2773 0.082031c-0.77344 0.03125-1.543-0.12891-2.2383-0.46875zm14.926 1.0039 1.7461 5.6289c0.050781 0.16797 0.011719 0.34766-0.10547 0.48047-0.11719 0.12891-0.29297 0.19141-0.46484 0.16016l-6.9961-1.3125c2.293 8.1055 5.9648 20.895 8.1094 27.445h19.074l-3.0117-10.855zm-12.934 32.402h14.176c-2.1797-6.707-5.8086-19.359-8.0664-27.336l-4.3047 4.1914h-0.003906c-0.13281 0.12891-0.32031 0.17578-0.49609 0.12109-0.17578-0.054687-0.30859-0.19922-0.34375-0.37891l-1.5-7.5c-0.03125-0.16797 0.023437-0.33984 0.14453-0.45703 0.12109-0.12109 0.29688-0.16797 0.46094-0.12891l5.2188 1.2461c-0.24219-0.86328-0.45703-1.6211-0.63281-2.25l-5.7148 0.8125-7.5078 12.742c1.6797 3.2656 6.4805 13.809 8.5703 18.938zm-16.117-45.293 7.4102 6.2344h-0.003906c-0.52344-0.72266-0.82812-1.5742-0.87891-2.4648l-0.078125-1.2695-0.32812-3.1484zm13.266-3.2812c1.168-1.3398 1.7734-3.3633 2.0898-5.1484l-2.6367 1.2305zm-8.3828-9.2109c-1.0586-0.42188-3.043-0.9375-3.8672-0.51563h0.003906c-0.17578 0.078126-0.30078 0.23438-0.33984 0.42188-0.15234 0.61719 1.3789 2.0469 5.1562 3.1484 0.19141 0.058594 0.33203 0.22266 0.35547 0.42188l0.41797 3.5625 5.3516-2.4961 3.8203-1.7852 1.4531-0.67578c0.03125-0.015625 0.066406-0.027344 0.10547-0.035157 0.011718-0.003906 0.027344-0.003906 0.039062-0.003906v-0.003906c0.023438-0.003906 0.046875-0.003906 0.070313-0.003906 0.015625 0 0.03125 0.003906 0.046875 0.003906 0.019531 0 0.039062 0.003906 0.0625 0.007812 0.015625 0.003907 0.03125 0.011719 0.046875 0.015626 0.015625 0.003906 0.03125 0.007812 0.046875 0.015624 0.003906 0.003907 0.007812 0.003907 0.011718 0.007813 0.003907 0.003906 0.007813 0.003906 0.011719 0.003906 0.011719 0.003907 0.019531 0.015625 0.03125 0.019531 0.03125 0.019532 0.0625 0.042969 0.085938 0.070313 0.015625 0.011719 0.027343 0.027344 0.042969 0.042969 0.007812 0.015625 0.019531 0.027344 0.027343 0.042968 0.011719 0.015626 0.019531 0.03125 0.03125 0.050782 0.007813 0.015625 0.011719 0.03125 0.019531 0.046875 0.003907 0.007812 0.007813 0.019531 0.011719 0.027343 0.058594 0.20313 1.1797 4.125-0.023437 7.6523l0.34766 8.3516h-0.003906c0.039062 0.78516-0.56641 1.4531-1.3516 1.4961-0.78516 0.042969-1.457-0.55469-1.5039-1.3398l-0.16016-2.5352h0.003906c-0.007813-0.10156-0.058594-0.19531-0.13672-0.25781-0.082031-0.066406-0.18359-0.089844-0.28516-0.074219-0.17969 0.03125-0.30859 0.19141-0.30078 0.375l0.058593 1.0664c0.039063 0.77344-0.46875 1.4688-1.2148 1.6719-0.48438 0.13281-1.0039 0.03125-1.4062-0.26953-0.40625-0.30078-0.64844-0.76953-0.66016-1.2734l-0.019531-1.9414c-0.86719 0.14453-1.7461 0.21484-2.6289 0.21094-0.375 0-0.76562-0.015625-1.1602-0.039063l0.042969 0.71484c0.11328 1.9883 1.8047 3.5195 3.793 3.4375l2.7344-0.10156c0.25781-0.011719 0.48438 0.17969 0.51562 0.4375l0.65234 5.0547 12.098-1.6953-6.418-7.7227-0.003907-0.003906c-0.10547-0.125-0.14062-0.29297-0.097656-0.45312 0.042969-0.15625 0.16016-0.28125 0.3125-0.33594l10.508-3.8008c-0.089844-1.2617-0.18359-2.5664-0.27734-3.8828-0.007813-0.007812-0.015625-0.011719-0.019532-0.019531l-6.082-7h-0.003906c-0.10547-0.125-0.14844-0.29297-0.10938-0.44922 0.042969-0.16016 0.15625-0.28906 0.30859-0.34766 0.027344-0.011719 2.7617-1.0742 3.3477-3.0977 0.28906-1.0078-0.011719-2.1172-0.89844-3.3047-0.51562-0.68359-1-0.98828-1.4414-0.90625-1.1953 0.23047-2.3789 3.0273-2.8438 4.7344v0.007813c-0.050781 0.1875-0.21094 0.32812-0.40234 0.35937-0.19141 0.035157-0.38672-0.050781-0.49609-0.21094-2.1484-3.5039-3.2344-7.5547-3.125-11.664-2.0469 0.85547-7.8984 3.0039-13.906 2.4062-0.14453 0.70313-0.21875 1.418-0.22266 2.1367l0.125 9.75c0.003907 0.16797-0.078124 0.32422-0.21484 0.41797-0.13672 0.097656-0.3125 0.11719-0.46875 0.054688zm4.8516-20.734c-1.1719 2.3438-1.9336 4.8711-2.2422 7.4766 0.50781 0.007813 1.0156-0.003906 1.5156-0.03125 0.41797-3.0273 1.4531-5.9375 3.0391-8.5508-0.8125 0.27344-1.5898 0.64453-2.3086 1.1055zm8.7031-1.9805h-0.33203c-0.46484 0-0.91406 0.015625-1.3516 0.039062-3.5977 3.0898-5.0273 7.6523-5.418 9.1562 0.5625-0.082031 1.1133-0.17969 1.6445-0.28516 0.64453-2.0898 2.4258-6.5508 6.3516-8.8867-0.28906-0.011719-0.58594-0.019531-0.89453-0.023437zm6.9258 0.76953c-7.3008 1.9258-9.8086 6.4297-10.371 7.6641 0.77734-0.20703 1.4883-0.42578 2.1133-0.63672 1.3672-1.957 4.5078-5.0547 11.059-6.0742-0.90234-0.40234-1.8398-0.72266-2.7969-0.95312zm7.2891 4.9922c-3.3242 1.6484-9.1602 2.9648-12.07 3.5547 0.023438 0.51562 0.058594 1.0234 0.11719 1.5078 2.9297-0.58203 8.9453-1.9219 12.551-3.6875h0.003906c-0.16406-0.47266-0.36719-0.92969-0.60156-1.375zm-0.17188 26.012c0.039062 0.53906 0.078125 1.0742 0.11328 1.6016l6.3086-2.2812zm26.668-27.152c-1.3438-3.9297-2.5625-5.9102-3.0938-6.3555-0.019532 0.60938 0.31641 2.0547 0.52734 2.9727 0.46094 1.9883 0.60547 2.7812 0.31641 3.2031v-0.003906c-0.097657 0.14844-0.25391 0.25-0.42969 0.27734-0.67969 0.10547-1.0781-0.67578-1.9922-2.6016-0.42969-0.90625-1.2031-2.5391-1.6367-2.8555-0.16406 0.53906 0.36328 2.5195 0.59375 3.3906 0.46484 1.7461 0.65625 2.4688 0.070312 2.7422-0.62109 0.28516-1.0195-0.39844-1.9844-2.0508-0.52344-0.89844-1.7188-2.957-2.2539-3.1641-0.125 0.56641 0.54297 2.6328 0.83594 3.5391 0.58984 1.8203 0.78516 2.4336 0.24609 2.7266-0.93359 0.50391-1.7344-0.8125-2.7422-2.4805-0.46484-0.76562-1.4297-2.3594-1.793-2.3984-0.003906 0-0.30859 0.26562 0.25781 2.0352 0.47656 1.3672 1.0273 2.707 1.6406 4.0195 0.98047 2.1875 1.1211 2.5664 0.88281 2.9297-0.10156 0.15625-0.27734 0.25-0.46094 0.25-0.375 0-0.85547-0.33203-2.1367-1.2773-0.70703-0.54688-1.4492-1.0508-2.2188-1.5039 0.44531 1.1641 2.5195 4.2188 3.4648 5.6172 0.57812 0.85156 0.90625 1.3398 1.0977 1.6445l7.0625-2.1133 5.7031-1.707c-0.87891-3.6055-1.7148-6.1289-1.957-6.8359zm2.1367 85.344c0.054688-0.082032 0.13672-0.14844 0.23047-0.18359l2.2891-0.87109-14.867-17.457 2.6094 9.3984 5.4102 15.34zm-49.992 8.8672h-0.003907c0.09375 0.003906 0.17969 0.03125 0.25781 0.078125l12.523 7.9688 8.2188-6.9297c0.125-0.10156 0.28906-0.14062 0.44141-0.10156l3.5312 0.875c-1.7266-2.6445-3.0156-4.7188-3.4336-5.3945l-24.066-0.48438c-0.023438 0.72656-0.074219 2.1602-0.13672 3.9297zm-21.199-0.49219 4.2344 0.097656c-0.25-3.582-0.46094-7.3906-0.37891-9.1289 0.074219-1.5938 0.52734-3.8945 2.2773-5.7969 1.7734-1.9219 4.4219-2.9375 7.8789-3.0156 5.5234-0.125 9.3789-0.0625 10.926-0.023438-2.043-4.9609-6.2617-14.242-8.0781-17.887l-15.906 26.996-0.003906 0.003906c-0.12109 0.20703-0.37109 0.29688-0.59375 0.21875l-5.6797-1.9766zm-22.602-81.699c0.054687 0.125 0.12891 0.36328 0.29297 0.88672 0.38281 1.2188 1.1562 3.6914 2.4141 6.8711l7.8125-2.7969 5.125-1.832c0.17188-4.6602 0.070312-8.6992-0.23438-9.6992-0.60156 0.35156-0.84766 1.9375-1.0156 3.0195-0.20312 1.3047-0.34766 2.2461-1.1094 2.2461-0.64453 0-0.94922-0.74609-2.082-4.2305-0.60547-1.8633-1.7148-5.2773-2.3398-5.7344-0.39844 0.37891-0.13281 2.2227 0.027343 3.3477 0.25391 1.7617 0.44922 3.1484-0.38281 3.5664l0.003906-0.003906c-0.20703 0.10156-0.44531 0.11328-0.66016 0.03125-0.67188-0.25391-1.1523-1.3594-1.8789-3.1406-0.37109-0.91406-0.98438-2.4102-1.3477-2.6875-0.39063 0.40625 0.30078 2.8438 0.60547 3.9062 0.53906 1.8984 0.83594 2.9453 0.070313 3.2383-0.92188 0.35547-1.6133-0.99609-2.5703-2.8672v0.003907c-0.38281-0.79297-0.8125-1.5625-1.2891-2.3008-0.41016-0.59375-0.63672-0.70703-0.70703-0.72656-0.16406 0.44922 0.53516 2.3164 0.91797 3.3359 0.78125 2.0859 1.2969 3.4609 0.46875 3.9453v-0.003906c-0.14062 0.082031-0.30469 0.10156-0.46094 0.058593-0.40625-0.11328-0.6875-0.58984-1.457-2.0352-0.42187-0.78906-1.5117-2.8398-2.0117-3.0117-0.070313 0.73437 0.73438 4.0703 1.8047 6.6094zm60.266 39.484c0-0.63281-0.38281-1.2031-0.96484-1.4453-0.58594-0.24219-1.2578-0.10938-1.7031 0.33984-0.44922 0.44531-0.58203 1.1172-0.33984 1.7031 0.24219 0.58203 0.8125 0.96484 1.4453 0.96484 0.85938-0.003906 1.5586-0.69922 1.5625-1.5625zm3 10.125c0-0.63281-0.38281-1.2031-0.96484-1.4453-0.58594-0.24219-1.2578-0.10938-1.7031 0.33984-0.44922 0.44531-0.58203 1.1172-0.33984 1.7031 0.24219 0.58203 0.8125 0.96484 1.4453 0.96484 0.85938-0.003906 1.5586-0.69922 1.5625-1.5625zm3.5 11.125c0-0.63281-0.38281-1.2031-0.96484-1.4453-0.58594-0.24219-1.2578-0.10938-1.7031 0.33984-0.44922 0.44531-0.58203 1.1172-0.33984 1.7031 0.24219 0.58203 0.8125 0.96484 1.4453 0.96484 0.85938-0.003906 1.5586-0.69922 1.5625-1.5625zm-23.812-61c0 1.7266 1.0625 3.125 2.375 3.125s2.375-1.3984 2.375-3.125c0-1.7266-1.0625-3.125-2.375-3.125s-2.375 1.3984-2.375 3.125z"/>
</svg>
