<?xml version="1.0" encoding="UTF-8" standalone="no"?>
<!DOCTYPE svg PUBLIC "-//W3C//DTD SVG 1.1//EN" "http://www.w3.org/Graphics/SVG/1.1/DTD/svg11.dtd">
<svg width="100%" height="100%" viewBox="0 0 1500 1500" version="1.1" xmlns="http://www.w3.org/2000/svg" xmlns:xlink="http://www.w3.org/1999/xlink" xml:space="preserve" xmlns:serif="http://www.serif.com/" style="fill-rule:evenodd;clip-rule:evenodd;stroke-linejoin:round;stroke-miterlimit:2;">
    <g id="Layer1">
    </g>
    <g transform="matrix(1.22037,0,0,1.22037,-161.067,-601.472)">
        <path d="M230.737,1059.44C230.975,1058.04 230.573,1052.82 230.454,1051.7C230.237,1049.76 229.901,1047.04 229.333,1045.27C228.035,1041.21 225.992,1038.14 225.144,1033.91C224.94,1032.88 224.318,1029.87 224.02,1028.86C222.876,1025 221.599,1021.89 220.817,1017.98C219.904,1013.41 219.482,1008.52 219.379,1003.51C219.277,998.542 220.432,993.058 221.569,988.506C222.951,982.98 225.126,979.242 228.354,974.048C231.591,968.84 235.959,964.214 239.967,960.206C241.759,958.415 243.41,956.869 245.334,954.878C246.681,953.484 262.109,933.273 267.788,924.279C270.232,920.406 274.339,906.45 274.565,903.451C274.789,900.467 275.063,890.184 275.068,890.053C275.086,889.299 273.063,879.844 272.244,877.554C271.688,876 270.095,873.166 269.249,871.765C267.601,869.014 263.968,864.232 262.071,861.88C259.17,858.284 258.262,859.153 254.971,855.824C252.627,853.445 250.597,850.729 248.097,848.579C246.345,847.071 241.534,844.204 241.225,843.787C240.714,843.098 236.5,841.062 236.023,840.777L230.521,837.178C228.811,836.318 226.704,834.514 225.032,833.106C222.514,830.986 220.727,828.894 218.7,826.866C217.28,825.446 216.294,823.823 215.114,822.261C213.314,819.878 211.464,817.701 209.906,815.104C209.552,814.512 209.015,813.771 208.576,813.016C208.329,812.589 208.111,812.161 208.011,811.758C206.929,807.429 206.241,803.532 206.038,799.255C205.836,794.986 206.145,790.709 207.113,786.357C207.67,783.853 208.628,781.348 209.797,778.909C211.572,775.205 214.346,771.523 216.454,768.363C216.923,767.66 217.542,766.972 218.227,766.289C219.831,764.689 222.153,762.817 223.579,761.219C227.335,757.01 242.548,743.227 247.069,739.85C249.714,737.87 252.414,735.153 255.356,733.034C257.232,731.682 258.626,731.34 260.774,730.907C261.628,730.734 262.744,730.727 263.73,731.005C264.554,731.238 265.311,731.658 265.582,732.466C266.415,734.95 266.161,736.621 264.743,738.949C262.51,742.61 258.272,745.253 256.161,748.078C255.537,748.912 254.361,750.359 253.616,751.307C253.183,751.859 252.854,752.443 252.703,753.053C252.316,754.601 252.376,756.07 252.661,757.503C253.254,760.481 255.579,763.422 255.577,766.556C255.575,769.16 255.281,771.723 254.863,774.264C254.219,778.178 253.283,782.042 252.633,785.923C252.197,788.524 251.258,790.915 251.167,793.298C251.101,795.04 251.451,796.779 252.649,798.58C253.375,799.671 254.48,800.584 255.777,801.368C258.294,802.891 261.573,803.928 263.679,805.194C263.679,805.194 270.152,808.22 270.953,808.658C272.147,809.312 273.418,809.728 274.65,810.145C277.82,811.217 281.181,812.686 284.445,814.408C287.645,816.096 290.752,818.027 293.483,820.087C302.45,826.826 311.278,834.12 319.264,842.182C327.236,850.23 334.368,859.044 339.952,868.839C341.831,872.135 344.145,876.02 346.077,879.902C347.376,882.511 348.502,885.117 349.19,887.534C350.91,893.572 351.529,899.498 351.363,905.354C351.192,911.378 350.192,917.328 348.706,923.25C348.317,924.799 345.443,935.59 345.127,936.85C344.998,937.364 345.632,941.807 345.161,943.227C344.042,946.601 343.28,949.935 343.106,953.326C342.934,956.673 343.33,960.077 344.52,963.629C344.865,964.656 345.567,969.074 346.816,971.247C347.362,972.198 351.386,975.999 352.725,977.21C354.67,978.97 356.77,980.556 358.891,982.335C363.893,986.498 369.977,990.765 374.691,995.963C377.757,999.345 380.231,1003.13 381.41,1007.52C382.589,1011.9 383.733,1016.9 384.207,1021.86C384.52,1025.14 384.536,1028.39 384.083,1031.42L382.904,1038.99C382.843,1039.52 382.723,1040.05 382.572,1040.58C381.908,1042.93 380.674,1045.3 380.202,1047.63C380.097,1048.18 379.955,1048.71 379.791,1049.24C379.062,1051.58 377.933,1053.78 377.369,1056.13C377.284,1056.48 376.768,1058.84 376.725,1059.25C370.459,1059.08 364.191,1058.96 357.939,1059.1C353.413,1059.21 341.923,1059.63 341.291,1059.66C334.186,1059.99 327.061,1060.11 319.921,1060.06C301.385,1059.93 282.762,1058.82 264.298,1058.78C246.531,1058.77 228.789,1059.67 211.045,1059.86C200.426,1059.97 189.809,1059.8 179.187,1059.13C178.128,1059.06 175.174,1058.87 174.908,1058.88C174.276,1058.89 173.777,1059.42 173.796,1060.06C174.206,1073.19 174.532,1086.32 174.741,1099.47C174.936,1111.73 174.99,1124 175.104,1136.26C175.275,1154.67 175.441,1262.3 175.716,1283.1C175.744,1285.16 175.727,1346.46 175.873,1363.72C175.969,1371.63 176.499,1379.51 176.693,1387.4C176.763,1390.28 176.455,1403.44 176.471,1406.45C176.632,1436.56 176.821,1466.69 176.798,1496.83C176.781,1519.14 176.403,1564.2 176.403,1564.29C176.403,1564.93 176.922,1565.45 177.56,1565.45C190.78,1565.45 204.005,1565.44 217.229,1565.32C230.454,1565.21 243.677,1564.98 256.895,1564.74C269.462,1564.56 281.913,1564.09 294.387,1564.06C301.55,1564.04 336.634,1564 346.604,1563.74C349.077,1563.67 351.55,1563.64 354.026,1563.67C372.257,1563.88 390.495,1564.93 408.729,1565.47C416.564,1565.7 424.399,1565.85 432.231,1565.79C437.961,1565.76 443.69,1565.67 449.418,1565.56C467.735,1565.2 538.177,1564.32 548.218,1564.38C564.98,1564.48 581.753,1565.07 598.507,1565.18C607.773,1565.24 617.039,1565.22 626.305,1565.17C645.754,1565.07 710.566,1564.24 720.912,1564.1C738.196,1563.87 755.456,1564.2 772.858,1564.32C788.369,1564.38 863.017,1564.42 875.58,1564.51C878.729,1564.53 881.88,1564.51 885.034,1564.45C896.111,1564.25 907.148,1563.67 918.198,1563.47C924.801,1563.35 931.402,1563.6 938.033,1563.67C938.771,1563.68 945.722,1563.39 948.006,1563.38C973.736,1563.22 999.425,1563.6 1025.14,1563.72C1031.42,1563.75 1049.85,1563.96 1052.28,1563.95C1076.53,1563.91 1100.83,1564.24 1125.09,1563.95C1135.5,1563.83 1145.91,1563.6 1156.31,1563.15C1156.84,1563.13 1202.67,1563.62 1224.73,1563.61C1239.44,1563.6 1254.15,1563.51 1268.83,1563.28C1280.44,1563.09 1291.81,1564.02 1303.26,1563.68C1307.21,1563.57 1317.25,1563.62 1317.84,1563.61C1318.43,1563.61 1318.9,1563.13 1318.89,1562.54C1318.55,1531.17 1318.19,1499.66 1318.49,1468.19C1318.66,1449.31 1319.32,1403.05 1319.31,1402.32C1319.19,1396.33 1318.93,1390.34 1318.85,1384.34C1318.64,1366.82 1318.97,1349.28 1318.63,1331.77C1317.96,1297.98 1315.36,1264.19 1314.13,1230.39C1313.82,1221.95 1313.61,1213.51 1313.52,1205.07C1313.18,1166.24 1314.48,1127.37 1314.56,1088.5C1314.57,1080.72 1314.75,1072.93 1314.44,1065.16C1314.36,1063.21 1314.4,1057.68 1314.21,1057.54C1314.21,1057.48 1313.21,1057.48 1312.63,1057.5C1308.07,1057.69 1303.5,1057.82 1298.94,1057.87C1289.34,1057.98 1279.73,1057.83 1270.13,1057.81C1269.42,1057.81 1232.1,1057.44 1213.49,1057.47C1213.58,1054.57 1213.91,1051.13 1214.02,1048.07C1214.08,1046.57 1213.97,1045.26 1213.72,1043.81C1213.37,1041.72 1211.65,1039.16 1210.48,1037.94C1208.86,1036.25 1207.85,1034.98 1205.7,1033.65C1202.03,1031.39 1200.67,1026.46 1200.13,1024.72C1199.27,1021.95 1198.97,1019.82 1198.72,1017.33C1198.65,1016.67 1198.28,1012.73 1198.28,1012.73C1202.46,1011.2 1203.89,1010.31 1208.15,1008.6C1211.58,1007.23 1215.06,1006.07 1218.46,1004.65C1220.75,1003.7 1223,1002.63 1225.19,1001.32C1231.4,997.596 1236.84,992.298 1241.09,986.186C1245.36,980.045 1248.43,973.081 1249.85,966.052C1251.91,955.868 1251.55,946.306 1249.55,937.13C1246.56,923.354 1239.88,910.448 1232.21,897.602C1231.52,896.455 1231.33,894.875 1230.82,893.584C1230.64,893.138 1230.43,892.718 1230.18,892.34C1227.63,888.532 1225.34,884.26 1222.89,880.29C1221.78,878.5 1220.64,876.771 1219.44,875.168C1218.64,874.108 1217.17,872.501 1216.04,870.955C1215.35,870.022 1214.73,869.167 1214.73,868.511C1214.73,867.791 1214.14,867.207 1213.42,867.207C1213.42,867.207 1213.41,867.207 1213.41,867.207C1214.39,864.247 1215.4,861.296 1216.47,858.372C1217.96,854.297 1219.57,850.275 1221.42,846.352C1221.43,846.346 1221.43,846.34 1221.43,846.334C1221.99,846.381 1222.54,846.402 1223.09,846.394C1223.66,846.394 1224.14,845.952 1224.18,845.39C1224.88,845.199 1225.67,845.148 1226.49,845.148C1229.04,845.146 1231.95,845.741 1234.08,845.762C1236.23,845.778 1238.46,845.607 1240.7,845.302C1244,844.853 1247.31,844.117 1250.37,843.358C1254.48,842.338 1258.38,840.756 1262.19,838.925C1267.81,836.22 1273.19,832.967 1278.68,830.231C1279.52,829.815 1280.28,829.182 1280.98,828.429C1282.34,826.962 1283.47,825.012 1284.61,823.692C1286.9,821.013 1289.81,818.422 1292.21,815.725C1292.33,815.591 1292.44,815.454 1292.55,815.314C1292.87,815.14 1293.16,814.844 1293.42,814.462C1293.85,813.836 1294.19,812.896 1294.57,812.332C1295.47,810.882 1296.16,809.123 1296.69,807.252C1297.43,804.656 1297.87,801.846 1298.27,799.44C1298.86,795.92 1298.99,791.808 1298.75,787.721C1298.52,783.631 1297.91,779.567 1297.06,776.146C1296.62,774.34 1295.78,772.498 1294.78,770.69C1293.37,768.144 1291.65,765.664 1290.32,763.454C1289.07,761.361 1286.88,757.181 1284.27,754.686C1282.81,753.3 1281.21,752.428 1279.59,752.427C1279.33,752.427 1279.08,752.515 1278.89,752.664C1278.83,752.536 1278.76,752.427 1278.69,752.352C1278.25,751.867 1277.77,751.809 1277.27,752.303C1276.97,752.556 1276.8,753.133 1276.83,753.851C1276.87,754.672 1277.19,755.741 1277.27,756.073C1277.61,757.541 1278.14,759.229 1278.43,760.892C1278.6,761.924 1278.68,762.946 1278.54,763.887C1277.87,768.41 1277.39,772.681 1276.22,776.855C1275.47,779.509 1274.45,782.127 1272.88,784.741C1271.36,787.284 1269.32,790.301 1266.88,792.667C1265.29,794.215 1263.53,795.483 1261.62,796.113C1260.69,796.42 1259.6,796.45 1258.49,796.357C1256.68,796.206 1254.81,795.713 1253.37,795.341C1253,795.246 1252.61,795.207 1252.22,795.202C1251.16,795.189 1250.01,795.567 1249.01,795.31C1247,794.789 1244.77,793.27 1242.4,792.472C1242.5,791.975 1242.44,792.151 1242.61,791.73C1243.59,789.483 1244.6,787.25 1245.55,784.984C1254.02,764.633 1261.57,743.875 1270.04,723.52C1273.67,714.796 1277.41,706.122 1281.34,697.538C1281.73,696.679 1283.55,694.255 1283.73,693.801C1283.93,693.289 1283.68,692.709 1283.17,692.507C1279.91,691.2 1276.81,689.531 1273.59,688.128C1273.64,687.981 1273.67,687.821 1273.67,687.653C1273.37,679.387 1272.09,671.271 1268.3,664.545C1265.78,660.062 1262.15,656.185 1256.95,653.283C1255.71,652.593 1254.45,652.087 1253.16,651.679C1251.29,651.088 1249.36,650.706 1247.39,650.241C1245.06,649.688 1242.83,649.198 1240.56,649.083C1239.01,649.004 1237.44,649.098 1235.81,649.458C1233.44,649.982 1231.16,650.944 1228.97,652.139C1226.12,653.696 1223.42,655.642 1220.89,657.505C1220.8,657.574 1220.69,657.635 1220.59,657.697C1217.97,656.2 1215.4,654.637 1212.74,653.219C1212.2,652.929 1211.69,652.549 1211.09,652.371C1210.93,652.321 1210.78,652.332 1210.61,652.312C1210.2,652.11 1209.7,652.276 1209.5,652.683C1209.45,652.786 1208.89,653.289 1208.76,653.579C1204.4,663.443 1200.63,673.574 1196.5,683.554C1195.47,686.038 1194.42,688.513 1193.34,690.972C1187.77,703.566 1181.39,715.761 1175.41,728.154C1174.82,729.373 1174.23,730.591 1173.66,731.817C1173.36,731.63 1173.05,731.449 1172.74,731.288C1172.38,731.103 1172.01,730.939 1171.62,730.808C1170.58,730.46 1169.5,730.201 1168.39,729.986C1165.97,729.518 1163.43,729.264 1161.09,728.673C1160,728.398 1158.83,728.213 1157.64,728.097C1156.49,727.984 1155.33,727.937 1154.21,727.935C1154.02,727.937 1153.1,728.179 1152.65,728.14L1152.62,728.124L1152.53,728.048L1152.49,727.992C1152.47,727.968 1152.45,727.943 1152.42,727.942L1152.41,727.965L1152.53,728.048C1152.56,728.078 1152.58,728.105 1152.6,728.114L1152.62,728.124L1152.64,728.139L1152.65,728.14C1152.77,728.212 1152.82,728.322 1152.85,728.444C1152.84,728.44 1152.84,728.435 1152.83,728.431C1152.79,728.322 1152.72,728.223 1152.64,728.139C1152.48,728.124 1152.39,728.074 1152.41,727.966L1152.41,727.965C1152.27,727.888 1152.11,727.845 1151.94,727.845C1151.53,727.845 1151.18,728.104 1151.04,728.468L1149.87,728.577L1144.6,728.858C1142.5,728.845 1140.41,729.361 1138.36,730.149C1135.51,731.246 1132.74,732.874 1130.12,734.181C1127.73,735.369 1125.51,736.994 1123.48,738.85C1121.48,740.686 1119.67,742.747 1118.11,744.829C1117.12,746.15 1115.45,746.82 1114.2,747.878C1113.82,748.208 1113.46,748.567 1113.15,748.974C1111.53,751.134 1110.03,753.543 1108.66,756.058C1106.65,759.758 1104.91,763.688 1103.42,767.388C1103.05,768.329 1102.75,769.326 1102.52,770.35C1101.99,772.585 1101.72,774.955 1101.28,777.141L1098.87,787.035C1098.5,788.872 1098.52,791.073 1098.18,793.053C1098.04,793.831 1097.84,794.571 1097.52,795.224C1097.12,796.015 1097,797.035 1097.07,798.148C1097.19,800.042 1097.87,802.254 1097.87,803.682C1097.87,805.412 1097.96,807.023 1098.12,808.602C1098.35,810.986 1098.73,813.295 1099.15,815.832C1099.22,816.285 1099.36,816.728 1099.53,817.164C1100.08,818.517 1101.11,819.773 1101.38,821.136C1101.83,823.403 1102.33,825.728 1102.96,827.994C1103.39,829.537 1103.88,831.053 1104.46,832.508C1105.2,834.37 1106.08,836.081 1107.05,837.716C1108.51,840.18 1110.14,842.469 1111.73,844.854C1112.33,845.749 1112.41,846.972 1112.81,847.993C1112.94,848.353 1113.11,848.694 1113.32,849.007C1114.07,850.141 1115.67,851.771 1116.7,853.212C1117.08,853.749 1117.43,854.212 1117.43,854.598C1117.43,854.862 1117.52,855.106 1117.67,855.301C1115.38,860.568 1113.11,865.837 1110.85,871.112C1110.76,871.112 1110.68,871.125 1110.6,871.151C1109.65,871.411 1108.51,871.408 1107.24,871.335C1103.06,871.095 1097.53,869.685 1092.73,869.303C1091,869.165 1089.35,869.169 1087.88,869.402C1084.84,869.899 1081.96,870.956 1079.23,872.351C1075.23,874.39 1071.54,877.146 1068.04,879.784C1066.26,881.126 1064.68,882.816 1063.22,884.65C1061.14,887.255 1059.31,890.152 1057.41,892.685C1055.8,894.837 1054.33,897.06 1053.01,899.344C1052.02,898.399 1050.99,897.485 1049.95,896.59C1044.62,892.044 1038.68,888.015 1033.68,883.022C1033.1,882.447 1032.57,881.831 1032.07,881.194C1030.83,879.628 1029.73,877.938 1028.52,876.384C1026.03,873.187 1022.61,870.521 1019.87,867.398C1018.76,866.127 1017.76,864.778 1017,863.27C1015.28,859.826 1013.69,856.219 1011.99,852.738C1011.24,851.208 1010.47,849.703 1009.66,848.246C1007.89,845.063 1004.74,842.077 1002.35,838.943C1001.36,837.635 1000.5,836.302 999.97,834.904C999.558,833.809 999.875,832.523 999.707,831.356C999.649,830.95 999.548,830.555 999.386,830.177C998.767,828.738 998.27,827.215 997.832,825.661C997.166,823.295 996.639,820.86 996.056,818.534C995.493,816.291 994.75,814.095 993.897,811.942C992.627,808.735 991.113,805.623 989.593,802.59C987.942,799.295 986.924,795.595 985.524,792.133C985.158,791.23 984.768,790.342 984.336,789.48L982.306,786.372C981.701,784.897 982.057,782.874 981.853,781.084C981.791,780.538 981.688,780.01 981.518,779.515C981.356,779.045 980.502,777.973 979.693,777.044C979.471,776.79 977.912,775.061 977.738,775.113C971.72,768.886 967.213,760.733 961.712,753.752C960.253,751.9 958.721,750.133 957.084,748.496C956.546,747.959 955.965,747.475 955.359,747.025C953.147,745.385 950.553,744.247 948.618,742.313C942.516,736.214 936.111,729.9 929.272,724.21C924.677,720.388 919.885,716.848 914.86,713.837C910.654,711.318 906.332,709.304 901.955,707.533C891.691,703.38 881.131,700.579 871.148,695.597C868.012,694.038 864.078,693.767 860.529,692.801C859.122,692.419 857.779,691.919 856.597,691.135C853.477,689.065 850.293,686.988 847.14,684.833C845.068,683.417 843.009,681.968 840.992,680.464C839.002,678.98 835.932,678.721 833.623,677.582C833.127,677.338 832.672,677.048 832.292,676.669C830.981,675.377 828.297,673.148 825.633,671.588C824.647,671.01 808.568,663.667 800.14,662.184C787.421,659.945 773.584,660.137 762.856,661.211C744.344,663.068 726.094,666.395 708.219,671.083C690.307,675.781 672.772,681.847 655.729,689.161C646.783,693 636.024,698.154 626.322,704.148C619.657,708.265 613.491,712.781 608.74,717.537C604.264,722.019 599.305,726.174 594.096,730.127C582.028,739.285 568.622,747.36 556.739,755.859C555.577,756.69 554.478,757.593 553.42,758.542C549.285,762.246 545.774,766.653 541.374,769.957C540.309,770.766 535.672,773.732 534.061,775.358C533.916,775.504 527.03,782.547 523.734,786.071C518.827,791.315 513.995,796.732 509.259,802.072C506.789,804.861 504.338,807.681 501.752,810.369C500.043,812.145 498.274,813.862 496.401,815.474L486.914,823.487C485.921,824.395 484.992,825.372 484.095,826.382C482.068,828.666 480.204,831.123 478.064,833.282C476.623,834.736 474.295,835.978 472.567,837.464C472.161,837.814 468.443,840.613 468.075,840.978C466.321,842.732 464.614,844.536 462.836,846.254C461.664,847.386 460.462,848.481 459.193,849.496C451.962,855.284 444.707,861.188 437.188,866.712C432.195,870.381 427.086,873.883 421.786,877.068C418.674,878.938 415.695,881.65 412.501,883.698C411.167,884.554 409.796,885.294 408.351,885.782C407.612,886.032 406.853,886.417 406.115,886.871C405.082,887.506 404.088,888.271 403.244,888.934C402.872,889.234 402.115,889.632 401.483,889.992C401.361,890.032 397.836,892.947 396.449,893.876C392.498,896.519 388.065,898.84 384.51,901.887C383.331,902.898 382.131,904.033 380.94,905.208C379.201,906.925 377.48,908.726 375.866,910.34C373.533,912.674 370.666,914.441 368.132,916.578C366.99,917.542 365.912,918.578 364.968,919.759C362.982,922.243 361.168,925.057 359.481,927.996C357.009,932.301 354.808,936.872 352.728,941.036C351.259,943.99 349.209,946.784 347.474,949.754C347.031,950.511 346.609,951.279 346.22,952.063C346.088,952.333 345.847,952.713 345.582,953.144C345.784,950.079 347.777,942.941 347.791,942.367C347.829,940.763 347.182,938.951 347.556,937.457C347.853,936.268 348.164,935.216 348.518,934.169C348.871,933.124 350.21,929.446 350.357,928.655C350.655,927.06 350.739,925.356 351.114,923.851C352.633,917.752 353.648,911.624 353.814,905.421C353.978,899.323 353.322,893.153 351.521,886.868C350.792,884.321 349.608,881.574 348.235,878.826C346.276,874.905 343.933,870.981 342.028,867.653C336.322,857.69 329.046,848.726 320.911,840.547C312.831,832.422 303.904,825.071 294.836,818.284C292,816.17 288.782,814.183 285.462,812.463C282.081,810.711 278.594,809.234 275.313,808.157C274.189,807.788 273.026,807.429 271.935,806.845C271.299,806.504 265.29,803.707 264.764,803.386C262.657,802.125 259.377,801.094 256.858,799.577C255.842,798.965 254.954,798.276 254.384,797.423C253.463,796.044 253.194,794.71 253.242,793.375C253.325,791.076 254.252,788.772 254.668,786.262C255.312,782.378 256.243,778.512 256.882,774.595C257.314,771.944 257.613,769.271 257.611,766.556C257.609,763.287 255.9,760.358 255.28,757.252C255.051,756.105 254.99,754.928 255.3,753.688C255.387,753.34 255.597,753.02 255.845,752.706C256.603,751.748 257.712,750.884 258.347,750.04C260.884,746.67 265.59,742.505 267.591,738.031C268.607,735.758 268.957,733.407 268.169,731.03C267.763,729.806 266.838,728.969 265.677,728.469C264.193,727.829 262.312,727.767 260.934,728.04C259.073,728.409 257.315,729.201 255.641,730.238C252.074,732.449 248.89,735.797 245.78,738.132C241.231,741.558 236.884,744.977 232.727,748.609C228.558,752.252 224.581,756.109 220.782,760.4C219.387,761.976 217.475,763.52 215.903,765.097C215.122,765.88 214.421,766.673 213.886,767.477C211.73,770.711 209.424,774.346 207.61,778.136C206.375,780.715 205.368,783.365 204.781,786.011C203.775,790.54 203.454,794.991 203.666,799.433C203.877,803.837 204.613,808.233 205.728,812.692C205.838,813.131 206.034,813.597 206.281,814.063C206.756,814.961 207.425,815.87 207.847,816.572C209.442,819.23 211.067,821.812 212.91,824.25C214.144,825.883 215.476,827.452 216.962,828.936C219.026,831 221.463,833.504 224.032,835.655C225.831,837.162 227.972,838.075 229.535,839.407C230.49,840.221 239.402,845.996 239.849,846.506C240.282,846.999 245.048,849.115 246.565,850.385C249.044,852.459 251.067,855.097 253.4,857.395C256.676,860.634 259.827,863.799 262.704,867.32C264.557,869.587 266.291,872.004 267.891,874.667C268.659,875.955 269.258,877.345 269.759,878.772C270.542,881.003 271.084,883.323 271.622,885.502L271.781,889.259C271.789,889.455 271.794,889.97 271.834,890.399C271.821,890.467 271.814,890.537 271.814,890.609C271.825,894.529 272.026,898.979 271.726,903.305C271.53,906.125 271.122,908.891 270.29,911.411C268.827,915.835 266.804,919.816 264.459,923.56C258.821,932.558 251.359,940.204 245.324,949.277C244.406,950.655 243.234,951.999 241.973,953.305C240.058,955.289 237.94,957.185 236.157,958.969C232.049,963.078 228.059,968.024 224.741,973.362C221.402,978.733 218.744,984.502 217.315,990.217C216.136,994.931 215.709,1000.08 215.814,1005.23C215.918,1010.36 216.55,1015.49 217.485,1020.16C217.689,1021.19 217.952,1022.2 218.25,1023.2C219.391,1027.05 221.072,1030.82 221.857,1034.74C222.718,1039.05 224.651,1042.86 225.971,1046.99C226.499,1048.64 226.685,1050.39 226.886,1052.2C227.004,1053.24 226.629,1059.49 227.074,1059.54M692.25,1364.94C692.345,1365.88 692.325,1366.83 692.373,1367.77C693.009,1380.13 693.353,1392.49 693.546,1404.86C694.045,1436.89 693.434,1468.94 693.456,1500.97C693.479,1515.32 694.754,1529.75 695.322,1544.12C695.566,1550.32 695.68,1556.51 695.509,1562.68C703.985,1562.25 712.438,1562.04 720.884,1561.94C737.188,1561.74 753.47,1561.98 769.868,1562.1C769.797,1561.51 769.724,1560.92 769.682,1560.34C769.474,1557.43 769.509,1554.52 769.5,1551.61C769.458,1537.14 770.521,1522.64 770.023,1508.2C769.013,1479.81 767.852,1451.21 767.668,1422.65C767.558,1405.5 767.778,1388.36 768.66,1371.28C768.729,1369.95 768.712,1368.61 768.881,1367.29C768.952,1366.73 769.095,1366.2 769.208,1365.65C759.449,1365.81 749.689,1365.93 739.928,1365.96C730.202,1365.99 720.474,1366 710.748,1365.74C704.58,1365.57 698.415,1365.28 692.25,1364.94ZM852.846,1364.94C845.616,1364.84 838.386,1364.81 831.155,1364.82C811.079,1364.87 791.007,1365.31 770.935,1365.63L770.84,1365.63C770.84,1365.65 770.84,1365.67 770.839,1365.69C770.884,1366.27 770.97,1366.83 770.977,1367.41C770.994,1368.74 770.831,1370.06 770.762,1371.39C769.878,1388.43 769.577,1405.53 769.68,1422.64C769.853,1451.18 771.084,1479.75 772.123,1508.12C772.601,1520.78 771.889,1533.5 771.758,1546.18C771.713,1550.51 771.824,1554.84 771.899,1559.16C771.916,1560.14 771.903,1561.13 771.913,1562.11C772.231,1562.11 772.552,1562.11 772.872,1562.12C790.591,1562.26 844.17,1561.56 847.319,1561.57C850.478,1561.57 853.634,1561.62 856.79,1561.68C856.772,1561.61 856.03,1535.19 855.779,1522.06C854.878,1474.8 854.713,1427.55 853.282,1380.29C853.139,1375.56 852.846,1364.94 852.846,1364.94ZM594.5,1527.46C594.5,1527.46 639.439,1526.92 648.689,1526.81L648.757,1520.79C648.758,1517.79 648.546,1506.61 648.546,1506.61C648.252,1495.2 648.283,1483.34 648.252,1472.63C648.216,1458.5 647.742,1444.63 647.851,1430.49C648.013,1409.37 648.288,1388.26 648.526,1367.15L577.978,1367.5C577.978,1367.5 433.622,1369.81 389.821,1370.11C382.045,1370.16 374.274,1370.08 366.505,1369.92C348.4,1369.57 330.309,1368.83 312.195,1368.61C312.096,1368.61 259.77,1369.47 247.452,1369.54C239.14,1369.59 230.833,1369.48 222.537,1369.09C222.537,1369.09 222.866,1387.75 222.98,1393.48C223.358,1412.55 223.573,1431.66 223.668,1450.77C223.732,1464.42 223.734,1478.06 223.686,1491.69C223.639,1505.07 223.545,1518.43 223.414,1531.77L292.506,1530.96C292.096,1516.09 292.071,1501.18 292.192,1486.27C292.357,1465.83 292.766,1445.38 292.783,1424.95L292.468,1461.61L262.595,1462.91C263.085,1471.03 264.879,1491.51 264.435,1491.56C264.088,1491.6 262.774,1491.52 262.241,1491.52C259.29,1491.53 256.413,1491.51 253.54,1491.57C251.823,1491.6 250.11,1491.71 248.377,1491.78C247.292,1491.82 244.846,1491.93 244.707,1491.93C244.088,1491.93 243.59,1491.42 243.594,1490.8C243.576,1489.18 243.574,1487.55 243.62,1485.93C243.8,1479.49 244.397,1473.06 244.492,1466.62C244.659,1457.03 244.667,1429.51 245.121,1429.48C245.353,1429.35 261.971,1429.07 261.964,1429.67C262.211,1429.83 262.464,1460.64 262.483,1460.99L262.519,1460.98C263.921,1460.85 277.326,1459.99 280.291,1459.86C282.029,1459.78 283.768,1459.71 285.506,1459.63C286.362,1459.59 287.218,1459.55 288.074,1459.51C289.415,1459.45 291.156,1459.37 292.497,1459.31L292.192,1486.27C292.357,1465.83 292.766,1445.38 292.783,1424.95C292.785,1422.91 292.526,1417.28 292.933,1417.23C293.016,1417.2 294.81,1417.05 295.182,1417C296.574,1416.81 297.991,1416.98 299.396,1416.96C315.191,1416.79 331.002,1416.5 346.804,1416.07C358.513,1415.76 383.633,1414.74 383.717,1414.74C384.172,1414.74 384.247,1420.09 384.266,1421.77C384.391,1432.93 384.541,1444.07 384.747,1455.21C384.986,1455.2 403.44,1454.85 412.435,1455.21C412.301,1449.01 412.187,1442.82 412.247,1436.63C412.283,1433.02 412.369,1429.41 412.564,1425.81C412.573,1425.65 412.806,1423.62 412.814,1423.29C412.823,1422.84 413.194,1422.49 413.641,1422.5C413.747,1422.35 416.016,1422.26 417.031,1422.3C421.076,1422.42 425.135,1422.49 429.163,1422.87C429.614,1422.91 432.53,1423.36 432.493,1423.93C432.417,1425.53 432.398,1427.12 432.374,1428.72C432.165,1443.21 434.221,1457.73 434.303,1472.22C434.319,1475.07 434.33,1477.92 434.07,1480.76C433.959,1481.98 433.763,1483.18 433.573,1484.4C433.529,1484.84 430.383,1485.06 429.44,1485.09C425.535,1485.2 421.632,1485.23 417.726,1485.28C417.237,1485.28 412.58,1485.19 412.601,1484.52C412.879,1475.6 412.687,1466.68 412.491,1457.76C403.501,1457.35 385.039,1457.6 384.793,1457.61C384.887,1462.5 384.993,1467.39 385.114,1472.28C385.528,1489.1 386.185,1505.91 386.932,1522.75C386.998,1524.24 387.593,1529.03 387.376,1529.28C390.747,1529.2 432.841,1528.02 450.766,1527.61C462.814,1527.33 474.855,1527.16 486.86,1527.24C490.734,1527.26 494.61,1527.33 498.487,1527.43C500.828,1527.49 503.17,1527.56 505.511,1527.63C505.957,1523.21 506.149,1518.78 506.163,1514.34C506.186,1507.12 505.542,1489.01 505.686,1489.12C505.781,1489.07 541.109,1488.15 551.173,1488.04C555.222,1487.99 559.269,1487.85 563.316,1487.67C572.787,1487.25 582.256,1486.59 591.729,1486.24C592.261,1486.22 593.15,1486.05 593.238,1486.56C593.512,1486.68 594.17,1502.12 594.341,1508.25C594.519,1514.65 594.583,1521.06 594.5,1527.46ZM382.28,1457.68C369.537,1458.07 356.799,1458.83 344.064,1459.37L294.974,1461.5L294.966,1462.23C294.777,1479.33 294.565,1496.43 294.742,1513.54C294.801,1519.32 294.906,1525.1 295.07,1530.88L295.072,1530.93L347.703,1530.32L347.703,1530.34C360.007,1530 372.314,1529.65 384.633,1529.34C384.417,1529.12 383.673,1522.21 383.563,1519.52C383.077,1507.53 382.843,1495.55 382.628,1483.57C382.263,1463.36 382.131,1443.15 382.126,1422.91L382.28,1457.68ZM591.482,1488.35C582.125,1488.75 572.775,1489.48 563.419,1489.91C559.345,1490.11 555.27,1490.23 551.195,1490.27C542.58,1490.34 508.874,1490.52 507.191,1490.64C507.238,1491.28 508.353,1509.95 508.154,1518.38C508.08,1521.49 507.939,1524.6 507.633,1527.7C513.516,1527.89 571.878,1527.74 592.27,1527.49C592.368,1515.65 591.444,1488.47 591.482,1488.35ZM1160.37,1525.82C1168.35,1526.24 1159.74,1525.81 1159.74,1525.81L1160.37,1525.83L1160.37,1525.82ZM1271.12,1461.34C1271.14,1456.03 1271.17,1450.72 1271.19,1445.41C1271.24,1436.21 1271.3,1427.02 1271.34,1417.83L1271.33,1417.78C1271.33,1417.78 1271.32,1367.92 1271.32,1367.92L1269.46,1368.03L1263.42,1368.32L1246.24,1368.92C1240.18,1369.08 1234.13,1369.18 1228.07,1369.23C1222.02,1369.29 1215.96,1369.29 1209.9,1369.26C1203.07,1369.22 1196.23,1369.14 1189.39,1369.03C1179.14,1368.86 1168.89,1368.61 1158.65,1368.35L1150.62,1368.13L1137.13,1367.77L994.337,1367.31L994.337,1367.31L994.327,1367.29C980.574,1367.46 966.82,1367.62 953.065,1367.66C934.442,1367.73 915.817,1367.62 897.185,1367.11C897.138,1382.41 897.678,1397.75 897.809,1413.06C897.867,1419.84 897.846,1426.62 897.658,1433.39C897.672,1433.47 897.678,1433.55 897.676,1433.62C897.34,1445.47 896.755,1457.38 896.241,1469.3L896.131,1472.04L896.125,1472.04L896.113,1472.32L895.583,1524.53L978.502,1524.43L997.731,1524.18L997.731,1524.18L997.755,1524.18C997.778,1524.18 997.799,1524.18 997.819,1524.18L997.984,1524.18L997.984,1524.17L998.588,1524.17C1003.77,1524.08 1008.96,1523.99 1014.14,1523.9C1014.12,1523.84 1014.1,1523.78 1014.08,1523.72C1012.91,1519.89 1012.06,1515.88 1011.67,1511.91C1011.38,1508.89 1011.48,1505.85 1012.3,1502.82C1015.79,1489.64 1026.52,1480.95 1038.81,1477.77C1042.86,1476.73 1047.08,1476.28 1051.27,1476.48C1051.37,1475.31 1051.47,1474.14 1051.58,1472.96C1051.65,1472.24 1051.67,1471.51 1051.67,1470.78C1051.65,1467.66 1051.15,1464.53 1051.35,1461.42C1051.39,1460.77 1051.54,1459.93 1051.73,1459.09C1051.9,1458.36 1052.09,1457.63 1052.26,1457.06L1052.04,1456.95L1049.28,1455.81C1048.51,1455.62 1047.75,1455.4 1047.01,1455.16C1044.16,1454.21 1041.53,1452.91 1038.56,1452.06C1037.55,1451.77 1036.49,1451.55 1035.49,1451.19C1034.72,1450.91 1033.99,1450.55 1033.33,1450.04C1032.92,1449.69 1032.03,1449.07 1031.84,1448.61C1031.56,1447.97 1032.16,1446.79 1032.42,1446.81C1032.77,1446.66 1033.21,1446.61 1033.67,1446.81C1034.34,1447.08 1035.19,1447.91 1035.53,1448.12C1035.75,1448.24 1035.89,1448.44 1035.94,1448.66C1036.06,1448.71 1036.19,1448.75 1036.31,1448.79C1037.27,1449.1 1038.28,1449.26 1039.25,1449.51L1049.98,1453.03L1053.1,1454.31L1054.64,1455.08C1055.23,1455.41 1055.51,1456.11 1055.31,1456.75C1055.31,1456.75 1054.83,1458.23 1054.47,1459.73C1054.31,1460.4 1054.18,1461.08 1054.14,1461.6C1053.92,1464.65 1054.39,1467.72 1054.38,1470.78C1054.37,1471.6 1054.34,1472.42 1054.25,1473.23C1054.13,1474.38 1054.02,1475.54 1053.91,1476.69C1058.86,1477.24 1063.7,1478.71 1068.09,1481.15C1068.43,1480.46 1068.76,1479.77 1069.07,1479.07C1070.06,1476.83 1071.09,1474.73 1072.18,1472.66C1073.27,1470.58 1074.43,1468.55 1075.66,1466.48L1077.51,1462.39C1077.58,1462.23 1077.77,1461.89 1077.98,1461.52C1077.21,1461.34 1076.46,1461.05 1075.72,1460.73C1072.9,1459.5 1070.34,1457.28 1067.59,1456.13C1067.14,1455.93 1066.67,1455.69 1066.21,1455.41C1065.29,1454.85 1064.36,1454.18 1063.52,1453.67C1063.25,1453.51 1062.47,1453.21 1062.07,1452.79C1061.91,1452.63 1061.88,1452.5 1061.81,1452.36C1061.77,1452.28 1061.73,1452.2 1061.7,1452.13C1061.56,1452.05 1061.45,1451.73 1061.55,1451.41C1061.56,1450.63 1062.26,1450.39 1062.41,1450.62C1062.44,1450.63 1062.47,1450.65 1062.5,1450.66C1062.58,1450.65 1062.67,1450.63 1062.78,1450.63C1062.93,1450.61 1063.05,1450.56 1063.26,1450.61C1063.84,1450.73 1064.52,1451.22 1064.8,1451.36L1068.68,1453.4C1071.48,1454.46 1074.14,1456.57 1076.99,1457.76C1077.84,1458.11 1078.71,1458.33 1079.6,1458.47C1079.71,1458.49 1079.82,1458.5 1079.92,1458.55C1080.09,1458.62 1080.1,1458.74 1080.25,1458.84C1080.95,1458.84 1081.53,1459.42 1081.53,1460.13C1081.53,1460.62 1081.24,1461.06 1080.83,1461.27C1080.78,1461.48 1080.67,1461.66 1080.52,1461.8C1080.6,1461.9 1080.41,1461.96 1080.24,1462L1080.09,1462.07C1079.84,1462.5 1079.61,1463.22 1079.52,1463.4L1077.56,1467.61C1076.33,1469.65 1075.18,1471.64 1074.09,1473.68C1073.01,1475.69 1071.99,1477.75 1071.01,1479.93C1070.66,1480.71 1070.29,1481.48 1069.91,1482.24C1071.58,1483.31 1073.17,1484.52 1074.66,1485.89C1080.32,1491.12 1083.59,1497.33 1085.01,1504.01C1085.72,1507.35 1085.96,1510.81 1085.82,1514.33C1086.56,1514.55 1087.29,1514.78 1088.02,1515.01C1089.7,1515.55 1091.38,1516.11 1093.03,1516.73L1101.4,1519.29C1102.03,1519.47 1102.48,1519.6 1102.92,1519.77C1103.25,1519.91 1103.57,1520.06 1103.96,1520.29C1104.04,1520.33 1104.77,1520.54 1105.15,1520.85C1105.34,1521 1105.46,1521.11 1105.52,1521.23C1105.67,1521.52 1105.86,1521.63 1105.94,1521.74C1109.47,1521.65 1113.01,1521.63 1116.54,1521.66C1116.51,1521.36 1116.46,1520.86 1116.44,1520.25C1116.38,1518.07 1116.48,1514.44 1116.45,1513.57C1116.44,1510.18 1116.56,1506.67 1116.5,1503.2C1116.46,1500.91 1116.35,1498.64 1116.07,1496.42C1115.86,1494.79 1115.37,1492.91 1115.08,1491.16C1115.04,1490.95 1115.01,1490.73 1114.98,1490.52C1112.11,1489.56 1109.52,1488.04 1106.39,1487.61C1105.53,1487.47 1099.7,1486.45 1099.27,1486.45C1098.58,1486.45 1098.02,1485.89 1098.02,1485.21C1098.02,1484.52 1100.62,1482.88 1100.62,1482.88C1101.86,1482.27 1103.38,1481.65 1104.97,1481.07C1107.2,1480.26 1118.98,1477.49 1119.43,1477.33L1124.94,1475.26C1125.23,1475.14 1126.46,1474.6 1127.24,1474.54C1127.88,1474.49 1128.37,1474.7 1128.67,1475C1129.07,1475.39 1129.38,1476.27 1129.38,1477.45C1129.39,1479.51 1128.7,1482.85 1128.77,1483.93C1128.82,1484.9 1128.88,1485.96 1128.99,1486.99C1129.06,1487.64 1129.16,1488.28 1129.31,1488.88L1129.87,1490.07C1130.11,1490.49 1130.1,1491.01 1129.86,1491.43C1129.61,1491.85 1129.16,1492.11 1128.68,1492.11L1125.56,1492.11L1120.03,1491.4C1119.16,1491.4 1118.33,1491.32 1117.53,1491.18C1117.83,1492.84 1118.26,1494.59 1118.45,1496.13C1118.74,1498.43 1118.85,1500.79 1118.87,1503.17C1118.91,1506.65 1118.77,1510.17 1118.76,1513.57C1118.72,1514.57 1118.39,1519.2 1118.25,1521.13C1118.23,1521.33 1118.26,1521.55 1118.25,1521.68C1121.94,1521.73 1125.62,1521.84 1129.31,1521.98C1139.46,1522.37 1149.6,1523.03 1159.75,1523.57L1160.44,1523.59L1160.44,1523.61L1161.1,1523.64L1164.46,1523.76C1166.3,1523.71 1168.7,1523.65 1171.55,1523.61C1198.4,1523.23 1264.94,1523.23 1271.35,1523.23L1212.87,1523.32C1212.72,1522.62 1212.58,1521.91 1212.48,1521.19C1212.14,1518.77 1212.07,1516.31 1212.04,1513.86C1211.99,1510.3 1212.25,1506.75 1213.05,1503.29C1216.25,1489.47 1224.36,1479.2 1234.97,1472.26C1245.33,1465.48 1258.11,1461.86 1271.12,1461.34ZM1051.1,1478.6C1047.14,1478.39 1043.15,1478.79 1039.31,1479.76C1027.67,1482.69 1017.46,1490.85 1014.09,1503.3C1013.35,1506.11 1013.28,1508.92 1013.56,1511.73C1013.95,1515.6 1015.23,1519.41 1015.96,1523.25C1016,1523.46 1016.02,1523.66 1016.05,1523.87C1023.11,1523.75 1030.18,1523.62 1037.25,1523.46C1039.22,1523.42 1041.2,1523.37 1043.18,1523.33C1042.86,1523.23 1042.68,1523.02 1042.56,1522.85C1042.35,1522.57 1042.31,1522.07 1042.63,1521.41C1043.02,1520.59 1044.41,1519.29 1044.85,1518.39L1050.66,1508.73C1050.82,1508.42 1050.97,1508.11 1051.14,1507.8C1050.6,1507.7 1050.19,1507.22 1050.19,1506.65C1050.16,1501.01 1050.24,1495.4 1050.46,1489.8C1050.61,1486.07 1050.82,1482.34 1051.1,1478.6ZM1271.11,1463.49C1258.5,1463.93 1246.08,1467.32 1236.04,1473.88C1225.84,1480.55 1218.12,1490.48 1215.11,1503.76C1214.52,1506.4 1214.27,1509.09 1214.22,1511.79C1214.16,1514.65 1214.44,1517.52 1214.59,1520.37C1214.65,1521.36 1214.65,1522.34 1214.67,1523.32C1240.83,1523.23 1267.41,1523.23 1271.35,1523.23C1271.2,1513.05 1271.12,1502.86 1271.09,1492.68C1271.07,1482.95 1271.08,1473.22 1271.11,1463.49ZM1083.52,1516.58C1079.73,1515.43 1075.9,1514.36 1072.14,1513.13C1070.46,1512.59 1068.79,1512.01 1067.14,1511.39C1065.7,1510.84 1064.3,1510.37 1062.91,1509.93C1060.79,1509.25 1058.68,1508.64 1056.42,1508.04C1056.25,1507.98 1055.34,1507.56 1054.52,1507.21C1054.45,1507.5 1054.22,1507.73 1053.92,1507.8C1053.87,1507.81 1053.82,1507.82 1053.76,1507.82C1053.41,1508.47 1053.08,1509.12 1052.75,1509.77C1052.24,1510.82 1051.66,1511.84 1051.04,1512.83C1049.66,1515.07 1048.09,1517.2 1046.8,1519.48C1046.29,1520.3 1045.06,1521.54 1044.37,1522.26C1044.4,1522.36 1044.43,1522.46 1044.43,1522.57C1044.42,1522.9 1044.23,1523.18 1043.95,1523.31C1056.89,1523.01 1069.84,1522.69 1082.8,1522.36C1083.14,1520.42 1083.38,1518.49 1083.52,1516.58ZM1085.63,1517.23C1085.46,1518.91 1085.22,1520.61 1084.9,1522.31L1085.14,1522.3C1089.76,1522.18 1094.37,1522.06 1098.99,1521.94L1100.14,1521.91C1098.56,1521.46 1097.02,1521.05 1095.47,1520.58C1094.33,1520.23 1093.19,1519.85 1092.02,1519.41C1089.92,1518.62 1087.78,1517.9 1085.63,1517.23ZM1104.1,1521.47C1104.02,1521.5 1103.95,1521.53 1103.94,1521.61L1103.94,1521.62C1103.99,1521.57 1104.04,1521.52 1104.1,1521.47ZM1104.44,1521.29C1104.38,1521.28 1104.33,1521.28 1104.3,1521.33L1104.27,1521.36L1104.44,1521.29ZM1068.85,1484.25C1068.48,1484.92 1068.1,1485.58 1067.71,1486.24C1063.88,1492.74 1059.11,1498.77 1055.29,1505.16C1056.07,1505.36 1056.87,1505.59 1057.03,1505.62C1058.96,1506.07 1060.79,1506.51 1062.6,1507.02C1064.42,1507.54 1066.22,1508.14 1068.1,1508.84C1073.17,1510.72 1078.42,1512.14 1083.63,1513.67C1083.67,1510.55 1083.38,1507.48 1082.73,1504.5C1081.36,1498.27 1078.36,1492.48 1073.09,1487.59C1071.76,1486.35 1070.34,1485.24 1068.85,1484.25ZM1053.72,1478.82C1053.4,1482.53 1053.16,1486.22 1052.97,1489.91C1052.72,1495.03 1052.58,1500.14 1052.54,1505.29C1055.99,1499.43 1060.32,1493.93 1064.08,1488.11C1065.13,1486.49 1066.12,1484.84 1067.05,1483.15C1062.93,1480.81 1058.38,1479.38 1053.72,1478.82ZM1078.86,1461.73C1078.95,1461.85 1079.05,1461.94 1079.17,1462C1079.28,1462.07 1079.41,1462.1 1079.55,1462.11C1079.28,1462.07 1079.04,1461.93 1078.86,1461.73ZM1080.52,1461.8L1080.49,1461.78C1080.37,1461.69 1080.24,1461.81 1080.11,1462.03L1080.24,1462C1080.34,1461.95 1080.44,1461.88 1080.52,1461.8ZM382.062,1417.37C382.041,1417.37 346.871,1418.47 329.291,1418.78C318.744,1418.96 308.198,1419.12 297.659,1419.16C296.82,1419.17 295.971,1419.3 295.14,1419.21C295.14,1419.23 295.139,1419.25 295.139,1419.27C295.17,1422.67 295.19,1426.09 295.192,1429.5C295.197,1439.39 295.106,1449.29 294.999,1459.2L286.733,1459.57C305.806,1458.68 324.889,1457.98 343.967,1457.14C356.726,1456.56 369.489,1455.74 382.259,1455.29L382.628,1483.57C382.263,1463.36 382.131,1443.15 382.126,1422.91C382.126,1421.06 381.872,1419.2 382.062,1417.37ZM1033.79,1447.61C1033.8,1447.54 1033.8,1447.46 1033.79,1447.41C1033.79,1447.36 1033.77,1447.34 1033.73,1447.38C1033.66,1447.47 1033.7,1447.54 1033.79,1447.61ZM671.579,1136.39C657.735,1165.49 643.712,1194.53 629.927,1223.68C621.659,1241.16 613.472,1258.68 605.483,1276.29C604.846,1277.7 604.342,1279.17 603.615,1280.53C608.23,1280.9 612.801,1281.12 617.386,1281.18C620.744,1281.23 624.11,1281.21 627.507,1281.04C630.869,1280.89 634.207,1280.36 637.558,1280.05C639.032,1279.92 640.509,1279.83 641.991,1279.82C645.262,1279.81 648.507,1279.91 651.742,1280.07C659.272,1280.42 666.743,1281.06 674.326,1281.33C677.319,1281.44 680.318,1281.43 683.321,1281.37C690.365,1281.23 697.426,1280.78 704.442,1280.64L716.648,1281.32C726.472,1281.21 736.225,1279.94 746.032,1279.35C749.79,1279.13 753.555,1279.01 757.333,1279.08C750.988,1269.1 744.383,1259.25 738.072,1249.23C735.213,1244.69 732.415,1240.11 729.727,1235.48C724.557,1226.55 720.306,1217.14 715.431,1208.05C714.223,1205.8 712.976,1203.57 711.666,1201.37C701.284,1183.91 690.036,1166.94 679.349,1149.65C676.672,1145.32 674.087,1140.94 671.497,1136.56L671.579,1136.39ZM868.945,1140.86C868.529,1141.49 868.064,1142.08 867.647,1142.7C860.795,1152.89 854.131,1163.22 847.538,1173.59C830.432,1200.5 813.874,1227.8 796.348,1254.41C791.854,1261.2 787.976,1268.38 783.505,1275.17C782.934,1276.04 782.41,1276.95 781.823,1277.81C782.398,1277.82 800.368,1278.47 808.745,1278.38C822.741,1278.24 836.71,1277.51 850.828,1277.03C867.343,1276.48 883.964,1276.01 900.56,1275.93C911.548,1275.88 922.526,1276 933.455,1276.37C933.449,1276.36 933.443,1276.35 933.437,1276.34C930.543,1271.16 927.519,1266.06 924.571,1260.91C922.377,1257.08 920.234,1253.22 918.247,1249.26C913.481,1239.78 908.976,1230.13 904.604,1220.41C898.061,1205.86 891.815,1191.15 885.428,1176.61C881.664,1167.99 877.012,1159.7 873.1,1151.11C871.574,1147.76 870.164,1144.36 868.955,1140.89C868.951,1140.88 868.948,1140.87 868.945,1140.86ZM767.418,1236.94C767.116,1237.32 755.262,1221.03 749.605,1212.21C741.087,1198.93 733.062,1185.36 724.603,1171.94C718.13,1161.68 711.376,1151.59 704.364,1141.7C698.051,1132.79 691.54,1124.02 684.827,1115.41C684.337,1114.79 683.943,1114.06 683.404,1113.48C684.684,1113.45 685.964,1113.45 687.244,1113.42C692.411,1113.28 697.577,1113.07 702.747,1112.97C717.848,1112.69 732.966,1112.77 748.053,1112.37C769.897,1111.78 791.617,1110.96 813.368,1110.58C827.493,1110.33 841.631,1110.26 855.824,1110.57C834.699,1139.57 815.593,1170.07 795.015,1199.52C787.026,1210.95 778.808,1222.22 770.176,1233.19C769.41,1234.17 767.571,1236.66 767.418,1236.94ZM821.628,671.615C821.1,671.44 806.904,665.401 799.793,664.187C787.249,662.046 773.628,662.174 763.058,663.23C744.65,665.065 726.501,668.364 708.724,673.012C690.902,677.67 673.453,683.683 656.492,690.942C647.619,694.739 636.946,699.835 627.322,705.768C620.785,709.797 614.733,714.211 610.07,718.868C605.53,723.403 600.501,727.608 595.217,731.606C583.123,740.759 569.692,748.828 557.784,757.323C556.675,758.114 555.627,758.975 554.616,759.878C550.439,763.611 546.883,768.047 542.438,771.376C541.457,772.103 537.701,774.932 535.616,776.287C534.848,777.105 526.575,785.851 522.723,790.033C518.666,794.439 514.636,798.91 510.688,803.342C508.191,806.142 505.714,808.973 503.1,811.671C501.345,813.483 499.529,815.236 497.605,816.879L488.135,824.83C487.183,825.69 486.294,826.619 485.431,827.576C483.366,829.87 481.455,832.33 479.274,834.492C477.79,835.962 475.411,837.216 473.635,838.717C472.912,839.328 469.674,842.076 469.424,842.327C467.662,844.088 465.947,845.9 464.161,847.625C462.946,848.798 461.699,849.932 460.384,850.984C453.129,856.784 445.852,862.703 438.307,868.237C433.264,871.935 428.1,875.461 422.746,878.669C419.646,880.526 416.686,883.235 413.497,885.259C412.029,886.191 410.514,886.98 408.925,887.502C408.304,887.707 407.669,888.03 407.048,888.405C406.07,888.994 405.127,889.707 404.325,890.324C403.973,890.591 400.419,893.477 399.277,894.339C395.047,897.529 389.841,899.969 385.821,903.416C384.676,904.398 383.511,905.501 382.355,906.642C380.619,908.355 378.901,910.153 377.29,911.764C374.916,914.137 372.006,915.942 369.427,918.114C368.384,918.993 367.397,919.935 366.534,921.012C364.609,923.418 362.851,926.146 361.214,928.992C358.758,933.261 356.572,937.795 354.505,941.925L347.946,952.926C347.679,953.454 346.025,957.289 345.658,957.482C345.841,959.241 346.218,961.029 346.826,962.86C347.047,963.529 347.444,965.638 348.009,967.625C348.32,968.719 349.484,971.587 350.062,972.12C350.114,972.177 352.858,974.492 354.144,975.61C356.107,977.318 358.177,978.902 360.292,980.653C365.36,984.882 371.489,989.253 376.289,994.508C379.608,998.141 382.3,1002.19 383.612,1006.92C384.85,1011.41 386.036,1016.54 386.57,1021.63C386.935,1025.1 386.996,1028.55 386.556,1031.78L385.488,1039.27C385.384,1040.25 385.134,1041.24 384.81,1042.22C384.159,1044.2 383.186,1046.19 382.797,1048.15C382.599,1049.11 382.31,1050.03 381.974,1050.94C381.251,1052.89 380.303,1054.75 379.788,1056.73C379.685,1057.13 379.494,1058.55 379.192,1059.31C379.19,1059.32 379.189,1059.32 379.187,1059.32C385.575,1059.51 391.958,1059.71 398.314,1059.7C419.728,1059.68 441.128,1059.42 462.531,1059.37C473.851,1059.35 485.171,1059.41 496.495,1059.53C496.48,1059.42 496.027,1057.39 495.848,1055.08C495.423,1049.6 495.179,1039.41 496.122,1033.59C498.097,1021.67 500.143,1010.35 504.326,999.849C507.137,992.794 510.91,986.107 516.262,979.849C525.617,968.912 535.784,961.203 546.645,955.029C563.109,945.668 581.175,939.851 600.417,931.582C604.474,929.841 619.02,927.469 627.767,925.378C629.609,924.938 631.177,924.489 632.333,924.108C633.046,923.874 638.362,922.697 638.362,922.697C641.243,922.362 644.561,922.298 647.876,922.419C651.174,922.539 654.469,922.841 657.321,923.234C658.405,923.383 659.497,923.437 660.592,923.444C665.143,923.473 669.774,922.641 674.343,923.211C675.804,923.396 677.356,923.369 678.947,923.248C682.696,922.962 686.651,922.167 690.202,922.171C691.282,922.172 692.719,922.497 693.988,922.559C694.638,922.591 695.244,922.615 695.603,922.257C695.821,922.039 696.537,921.802 697.523,921.93C698.959,922.118 701.325,922.764 701.868,922.819L722.062,924.058C724.279,924.277 726.488,924.757 728.685,925.377C733.615,926.766 738.487,928.865 743.267,930.162C744.721,930.556 746.206,930.872 747.703,931.151C751.258,931.814 754.887,932.277 758.376,933.077C760.355,933.531 762.327,934.034 764.295,934.566C772.08,936.67 779.796,939.235 787.622,941.029C790.085,941.593 792.528,942.424 794.956,943.388C800.397,945.547 805.759,948.383 811.103,950.283C821.301,953.91 832.918,955.912 843.411,959.71C847.146,961.061 850.804,962.535 854.084,964.587C854.922,965.112 855.706,965.706 856.489,966.306C856.627,966.398 856.735,966.519 856.808,966.655C859.151,968.197 862.386,970.885 863.391,971.468C865.09,972.475 866.619,973.953 868.289,975.138C868.941,975.601 869.617,976.016 870.341,976.322C873.098,977.493 875.486,978.409 877.834,979.722C879.355,980.573 880.858,981.59 882.431,982.936C887.354,987.149 892.896,990.798 898.042,994.818C899.353,995.843 900.639,996.891 901.884,997.978C902.807,998.785 903.575,999.683 904.265,1000.63C905.257,1001.99 906.086,1003.44 907.026,1004.85C907.365,1005.36 907.753,1005.77 908.164,1006.14C909.34,1007.19 910.69,1007.91 911.85,1009.07C912.4,1009.62 912.925,1010.23 913.435,1010.86C914.534,1012.23 915.564,1013.74 916.671,1015.03C918.229,1016.85 919.408,1019 920.402,1021.32C922.533,1026.28 923.787,1031.98 926.491,1036.3C927.499,1037.91 928.664,1039.33 929.909,1040.65C932.977,1043.92 936.522,1046.63 939.531,1050.07C941.896,1052.79 943.958,1056.15 946.111,1058.92C946.514,1059.44 946.913,1059.94 947.323,1060.41L908.05,1059.86C928.266,1060.22 948.522,1060.48 968.767,1060.55C983.77,1060.61 998.768,1060.57 1013.74,1060.39C1025.79,1060.29 1037.96,1058.81 1050.07,1058.71C1055.32,1058.66 1060.56,1058.88 1065.78,1059.56C1065.8,1059.56 1065.83,1059.57 1065.86,1059.57C1069.2,1059.56 1072.55,1059.59 1075.89,1059.66C1090.69,1060.01 1105.48,1061.06 1120.3,1061C1126.7,1060.96 1133.1,1060.73 1139.49,1060.41C1154.44,1059.67 1169.39,1058.46 1184.35,1058C1192.64,1057.75 1200.93,1057.64 1209.23,1057.61L1209.26,1057.61C1209.35,1054.68 1209.92,1051.55 1210.04,1048.45C1210.09,1047.1 1210.06,1045.75 1209.84,1044.44C1209.58,1042.83 1208.88,1041.7 1207.99,1040.76C1206.38,1039.08 1204.21,1037.94 1202.44,1036.17C1201.48,1035.2 1197.01,1028.86 1196.36,1026.71C1195.47,1023.8 1195.29,1020.48 1195.03,1017.87C1194.98,1017.39 1194.87,1016.97 1194.72,1016.56C1194.46,1015.83 1194.11,1015.15 1193.8,1014.38C1193.79,1014.35 1186.92,1016.36 1183.3,1016.88C1179.65,1017.4 1175.54,1016.83 1171.65,1016.86C1170.06,1016.87 1168.5,1016.99 1167.04,1017.36C1164.28,1018.05 1161.1,1018.52 1157.77,1018.78C1157.73,1018.89 1157.69,1019 1157.65,1019.11C1155.58,1024.36 1153.23,1029.49 1151.03,1034.69C1150.92,1034.94 1150.38,1036.1 1150.16,1036.23C1150.15,1036.25 1148.87,1035.69 1148.7,1035.64C1148.48,1035.59 1148.3,1035.46 1148.1,1035.35C1145.88,1034.17 1143.72,1032.9 1141.58,1031.6C1141.27,1032.01 1140.96,1032.41 1140.62,1032.79C1135.93,1038.1 1129.39,1041.11 1122.41,1042.59C1111.05,1045.01 1098.2,1043.06 1088.53,1038.91C1085.78,1037.76 1083.05,1036.57 1080.5,1035.07C1078.76,1034.04 1077.11,1032.86 1075.6,1031.45C1072.13,1028.16 1069.56,1024.35 1067.59,1020.21C1065.56,1015.93 1064.03,1011.35 1063.04,1006.63C1062.63,1004.63 1062.38,1002.62 1062.1,1000.61C1062.05,1000.38 1062.1,1000.16 1062.22,999.983C1060.08,998.813 1057.89,997.739 1055.81,996.453C1055.62,996.334 1054.48,995.255 1054.72,994.794C1054.9,994.335 1055.06,993.872 1055.27,993.422C1057.09,989.442 1059.26,985.612 1060.95,981.573C1061.05,981.324 1061.12,981.061 1061.26,980.828C1061.4,980.59 1061.57,980.416 1061.74,980.204C1059.45,978.323 1057.47,975.767 1055.76,972.927C1052.88,968.161 1050.74,962.597 1049.03,958.297C1044.61,947.201 1043.17,935.581 1044.57,924.374C1045.57,916.385 1048.01,908.604 1051.88,901.373C1047.05,896.653 1041.31,892.729 1036.09,888.243C1034.72,887.067 1033.39,885.854 1032.12,884.58C1031.49,883.944 1030.9,883.264 1030.34,882.559C1029.1,880.986 1028,879.289 1026.79,877.728C1024.33,874.56 1020.95,871.923 1018.24,868.828C1017.01,867.416 1015.91,865.911 1015.07,864.236C1013.35,860.784 1011.76,857.167 1010.06,853.677C1009.34,852.18 1008.59,850.707 1007.8,849.281C1006.08,846.177 1002.99,843.278 1000.67,840.221C999.548,838.74 998.593,837.223 998.002,835.642C997.861,835.264 997.777,834.871 997.732,834.467C997.604,833.322 997.917,832.066 997.462,831.001C996.811,829.479 996.286,827.867 995.826,826.223C995.159,823.838 994.631,821.382 994.047,819.036C993.51,816.88 992.799,814.769 991.983,812.698C990.741,809.545 989.257,806.485 987.769,803.502C987.338,802.64 986.949,801.751 986.585,800.846C985.194,797.387 984.181,793.685 982.533,790.381L980.441,787.118C980.245,786.62 980.125,786.076 980.062,785.5C979.875,783.785 980.257,781.745 979.73,780.111C979.571,779.596 976.961,777.35 976.685,777.074C975.045,775.45 973.509,773.689 972.043,771.839C966.427,764.76 961.79,756.41 955.469,750.111C953.514,748.154 950.925,747.011 948.736,745.395C948.127,744.945 947.545,744.461 947.008,743.924C940.956,737.869 934.605,731.601 927.824,725.949C923.321,722.197 918.63,718.716 913.707,715.758C909.606,713.294 905.389,711.325 901.121,709.591C890.81,705.402 880.204,702.562 870.177,697.539C866.704,695.793 862.2,695.725 858.42,694.362C857.36,693.98 856.354,693.505 855.43,692.886C852.311,690.797 849.128,688.701 845.978,686.525C843.89,685.083 841.817,683.605 839.785,682.073C837.895,680.647 834.945,680.444 832.747,679.347C832.059,679.003 831.434,678.585 830.906,678.055C829.685,676.816 821.958,671.818 821.628,671.615ZM924.399,1037.03C923.729,1037.13 923.118,1037.48 922.513,1037.91C921.321,1038.76 920.178,1039.96 918.901,1040.92C917.369,1042.08 915.751,1043.17 914.087,1044.23C910.352,1046.61 906.395,1048.82 902.783,1051.39C901.923,1051.99 901.018,1052.52 900.091,1053.01C898.038,1054.1 895.874,1054.99 893.907,1056.22C893.694,1056.35 890.783,1058.99 890.707,1059.16C894.657,1059.23 898.608,1059.36 902.562,1059.6C902.778,1059.61 902.975,1059.69 903.137,1059.81C903.425,1059.8 903.713,1059.79 904.003,1059.79C905.352,1059.77 906.701,1059.84 908.05,1059.86C920.218,1060.08 932.401,1060.26 944.585,1060.38C944.249,1059.98 943.917,1059.56 943.59,1059.13C941.713,1056.67 939.944,1053.82 937.905,1051.49C934.909,1048.07 931.377,1045.39 928.326,1042.14C926.986,1040.71 925.737,1039.18 924.654,1037.45C924.568,1037.31 924.483,1037.17 924.399,1037.03ZM698.313,925.305C697.407,926.374 696.629,927.593 695.912,928.884C693.683,932.902 692.03,937.579 689.414,940.93C687.963,942.79 686.027,944.355 684.379,946.095C683.722,946.787 683.114,947.508 682.618,948.299C682.207,948.955 681.849,949.639 681.523,950.34C680.143,953.309 679.302,956.568 677.644,959.461L665.788,979.772C663.943,983.082 662.673,986.652 661.058,990.109C660.353,991.617 659.585,993.105 658.683,994.543C650.524,1007.55 641.597,1019.99 633.29,1032.86C629.748,1038.35 626.316,1043.92 623.112,1049.65C622.687,1050.41 622.194,1051.15 621.655,1051.87C619.617,1054.6 615.239,1060.03 615.099,1060.1C622.387,1060 629.679,1059.56 636.965,1059.46C638.29,1059.44 660.819,1060.35 667.153,1060.27L723.773,1059.21C723.766,1059.21 723.442,1058.66 723.319,1058.28C722.881,1056.92 722.738,1054.38 722.654,1053.71C722.412,1051.78 722.102,1049.86 721.763,1047.96C720.955,1043.43 719.983,1038.96 719.334,1034.42C719.255,1033.87 719.097,1033.33 718.895,1032.81C717.968,1030.4 716.225,1028.22 715.62,1025.6C714.631,1021.3 714.523,1016.74 713.806,1012.37C713.631,1011.31 713.42,1010.26 713.146,1009.24C712.581,1007.11 711.886,1005.2 711.379,1003.15C711.157,1002.26 710.97,1001.34 710.841,1000.37C710.442,997.364 710.167,994.332 709.95,991.292C709.45,984.256 709.269,977.176 708.583,970.237C708.358,967.958 708.458,965.458 708.255,963.073C708.172,962.099 708.037,961.146 707.797,960.24L701.26,936.349C700.742,934.41 699.894,932.345 699.334,930.297C699.073,929.345 698.872,928.396 698.783,927.464C698.768,927.28 698.382,925.546 698.313,925.305ZM588.412,939.061C588.615,939.069 589.446,942.265 589.754,943.061C590.337,944.56 590.614,946.236 591.113,947.792C591.307,948.399 591.535,948.986 591.849,949.529C593.331,952.101 594.435,954.989 595.351,957.986C596.676,962.318 597.609,966.878 598.794,970.992C600.08,975.477 601.079,980.233 601.854,985.028C602.626,989.807 603.175,994.626 603.566,999.255C603.868,1002.84 604.394,1006.43 605.032,1010.01C606.531,1018.43 608.652,1026.82 610.038,1035.09C610.727,1039.21 611.601,1043.21 612.221,1047.28C612.49,1049.04 612.711,1050.82 612.851,1052.62C612.929,1053.65 613.753,1056.87 614.187,1058.67C614.548,1058.02 614.969,1057.38 615.432,1056.74C617.338,1054.12 619.954,1051.61 621.514,1048.76C624.707,1042.98 628.125,1037.36 631.666,1031.82C639.915,1018.92 648.813,1006.47 656.928,993.446C657.78,992.078 658.503,990.663 659.168,989.229C660.794,985.721 662.076,982.103 663.936,978.743L675.742,958.374C677.362,955.531 678.164,952.326 679.51,949.408C679.872,948.622 680.272,947.856 680.73,947.119C681.301,946.203 681.997,945.362 682.754,944.559C684.348,942.867 686.231,941.353 687.633,939.544C690.171,936.271 691.74,931.694 693.901,927.772C694.607,926.489 695.375,925.273 696.246,924.181C695.774,924.404 695.218,924.519 694.605,924.544C693.21,924.6 691.461,924.16 690.202,924.162C686.699,924.166 682.8,924.968 679.102,925.259C677.371,925.395 675.683,925.422 674.091,925.225C669.6,924.663 665.047,925.524 660.573,925.47C659.389,925.455 658.21,925.376 657.04,925.202C654.25,924.789 651.026,924.46 647.797,924.308C644.581,924.157 641.359,924.181 638.56,924.477C637.317,924.608 633.819,926.024 633.139,926.301C631.947,926.786 630.276,927.233 628.332,927.711C619.72,929.824 605.353,932.049 601.351,933.762C596.199,935.964 591.131,937.989 586.155,939.954C586.209,940.139 586.237,940.459 586.209,940.89C586.114,942.335 585.039,945.668 584.811,946.88C584.307,949.558 583.254,952.114 582.515,954.74C582.217,955.795 581.973,956.863 581.851,957.958C581.715,959.162 581.756,960.197 581.613,961.292C581.548,961.797 581.446,962.313 581.282,962.859C581.106,963.441 580.86,963.978 580.576,964.491C580.01,965.515 579.271,966.432 578.786,967.52C578.483,968.199 578.293,968.968 578.152,969.774C577.795,971.801 577.729,974.044 577.266,975.884C576.325,979.627 575.101,983.384 573.718,987.098C571.653,992.638 569.234,998.085 566.874,1003.25C565.036,1007.28 564.156,1011.73 562.714,1015.9C562.337,1017 561.922,1018.07 561.446,1019.11C560.011,1022.25 558.247,1025.2 556.66,1028.25C555.998,1029.53 555.366,1030.82 554.807,1032.15C552.909,1036.66 551.183,1041.41 549.146,1045.93C548.257,1047.91 547.298,1049.84 546.268,1051.7C545.745,1052.67 541.978,1059.3 541.919,1059.44C546.149,1059.29 550.372,1059.16 554.582,1059.1C560.206,1059.03 565.824,1059.08 571.438,1059.18C584.515,1059.43 597.574,1060 610.659,1060.11C611.243,1060.12 611.827,1060.12 612.411,1060.12C612.374,1060.02 610.836,1054 610.74,1052.78C610.607,1051.03 610.394,1049.31 610.135,1047.6C609.522,1043.54 608.656,1039.54 607.974,1035.43C606.602,1027.16 604.492,1018.78 603.01,1010.37C602.367,1006.72 601.842,1003.07 601.542,999.423C601.165,994.843 600.631,990.075 599.877,985.346C599.125,980.627 598.153,975.948 596.896,971.535C595.732,967.424 594.816,962.872 593.518,958.541C592.66,955.678 591.636,952.912 590.24,950.449C589.866,949.787 589.584,949.076 589.361,948.338C588.897,946.803 588.685,945.147 588.15,943.663C587.931,943.062 586.815,939.595 587.041,939.604M507.577,997.63C507.13,998.625 506.704,999.627 506.299,1000.64C502.15,1010.99 500.123,1022.16 498.15,1033.93C497.159,1039.71 498.112,1059.36 498.025,1059.51C498.02,1059.59 505.841,1059.72 506.027,1059.87C511.889,1060.14 517.774,1060.14 523.667,1060.02C528.665,1059.92 533.669,1059.74 538.667,1059.56C538.575,1059.4 538.458,1059.24 538.346,1059.06C537.825,1058.24 537.145,1057.38 536.81,1056.87C535.726,1055.23 534.655,1053.28 533.682,1051.28C532.718,1049.3 531.849,1047.27 531.158,1045.44C528.466,1038.35 525.528,1030.93 522.206,1023.78C519.989,1019 517.601,1014.34 515.003,1009.97L509.502,1000.18C508.904,999.213 508.118,998.397 507.577,997.63ZM799.224,950.726C798.607,952.057 797.921,953.814 797.535,954.353C795.347,957.415 792.521,960.145 790.193,963.147C789.228,964.392 788.351,965.684 787.654,967.075C787.343,967.698 786.989,968.291 786.609,968.868C785.203,970.997 783.408,972.864 782.255,975.168C781.51,976.656 781.033,978.374 780.383,979.951C780.069,980.712 779.717,981.443 779.292,982.111C778.722,983.006 778.075,983.858 777.38,984.683C774.797,987.753 771.518,990.44 769.309,993.748C765.02,1000.17 761.28,1007.21 756.898,1013.73C754.991,1016.56 752.962,1019.3 750.721,1021.85C749.845,1022.85 749.046,1023.88 748.285,1024.92C746.438,1027.45 744.804,1030.07 742.843,1032.58C740.558,1035.5 737.984,1038.08 735.954,1041.05C734.668,1042.93 733.604,1044.96 732.999,1047.35C732.698,1048.54 732.23,1049.7 731.65,1050.82C730.809,1052.43 729.737,1053.96 728.647,1055.34C728.557,1055.46 726.248,1059.15 726.22,1059.17L751.568,1058.7C753.166,1058.66 754.76,1058.68 756.353,1058.71C761.828,1058.84 767.282,1059.26 772.772,1059.16C772.933,1059.02 773.15,1058.94 773.381,1058.96C773.683,1058.94 773.969,1058.88 774.272,1058.88C776.93,1058.86 779.567,1059.18 782.211,1059.23C786.655,1059.32 791.098,1059.27 795.558,1059.36C805.682,1059.59 815.78,1059.7 825.878,1059.7C827.545,1059.7 829.211,1059.7 830.878,1059.69C829.786,1057.49 828.317,1051.95 827.863,1051.04C827.602,1050.52 827.298,1049.92 827.056,1049.31C826.87,1048.84 826.721,1048.38 826.641,1047.94L826.443,1044.86C826.299,1043.4 825.971,1042.02 825.556,1040.66C824.521,1037.26 822.967,1034.05 822.172,1030.6C820.297,1022.44 819.02,1014.03 817.351,1005.76C816.637,1002.23 815.853,998.73 814.917,995.287C813.798,991.155 812.487,986.896 811.051,982.683C809.612,978.463 808.047,974.289 806.413,970.34C805.211,967.429 804.719,964.359 803.718,961.389C803.484,960.695 803.221,960.006 802.91,959.326L799.608,951.615C799.513,951.389 799.367,951.075 799.224,950.726ZM889.109,994.631C888.923,995.184 888.76,995.751 888.524,996.214C888.113,997.021 887.411,997.876 886.562,998.722C884.957,1000.32 882.816,1001.92 881.549,1003.17C879.511,1005.21 877.532,1007.3 875.594,1009.43C867.781,1018.02 860.586,1027.17 852.413,1035.37C849.183,1038.6 846.449,1042.57 843.397,1046.12C842.032,1047.7 840.6,1049.2 839.055,1050.53C838.426,1051.07 837.883,1051.69 837.374,1052.34C836.558,1053.39 835.828,1054.52 835.018,1055.57C834.591,1056.11 833.389,1059.38 833.52,1059.68C841.076,1059.65 848.635,1059.56 856.209,1059.47C865.48,1059.39 874.734,1059.11 883.99,1059.11C885.402,1059.11 886.814,1059.12 888.227,1059.13C888.283,1058.94 889.999,1055.89 890.15,1054.69C890.365,1052.99 890.381,1051.14 890.302,1049.28C890.18,1046.43 889.837,1043.53 889.604,1040.92C889.543,1040.24 889.599,1039.59 889.718,1038.95C889.947,1037.74 890.454,1036.59 890.547,1035.31C890.693,1033.33 890.717,1031.3 890.683,1029.24C890.605,1024.44 890.208,1019.53 890.221,1014.82C890.241,1011.75 890.331,1008.69 890.331,1005.63C890.33,1003.61 890.294,1001.59 890.159,999.564C890.117,998.941 889.47,996.631 889.109,994.631ZM583.932,940.831C571.208,945.844 559.103,950.571 547.758,956.991C537.096,963.024 527.108,970.558 517.912,981.263C513.972,985.85 510.912,990.679 508.468,995.722L511.099,999.168L516.758,1008.92C519.428,1013.32 521.887,1018.03 524.177,1022.85C527.584,1030.03 530.613,1037.47 533.388,1044.59C534.072,1046.34 534.929,1048.29 535.878,1050.2C536.82,1052.09 537.852,1053.93 538.896,1055.48C539.285,1056.06 540.11,1057.08 540.67,1058C541.739,1056.06 544.297,1051.85 544.793,1050.91C546.067,1048.45 547.184,1045.86 548.261,1043.24C549.883,1039.3 551.395,1035.27 552.995,1031.4C553.57,1030.01 554.218,1028.66 554.9,1027.34C556.459,1024.31 558.199,1021.39 559.609,1018.28C561.421,1014.28 562.284,1009.82 563.731,1005.61C564.106,1004.52 564.518,1003.45 564.993,1002.4C567.316,997.266 569.699,991.859 571.73,986.36C573.075,982.717 574.265,979.033 575.177,975.362C575.624,973.567 575.672,971.378 576.014,969.402C576.186,968.412 576.427,967.471 576.797,966.636C577.305,965.489 578.069,964.515 578.662,963.436C578.871,963.055 579.055,962.66 579.184,962.23C579.357,961.65 579.437,961.113 579.483,960.583C579.563,959.655 579.548,958.747 579.661,957.714C579.795,956.5 580.06,955.314 580.389,954.143C581.107,951.579 582.141,949.086 582.63,946.471C582.839,945.349 583.543,942.358 583.932,940.831ZM700.761,924.594C700.773,924.667 700.645,926.961 700.68,927.274C700.767,928.099 700.956,928.937 701.195,929.778C701.777,931.825 702.646,933.886 703.185,935.824L709.932,959.671C710.207,960.698 710.367,961.778 710.464,962.883C710.672,965.256 710.577,967.746 710.806,970.014C711.509,976.972 711.709,984.073 712.224,991.128C712.442,994.122 712.717,997.107 713.114,1000.07C713.232,1000.95 713.405,1001.79 713.608,1002.6C714.115,1004.63 714.81,1006.53 715.375,1008.64C715.669,1009.74 715.898,1010.86 716.086,1012C716.801,1016.31 716.901,1020.83 717.883,1025.08C718.465,1027.59 720.176,1029.66 721.067,1031.97C721.333,1032.66 721.535,1033.36 721.641,1034.1C722.285,1038.61 723.255,1043.05 724.056,1047.55C724.402,1049.49 724.717,1051.45 724.963,1053.42C725.025,1053.92 724.831,1056.36 725.129,1057.4C725.826,1056.23 727.177,1054.4 727.272,1054.27C728.279,1052.96 729.266,1051.52 730.042,1049.99C730.547,1048.99 730.963,1047.96 731.223,1046.91C731.867,1044.29 733.008,1042.06 734.4,1039.99C736.432,1036.98 739.013,1034.34 741.304,1031.38C743.237,1028.88 744.841,1026.27 746.663,1023.74C747.455,1022.65 748.287,1021.57 749.2,1020.52C751.373,1018.02 753.335,1015.35 755.185,1012.58C759.547,1006.05 763.281,999.008 767.557,992.58C769.804,989.205 773.128,986.45 775.757,983.319C776.39,982.565 776.981,981.788 777.5,980.971C777.86,980.406 778.152,979.786 778.417,979.142C779.085,977.516 779.583,975.749 780.348,974.215C780.66,973.592 781.013,972.998 781.392,972.422C782.797,970.289 784.591,968.422 785.742,966.119C786.499,964.603 787.45,963.192 788.5,961.835C790.809,958.853 793.616,956.145 795.786,953.104C796.301,952.383 797.35,949.432 798.042,948.356C798.344,947.887 798.701,947.643 798.996,947.535C797.382,946.806 795.763,946.095 794.137,945.444C791.817,944.515 789.484,943.71 787.129,943.163C785.151,942.704 783.18,942.195 781.213,941.658C773.438,939.533 765.729,936.947 757.902,935.129C754.443,934.327 750.844,933.86 747.32,933.194C745.768,932.9 744.23,932.569 742.723,932.156C737.94,930.845 733.066,928.732 728.132,927.329C726.052,926.737 723.962,926.273 721.862,926.061L701.673,924.775C701.509,924.759 701.18,924.689 700.761,924.594ZM800.971,948.434C800.913,948.692 801.289,950.868 801.289,950.868L804.719,958.491C805.064,959.232 805.357,959.984 805.618,960.742C806.623,963.661 807.119,966.685 808.322,969.544C809.993,973.526 811.598,977.733 813.07,981.99C814.54,986.241 815.877,990.541 817.022,994.713C817.976,998.2 818.778,1001.75 819.506,1005.33C821.184,1013.57 822.47,1021.96 824.353,1030.09C825.139,1033.49 826.682,1036.66 827.706,1040C828.165,1041.5 828.523,1043.03 828.684,1044.63L828.86,1047.53L829.882,1050.04C830.233,1050.74 831.214,1054.19 832.126,1056.74C832.621,1055.91 833.269,1054.91 833.573,1054.49C834.359,1053.41 835.063,1052.26 835.858,1051.19C836.43,1050.42 837.049,1049.69 837.764,1049.05C838.733,1048.19 839.646,1047.25 840.533,1046.28C844.132,1042.32 847.238,1037.65 850.96,1033.92C853,1031.89 854.979,1029.8 856.922,1027.67C864.726,1019.12 871.951,1009.99 880.169,1001.79C881.416,1000.53 883.532,998.905 885.11,997.286C885.775,996.604 886.341,995.928 886.658,995.282C887.22,994.135 887.413,992.438 888.375,991.581C888.643,991.343 889.352,990.98 889.369,990.963C886.533,988.878 883.719,986.775 881.082,984.511C879.624,983.26 878.23,982.317 876.822,981.522C874.542,980.234 872.225,979.328 869.549,978.17C868.696,977.8 867.898,977.308 867.131,976.752C865.515,975.582 864.046,974.117 862.401,973.119C861.419,972.509 858.283,969.679 856.021,968.107C855.808,968.124 855.588,968.072 855.397,967.945C854.994,967.713 854.585,967.495 854.174,967.281C854.013,967.337 853.833,967.343 853.657,967.286C853.389,967.199 853.196,966.986 853.124,966.733C853.051,966.694 852.978,966.655 852.905,966.615C849.62,964.847 846.21,963.229 842.609,961.922C832.125,958.116 820.524,956.07 810.341,952.419C807.227,951.301 804.108,949.867 800.971,948.434ZM891.338,992.408C891.198,992.588 892.058,998.588 892.13,999.412C892.309,1001.48 892.395,1003.55 892.429,1005.61C892.48,1008.68 892.421,1011.75 892.441,1014.82C892.454,1019.51 892.88,1024.42 892.981,1029.2C893.025,1031.32 893.005,1033.42 892.863,1035.47C892.768,1036.84 892.254,1038.08 892.015,1039.38C891.936,1039.81 891.893,1040.25 891.936,1040.71C892.18,1043.35 892.534,1046.29 892.665,1049.17C892.753,1051.12 892.74,1053.03 892.533,1054.82C892.687,1054.71 892.805,1054.63 892.869,1054.59C894.855,1053.3 897.042,1052.35 899.121,1051.21C899.965,1050.75 900.79,1050.26 901.571,1049.69C905.716,1046.72 910.302,1044.17 914.521,1041.37C915.58,1040.67 916.619,1039.96 917.617,1039.21C919.176,1038.05 920.554,1036.57 922.038,1035.71C922.474,1035.46 922.92,1035.26 923.38,1035.12C921.437,1031.11 920.232,1026.38 918.426,1022.17C917.522,1020.06 916.462,1018.08 915.043,1016.43C913.922,1015.12 912.879,1013.59 911.765,1012.2C911.306,1011.62 910.835,1011.08 910.339,1010.58C909.211,1009.45 907.89,1008.75 906.746,1007.73C906.205,1007.25 905.7,1006.7 905.256,1006.03C904.335,1004.65 903.525,1003.21 902.553,1001.88C901.955,1001.05 901.293,1000.27 900.492,999.569C899.278,998.505 898.024,997.479 896.745,996.476C894.976,995.089 893.16,993.746 891.338,992.408ZM1212.48,870.051C1210.58,875.832 1208.73,881.63 1206.63,887.317C1198.54,909.024 1190.05,930.552 1182.18,952.347L1185.42,943.459C1185.59,943.612 1185.75,943.835 1185.87,944.152C1186.18,945 1186.53,947.225 1186.65,947.509C1187.37,949.225 1189.1,953.583 1188.75,956.673C1188.54,958.519 1187.66,959.958 1185.85,960.563C1182.28,961.756 1178.09,962.336 1173.87,962.374C1169.72,962.411 1165.54,961.926 1161.88,961.011C1154.81,959.242 1147.72,957.926 1140.69,956.153C1137.67,955.39 1134.66,954.543 1131.67,953.543C1127.65,952.202 1123.81,950.222 1120.08,947.948C1114.65,944.633 1109.48,940.693 1104.38,937.278C1103.92,936.975 1103.51,936.558 1103.14,936.061C1102.12,934.713 1101.39,932.653 1100.3,931.552C1098.49,929.732 1096.48,928.084 1094.65,926.2C1093.85,925.377 1093.08,924.511 1092.38,923.57C1090.91,921.588 1090,919.027 1089.47,916.284C1088.74,912.468 1088.71,908.297 1088.72,904.974C1088.72,904.418 1089.18,903.966 1089.73,903.966C1090.29,903.966 1090.74,904.418 1090.74,904.974C1090.75,908.179 1090.79,912.204 1091.53,915.88C1091.63,916.405 1091.75,916.922 1091.88,917.428C1091.97,916.964 1092.05,916.505 1092.18,916.045C1092.26,915.773 1092.38,915.517 1092.49,915.253C1095.59,907.343 1098.84,899.496 1102.12,891.663C1109.41,874.267 1116.94,856.975 1124.44,839.672L1110.04,872.997C1108.93,873.233 1107.64,873.299 1106.22,873.229C1100.74,872.957 1093.35,870.704 1088.25,871.593C1085.44,872.071 1082.79,873.086 1080.26,874.379C1076.38,876.364 1072.79,879.015 1069.37,881.565C1067.73,882.79 1066.28,884.344 1064.94,886.023C1062.87,888.603 1061.03,891.475 1059.14,893.983C1052.25,903.175 1048.07,913.704 1046.72,924.641C1045.38,935.487 1046.84,946.728 1051.15,957.449C1052.83,961.641 1054.94,967.069 1057.76,971.712C1059.62,974.773 1061.8,977.495 1064.4,979.225C1065.29,979.818 1066.13,980.524 1066.93,981.303C1069.77,984.056 1072.14,987.777 1075.17,990.192C1076.2,991.017 1077.29,991.626 1078.4,992.126C1081.32,993.429 1084.42,994.043 1087.37,995.516C1091.01,997.339 1093.6,1000.3 1096.82,1002.64C1098.04,1003.53 1099.37,1004.32 1100.9,1004.9C1104.61,1006.29 1108.39,1007.4 1112.2,1008.35C1118,1009.78 1123.88,1010.82 1129.72,1011.8C1130.5,1011.93 1131.26,1012.16 1132.02,1012.47C1134.53,1013.48 1136.95,1015.32 1139.65,1015.77C1143.64,1016.44 1148.4,1016.74 1153.11,1016.64C1154.08,1016.62 1164.13,1015.64 1166.47,1015.06C1168.11,1014.65 1169.85,1014.51 1171.64,1014.5C1175.42,1014.47 1179.42,1015.05 1182.97,1014.54C1186.44,1014.05 1189.68,1013.19 1192.84,1012.13C1197.71,1010.49 1202.37,1008.39 1207.28,1006.43C1210.7,1005.06 1214.17,1003.91 1217.56,1002.5C1219.75,1001.59 1221.9,1000.57 1223.99,999.318C1229.92,995.759 1235.12,990.699 1239.17,984.854C1243.25,978.976 1246.16,972.306 1247.49,965.581C1249.44,955.744 1249.04,946.519 1247.08,937.673C1244.09,924.178 1237.46,911.561 1229.88,898.995C1229.66,898.613 1229.47,898.196 1229.3,897.757C1228.82,896.459 1228.66,894.909 1227.94,893.832C1225.39,889.991 1223.09,885.684 1220.63,881.681C1219.57,879.958 1218.49,878.292 1217.33,876.748C1216.39,875.496 1214.54,873.49 1213.37,871.705C1212.99,871.134 1212.69,870.574 1212.48,870.051ZM1184.35,946.37C1183.62,948.361 1182.9,950.353 1182.18,952.347C1181.39,954.522 1181.02,956.898 1179.82,958.874C1179.66,959.137 1179.45,959.266 1179.24,959.491C1179.22,959.55 1179.19,959.605 1179.16,959.656C1181.26,959.384 1183.27,958.951 1185.11,958.34C1186.34,957.936 1186.53,956.676 1186.48,955.309C1186.39,952.714 1185.23,949.619 1184.72,948.282C1184.66,948.101 1184.5,947.253 1184.35,946.37ZM1150.88,956.087C1151.03,955.799 1151.14,955.505 1151.32,955.224C1153.1,952.504 1154.67,949.394 1155.07,945.945C1155.5,942.136 1154.88,938.18 1153.02,935.064C1152.83,934.749 1152.56,934.512 1152.28,934.304C1151.66,933.859 1150.94,933.532 1150.32,933.136L1146.17,930.327C1144.87,929.572 1143.59,928.499 1142.19,927.664C1141.41,927.192 1140.58,926.798 1139.67,926.642C1138.77,926.487 1137.83,926.425 1136.9,926.404C1135.42,926.372 1133.93,926.439 1132.47,926.433C1131.26,926.428 1130.07,926.082 1128.87,925.938C1128.46,925.89 1128.05,925.867 1127.64,925.917C1125.77,926.142 1124.04,926.771 1122.43,927.642C1120.77,928.546 1119.23,929.705 1117.79,930.951C1117.02,931.62 1116.32,932.5 1115.76,933.455C1115.19,934.415 1114.77,935.451 1114.59,936.44C1114.5,936.898 1114.35,939.304 1113.9,940.139C1113.75,940.434 1113.58,940.644 1113.42,940.781C1116,942.569 1118.61,944.344 1121.29,945.969C1123.35,947.219 1125.44,948.379 1127.58,949.384L1127.73,948.211C1127.93,947.377 1128.18,946.546 1128.47,945.725C1128.89,944.517 1129.38,943.333 1129.86,942.193L1130.51,939.35L1131.64,936.807C1131.67,936.612 1131.61,934.971 1131.88,934.457C1132.13,933.973 1132.53,933.788 1132.96,933.78C1133.03,933.779 1133.33,933.816 1133.71,934.045C1134.14,934.305 1135.12,934.992 1135.38,935.116C1136.64,935.713 1137.85,936.188 1139.03,936.77C1139.86,937.183 1140.67,937.651 1141.47,938.232C1141.72,938.423 1141.95,938.667 1142.14,938.951C1142.56,939.562 1142.77,940.461 1143.17,941.001C1143.99,942.092 1144.73,943.542 1145.18,945.08C1145.64,946.643 1145.81,948.291 1145.51,949.748C1145.37,950.425 1145.2,951.127 1144.95,951.792C1144.77,952.277 1144.54,952.745 1144.24,953.177C1144.07,953.403 1143.35,953.826 1143.09,954.157C1143.09,954.204 1143.09,954.253 1143.05,954.3C1143.05,954.302 1143.05,954.307 1143.05,954.313C1145.65,954.941 1148.26,955.517 1150.88,956.087ZM1143.04,954.312C1143.06,954.268 1143.07,954.223 1143.08,954.176L1143.08,954.172L1143.09,954.157L1143.09,954.096L1143.08,954.176L1143.03,954.253C1143.02,954.272 1143.02,954.288 1143.01,954.305L1143.04,954.312ZM1133.87,881.305C1133.64,881.644 1133.47,882.615 1133.37,882.794C1132.91,883.601 1132.64,884.416 1132.45,885.243C1132.13,886.603 1132.04,887.995 1131.84,889.44C1131.41,892.497 1131.61,895.793 1132.44,898.862C1133.27,901.967 1134.75,904.842 1136.9,906.981L1138.67,909.191C1140.28,910.154 1142.07,911.571 1143.94,912.657C1145.1,913.329 1146.29,913.874 1147.49,914.042C1149.25,914.29 1150.96,914.303 1152.64,914.176C1155.28,913.978 1157.86,913.44 1160.49,912.906C1161.41,912.719 1162.73,912.594 1163.9,912.278C1164.54,912.105 1165.13,911.892 1165.51,911.512C1167.01,910.006 1168.56,908.521 1170.05,906.91C1170.99,905.897 1171.9,904.835 1172.77,903.682C1173.36,902.883 1173.69,901.594 1173.86,900.28C1174.04,898.898 1174.01,897.477 1173.81,896.481C1172.91,892.011 1170.7,886.457 1167.41,882.133C1165.24,879.264 1162.59,876.93 1159.51,875.905C1159.22,875.81 1158.9,875.798 1158.56,875.806C1157.46,875.833 1156.25,876.076 1155.27,875.955L1147.99,875.115C1146.56,874.871 1145.11,875.068 1143.7,875.497C1141.45,876.184 1139.3,877.459 1137.5,878.645C1137.1,878.906 1135.58,880.598 1134.85,880.48C1134.86,880.625 1134.82,880.773 1134.75,880.909C1134.57,881.226 1134.21,881.377 1133.87,881.305ZM701.52,749.461C694.773,754.605 677.928,772.394 678.049,772.567C668.657,787.787 665.854,804.416 668.35,820.491C671.126,838.367 680.468,855.557 694.575,869.352C704.738,879.283 716.862,888.206 730.05,894.864C743.289,901.547 757.599,905.947 772.077,906.807C779.518,907.248 787.659,906.458 795.665,904.876C803.624,903.302 811.451,900.947 818.321,898.255C825.576,895.412 833.248,891.79 840.001,887.124C844.599,883.947 848.772,880.285 852.11,876.063C869.142,854.51 870.72,828.648 862.584,805.228C854.535,782.058 836.961,761.294 815.549,749.534C803.406,742.868 789.182,737.083 774.572,733.932C759.796,730.746 744.628,730.255 730.801,734.222C720.156,737.278 710.375,742.71 701.52,749.461ZM681.192,771.759C671.161,787.044 668.152,803.881 670.714,820.121C673.456,837.496 682.565,854.191 696.299,867.586C706.291,877.341 718.207,886.108 731.17,892.645C744.105,899.169 758.082,903.474 772.225,904.309C779.467,904.738 787.388,903.959 795.179,902.419C802.988,900.875 810.668,898.565 817.408,895.924C824.491,893.149 831.986,889.621 838.579,885.066C842.97,882.032 846.961,878.544 850.148,874.512C866.624,853.686 868.103,828.682 860.257,806.035C852.419,783.41 835.294,763.119 814.406,751.613C802.46,745.03 788.465,739.311 774.084,736.183C759.685,733.051 744.898,732.514 731.411,736.355C721.019,739.314 711.474,744.605 702.819,751.169C695.006,757.094 681.192,771.759 681.192,771.759ZM1147.15,894.847C1147.03,895.624 1145.65,898.655 1145.65,898.909C1145.65,899.534 1146.16,900.042 1146.79,900.042C1149.3,900.028 1152.41,902.091 1155.32,902.598C1156.91,902.876 1158.45,902.758 1159.85,901.905C1160.4,901.575 1160.83,901.21 1161.21,900.811C1161.73,900.262 1162.15,899.648 1162.64,898.977C1162.89,898.649 1163.13,898.23 1163.33,897.788C1163.53,897.362 1163.69,896.915 1163.79,896.515C1164.03,895.517 1163.61,894.209 1162.72,892.9C1161.27,890.784 1158.68,888.544 1157.53,887.692C1157.3,887.52 1157.05,887.397 1156.79,887.31C1156.19,887.11 1155.48,887.26 1154.92,886.941C1154.21,886.545 1153.64,886.121 1152.97,885.778C1152.66,885.615 1152.32,885.469 1151.95,885.348L1150.83,884.85C1150.54,884.703 1150.19,884.718 1149.91,884.889C1149.63,885.061 1148.17,888.782 1148.17,888.782C1147.88,889.433 1147.69,890.07 1147.58,890.704C1147.34,892.059 1147.42,893.398 1147.15,894.847ZM1133.88,881.293C1133.96,881.312 1134.05,881.323 1134.1,881.317C1134.15,881.311 1134.17,881.289 1134.12,881.241C1134.04,881.149 1133.95,881.184 1133.88,881.293ZM1154.75,827.582C1154.64,828.667 1154.36,830.128 1154.35,830.361C1154.29,831.662 1154.31,832.923 1154.37,834.176C1154.46,836.104 1154.65,838.009 1154.79,839.995C1155.01,843.054 1155.23,846.628 1155.2,850.096C1155.18,852.483 1155.04,854.82 1154.7,856.911C1154.65,857.226 1154.15,859.514 1153.96,860.73L1156.49,861.346C1157.79,861.665 1159.42,862.479 1160.84,862.999C1161.42,863.211 1161.94,863.379 1162.37,863.378C1162.55,863.378 1162.73,863.426 1162.88,863.511C1163.78,862.383 1164.68,861.212 1165.62,860.091C1166.38,859.181 1167.17,858.308 1167.98,857.496C1168.31,857.167 1168.95,855.972 1169.5,855.372C1169.92,854.912 1170.38,854.719 1170.72,854.719C1171.04,854.719 1171.33,854.889 1171.49,855.146C1171.75,855.323 1171.88,855.635 1171.83,855.957C1171.8,856.104 1171.73,856.235 1171.64,856.34C1171.63,856.379 1171.61,856.426 1171.6,856.468C1171.41,857.827 1171.63,861.421 1171.64,861.9L1171.64,863.569C1171.64,863.903 1171.44,865.743 1171.29,867.104L1171.3,867.105C1171.75,867.13 1172.09,867.514 1172.07,867.96C1172.06,868.081 1172.03,868.193 1171.97,868.293C1173.26,869.199 1175.75,870.421 1176.23,870.598C1179.11,871.733 1181.88,873.384 1184.75,874.302C1185.93,874.678 1187.12,874.933 1188.35,874.941C1188.99,873.095 1190.35,869.465 1190.63,868.793C1192.03,865.37 1193.59,862.057 1195.44,858.961C1197.15,856.122 1199.1,853.468 1201.38,851.056C1201.03,850.501 1198.37,849.973 1197.83,849.694C1197.37,849.458 1196.94,849.154 1196.52,848.81C1195.73,848.153 1195.01,847.342 1194.17,846.799C1193.84,846.582 1193.11,846.123 1192.61,845.698C1192.51,845.793 1192.42,845.893 1192.33,845.999C1191.85,846.568 1191.4,847.217 1191.05,847.624L1185.74,853.022C1185.32,853.496 1183.53,855.235 1182.84,856.013C1182.89,856.203 1182.88,856.329 1182.73,856.236C1182.75,856.183 1182.78,856.127 1182.79,856.068L1182.84,856.013L1182.82,855.925C1182.81,855.974 1182.8,856.022 1182.79,856.068C1182.74,856.126 1182.64,856.181 1182.68,856.207L1182.73,856.236C1182.64,856.399 1182.5,856.534 1182.32,856.611C1182.2,856.662 1182.1,856.688 1182,856.696C1181.95,856.706 1181.9,856.711 1181.85,856.711C1181.59,856.748 1181.23,856.605 1181.05,856.008C1181.03,855.944 1181.02,855.8 1181.04,855.594C1181.06,855.11 1181.36,853.96 1181.44,853.694C1181.57,853.296 1181.65,852.823 1181.71,852.333C1181.8,851.56 1181.82,850.745 1181.82,850.073C1181.83,849.208 1181.9,848.401 1182,847.616C1182.23,845.836 1182.65,844.181 1182.84,842.208C1182.87,841.911 1182.89,841.161 1182.99,840.523C1182.8,840.47 1182.61,840.397 1182.42,840.307C1181.83,840.017 1181.27,839.513 1180.73,839.234L1176.49,838.096C1176.11,837.925 1175.4,837.377 1174.81,836.901C1174.52,837.393 1174.21,837.875 1173.89,838.351C1172.67,840.129 1171.27,841.821 1170.18,843.672C1169.99,843.999 1169.21,846.233 1168.55,846.268C1168.56,846.366 1168.55,846.468 1168.52,846.568C1168.4,846.998 1167.95,847.245 1167.52,847.12C1167.33,847.066 1167.16,846.97 1167.03,846.827C1166.96,846.845 1166.89,846.855 1166.82,846.855C1166.37,846.855 1166,846.489 1166,846.039L1165.71,834.212C1165.71,833.639 1165.51,832.016 1165.69,831.074C1164.75,830.489 1163.52,829.778 1162.17,829.298C1160.53,828.719 1158.82,828.327 1157.64,828.316C1156.84,828.298 1155.62,827.915 1154.75,827.582ZM1152.16,730.023L1149.87,730.345L1144.6,730.703C1142.73,730.714 1140.87,731.22 1139.05,731.935C1136.27,733.031 1133.55,734.627 1130.99,735.915C1128.76,737.029 1126.69,738.555 1124.81,740.292C1122.9,742.05 1121.18,744.024 1119.69,746.016C1119.39,746.423 1119.03,746.783 1118.65,747.113C1117.39,748.186 1115.73,748.858 1114.75,750.171C1113.19,752.26 1111.75,754.59 1110.44,757.02C1108.47,760.655 1106.78,764.516 1105.33,768.149C1104.88,769.28 1104.57,770.499 1104.32,771.746C1103.93,773.681 1103.69,775.683 1103.32,777.549L1100.94,787.448C1100.58,789.271 1100.61,791.454 1100.27,793.418C1100.1,794.408 1099.84,795.346 1099.42,796.178C1099.18,796.672 1099.16,797.316 1099.21,798.01C1099.34,799.95 1100.02,802.219 1100.03,803.682C1100.03,805.337 1100.12,806.878 1100.27,808.388C1100.51,810.725 1100.89,812.987 1101.3,815.473C1101.54,816.855 1102.55,818.092 1103.11,819.392C1103.3,819.824 1103.45,820.26 1103.54,820.704C1103.99,822.916 1104.47,825.185 1105.1,827.397C1105.51,828.861 1105.98,830.299 1106.53,831.678C1107.23,833.428 1108.07,835.034 1108.99,836.569C1110.43,838.995 1112.05,841.246 1113.62,843.593C1113.83,843.906 1114,844.245 1114.14,844.603C1114.54,845.628 1114.63,846.852 1115.22,847.74C1116.06,848.993 1117.93,850.854 1118.92,852.395C1120.76,848.154 1122.6,843.913 1124.44,839.672C1131.93,822.386 1139.38,805.081 1146.19,787.508C1146.39,786.993 1146.93,786.712 1147.45,786.829C1147.11,786.632 1146.76,786.465 1146.37,786.333C1144.87,785.755 1142.66,786.764 1141.69,786.983C1140.63,787.223 1140.16,786.673 1140.13,786.22C1140.08,785.775 1140.41,785.376 1140.85,785.33C1140.94,785.321 1141.03,785.327 1141.12,785.348C1141.25,785.091 1142.13,784.963 1142.89,784.683C1144.19,784.201 1145.79,783.906 1147.05,784.289C1148.39,784.723 1149.52,785.476 1150.51,786.407C1151.84,787.646 1152.94,789.22 1154.09,790.722C1157.37,795.076 1160.33,799.884 1163.52,804.513C1164.86,806.451 1166.25,808.358 1167.71,810.185C1168.03,810.574 1168.42,810.935 1168.84,811.282C1169.94,812.186 1171.25,812.997 1172.26,813.834C1174.95,816.064 1177.57,818.399 1180.27,820.598C1182.06,822.052 1183.88,823.446 1185.78,824.707C1188.96,826.817 1192.73,828.279 1196.13,830.211C1197.03,830.723 1197.9,831.267 1198.73,831.86C1202.7,834.713 1207.66,838.473 1212.81,841.115C1216.13,842.821 1219.52,844.081 1222.8,844.193C1222.84,844.16 1222.89,844.131 1222.94,844.107C1223.93,843.609 1225.15,843.378 1226.46,843.325C1229.01,843.22 1231.94,843.808 1234.08,843.786C1236.65,843.77 1239.33,843.457 1242,843.003C1244.69,842.544 1247.36,841.94 1249.86,841.308C1253.82,840.312 1257.59,838.768 1261.25,836.992C1266.86,834.278 1272.23,831.021 1277.7,828.278C1278.32,827.972 1278.86,827.492 1279.37,826.94C1280.72,825.492 1281.82,823.565 1282.94,822.262C1284.5,820.441 1286.26,818.589 1288.04,816.795C1288.99,815.847 1289.87,814.851 1290.85,814.011C1291.11,813.791 1291.39,813.617 1291.65,813.419C1291.77,813.299 1291.92,813.218 1292.07,813.176L1292.85,811.301C1293.62,809.977 1294.17,808.37 1294.63,806.682C1295.31,804.147 1295.74,801.423 1296.13,799.083C1296.69,795.708 1296.79,791.768 1296.55,787.852C1296.31,783.907 1295.73,779.986 1294.9,776.689C1294.49,775.061 1293.72,773.406 1292.81,771.778C1291.42,769.258 1289.7,766.805 1288.38,764.619C1287.35,762.905 1285.67,759.701 1283.63,757.336C1282.39,755.895 1281.05,754.719 1279.59,754.721C1279.39,754.721 1279.2,754.67 1279.04,754.58C1279.08,755.029 1279.08,755.459 1279.12,755.609C1279.52,757.105 1280.1,758.824 1280.43,760.522C1280.68,761.781 1280.79,763.03 1280.64,764.187C1280,768.815 1279.55,773.188 1278.37,777.456C1277.58,780.297 1276.46,783.088 1274.78,785.88C1273.17,788.566 1270.99,791.74 1268.42,794.245C1266.57,796.037 1264.52,797.488 1262.33,798.225C1261.13,798.629 1259.74,798.711 1258.31,798.608C1256.37,798.467 1254.36,797.98 1252.8,797.601C1251.8,797.358 1250.65,797.757 1249.59,797.76C1249.19,797.761 1248.81,797.722 1248.43,797.632C1247.81,797.482 1247.1,797.23 1246.33,796.923C1244.52,796.197 1242.39,795.156 1240.68,794.582C1240.67,794.615 1240.63,794.592 1240.59,794.55C1240.52,794.526 1240.44,794.503 1240.37,794.481C1240.06,794.384 1239.76,794.351 1239.5,794.28C1239.03,794.312 1238.58,794.367 1238.48,794.312C1237.34,793.658 1236.45,792.766 1235.46,792.017C1235.11,791.745 1234.73,791.498 1234.31,791.299C1232.42,790.354 1230.78,789.117 1229.26,787.728C1227.1,785.747 1225.18,783.454 1223.06,781.329C1221.07,779.335 1219.28,777.16 1217.57,774.914C1215.04,771.576 1212.71,768.081 1210.27,764.804C1208.84,762.897 1207.18,761.083 1205.39,759.362C1202.71,756.788 1199.75,754.421 1196.87,752.259C1194.46,750.454 1192.56,748.017 1190.37,746.084C1189.84,745.619 1189.29,745.184 1188.71,744.8L1179.46,738.538C1178.5,737.899 1177.62,736.695 1176.67,735.824C1176.36,735.539 1176.04,735.292 1175.69,735.176C1175.3,735.047 1174.93,734.887 1174.57,734.708C1173.33,734.084 1172.29,733.181 1170.98,732.745C1170.02,732.429 1169.02,732.198 1168,732.004C1165.54,731.538 1162.97,731.286 1160.58,730.695C1159.59,730.447 1158.52,730.283 1157.44,730.18C1156.36,730.077 1155.26,730.036 1154.21,730.038C1153.92,730.034 1152.82,730.123 1152.16,730.023ZM753.32,769.39C752.79,769.451 749.87,770.475 749.651,770.557C748.916,770.853 748.088,771.161 747.297,771.561C746.738,771.843 746.197,772.17 745.71,772.561C743.463,774.366 741.222,776.213 739.274,778.332C737.949,779.773 736.758,781.339 735.785,783.098C733.709,786.85 731.302,791.15 729.504,795.547C728.262,798.587 727.31,801.675 726.941,804.666L725.517,819.838C725.138,823.26 725.854,827.719 727.824,831.114C729.239,833.553 731.293,835.445 734.01,836.128C735.794,836.576 737.5,836.161 739.1,835.236C742.123,833.488 744.754,829.789 746.783,827.768C747.406,827.148 747.909,826.457 748.345,825.722C749.246,824.205 749.842,822.486 750.761,820.887C751.285,819.975 752.184,818.869 752.796,817.777C753.136,817.171 753.393,816.564 753.509,815.989L755.767,802.409C756.308,799.741 756.804,797.025 757.25,794.293C757.693,791.578 758.086,788.847 758.43,786.13C758.695,783.984 758.929,781.278 758.733,778.757C758.587,776.891 758.204,775.124 757.487,773.719C757.003,772.775 756.753,771.638 756.135,770.785C755.785,770.302 755.342,769.887 754.741,769.594C754.333,769.395 753.845,769.33 753.32,769.39ZM1177.53,821.587C1177.66,822.133 1177.34,823.563 1177.27,823.781C1176.92,824.819 1176.5,825.737 1176.22,826.706C1176.1,827.108 1176.02,827.52 1175.97,827.958C1177.4,828.336 1178.73,828.731 1180.03,829.247C1181.03,829.643 1186.33,831.605 1186.87,831.909C1187.18,832.087 1187.5,832.265 1187.77,832.362C1188.11,831.793 1188.51,831.202 1188.66,830.871C1188.76,830.67 1189.01,830.034 1189.21,829.552C1187.53,828.709 1185.88,827.839 1184.37,826.826C1182.4,825.511 1180.52,824.06 1178.68,822.545C1178.3,822.228 1177.91,821.909 1177.53,821.587ZM1204.83,728.546C1204.1,729.975 1203.25,731.976 1203.07,732.643C1202.62,734.202 1202,735.803 1201.29,737.394C1200.26,739.707 1199.06,741.998 1198.01,744.099C1197.53,745.059 1197.25,746.444 1196.75,747.583C1196.54,748.078 1196.28,748.531 1195.97,748.912C1196.63,749.547 1197.26,750.237 1198.04,750.703C1199.59,751.627 1204.07,753.915 1204.49,754.336C1204.81,754.662 1207.81,755.596 1208.61,755.901L1216.5,758.543C1217.45,758.836 1218.52,759.641 1219.53,760.188C1219.86,760.367 1220.17,760.522 1220.47,760.553C1221.53,760.686 1224.27,760.883 1226.21,761.45C1226.61,761.564 1226.97,761.699 1227.29,761.853C1227.41,761.391 1227.6,760.909 1227.85,760.424C1228.68,758.775 1230.16,757.064 1230.93,755.836C1231.39,755.106 1231.77,753.014 1232.23,751.882C1231.62,751.712 1230.99,751.43 1230.35,751.065C1228.43,749.96 1226.46,748.096 1225.13,747.093L1221.75,745.664C1220.98,745.131 1217.01,744.151 1215.89,743.578C1215.88,743.572 1215.86,743.566 1215.85,743.559C1215.78,743.57 1215.7,743.573 1215.61,743.567C1215.15,743.567 1214.78,743.193 1214.78,742.733C1214.78,742.502 1214.88,742.292 1215.03,742.141L1215.03,742.124C1215.06,742.091 1215.06,742.1 1215.09,742.077L1215.22,742.001C1215.21,741.736 1215.08,741.283 1215.1,741.071C1215.13,740.645 1215.3,740.347 1215.45,740.192C1215.7,739.938 1215.89,739.654 1216.04,739.355C1216.49,738.443 1216.69,737.418 1217.21,736.48L1218.15,734.532C1218.18,734.457 1218.21,734.174 1218.27,733.953C1217.56,733.745 1216.42,733.686 1216.21,733.578L1214.45,732.076L1208.71,729.968C1208.16,729.721 1206.15,729.05 1205.41,728.785C1205.28,728.741 1205.17,728.695 1205.07,728.647C1204.98,728.62 1204.9,728.586 1204.83,728.546ZM1215.17,742.028L1215.15,742.042L1215.03,742.141C1215.02,742.164 1215.04,742.184 1215.09,742.198C1215.19,742.227 1215.22,742.144 1215.22,742.01L1215.17,742.028ZM1215.62,702.916C1215.62,702.916 1214.52,703.858 1214.41,703.979C1214.06,704.392 1213.77,704.972 1213.4,705.435C1212.5,706.569 1211.72,708.101 1211.36,709.71C1211.02,711.223 1211.04,712.81 1211.73,714.177C1212.2,715.116 1212.72,715.847 1213.3,716.482C1214.25,717.527 1215.34,718.324 1216.63,719.349L1219.2,722.022C1220.2,723.01 1221.52,723.8 1222.95,724.431C1225.15,725.396 1227.61,725.983 1229.65,726.271C1230.18,726.346 1230.67,726.312 1231.15,726.224C1232.53,725.97 1233.8,725.322 1235.2,725.09C1236.39,724.895 1237.59,724.575 1238.68,724.057C1239.73,723.564 1240.68,722.89 1241.46,721.964C1242.21,721.066 1242.64,720.196 1242.88,719.308C1243.29,717.789 1243.18,716.225 1243.18,714.436L1243.37,711.776C1243.13,711.181 1242.63,710.506 1242.07,709.84C1241.16,708.783 1240.08,707.759 1239.38,707.073C1239.02,706.715 1238.56,706.463 1238.07,706.248C1236.65,705.63 1234.99,705.281 1233.87,704.448C1232.85,703.694 1231.7,702.988 1230.48,702.425C1229.3,701.884 1228.06,701.477 1226.8,701.321C1225.64,701.176 1224.36,701.032 1223.1,700.992C1222.29,700.966 1221.48,700.983 1220.72,701.076C1219.25,701.257 1217.92,702.334 1216.56,702.735C1216.25,702.827 1215.94,702.89 1215.62,702.916ZM1222.71,714.314C1222.61,715.085 1223.07,716.437 1223.21,716.586C1223.51,716.983 1223.8,717.172 1224.05,717.293C1224.54,717.532 1224.95,717.263 1225.94,717.408C1227.39,717.62 1228.59,718.29 1229.82,718.409C1230.82,718.505 1231.84,718.317 1232.96,717.474C1233.28,717.235 1233.8,716.903 1234.14,716.53C1234.41,716.225 1234.59,715.886 1234.64,715.547C1234.76,714.874 1234.44,713.623 1233.85,712.352C1233.1,710.744 1231.98,709.092 1231.28,708.573C1231.05,708.401 1230.78,708.268 1230.49,708.167C1229.82,707.934 1226.12,705.671 1226.12,705.671C1225.49,705.362 1225.04,705.539 1224.7,706.031C1224.51,706.311 1224.38,706.95 1224.37,707.664C1224.36,708.216 1224.47,708.836 1224.37,709.021C1223.82,710.03 1222.93,712.683 1222.71,714.314ZM1232.44,664.619C1232.04,664.664 1231.81,664.911 1231.65,665.252C1231.08,666.473 1231.09,668.49 1230.41,670.158C1229.17,673.053 1227.77,677.357 1225.95,680.844C1225.36,681.979 1224.72,683.029 1224.03,683.928C1224.04,683.976 1224.04,684.024 1224.04,684.073C1225.17,684.66 1227.04,685.399 1227.43,685.523C1229.13,686.06 1231.25,687.326 1233.15,688.157C1233.69,688.391 1234.19,688.603 1234.67,688.72C1235.28,687.188 1236.8,684.483 1237.22,683.769C1237.44,683.414 1238.02,682.203 1238.3,681.763C1239.11,680.527 1239.95,682.358 1239.87,682.482C1240.97,683.349 1244.18,684.832 1244.94,684.83C1245.11,684.83 1246.33,684.825 1246.56,685.206C1246.8,685.588 1246.67,686.087 1246.29,686.32C1245.62,686.742 1244.76,688.51 1243.97,690.299C1243.3,691.813 1242.7,693.364 1242.5,694.277C1244.09,695.346 1246.18,696.667 1248.22,697.669C1249.59,698.338 1250.92,698.89 1252.09,698.992C1252.4,698.652 1252.6,698.213 1252.76,697.736C1253.23,696.323 1253.32,694.588 1253.73,693.321C1254.65,690.533 1257.64,685.679 1259.12,682.217C1259.43,681.482 1259.68,680.823 1259.8,680.277C1259.11,679.591 1258.29,679.083 1257.42,678.616C1254.75,677.173 1251.64,676.271 1249.73,674.422C1249.67,674.49 1249.62,674.563 1249.58,674.64C1248.86,676.011 1248.01,678.565 1247.49,679.625C1247.07,680.499 1246.33,680.608 1246.19,680.559C1246.15,680.545 1245.02,680.432 1244.43,680.189C1243.24,679.701 1241.79,678.584 1240.6,677.831C1240.09,677.512 1238.48,676.142 1238.5,676.075C1237.99,675.652 1238.02,674.794 1238.66,673.637C1239.5,672.136 1241.43,669.877 1242.42,668.457C1242.46,668.399 1242.49,668.334 1242.52,668.268C1241.24,668.452 1240.01,668.249 1238.82,667.824C1236.6,667.03 1234.57,665.346 1232.44,664.619Z"/>
    </g>
</svg>
